M48
; DRILL file {KiCad 9.0.5} date 2026-01-18T13:13:52+0700
; FORMAT={-:-/ absolute / metric / decimal}
; #@! TF.CreationDate,2026-01-18T13:13:52+07:00
; #@! TF.GenerationSoftware,Kicad,Pcbnew,9.0.5
; #@! TF.FileFunction,Plated,1,2,PTH
FMAT,2
METRIC
; #@! TA.AperFunction,Plated,PTH,ViaDrill
T1C0.300
; #@! TA.AperFunction,Plated,PTH,ComponentDrill
T2C0.300
; #@! TA.AperFunction,Plated,PTH,ComponentDrill
T3C0.500
; #@! TA.AperFunction,Plated,PTH,ComponentDrill
T4C0.600
; #@! TA.AperFunction,Plated,PTH,ComponentDrill
T5C1.000
; #@! TA.AperFunction,Plated,PTH,ComponentDrill
T6C2.600
; #@! TA.AperFunction,Plated,PTH,ComponentDrill
T7C3.200
%
G90
G05
T1
X29.06Y-26.656
X29.06Y-31.656
X29.06Y-36.656
X29.06Y-41.656
X29.06Y-46.656
X29.06Y-51.656
X29.06Y-56.656
X29.06Y-146.656
X32.0Y-101.43
X32.3Y-59.125
X32.3Y-60.05
X32.3Y-60.975
X32.3Y-61.9
X32.3Y-62.825
X33.69Y-139.55
X33.88Y-63.37
X34.06Y-26.656
X34.06Y-31.656
X34.06Y-36.656
X34.06Y-51.656
X34.06Y-56.656
X34.06Y-71.656
X34.06Y-91.656
X34.06Y-106.656
X34.06Y-111.656
X34.06Y-126.656
X34.06Y-131.656
X34.06Y-146.656
X34.35Y-68.75
X35.55Y-68.75
X36.56Y-82.39
X36.56Y-120.5
X36.75Y-68.75
X37.04Y-57.79
X37.1Y-95.88
X37.2Y-133.97
X37.61Y-87.17
X37.72Y-125.29
X39.06Y-26.656
X39.06Y-31.656
X39.06Y-41.656
X39.06Y-51.656
X39.06Y-56.656
X39.06Y-76.656
X39.06Y-91.656
X39.06Y-106.656
X39.06Y-111.656
X39.06Y-116.656
X39.06Y-126.656
X39.06Y-146.656
X39.44Y-141.33
X39.51Y-122.28
X39.59Y-65.12
X39.6Y-103.23
X39.77Y-84.17
X42.05Y-69.15
X42.05Y-70.01
X43.85Y-99.5
X43.9Y-97.6
X43.93Y-74.46
X44.06Y-26.656
X44.06Y-31.656
X44.06Y-51.656
X44.06Y-56.656
X44.06Y-91.656
X44.06Y-106.656
X44.06Y-111.656
X44.06Y-116.656
X44.06Y-126.656
X44.06Y-136.656
X44.06Y-146.656
X44.325Y-59.375
X44.325Y-60.575
X44.325Y-61.775
X44.35Y-66.575
X44.35Y-67.775
X46.2Y-99.5
X46.25Y-97.6
X46.3Y-44.15
X46.96Y-63.37
X47.525Y-35.8
X48.375Y-35.775
X48.77Y-66.21
X49.06Y-26.656
X49.06Y-56.656
X49.06Y-71.656
X49.06Y-76.656
X49.06Y-91.656
X49.06Y-111.656
X49.06Y-126.656
X49.06Y-136.656
X49.06Y-146.656
X49.25Y-35.75
X50.45Y-85.68
X50.59Y-66.62
X50.675Y-44.125
X50.72Y-104.74
X50.74Y-123.78
X52.15Y-43.15
X52.78Y-101.43
X52.83Y-63.37
X53.15Y-43.15
X54.06Y-31.656
X54.06Y-46.656
X54.06Y-51.656
X54.06Y-56.656
X54.06Y-91.656
X54.06Y-106.656
X54.06Y-136.656
X54.06Y-146.656
X54.15Y-43.2
X55.15Y-43.225
X56.27Y-82.39
X56.28Y-120.5
X56.33Y-57.79
X56.35Y-95.88
X56.52Y-125.29
X56.71Y-87.17
X57.29Y-75.9
X58.54Y-42.16
X58.57Y-40.81
X58.6Y-65.14
X58.65Y-84.2
X58.66Y-122.28
X58.81Y-103.24
X59.06Y-31.656
X59.06Y-46.656
X59.06Y-51.656
X59.06Y-56.656
X59.06Y-71.656
X59.06Y-91.656
X59.06Y-106.656
X59.06Y-126.656
X59.06Y-146.656
X60.23Y-142.83
X62.22Y-139.55
X62.8Y-99.55
X62.85Y-97.65
X64.06Y-51.656
X64.06Y-56.656
X64.06Y-61.656
X64.06Y-91.656
X64.06Y-116.656
X64.06Y-126.656
X64.06Y-146.656
X64.2Y-39.29
X64.92Y-44.18
X65.7Y-99.65
X65.75Y-97.75
X65.89Y-133.97
X66.0Y-36.7
X66.15Y-32.025
X66.714Y-32.588
X66.8Y-37.5
X67.0Y-61.9
X67.1Y-34.1
X67.21Y-31.015
X67.275Y-33.05
X67.37Y-39.29
X67.746Y-31.551
X67.8Y-34.7
X68.02Y-141.33
X68.26Y-32.065
X69.06Y-51.656
X69.06Y-56.656
X69.06Y-71.656
X69.06Y-91.656
X69.06Y-126.656
X69.06Y-146.656
X69.061Y-41.61
X69.27Y-68.41
X69.67Y-85.7
X69.72Y-123.78
X69.77Y-66.61
X69.78Y-104.71
X69.87Y-39.29
X70.21Y-43.76
X70.98Y-36.73
X71.76Y-101.43
X71.9Y-57.79
X71.95Y-63.37
X73.0Y-42.4
X73.25Y-35.175
X73.25Y-36.725
X74.06Y-51.656
X74.06Y-91.656
X74.06Y-111.656
X74.06Y-136.656
X74.06Y-146.656
X74.1Y-31.925
X74.9Y-31.9
X75.23Y-71.24
X75.275Y-27.1
X75.35Y-95.88
X75.37Y-120.5
X75.39Y-82.39
X75.43Y-57.79
X75.58Y-125.29
X75.675Y-31.9
X75.73Y-87.17
X76.44Y-100.63
X77.125Y-36.425
X77.69Y-122.28
X77.7Y-42.85
X77.7Y-65.13
X78.035Y-39.99
X78.1Y-83.97
X78.123Y-42.258
X78.617Y-27.1
X78.634Y-41.741
X79.01Y-41.0
X79.06Y-56.656
X79.06Y-76.656
X79.06Y-91.656
X79.06Y-111.656
X79.06Y-126.656
X79.06Y-136.656
X79.06Y-146.656
X79.32Y-66.33
X79.61Y-39.29
X80.3Y-103.0
X80.52Y-39.29
X80.9Y-110.7
X81.09Y-120.5
X81.42Y-38.37
X81.8Y-45.6
X81.958Y-27.1
X82.1Y-41.625
X82.1Y-43.4
X82.46Y-79.88
X82.58Y-88.18
X83.2Y-34.0
X83.35Y-124.49
X83.58Y-39.29
X84.06Y-121.656
X84.06Y-136.656
X84.06Y-141.656
X84.06Y-146.656
X84.1Y-33.2
X84.2Y-59.3
X84.2Y-60.7
X84.2Y-62.1
X84.5Y-130.73
X84.7Y-73.6
X84.95Y-38.59
X85.3Y-27.1
X85.6Y-74.5
X86.05Y-39.29
X86.3Y-50.92
X86.9Y-50.16
X87.0Y-33.3
X87.5Y-49.5
X88.08Y-104.56
X88.6Y-33.3
X88.642Y-27.1
X88.67Y-66.63
X88.75Y-133.31
X88.76Y-95.2
X89.06Y-86.656
X89.06Y-96.656
X89.06Y-101.656
X89.06Y-136.656
X89.06Y-141.656
X89.06Y-146.656
X89.9Y-37.4
X90.0Y-33.4
X90.06Y-84.68
X90.1Y-61.6
X90.9Y-34.3
X91.0Y-36.3
X91.05Y-63.37
X91.3Y-48.5
X91.395Y-42.705
X91.7Y-35.4
X91.8Y-43.491
X91.983Y-27.1
X92.857Y-43.359
X92.86Y-45.33
X94.06Y-31.656
X94.06Y-76.656
X94.06Y-86.656
X94.06Y-101.656
X94.06Y-116.656
X94.06Y-136.656
X94.06Y-141.656
X94.06Y-146.656
X94.327Y-43.359
X94.33Y-45.33
X94.38Y-91.96
X94.43Y-130.03
X94.55Y-57.79
X94.61Y-71.84
X94.63Y-134.8
X95.207Y-41.12
X95.207Y-42.04
X95.325Y-27.1
X95.807Y-43.359
X95.81Y-45.33
X96.54Y-40.96
X96.72Y-93.71
X96.81Y-65.13
X96.82Y-131.81
X97.287Y-43.359
X97.29Y-45.33
X97.8Y-66.7
X98.49Y-43.36
X98.49Y-45.38
X99.06Y-136.656
X99.06Y-146.656
X99.08Y-33.14
X99.34Y-51.74
X99.5Y-43.4
X99.5Y-45.4
X99.867Y-66.7
X100.2Y-51.8
X100.34Y-130.73
X100.36Y-129.33
X100.5Y-33.58
X101.66Y-93.78
X101.933Y-66.7
X103.32Y-33.69
X103.33Y-27.09
X104.0Y-66.7
X104.06Y-46.656
X104.06Y-61.656
X104.06Y-76.656
X104.06Y-111.656
X104.06Y-116.656
X104.06Y-126.656
X104.06Y-141.656
X104.06Y-146.656
X105.31Y-48.95
X105.544Y-36.508
X105.68Y-41.4
X106.295Y-33.655
X107.1Y-41.05
X107.42Y-42.95
X107.5Y-37.15
X108.1Y-81.65
X108.3Y-33.15
X108.47Y-65.91
X108.9Y-84.9
X109.06Y-26.656
X109.06Y-106.656
X109.06Y-111.656
X109.06Y-116.656
X109.06Y-126.656
X109.06Y-131.656
X109.06Y-141.656
X109.06Y-146.656
X109.082Y-73.628
X109.5Y-88.8
X109.679Y-74.252
X109.8Y-136.9
X109.83Y-48.81
X110.05Y-38.21
X110.11Y-39.29
X110.279Y-74.879
X110.39Y-88.8
X110.875Y-75.498
X111.475Y-76.125
X111.66Y-41.05
X112.09Y-44.31
X112.177Y-76.786
X112.35Y-81.13
X112.726Y-136.9
X113.48Y-71.84
X113.8Y-66.8
X114.06Y-26.656
X114.06Y-31.656
X114.06Y-36.656
X114.06Y-61.656
X114.06Y-131.656
X114.06Y-141.656
X114.06Y-146.656
X114.19Y-71.24
X114.73Y-41.92
X114.75Y-44.31
X114.87Y-70.61
X115.0Y-66.8
X115.04Y-54.71
X115.55Y-70.01
X115.652Y-136.912
X116.3Y-69.15
X117.11Y-68.41
X117.38Y-66.62
X117.98Y-68.42
X118.4Y-44.31
X118.8Y-68.4
X119.06Y-26.656
X119.06Y-31.656
X119.06Y-36.656
X119.06Y-61.656
X119.06Y-116.656
X119.06Y-146.656
X119.5Y-86.1
X119.61Y-63.37
X119.8Y-142.83
X119.9Y-69.4
X120.4Y-85.3
X120.5Y-68.4
X120.8Y-135.4
X121.0Y-86.1
X121.05Y-44.31
X121.12Y-72.1
X121.14Y-100.67
X121.15Y-102.27
X121.65Y-139.57
X121.84Y-39.29
X122.05Y-85.7
X122.98Y-57.79
X123.06Y-44.31
X124.06Y-26.656
X124.06Y-31.656
X124.06Y-36.656
X124.06Y-46.656
X124.06Y-61.656
X124.06Y-71.656
X124.06Y-106.656
X124.06Y-111.656
X124.06Y-116.656
X124.06Y-146.656
X124.1Y-67.7
X124.56Y-104.75
X125.26Y-41.31
X125.26Y-65.13
X125.36Y-133.99
X126.27Y-54.71
X126.54Y-101.47
X127.58Y-141.33
X127.74Y-82.39
X127.99Y-87.19
X128.64Y-51.92
X128.64Y-54.32
X129.06Y-26.656
X129.06Y-31.656
X129.06Y-36.656
X129.06Y-66.656
X129.06Y-71.656
X129.06Y-106.656
X129.06Y-111.656
X129.06Y-146.656
X130.13Y-84.18
X130.21Y-95.89
X130.51Y-126.09
X131.38Y-44.31
X132.44Y-103.23
X132.81Y-44.31
X133.496Y-73.639
X133.496Y-74.266
X133.496Y-74.893
X133.496Y-75.519
X133.496Y-76.146
X133.5Y-76.808
X134.06Y-26.656
X134.06Y-31.656
X134.06Y-36.656
X134.06Y-66.656
X134.06Y-71.656
X134.06Y-106.656
X134.06Y-111.656
X134.06Y-136.656
X134.06Y-146.656
X134.36Y-44.31
X134.88Y-120.5
X135.17Y-125.29
X135.72Y-91.47
X136.39Y-66.62
X136.401Y-92.716
X136.9Y-93.352
X137.23Y-122.3
X137.4Y-93.979
X138.2Y-94.65
X138.31Y-63.37
X138.804Y-95.238
X139.06Y-26.656
X139.06Y-31.656
X139.06Y-46.656
X139.06Y-71.656
X139.06Y-106.656
X139.06Y-111.656
X139.06Y-126.656
X139.06Y-136.656
X139.06Y-146.656
X140.09Y-54.6
X141.25Y-42.81
X141.89Y-57.79
X143.6Y-142.83
X144.06Y-26.656
X144.06Y-31.656
X144.06Y-46.656
X144.06Y-71.656
X144.06Y-76.656
X144.06Y-106.656
X144.06Y-116.656
X144.06Y-146.656
X144.28Y-65.13
X145.52Y-139.57
X145.68Y-39.29
X145.7Y-85.67
X146.84Y-44.31
X149.06Y-26.656
X149.06Y-46.656
X149.06Y-61.656
X149.06Y-66.656
X149.06Y-71.656
X149.06Y-106.656
X149.06Y-111.656
X149.06Y-116.656
X149.06Y-126.656
X149.06Y-131.656
X149.06Y-146.656
X149.16Y-133.99
X149.17Y-41.32
X150.8Y-104.74
X151.35Y-141.33
X151.48Y-82.39
X151.74Y-87.2
X152.68Y-101.47
X154.06Y-26.656
X154.06Y-36.656
X154.06Y-46.656
X154.06Y-71.656
X154.06Y-76.656
X154.06Y-106.656
X154.06Y-111.656
X154.06Y-116.656
X154.06Y-126.656
X154.06Y-131.656
X154.06Y-146.656
X154.07Y-84.17
X155.44Y-66.63
X156.29Y-95.89
X157.35Y-63.37
X158.71Y-103.23
X159.06Y-26.656
X159.06Y-46.656
X159.06Y-71.656
X159.06Y-76.656
X159.06Y-106.656
X159.06Y-111.656
X159.06Y-126.656
X159.06Y-131.656
X159.06Y-136.656
X159.06Y-146.656
X159.96Y-123.78
X160.43Y-42.82
X160.99Y-57.79
X163.075Y-97.312
X163.075Y-98.575
X163.075Y-99.837
X163.37Y-65.13
X163.4Y-86.1
X164.06Y-26.656
X164.06Y-46.656
X164.06Y-66.656
X164.06Y-71.656
X164.06Y-76.656
X164.06Y-106.656
X164.06Y-111.656
X164.06Y-126.656
X164.06Y-131.656
X164.06Y-136.656
X164.06Y-146.656
X164.72Y-39.29
X164.93Y-85.67
X165.11Y-54.68
X165.91Y-120.5
X165.92Y-44.31
X166.03Y-125.29
X167.34Y-142.83
X168.2Y-41.32
X168.25Y-122.29
X169.06Y-26.656
X169.06Y-46.656
X169.06Y-71.656
X169.06Y-111.656
X169.06Y-126.656
X169.06Y-131.656
X169.06Y-136.656
X169.06Y-146.656
X169.36Y-139.57
X169.69Y-104.73
X170.193Y-91.472
X170.193Y-92.098
X170.193Y-92.725
X170.193Y-93.352
X170.193Y-93.979
X170.193Y-94.606
X170.193Y-95.233
X170.58Y-82.39
X170.98Y-87.2
X170.98Y-87.2
X171.4Y-97.4
X171.68Y-101.47
X173.0Y-133.99
X173.09Y-84.18
X174.06Y-26.656
X174.06Y-31.656
X174.06Y-46.656
X174.06Y-106.656
X174.06Y-116.656
X174.06Y-126.656
X174.06Y-131.656
X174.06Y-136.656
X174.06Y-146.656
X174.38Y-66.63
X175.23Y-141.33
X175.28Y-95.89
X175.96Y-100.25
X176.34Y-63.37
X176.687Y-95.84
X177.41Y-90.05
X177.41Y-90.872
X177.42Y-89.23
X177.7Y-103.23
X178.15Y-95.89
X179.06Y-26.656
X179.06Y-71.656
X179.06Y-106.656
X179.06Y-126.656
X179.06Y-131.656
X179.06Y-136.656
X179.06Y-146.656
X179.35Y-123.78
X179.37Y-42.82
X180.12Y-57.79
X180.416Y-53.796
X180.42Y-51.9
X181.276Y-53.796
X181.28Y-51.9
X182.126Y-53.806
X182.13Y-51.91
X182.36Y-65.13
X182.976Y-53.806
X182.98Y-51.91
X183.7Y-39.29
X183.99Y-85.68
X184.06Y-26.656
X184.06Y-46.656
X184.06Y-76.656
X184.06Y-111.656
X184.06Y-131.656
X184.06Y-136.656
X184.06Y-146.656
X184.93Y-44.31
X184.95Y-120.5
X185.18Y-125.29
X185.6Y-81.4
X187.27Y-41.32
X187.29Y-122.28
X188.74Y-104.74
X189.06Y-26.656
X189.06Y-46.656
X189.06Y-66.656
X189.06Y-71.656
X189.06Y-106.656
X189.06Y-126.656
X189.06Y-131.656
X189.06Y-136.656
X189.06Y-146.656
X189.125Y-59.2
X189.125Y-60.4
X189.125Y-61.6
X189.77Y-82.39
X189.77Y-87.2
X190.8Y-101.47
X192.16Y-84.18
X193.4Y-83.3
X193.6Y-66.6
X194.06Y-26.656
X194.06Y-36.656
X194.06Y-46.656
X194.06Y-71.656
X194.06Y-106.656
X194.06Y-116.656
X194.06Y-131.656
X194.06Y-136.656
X194.06Y-146.656
X194.35Y-95.89
X195.49Y-63.37
X196.68Y-103.23
X198.39Y-123.78
X198.43Y-42.81
X199.06Y-26.656
X199.06Y-36.656
X199.06Y-46.656
X199.06Y-71.656
X199.06Y-106.656
X199.06Y-116.656
X199.06Y-126.656
X199.06Y-131.656
X199.06Y-136.656
X199.06Y-146.656
X199.18Y-57.79
X201.125Y-97.312
X201.125Y-98.575
X201.125Y-99.837
X201.5Y-65.13
X202.79Y-39.29
X203.08Y-85.7
X203.93Y-44.31
X203.99Y-120.5
X204.06Y-26.656
X204.06Y-31.656
X204.06Y-46.656
X204.06Y-66.656
X204.06Y-76.656
X204.06Y-106.656
X204.06Y-111.656
X204.06Y-116.656
X204.06Y-131.656
X204.06Y-136.656
X204.06Y-146.656
X204.18Y-125.29
X206.24Y-122.28
X206.33Y-41.32
X207.87Y-104.73
X208.77Y-82.39
X208.89Y-87.2
X209.06Y-26.656
X209.06Y-31.656
X209.06Y-36.656
X209.06Y-46.656
X209.06Y-61.656
X209.06Y-66.656
X209.06Y-71.656
X209.06Y-76.656
X209.06Y-106.656
X209.06Y-126.656
X209.06Y-131.656
X209.06Y-136.656
X209.06Y-146.656
X209.73Y-101.47
X210.35Y-114.225
X210.35Y-115.425
X210.35Y-116.625
X210.525Y-128.025
X210.525Y-129.225
X210.525Y-130.425
X211.12Y-84.17
X212.59Y-66.62
X212.625Y-128.025
X212.625Y-129.225
X212.625Y-130.425
X213.45Y-95.89
X213.93Y-92.072
X214.06Y-26.656
X214.06Y-31.656
X214.06Y-36.656
X214.06Y-61.656
X214.06Y-71.656
X214.06Y-76.656
X214.06Y-106.656
X214.06Y-111.656
X214.06Y-131.656
X214.06Y-136.656
X214.06Y-146.656
X214.575Y-114.25
X214.575Y-115.45
X214.575Y-116.65
X214.63Y-63.37
X215.75Y-103.23
X217.36Y-123.77
X218.28Y-57.79
X219.06Y-26.656
X219.06Y-31.656
X219.06Y-36.656
X219.06Y-46.656
X219.06Y-61.656
X219.06Y-76.656
X219.06Y-106.656
X219.06Y-116.656
X219.06Y-131.656
X219.06Y-136.656
X219.06Y-146.656
X220.57Y-65.15
X221.98Y-56.21
X222.0Y-55.4
X222.04Y-85.69
X222.21Y-42.81
X223.07Y-120.5
X223.19Y-125.29
X224.06Y-26.656
X224.06Y-31.656
X224.06Y-46.656
X224.06Y-71.656
X224.06Y-76.656
X224.06Y-106.656
X224.06Y-111.656
X224.06Y-116.656
X224.06Y-136.656
X224.06Y-146.656
X224.1Y-67.6
X225.31Y-122.28
X226.56Y-39.29
X227.05Y-104.73
X227.74Y-44.31
X227.82Y-82.39
X228.09Y-87.2
X228.86Y-101.47
X229.06Y-26.656
X229.06Y-31.656
X229.06Y-36.656
X229.06Y-46.656
X229.06Y-56.656
X229.06Y-66.656
X229.06Y-76.656
X229.06Y-106.656
X229.06Y-111.656
X229.06Y-116.656
X229.06Y-136.656
X229.06Y-146.656
X230.0Y-84.18
X230.01Y-41.32
X231.63Y-66.61
X232.41Y-95.89
X233.61Y-63.37
X234.06Y-26.656
X234.06Y-31.656
X234.06Y-36.656
X234.06Y-46.656
X234.06Y-56.656
X234.06Y-71.656
X234.06Y-76.656
X234.06Y-106.656
X234.06Y-111.656
X234.06Y-131.656
X234.06Y-136.656
X234.06Y-146.656
X234.77Y-103.23
X236.47Y-123.78
X237.17Y-57.79
X238.84Y-142.83
X238.997Y-53.898
X238.998Y-51.898
X239.06Y-26.656
X239.06Y-31.656
X239.06Y-46.656
X239.06Y-61.656
X239.06Y-71.656
X239.06Y-106.656
X239.06Y-111.656
X239.06Y-126.656
X239.06Y-131.656
X239.06Y-146.656
X239.56Y-65.13
X239.887Y-53.898
X239.888Y-51.898
X240.727Y-53.918
X240.728Y-51.918
X240.75Y-139.57
X241.12Y-85.68
X241.24Y-42.81
X241.527Y-53.908
X241.528Y-51.908
X242.15Y-120.5
X242.3Y-125.29
X243.0Y-81.4
X243.0Y-88.7
X244.0Y-88.7
X244.06Y-26.656
X244.06Y-31.656
X244.06Y-76.656
X244.06Y-106.656
X244.06Y-111.656
X244.06Y-126.656
X244.06Y-131.656
X244.06Y-146.656
X244.34Y-122.28
X244.42Y-133.99
X244.9Y-88.7
X245.75Y-39.29
X245.8Y-88.7
X245.924Y-91.454
X245.924Y-92.081
X245.924Y-92.708
X245.924Y-93.335
X245.924Y-93.962
X245.924Y-94.589
X245.924Y-95.216
X246.03Y-104.73
X246.47Y-70.66
X246.48Y-68.71
X246.59Y-141.33
X246.77Y-44.31
X246.82Y-82.39
X247.17Y-87.2
X247.9Y-101.47
X248.6Y-68.6
X249.06Y-41.32
X249.06Y-26.656
X249.06Y-31.656
X249.06Y-56.656
X249.06Y-76.656
X249.06Y-106.656
X249.06Y-111.656
X249.06Y-116.656
X249.06Y-126.656
X249.06Y-131.656
X249.06Y-146.656
X249.09Y-84.18
X250.58Y-66.62
X250.6Y-68.6
X251.49Y-95.89
X251.91Y-71.54
X252.21Y-100.27
X252.23Y-95.89
X252.6Y-68.6
X252.82Y-63.37
X253.22Y-71.56
X253.25Y-90.84
X253.28Y-89.19
X253.28Y-90.01
X253.86Y-103.23
X253.99Y-95.89
X254.06Y-26.656
X254.06Y-31.656
X254.06Y-56.656
X254.06Y-106.656
X254.06Y-126.656
X254.06Y-131.656
X254.06Y-136.656
X254.06Y-146.656
X254.62Y-70.92
X254.7Y-68.6
X255.3Y-71.57
X255.44Y-123.78
X255.877Y-80.027
X255.9Y-77.8
X256.28Y-57.79
X256.3Y-73.6
X256.677Y-80.827
X256.7Y-78.6
X256.8Y-68.6
X257.477Y-81.527
X257.5Y-79.3
X258.71Y-65.13
X259.06Y-26.656
X259.06Y-31.656
X259.06Y-46.656
X259.06Y-56.656
X259.06Y-126.656
X259.06Y-131.656
X259.06Y-136.656
X259.06Y-146.656
X260.14Y-85.67
X260.28Y-42.82
X261.15Y-120.5
X261.36Y-125.29
X262.5Y-97.4
X262.5Y-100.6
X263.38Y-122.29
X264.06Y-26.656
X264.06Y-31.656
X264.06Y-46.656
X264.06Y-56.656
X264.06Y-66.656
X264.06Y-106.656
X264.06Y-126.656
X264.06Y-131.656
X264.06Y-136.656
X264.06Y-146.656
X264.4Y-97.4
X264.4Y-100.6
X264.8Y-39.29
X265.06Y-104.73
X265.86Y-44.31
X265.94Y-82.39
X266.04Y-87.2
X266.2Y-97.5
X266.2Y-98.9
X266.3Y-100.5
X266.96Y-101.47
X268.21Y-41.32
X268.28Y-84.18
X269.06Y-26.656
X269.06Y-31.656
X269.06Y-46.656
X269.06Y-56.656
X269.06Y-76.656
X269.06Y-106.656
X269.06Y-116.656
X269.06Y-126.656
X269.06Y-131.656
X269.06Y-136.656
X269.06Y-146.656
X269.73Y-66.62
X270.64Y-95.89
X271.82Y-63.37
X272.8Y-103.23
X274.06Y-26.656
X274.06Y-31.656
X274.06Y-36.656
X274.06Y-46.656
X274.06Y-76.656
X274.06Y-106.656
X274.06Y-126.656
X274.06Y-131.656
X274.06Y-136.656
X274.06Y-146.656
X274.52Y-123.79
X275.32Y-57.79
X276.5Y-67.9
X277.63Y-65.11
X279.06Y-26.656
X279.06Y-31.656
X279.06Y-46.656
X279.06Y-56.656
X279.06Y-76.656
X279.06Y-106.656
X279.06Y-126.656
X279.06Y-131.656
X279.06Y-136.656
X279.06Y-146.656
X279.27Y-85.68
X279.32Y-42.81
X280.25Y-120.5
X280.37Y-125.29
X282.39Y-122.28
X283.82Y-39.29
X284.06Y-26.656
X284.06Y-31.656
X284.06Y-46.656
X284.06Y-56.656
X284.06Y-61.656
X284.06Y-66.656
X284.06Y-106.656
X284.06Y-126.656
X284.06Y-131.656
X284.06Y-136.656
X284.06Y-146.656
X284.08Y-104.74
X284.89Y-44.31
X284.98Y-82.39
X285.15Y-87.2
X285.96Y-101.47
X287.16Y-41.32
X287.28Y-84.17
X288.71Y-66.62
X289.06Y-26.656
X289.06Y-31.656
X289.06Y-46.656
X289.06Y-56.656
X289.06Y-76.656
X289.06Y-106.656
X289.06Y-116.656
X289.06Y-126.656
X289.06Y-131.656
X289.06Y-136.656
X289.06Y-146.656
X289.69Y-95.89
X290.81Y-63.37
X291.91Y-103.23
X293.71Y-123.78
X294.06Y-26.656
X294.06Y-31.656
X294.06Y-36.656
X294.06Y-46.656
X294.06Y-76.656
X294.06Y-106.656
X294.06Y-116.656
X294.06Y-131.656
X294.06Y-136.656
X294.06Y-146.656
X294.33Y-57.79
X296.7Y-65.12
X298.294Y-53.697
X298.3Y-51.7
X298.35Y-85.67
X299.06Y-26.656
X299.06Y-66.656
X299.06Y-76.656
X299.06Y-106.656
X299.06Y-111.656
X299.06Y-116.656
X299.06Y-131.656
X299.06Y-136.656
X299.06Y-146.656
X299.094Y-53.697
X299.1Y-51.7
X299.18Y-120.5
X299.64Y-125.29
X299.894Y-53.697
X299.9Y-51.7
X300.694Y-53.697
X300.7Y-51.7
X301.494Y-53.697
X301.5Y-51.7
X301.59Y-122.28
X303.12Y-42.82
X303.12Y-104.73
X303.98Y-82.39
X304.06Y-26.656
X304.06Y-36.656
X304.06Y-46.656
X304.06Y-56.656
X304.06Y-61.656
X304.06Y-66.656
X304.06Y-76.656
X304.06Y-106.656
X304.06Y-126.656
X304.06Y-131.656
X304.06Y-136.656
X304.06Y-146.656
X304.13Y-87.2
X305.1Y-101.47
X306.36Y-84.18
X307.62Y-39.29
X307.89Y-66.65
X307.92Y-142.83
X308.71Y-44.31
X308.77Y-95.89
X309.06Y-26.656
X309.06Y-46.656
X309.06Y-56.656
X309.06Y-61.656
X309.06Y-106.656
X309.06Y-111.656
X309.06Y-116.656
X309.06Y-126.656
X309.06Y-136.656
X309.06Y-146.656
X309.82Y-139.57
X309.91Y-63.37
X310.89Y-103.23
X310.98Y-41.32
X312.6Y-123.78
X313.42Y-57.79
X313.49Y-89.69
X313.57Y-133.99
X314.06Y-26.656
X314.06Y-36.656
X314.06Y-46.656
X314.06Y-61.656
X314.06Y-71.656
X314.06Y-76.656
X314.06Y-106.656
X314.06Y-116.656
X314.06Y-126.656
X314.06Y-136.656
X314.06Y-146.656
X315.65Y-141.33
X315.69Y-65.12
X315.8Y-85.9
X317.38Y-85.68
X318.33Y-120.5
X318.56Y-125.29
X319.06Y-26.656
X319.06Y-36.656
X319.06Y-46.656
X319.06Y-56.656
X319.06Y-71.656
X319.06Y-76.656
X319.06Y-106.656
X319.06Y-111.656
X319.06Y-116.656
X319.06Y-136.656
X319.06Y-146.656
X320.3Y-58.791
X320.3Y-59.591
X320.3Y-60.391
X320.3Y-61.191
X320.57Y-122.28
X322.17Y-104.73
X322.2Y-42.82
X322.2Y-58.8
X322.2Y-59.6
X322.2Y-60.4
X322.2Y-61.2
X322.49Y-91.449
X322.49Y-92.703
X322.49Y-93.33
X322.49Y-93.957
X322.49Y-94.584
X322.49Y-95.211
X323.1Y-82.39
X323.32Y-87.2
X324.06Y-26.656
X324.06Y-36.656
X324.06Y-46.656
X324.06Y-66.656
X324.06Y-76.656
X324.06Y-111.656
X324.06Y-116.656
X324.06Y-126.656
X324.06Y-136.656
X324.06Y-146.656
X324.18Y-101.47
X324.725Y-106.4
X325.35Y-84.18
X325.65Y-106.4
X326.575Y-106.4
X326.64Y-39.29
X326.93Y-66.62
X326.98Y-142.83
X327.5Y-106.4
X327.79Y-95.89
X327.82Y-44.31
X328.45Y-100.29
X328.76Y-95.89
X328.93Y-63.37
X328.96Y-139.57
X329.06Y-26.656
X329.06Y-36.656
X329.06Y-46.656
X329.06Y-71.656
X329.06Y-106.656
X329.06Y-111.656
X329.06Y-116.656
X329.06Y-126.656
X329.06Y-146.656
X329.88Y-89.77
X329.9Y-90.58
X329.9Y-91.41
X330.02Y-41.32
X330.09Y-103.23
X330.1Y-100.1
X330.398Y-78.797
X330.55Y-95.89
X330.998Y-79.397
X331.598Y-79.997
X331.62Y-123.78
X332.1Y-77.1
X332.198Y-80.597
X332.48Y-57.79
X332.61Y-133.99
X332.7Y-77.7
X333.3Y-78.3
X333.6Y-59.3
X333.7Y-97.5
X333.7Y-98.8
X333.7Y-100.1
X333.9Y-78.9
X334.06Y-26.656
X334.06Y-36.656
X334.06Y-46.656
X334.06Y-61.656
X334.06Y-71.656
X334.06Y-126.656
X334.06Y-131.656
X334.06Y-136.656
X334.06Y-146.656
X334.63Y-141.33
X334.74Y-65.15
X336.36Y-85.69
X337.2Y-79.2
X337.2Y-80.4
X337.2Y-81.4
X337.43Y-120.5
X337.48Y-125.29
X339.0Y-97.2
X339.06Y-26.656
X339.06Y-46.656
X339.06Y-61.656
X339.06Y-66.656
X339.06Y-71.656
X339.06Y-91.656
X339.06Y-111.656
X339.06Y-116.656
X339.06Y-126.656
X339.06Y-131.656
X339.06Y-136.656
X339.06Y-146.656
X339.63Y-122.28
X340.5Y-97.2
X341.21Y-42.8
X341.21Y-104.76
X342.0Y-97.2
X342.0Y-99.0
X342.0Y-100.6
X342.16Y-82.39
X342.25Y-87.2
X343.26Y-101.47
X344.06Y-26.656
X344.06Y-46.656
X344.06Y-71.656
X344.06Y-91.656
X344.06Y-111.656
X344.06Y-116.656
X344.06Y-126.656
X344.06Y-131.656
X344.06Y-146.656
X344.42Y-84.17
X345.73Y-39.29
X345.79Y-66.63
X346.0Y-142.83
X346.9Y-95.89
X346.96Y-44.31
X347.96Y-139.57
X348.02Y-63.37
X349.06Y-26.656
X349.06Y-46.656
X349.06Y-71.656
X349.06Y-91.656
X349.06Y-116.656
X349.06Y-146.656
X349.13Y-103.23
X349.19Y-41.32
X351.54Y-57.79
X351.69Y-133.99
X353.25Y-99.45
X353.3Y-97.55
X353.75Y-141.33
X353.87Y-65.13
X354.06Y-26.656
X354.06Y-36.656
X354.06Y-46.656
X354.06Y-71.656
X354.06Y-91.656
X354.06Y-106.656
X354.06Y-131.656
X354.06Y-146.656
X355.46Y-85.69
X357.86Y-123.78
X359.06Y-26.656
X359.06Y-46.656
X359.06Y-61.656
X359.06Y-66.656
X359.06Y-71.656
X359.06Y-91.656
X359.06Y-106.656
X359.06Y-116.656
X359.06Y-131.656
X359.06Y-136.656
X359.06Y-146.656
X360.29Y-42.81
X361.2Y-82.39
X361.31Y-87.2
X363.53Y-84.18
X363.57Y-120.5
X363.73Y-125.29
X364.06Y-26.656
X364.06Y-46.656
X364.06Y-61.656
X364.06Y-66.656
X364.06Y-71.656
X364.06Y-116.656
X364.06Y-131.656
X364.06Y-146.656
X364.8Y-39.29
X365.07Y-142.83
X365.8Y-122.28
X365.86Y-44.31
X367.12Y-139.57
X368.21Y-41.32
X368.35Y-99.55
X368.4Y-97.65
X369.06Y-26.656
X369.06Y-46.656
X369.06Y-61.656
X369.06Y-66.656
X369.06Y-71.656
X369.06Y-91.656
X369.06Y-106.656
X369.06Y-116.656
X369.06Y-131.656
X369.06Y-146.656
X370.73Y-133.99
X372.18Y-104.73
X372.79Y-141.33
X374.06Y-26.656
X374.06Y-36.656
X374.06Y-71.656
X374.06Y-91.656
X374.06Y-106.656
X374.06Y-131.656
X374.06Y-146.656
X374.18Y-101.47
X374.42Y-66.62
X376.45Y-63.37
X377.81Y-95.89
X379.06Y-26.656
X379.06Y-36.656
X379.06Y-71.656
X379.06Y-91.656
X379.06Y-106.656
X379.06Y-116.656
X379.06Y-131.656
X379.06Y-136.656
X379.06Y-146.656
X379.24Y-85.68
X380.04Y-57.79
X380.11Y-103.23
X381.5Y-60.0
X382.2Y-55.2
X382.2Y-57.79
X382.47Y-65.14
X383.99Y-142.83
X384.05Y-42.82
X384.06Y-26.656
X384.06Y-46.656
X384.06Y-66.656
X384.06Y-71.656
X384.06Y-91.656
X384.06Y-106.656
X384.06Y-131.656
X384.06Y-146.656
X384.07Y-123.78
X384.1Y-99.7
X384.15Y-97.8
X384.87Y-82.39
X385.18Y-87.2
X386.21Y-139.57
X387.3Y-84.17
X388.6Y-39.29
X389.06Y-26.656
X389.06Y-31.656
X389.06Y-46.656
X389.06Y-61.656
X389.06Y-111.656
X389.06Y-131.656
X389.06Y-146.656
X389.69Y-133.99
X389.76Y-120.5
X389.83Y-44.31
X389.99Y-125.29
X391.91Y-141.33
X394.06Y-26.656
X394.06Y-31.656
X394.06Y-46.656
X394.06Y-61.656
X394.06Y-66.656
X394.06Y-71.656
X394.06Y-91.656
X394.06Y-106.656
X394.06Y-111.656
X394.06Y-131.656
X394.06Y-146.656
X394.5Y-99.75
X394.55Y-97.85
X399.06Y-26.656
X399.06Y-31.656
X399.06Y-36.656
X399.06Y-46.656
X399.06Y-61.656
X399.06Y-66.656
X399.06Y-71.656
X399.06Y-91.656
X399.06Y-106.656
X399.06Y-111.656
X399.06Y-116.656
X399.06Y-131.656
X399.06Y-136.656
X399.06Y-146.656
X403.08Y-142.83
X404.06Y-26.656
X404.06Y-31.656
X404.06Y-46.656
X404.06Y-61.656
X404.06Y-66.656
X404.06Y-71.656
X404.06Y-91.656
X404.06Y-106.656
X404.06Y-111.656
X404.06Y-116.656
X404.06Y-126.656
X404.06Y-136.656
X404.06Y-146.656
X405.36Y-139.57
X407.74Y-66.62
X407.84Y-85.69
X407.92Y-104.73
X408.78Y-133.99
X409.06Y-26.656
X409.06Y-61.656
X409.06Y-71.656
X409.06Y-91.656
X409.06Y-106.656
X409.06Y-111.656
X409.06Y-116.656
X409.06Y-126.656
X409.06Y-131.656
X409.06Y-146.656
X409.74Y-63.37
X409.74Y-101.47
X411.85Y-26.87
X412.11Y-49.55
X412.77Y-50.16
X413.49Y-57.79
X413.55Y-50.92
X413.59Y-82.39
X413.65Y-95.89
X413.68Y-87.2
X414.06Y-26.656
X414.06Y-46.656
X414.06Y-71.656
X414.06Y-76.656
X414.06Y-91.656
X414.06Y-106.656
X414.06Y-111.656
X414.06Y-116.656
X414.06Y-126.656
X414.06Y-131.656
X414.06Y-136.656
X414.06Y-146.656
X417.91Y-88.45
X419.06Y-26.656
X419.06Y-31.656
X419.06Y-41.656
X419.06Y-46.656
X419.06Y-51.656
X419.06Y-56.656
X419.06Y-66.656
X419.06Y-71.656
X419.06Y-76.656
X419.06Y-81.656
X419.06Y-106.656
X419.06Y-111.656
X419.06Y-116.656
X419.06Y-146.656
X419.64Y-84.11
T2
X35.61Y-58.5
X35.61Y-77.55
X35.61Y-96.6
X35.61Y-115.65
X35.61Y-134.7
X54.66Y-58.5
X54.66Y-77.55
X54.66Y-96.6
X54.66Y-115.65
X64.185Y-134.7
X73.71Y-58.5
X73.71Y-77.55
X73.71Y-96.6
X73.71Y-115.65
X92.76Y-58.5
X92.76Y-87.075
X92.76Y-125.175
X121.335Y-34.688
X121.335Y-58.5
X123.716Y-134.7
X126.097Y-77.55
X128.479Y-96.6
X133.241Y-115.65
X140.385Y-58.5
X145.147Y-34.688
X147.529Y-134.7
X149.91Y-77.55
X154.672Y-96.6
X159.435Y-58.5
X164.197Y-34.688
X164.197Y-115.65
X168.96Y-77.55
X171.341Y-134.7
X173.722Y-96.6
X178.485Y-58.5
X183.248Y-34.688
X183.248Y-115.65
X188.01Y-77.55
X192.772Y-96.6
X197.535Y-58.5
X202.297Y-34.688
X202.297Y-115.65
X207.06Y-77.55
X211.822Y-96.6
X216.585Y-58.5
X221.347Y-115.65
X226.11Y-34.688
X226.11Y-77.55
X230.873Y-96.6
X235.635Y-58.5
X240.397Y-115.65
X242.779Y-134.7
X245.16Y-34.688
X245.16Y-77.55
X249.922Y-96.6
X254.68Y-58.5
X259.447Y-115.65
X264.21Y-34.688
X264.21Y-77.55
X268.972Y-96.6
X273.735Y-58.5
X278.498Y-115.65
X283.26Y-34.688
X283.26Y-77.55
X288.022Y-96.6
X292.785Y-58.5
X297.548Y-115.65
X302.31Y-77.55
X307.072Y-34.688
X307.072Y-96.6
X311.835Y-58.5
X311.835Y-134.7
X316.597Y-115.65
X321.36Y-77.55
X326.123Y-34.688
X326.123Y-96.6
X330.885Y-58.5
X330.885Y-134.7
X335.647Y-115.65
X340.41Y-77.55
X345.172Y-34.688
X345.172Y-96.6
X349.935Y-58.5
X349.935Y-134.7
X359.46Y-77.55
X361.841Y-115.65
X364.222Y-34.688
X368.985Y-134.7
X376.129Y-96.6
X378.51Y-58.5
X383.272Y-77.55
X388.035Y-34.688
X388.035Y-115.65
X388.035Y-134.7
X407.085Y-134.7
X411.847Y-58.5
X411.847Y-77.55
X411.847Y-96.6
T3
X61.785Y-70.375
X61.785Y-108.425
X62.3Y-29.275
X62.488Y-68.678
X62.488Y-72.072
X62.488Y-106.728
X62.488Y-110.122
X63.3Y-29.275
X64.185Y-67.975
X64.185Y-72.775
X64.185Y-106.025
X64.185Y-110.825
X64.3Y-29.275
X65.3Y-29.275
X65.882Y-68.678
X65.882Y-72.072
X65.882Y-106.728
X65.882Y-110.122
X66.3Y-29.275
X66.585Y-70.375
X66.585Y-108.425
X211.883Y-46.476
X212.586Y-44.779
X212.586Y-48.173
X214.283Y-44.076
X214.283Y-48.876
X215.98Y-44.779
X215.98Y-48.173
X216.683Y-46.476
X223.86Y-130.0
X224.563Y-128.303
X224.563Y-131.697
X226.26Y-127.6
X226.26Y-132.4
X227.957Y-128.303
X227.957Y-131.697
X228.66Y-130.0
X372.55Y-116.023
X373.253Y-114.326
X373.253Y-117.72
X373.695Y-46.477
X374.398Y-44.78
X374.398Y-48.175
X374.95Y-113.623
X374.95Y-118.423
X376.095Y-44.077
X376.095Y-48.877
X376.647Y-114.326
X376.647Y-117.72
X377.35Y-116.023
X377.792Y-44.78
X377.792Y-48.175
X378.495Y-46.477
T5
X44.4Y-37.02
X44.4Y-39.56
X44.4Y-42.1
X44.4Y-44.64
X409.348Y-29.487
X409.348Y-43.987
X411.848Y-29.487
X414.348Y-29.487
X414.348Y-43.987
T6
X406.248Y-36.987
X417.448Y-36.987
T7
X64.185Y-70.375
X64.185Y-108.425
X214.283Y-46.476
X226.26Y-130.0
X374.95Y-116.023
X376.095Y-46.477
T4
G00X98.992Y-26.767
M15
G01X98.992Y-27.367
M16
G05
G00X98.992Y-30.697
M15
G01X98.992Y-31.797
M16
G05
G00X107.632Y-26.767
M15
G01X107.632Y-27.367
M16
G05
G00X107.632Y-30.697
M15
G01X107.632Y-31.797
M16
G05
M30
