%TF.GenerationSoftware,KiCad,Pcbnew,9.0.5*%
%TF.CreationDate,2026-01-18T13:13:48+07:00*%
%TF.ProjectId,MK98,4d4b3938-2e6b-4696-9361-645f70636258,rev?*%
%TF.SameCoordinates,Original*%
%TF.FileFunction,Soldermask,Top*%
%TF.FilePolarity,Negative*%
%FSLAX46Y46*%
G04 Gerber Fmt 4.6, Leading zero omitted, Abs format (unit mm)*
G04 Created by KiCad (PCBNEW 9.0.5) date 2026-01-18 13:13:48*
%MOMM*%
%LPD*%
G01*
G04 APERTURE LIST*
%ADD10C,3.048000*%
%ADD11C,3.987800*%
%ADD12C,0.800000*%
%ADD13C,6.400000*%
%ADD14R,1.700000X1.700000*%
%ADD15O,1.700000X1.700000*%
%ADD16R,2.000000X2.000000*%
%ADD17C,2.000000*%
%ADD18C,3.200000*%
%ADD19R,0.850000X0.850000*%
%ADD20C,0.850000*%
%ADD21C,1.600000*%
%ADD22C,0.650000*%
%ADD23O,1.000000X1.600000*%
%ADD24O,1.000000X2.100000*%
G04 APERTURE END LIST*
D10*
%TO.C,SB1*%
X366603750Y-53815000D03*
D11*
X366603750Y-69055000D03*
D10*
X390416250Y-53815000D03*
D11*
X390416250Y-69055000D03*
%TD*%
D12*
%TO.C,H3*%
X211882679Y-46475571D03*
X212585623Y-44778515D03*
X212585623Y-48172627D03*
X214282679Y-44075571D03*
D13*
X214282679Y-46475571D03*
D12*
X214282679Y-48875571D03*
X215979735Y-44778515D03*
X215979735Y-48172627D03*
X216682679Y-46475571D03*
%TD*%
D10*
%TO.C,SB2*%
X121335000Y-110965000D03*
D11*
X121335000Y-126205000D03*
D10*
X145147500Y-110965000D03*
D11*
X145147500Y-126205000D03*
%TD*%
D14*
%TO.C,J4*%
X44400000Y-44640000D03*
D15*
X44400000Y-42100000D03*
X44400000Y-39560000D03*
X44400000Y-37020000D03*
%TD*%
D12*
%TO.C,H2*%
X61785000Y-108425000D03*
X62487944Y-106727944D03*
X62487944Y-110122056D03*
X64185000Y-106025000D03*
D13*
X64185000Y-108425000D03*
D12*
X64185000Y-110825000D03*
X65882056Y-106727944D03*
X65882056Y-110122056D03*
X66585000Y-108425000D03*
%TD*%
%TO.C,H5*%
X373695424Y-46477450D03*
X374398368Y-44780394D03*
X374398368Y-48174506D03*
X376095424Y-44077450D03*
D13*
X376095424Y-46477450D03*
D12*
X376095424Y-48877450D03*
X377792480Y-44780394D03*
X377792480Y-48174506D03*
X378495424Y-46477450D03*
%TD*%
D11*
%TO.C,SB6*%
X101015001Y-101281251D03*
X101015001Y-77468749D03*
D10*
X85775000Y-101281250D03*
X85775000Y-77468750D03*
%TD*%
D12*
%TO.C,H6*%
X372550000Y-116022814D03*
X373252944Y-114325758D03*
X373252944Y-117719870D03*
X374950000Y-113622814D03*
D13*
X374950000Y-116022814D03*
D12*
X374950000Y-118422814D03*
X376647056Y-114325758D03*
X376647056Y-117719870D03*
X377350000Y-116022814D03*
%TD*%
D10*
%TO.C,SB3*%
X292785000Y-143984999D03*
D11*
X292785000Y-128745000D03*
D10*
X192772500Y-143984999D03*
D11*
X192772500Y-128745000D03*
%TD*%
D12*
%TO.C,H1*%
X61785000Y-70375000D03*
X62487944Y-68677944D03*
X62487944Y-72072056D03*
X64185000Y-67975000D03*
D13*
X64185000Y-70375000D03*
D12*
X64185000Y-72775000D03*
X65882056Y-68677944D03*
X65882056Y-72072056D03*
X66585000Y-70375000D03*
%TD*%
D10*
%TO.C,SB5*%
X364222500Y-91915000D03*
D11*
X364222500Y-107155000D03*
D10*
X388035000Y-91915000D03*
D11*
X388035000Y-107155000D03*
%TD*%
%TO.C,SB4*%
X76091251Y-128745000D03*
D10*
X76091250Y-143985000D03*
X52278750Y-143985000D03*
D11*
X52278749Y-128745000D03*
%TD*%
D12*
%TO.C,H4*%
X223860000Y-130000000D03*
X224562944Y-128302944D03*
X224562944Y-131697056D03*
X226260000Y-127600000D03*
D13*
X226260000Y-130000000D03*
D12*
X226260000Y-132400000D03*
X227957056Y-128302944D03*
X227957056Y-131697056D03*
X228660000Y-130000000D03*
%TD*%
D11*
%TO.C,SB7*%
X101015001Y-139381251D03*
X101015001Y-115568749D03*
D10*
X85775000Y-139381250D03*
X85775000Y-115568750D03*
%TD*%
D16*
%TO.C,ENC1*%
X414347719Y-29487475D03*
D17*
X409347719Y-29487475D03*
X411847719Y-29487475D03*
D18*
X417447719Y-36987475D03*
X406247719Y-36987475D03*
D17*
X409347719Y-43987475D03*
X414347719Y-43987475D03*
%TD*%
D19*
%TO.C,J3*%
X62300000Y-29275000D03*
D20*
X63300000Y-29275000D03*
X64300001Y-29275000D03*
X65300000Y-29275000D03*
X66300000Y-29275000D03*
%TD*%
D21*
%TO.C,HE39*%
X174040000Y-79850000D03*
X163880000Y-79850000D03*
%TD*%
%TO.C,HE5*%
X207377500Y-36987500D03*
X197217500Y-36987500D03*
%TD*%
%TO.C,HE67*%
X381208750Y-98900000D03*
X371048750Y-98900000D03*
%TD*%
%TO.C,HE49*%
X364540000Y-79850000D03*
X354380000Y-79850000D03*
%TD*%
%TO.C,HE28*%
X297865000Y-60800000D03*
X287705000Y-60800000D03*
%TD*%
%TO.C,HE95*%
X374065000Y-137000000D03*
X363905000Y-137000000D03*
%TD*%
%TO.C,HE9*%
X288340000Y-36987500D03*
X278180000Y-36987500D03*
%TD*%
%TO.C,HE64*%
X312152500Y-98900000D03*
X301992500Y-98900000D03*
%TD*%
%TO.C,HE59*%
X216902500Y-98900000D03*
X206742500Y-98900000D03*
%TD*%
%TO.C,HE31*%
X355015000Y-60800000D03*
X344855000Y-60800000D03*
%TD*%
%TO.C,HE23*%
X202615000Y-60800000D03*
X192455000Y-60800000D03*
%TD*%
%TO.C,HE78*%
X245477500Y-117950000D03*
X235317500Y-117950000D03*
%TD*%
%TO.C,HE35*%
X78790000Y-79850000D03*
X68630000Y-79850000D03*
%TD*%
%TO.C,HE7*%
X250240000Y-36987500D03*
X240080000Y-36987500D03*
%TD*%
%TO.C,HE80*%
X283577500Y-117950000D03*
X273417500Y-117950000D03*
%TD*%
%TO.C,HE63*%
X293102500Y-98900000D03*
X282942500Y-98900000D03*
%TD*%
%TO.C,HE17*%
X78790000Y-60800000D03*
X68630000Y-60800000D03*
%TD*%
%TO.C,HE10*%
X312152500Y-36987500D03*
X301992500Y-36987500D03*
%TD*%
%TO.C,HE25*%
X240715000Y-60800000D03*
X230555000Y-60800000D03*
%TD*%
%TO.C,HE92*%
X316915000Y-137000000D03*
X306755000Y-137000000D03*
%TD*%
%TO.C,HE14*%
X393115000Y-36987500D03*
X382955000Y-36987500D03*
%TD*%
%TO.C,HE79*%
X264527500Y-117950000D03*
X254367500Y-117950000D03*
%TD*%
%TO.C,HE36*%
X97840000Y-89375000D03*
X87680000Y-89375000D03*
%TD*%
%TO.C,HE40*%
X193090000Y-79850000D03*
X182930000Y-79850000D03*
%TD*%
%TO.C,HE12*%
X350252500Y-36987500D03*
X340092500Y-36987500D03*
%TD*%
%TO.C,HE82*%
X321677500Y-117950000D03*
X311517500Y-117950000D03*
%TD*%
%TO.C,HE88*%
X128796250Y-137000000D03*
X118636250Y-137000000D03*
%TD*%
%TO.C,HE29*%
X316915000Y-60800000D03*
X306755000Y-60800000D03*
%TD*%
%TO.C,HE42*%
X231190000Y-79850000D03*
X221030000Y-79850000D03*
%TD*%
%TO.C,HE68*%
X416927500Y-98900000D03*
X406767500Y-98900000D03*
%TD*%
%TO.C,HE61*%
X255002500Y-98900000D03*
X244842500Y-98900000D03*
%TD*%
%TO.C,HE75*%
X188327500Y-117950000D03*
X178167500Y-117950000D03*
%TD*%
%TO.C,HE43*%
X250240000Y-79850000D03*
X240080000Y-79850000D03*
%TD*%
%TO.C,HE74*%
X169277500Y-117950000D03*
X159117500Y-117950000D03*
%TD*%
%TO.C,HE4*%
X188327500Y-36987500D03*
X178167500Y-36987500D03*
%TD*%
%TO.C,HE69*%
X40690000Y-117950000D03*
X30530000Y-117950000D03*
%TD*%
%TO.C,HE41*%
X212140000Y-79850000D03*
X201980000Y-79850000D03*
%TD*%
%TO.C,HE48*%
X345490000Y-79850000D03*
X335330000Y-79850000D03*
%TD*%
%TO.C,HE24*%
X221665000Y-60800000D03*
X211505000Y-60800000D03*
%TD*%
%TO.C,HE46*%
X307390000Y-79850000D03*
X297230000Y-79850000D03*
%TD*%
%TO.C,HE58*%
X197852500Y-98900000D03*
X187692500Y-98900000D03*
%TD*%
%TO.C,HE6*%
X231190000Y-36987500D03*
X221030000Y-36987500D03*
%TD*%
%TO.C,HE93*%
X335965000Y-137000000D03*
X325805000Y-137000000D03*
%TD*%
%TO.C,HE98*%
X416927500Y-60800000D03*
X406767500Y-60800000D03*
%TD*%
%TO.C,HE66*%
X350252500Y-98900000D03*
X340092500Y-98900000D03*
%TD*%
%TO.C,HE2*%
X150227500Y-36987500D03*
X140067500Y-36987500D03*
%TD*%
%TO.C,HE54*%
X78790000Y-98900000D03*
X68630000Y-98900000D03*
%TD*%
%TO.C,HE60*%
X235952500Y-98900000D03*
X225792500Y-98900000D03*
%TD*%
%TO.C,HE19*%
X126415000Y-60800000D03*
X116255000Y-60800000D03*
%TD*%
%TO.C,HE96*%
X393115000Y-137000000D03*
X382955000Y-137000000D03*
%TD*%
%TO.C,HE21*%
X164515000Y-60800000D03*
X154355000Y-60800000D03*
%TD*%
%TO.C,HE26*%
X259760000Y-60800000D03*
X249600000Y-60800000D03*
%TD*%
%TO.C,HE86*%
X40690000Y-137000000D03*
X30530000Y-137000000D03*
%TD*%
%TO.C,HE38*%
X154990000Y-79850000D03*
X144830000Y-79850000D03*
%TD*%
%TO.C,HE56*%
X159752500Y-98900000D03*
X149592500Y-98900000D03*
%TD*%
%TO.C,HE91*%
X247858750Y-137000000D03*
X237698750Y-137000000D03*
%TD*%
%TO.C,HE37*%
X131177500Y-79850000D03*
X121017500Y-79850000D03*
%TD*%
%TO.C,HE8*%
X269290000Y-36987500D03*
X259130000Y-36987500D03*
%TD*%
%TO.C,HE71*%
X78790000Y-117950000D03*
X68630000Y-117950000D03*
%TD*%
%TO.C,HE30*%
X335965000Y-60800000D03*
X325805000Y-60800000D03*
%TD*%
%TO.C,HE27*%
X278815000Y-60800000D03*
X268655000Y-60800000D03*
%TD*%
%TO.C,HE44*%
X269290000Y-79850000D03*
X259130000Y-79850000D03*
%TD*%
%TO.C,HE57*%
X178802500Y-98900000D03*
X168642500Y-98900000D03*
%TD*%
%TO.C,HE15*%
X40690000Y-60800000D03*
X30530000Y-60800000D03*
%TD*%
%TO.C,HE1*%
X126415000Y-36987500D03*
X116255000Y-36987500D03*
%TD*%
%TO.C,HE3*%
X169277500Y-36987500D03*
X159117500Y-36987500D03*
%TD*%
%TO.C,HE87*%
X69265000Y-137000000D03*
X59105000Y-137000000D03*
%TD*%
%TO.C,HE22*%
X183565000Y-60800000D03*
X173405000Y-60800000D03*
%TD*%
%TO.C,HE72*%
X97840000Y-127475000D03*
X87680000Y-127475000D03*
%TD*%
%TO.C,HE11*%
X331202500Y-36987500D03*
X321042500Y-36987500D03*
%TD*%
%TO.C,HE81*%
X302627500Y-117950000D03*
X292467500Y-117950000D03*
%TD*%
%TO.C,HE77*%
X226427500Y-117950000D03*
X216267500Y-117950000D03*
%TD*%
%TO.C,HE90*%
X176421250Y-137000000D03*
X166261250Y-137000000D03*
%TD*%
%TO.C,HE85*%
X393115000Y-117950000D03*
X382955000Y-117950000D03*
%TD*%
%TO.C,HE47*%
X326440000Y-79850000D03*
X316280000Y-79850000D03*
%TD*%
%TO.C,HE32*%
X383590000Y-60800000D03*
X373430000Y-60800000D03*
%TD*%
%TO.C,HE97*%
X412165000Y-137000000D03*
X402005000Y-137000000D03*
%TD*%
%TO.C,HE76*%
X207377500Y-117950000D03*
X197217500Y-117950000D03*
%TD*%
%TO.C,HE94*%
X355015000Y-137000000D03*
X344855000Y-137000000D03*
%TD*%
%TO.C,HE65*%
X331202500Y-98900000D03*
X321042500Y-98900000D03*
%TD*%
%TO.C,HE89*%
X152608750Y-137000000D03*
X142448750Y-137000000D03*
%TD*%
%TO.C,HE34*%
X59740000Y-79850000D03*
X49580000Y-79850000D03*
%TD*%
%TO.C,HE73*%
X138321250Y-117950000D03*
X128161250Y-117950000D03*
%TD*%
%TO.C,HE51*%
X416927500Y-79850000D03*
X406767500Y-79850000D03*
%TD*%
%TO.C,HE52*%
X40690000Y-98900000D03*
X30530000Y-98900000D03*
%TD*%
%TO.C,HE70*%
X59740000Y-117950000D03*
X49580000Y-117950000D03*
%TD*%
%TO.C,HE62*%
X274052500Y-98900000D03*
X263892500Y-98900000D03*
%TD*%
%TO.C,HE13*%
X369302500Y-36987500D03*
X359142500Y-36987500D03*
%TD*%
%TO.C,HE55*%
X133558750Y-98900000D03*
X123398750Y-98900000D03*
%TD*%
%TO.C,HE53*%
X59740000Y-98900000D03*
X49580000Y-98900000D03*
%TD*%
%TO.C,HE16*%
X59740000Y-60800000D03*
X49580000Y-60800000D03*
%TD*%
%TO.C,HE18*%
X97840000Y-60800000D03*
X87680000Y-60800000D03*
%TD*%
%TO.C,HE83*%
X340727500Y-117950000D03*
X330567500Y-117950000D03*
%TD*%
D22*
%TO.C,J1*%
X100422149Y-30717351D03*
X106202149Y-30717351D03*
D23*
X98992149Y-27067351D03*
D24*
X98992149Y-31247351D03*
D23*
X107632149Y-27067351D03*
D24*
X107632149Y-31247351D03*
%TD*%
D21*
%TO.C,HE84*%
X366921250Y-117950000D03*
X356761250Y-117950000D03*
%TD*%
%TO.C,HE45*%
X288340000Y-79850000D03*
X278180000Y-79850000D03*
%TD*%
%TO.C,HE20*%
X145465000Y-60800000D03*
X135305000Y-60800000D03*
%TD*%
%TO.C,HE50*%
X388352500Y-79850000D03*
X378192500Y-79850000D03*
%TD*%
%TO.C,HE33*%
X40690000Y-79850000D03*
X30530000Y-79850000D03*
%TD*%
M02*
