M48
; DRILL file {KiCad 9.0.5} date 2026-01-18T13:13:52+0700
; FORMAT={-:-/ absolute / metric / decimal}
; #@! TF.CreationDate,2026-01-18T13:13:52+07:00
; #@! TF.GenerationSoftware,Kicad,Pcbnew,9.0.5
; #@! TF.FileFunction,NonPlated,1,2,NPTH
FMAT,2
METRIC
; #@! TA.AperFunction,NonPlated,NPTH,ComponentDrill
T1C0.650
; #@! TA.AperFunction,NonPlated,NPTH,ComponentDrill
T2C1.700
; #@! TA.AperFunction,NonPlated,NPTH,ComponentDrill
T3C3.048
; #@! TA.AperFunction,NonPlated,NPTH,ComponentDrill
T4C3.988
%
G90
G05
T1
X100.422Y-30.717
X106.202Y-30.717
T2
X30.53Y-60.8
X30.53Y-79.85
X30.53Y-98.9
X30.53Y-117.95
X30.53Y-137.0
X40.69Y-60.8
X40.69Y-79.85
X40.69Y-98.9
X40.69Y-117.95
X40.69Y-137.0
X49.58Y-60.8
X49.58Y-79.85
X49.58Y-98.9
X49.58Y-117.95
X59.105Y-137.0
X59.74Y-60.8
X59.74Y-79.85
X59.74Y-98.9
X59.74Y-117.95
X68.63Y-60.8
X68.63Y-79.85
X68.63Y-98.9
X68.63Y-117.95
X69.265Y-137.0
X78.79Y-60.8
X78.79Y-79.85
X78.79Y-98.9
X78.79Y-117.95
X87.68Y-60.8
X87.68Y-89.375
X87.68Y-127.475
X97.84Y-60.8
X97.84Y-89.375
X97.84Y-127.475
X116.255Y-36.987
X116.255Y-60.8
X118.636Y-137.0
X121.017Y-79.85
X123.399Y-98.9
X126.415Y-36.987
X126.415Y-60.8
X128.161Y-117.95
X128.796Y-137.0
X131.177Y-79.85
X133.559Y-98.9
X135.305Y-60.8
X138.321Y-117.95
X140.067Y-36.987
X142.449Y-137.0
X144.83Y-79.85
X145.465Y-60.8
X149.593Y-98.9
X150.227Y-36.987
X152.609Y-137.0
X154.355Y-60.8
X154.99Y-79.85
X159.118Y-36.987
X159.118Y-117.95
X159.752Y-98.9
X163.88Y-79.85
X164.515Y-60.8
X166.261Y-137.0
X168.642Y-98.9
X169.278Y-36.987
X169.278Y-117.95
X173.405Y-60.8
X174.04Y-79.85
X176.421Y-137.0
X178.167Y-36.987
X178.167Y-117.95
X178.802Y-98.9
X182.93Y-79.85
X183.565Y-60.8
X187.692Y-98.9
X188.327Y-36.987
X188.327Y-117.95
X192.455Y-60.8
X193.09Y-79.85
X197.218Y-36.987
X197.218Y-117.95
X197.852Y-98.9
X201.98Y-79.85
X202.615Y-60.8
X206.742Y-98.9
X207.377Y-36.987
X207.377Y-117.95
X211.505Y-60.8
X212.14Y-79.85
X216.267Y-117.95
X216.903Y-98.9
X221.03Y-36.987
X221.03Y-79.85
X221.665Y-60.8
X225.792Y-98.9
X226.427Y-117.95
X230.555Y-60.8
X231.19Y-36.987
X231.19Y-79.85
X235.317Y-117.95
X235.952Y-98.9
X237.699Y-137.0
X240.08Y-36.987
X240.08Y-79.85
X240.715Y-60.8
X244.843Y-98.9
X245.477Y-117.95
X247.859Y-137.0
X249.6Y-60.8
X250.24Y-36.987
X250.24Y-79.85
X254.367Y-117.95
X255.002Y-98.9
X259.13Y-36.987
X259.13Y-79.85
X259.76Y-60.8
X263.892Y-98.9
X264.527Y-117.95
X268.655Y-60.8
X269.29Y-36.987
X269.29Y-79.85
X273.417Y-117.95
X274.053Y-98.9
X278.18Y-36.987
X278.18Y-79.85
X278.815Y-60.8
X282.942Y-98.9
X283.577Y-117.95
X287.705Y-60.8
X288.34Y-36.987
X288.34Y-79.85
X292.467Y-117.95
X293.102Y-98.9
X297.23Y-79.85
X297.865Y-60.8
X301.993Y-36.987
X301.993Y-98.9
X302.627Y-117.95
X306.755Y-60.8
X306.755Y-137.0
X307.39Y-79.85
X311.517Y-117.95
X312.152Y-36.987
X312.152Y-98.9
X316.28Y-79.85
X316.915Y-60.8
X316.915Y-137.0
X321.042Y-36.987
X321.042Y-98.9
X321.678Y-117.95
X325.805Y-60.8
X325.805Y-137.0
X326.44Y-79.85
X330.567Y-117.95
X331.202Y-36.987
X331.202Y-98.9
X335.33Y-79.85
X335.965Y-60.8
X335.965Y-137.0
X340.092Y-36.987
X340.092Y-98.9
X340.727Y-117.95
X344.855Y-60.8
X344.855Y-137.0
X345.49Y-79.85
X350.252Y-36.987
X350.252Y-98.9
X354.38Y-79.85
X355.015Y-60.8
X355.015Y-137.0
X356.761Y-117.95
X359.142Y-36.987
X363.905Y-137.0
X364.54Y-79.85
X366.921Y-117.95
X369.303Y-36.987
X371.049Y-98.9
X373.43Y-60.8
X374.065Y-137.0
X378.192Y-79.85
X381.209Y-98.9
X382.955Y-36.987
X382.955Y-117.95
X382.955Y-137.0
X383.59Y-60.8
X388.352Y-79.85
X393.115Y-36.987
X393.115Y-117.95
X393.115Y-137.0
X402.005Y-137.0
X406.767Y-60.8
X406.767Y-79.85
X406.767Y-98.9
X412.165Y-137.0
X416.928Y-60.8
X416.928Y-79.85
X416.928Y-98.9
T3
X52.279Y-143.985
X76.091Y-143.985
X85.775Y-77.469
X85.775Y-101.281
X85.775Y-115.569
X85.775Y-139.381
X121.335Y-110.965
X145.147Y-110.965
X192.772Y-143.985
X292.785Y-143.985
X364.222Y-91.915
X366.604Y-53.815
X388.035Y-91.915
X390.416Y-53.815
T4
X52.279Y-128.745
X76.091Y-128.745
X101.015Y-77.469
X101.015Y-101.281
X101.015Y-115.569
X101.015Y-139.381
X121.335Y-126.205
X145.147Y-126.205
X192.772Y-128.745
X292.785Y-128.745
X364.222Y-107.155
X366.604Y-69.055
X388.035Y-107.155
X390.416Y-69.055
M30
