%TF.GenerationSoftware,KiCad,Pcbnew,9.0.5*%
%TF.CreationDate,2026-01-21T21:44:40+07:00*%
%TF.ProjectId,MK98,4d4b3938-2e6b-4696-9361-645f70636258,rev?*%
%TF.SameCoordinates,Original*%
%TF.FileFunction,Paste,Bot*%
%TF.FilePolarity,Positive*%
%FSLAX46Y46*%
G04 Gerber Fmt 4.6, Leading zero omitted, Abs format (unit mm)*
G04 Created by KiCad (PCBNEW 9.0.5) date 2026-01-21 21:44:40*
%MOMM*%
%LPD*%
G01*
G04 APERTURE LIST*
G04 Aperture macros list*
%AMRoundRect*
0 Rectangle with rounded corners*
0 $1 Rounding radius*
0 $2 $3 $4 $5 $6 $7 $8 $9 X,Y pos of 4 corners*
0 Add a 4 corners polygon primitive as box body*
4,1,4,$2,$3,$4,$5,$6,$7,$8,$9,$2,$3,0*
0 Add four circle primitives for the rounded corners*
1,1,$1+$1,$2,$3*
1,1,$1+$1,$4,$5*
1,1,$1+$1,$6,$7*
1,1,$1+$1,$8,$9*
0 Add four rect primitives between the rounded corners*
20,1,$1+$1,$2,$3,$4,$5,0*
20,1,$1+$1,$4,$5,$6,$7,0*
20,1,$1+$1,$6,$7,$8,$9,0*
20,1,$1+$1,$8,$9,$2,$3,0*%
%AMRotRect*
0 Rectangle, with rotation*
0 The origin of the aperture is its center*
0 $1 length*
0 $2 width*
0 $3 Rotation angle, in degrees counterclockwise*
0 Add horizontal line*
21,1,$1,$2,0,0,$3*%
%AMFreePoly0*
4,1,18,-0.410000,0.593000,-0.403758,0.624380,-0.385983,0.650983,-0.359380,0.668758,-0.328000,0.675000,0.328000,0.675000,0.359380,0.668758,0.385983,0.650983,0.403758,0.624380,0.410000,0.593000,0.410000,-0.593000,0.403758,-0.624380,0.385983,-0.650983,0.359380,-0.668758,0.328000,-0.675000,0.000000,-0.675000,-0.410000,-0.265000,-0.410000,0.593000,-0.410000,0.593000,$1*%
G04 Aperture macros list end*
%ADD10RoundRect,0.082000X-0.593000X0.328000X-0.593000X-0.328000X0.593000X-0.328000X0.593000X0.328000X0*%
%ADD11FreePoly0,270.000000*%
%ADD12RoundRect,0.082000X0.593000X-0.328000X0.593000X0.328000X-0.593000X0.328000X-0.593000X-0.328000X0*%
%ADD13FreePoly0,90.000000*%
%ADD14RoundRect,0.150000X-0.150000X-0.625000X0.150000X-0.625000X0.150000X0.625000X-0.150000X0.625000X0*%
%ADD15RoundRect,0.250000X-0.350000X-0.650000X0.350000X-0.650000X0.350000X0.650000X-0.350000X0.650000X0*%
%ADD16RoundRect,0.225000X0.225000X0.250000X-0.225000X0.250000X-0.225000X-0.250000X0.225000X-0.250000X0*%
%ADD17RoundRect,0.150000X0.150000X-0.587500X0.150000X0.587500X-0.150000X0.587500X-0.150000X-0.587500X0*%
%ADD18RoundRect,0.250000X-0.945000X0.420000X-0.945000X-0.420000X0.945000X-0.420000X0.945000X0.420000X0*%
%ADD19RoundRect,0.225000X-0.225000X-0.250000X0.225000X-0.250000X0.225000X0.250000X-0.225000X0.250000X0*%
%ADD20RoundRect,0.200000X-0.275000X0.200000X-0.275000X-0.200000X0.275000X-0.200000X0.275000X0.200000X0*%
%ADD21RoundRect,0.225000X0.250000X-0.225000X0.250000X0.225000X-0.250000X0.225000X-0.250000X-0.225000X0*%
%ADD22RoundRect,0.150000X-0.512500X-0.150000X0.512500X-0.150000X0.512500X0.150000X-0.512500X0.150000X0*%
%ADD23RoundRect,0.250000X0.375000X0.625000X-0.375000X0.625000X-0.375000X-0.625000X0.375000X-0.625000X0*%
%ADD24RoundRect,0.160000X-0.160000X0.197500X-0.160000X-0.197500X0.160000X-0.197500X0.160000X0.197500X0*%
%ADD25RoundRect,0.225000X-0.250000X0.225000X-0.250000X-0.225000X0.250000X-0.225000X0.250000X0.225000X0*%
%ADD26R,0.700000X1.050013*%
%ADD27RoundRect,0.150000X0.625000X-0.150000X0.625000X0.150000X-0.625000X0.150000X-0.625000X-0.150000X0*%
%ADD28RoundRect,0.250000X0.650000X-0.350000X0.650000X0.350000X-0.650000X0.350000X-0.650000X-0.350000X0*%
%ADD29RoundRect,0.150000X-0.150000X0.512500X-0.150000X-0.512500X0.150000X-0.512500X0.150000X0.512500X0*%
%ADD30RoundRect,0.162500X-0.650000X-0.162500X0.650000X-0.162500X0.650000X0.162500X-0.650000X0.162500X0*%
%ADD31RoundRect,0.250000X-0.450000X-0.350000X0.450000X-0.350000X0.450000X0.350000X-0.450000X0.350000X0*%
%ADD32RoundRect,0.150000X-0.587500X-0.150000X0.587500X-0.150000X0.587500X0.150000X-0.587500X0.150000X0*%
%ADD33RoundRect,0.200000X-0.200000X-0.275000X0.200000X-0.275000X0.200000X0.275000X-0.200000X0.275000X0*%
%ADD34RoundRect,0.160000X0.197500X0.160000X-0.197500X0.160000X-0.197500X-0.160000X0.197500X-0.160000X0*%
%ADD35RoundRect,0.150000X-0.625000X0.150000X-0.625000X-0.150000X0.625000X-0.150000X0.625000X0.150000X0*%
%ADD36RoundRect,0.250000X-0.650000X0.350000X-0.650000X-0.350000X0.650000X-0.350000X0.650000X0.350000X0*%
%ADD37RoundRect,0.200000X0.275000X-0.200000X0.275000X0.200000X-0.275000X0.200000X-0.275000X-0.200000X0*%
%ADD38RotRect,0.229400X1.161999X315.000000*%
%ADD39RotRect,0.229400X1.161999X45.000000*%
%ADD40RotRect,0.229400X1.161999X135.000000*%
%ADD41RoundRect,0.075000X-0.700000X-0.075000X0.700000X-0.075000X0.700000X0.075000X-0.700000X0.075000X0*%
%ADD42RoundRect,0.075000X-0.075000X-0.700000X0.075000X-0.700000X0.075000X0.700000X-0.075000X0.700000X0*%
%ADD43RoundRect,0.200000X0.200000X0.275000X-0.200000X0.275000X-0.200000X-0.275000X0.200000X-0.275000X0*%
%ADD44RoundRect,0.225000X-0.335876X-0.017678X-0.017678X-0.335876X0.335876X0.017678X0.017678X0.335876X0*%
%ADD45R,0.600000X1.450000*%
%ADD46R,0.300000X1.450000*%
G04 APERTURE END LIST*
D10*
%TO.C,LED38*%
X152635000Y-85680000D03*
X152635000Y-84180000D03*
X147185000Y-85680000D03*
D11*
X147185000Y-84180000D03*
%TD*%
D12*
%TO.C,LED88*%
X61460000Y-141330000D03*
X61460000Y-142830000D03*
X66910000Y-141330000D03*
D13*
X66910000Y-142830000D03*
%TD*%
D10*
%TO.C,LED10*%
X309797500Y-42817500D03*
X309797500Y-41317500D03*
X304347500Y-42817500D03*
D11*
X304347500Y-41317500D03*
%TD*%
D14*
%TO.C,J4*%
X52150000Y-39575000D03*
X53150000Y-39575000D03*
X54150000Y-39575000D03*
X55150000Y-39575000D03*
D15*
X50850000Y-35700000D03*
X56450000Y-35700000D03*
%TD*%
D12*
%TO.C,LED60*%
X209097500Y-103230000D03*
X209097500Y-104730000D03*
X214547500Y-103230000D03*
D13*
X214547500Y-104730000D03*
%TD*%
D16*
%TO.C,C57*%
X307287500Y-65150000D03*
X305737500Y-65150000D03*
%TD*%
D17*
%TO.C,HE40*%
X169910000Y-80787500D03*
X168010000Y-80787500D03*
X168960000Y-78912500D03*
%TD*%
%TO.C,HE5*%
X203247500Y-37925000D03*
X201347500Y-37925000D03*
X202297500Y-36050000D03*
%TD*%
D18*
%TO.C,C8*%
X118348137Y-45600571D03*
X118348137Y-48680571D03*
%TD*%
D12*
%TO.C,LED69*%
X409122500Y-103230000D03*
X409122500Y-104730000D03*
X414572500Y-103230000D03*
D13*
X414572500Y-104730000D03*
%TD*%
D10*
%TO.C,LED47*%
X324085000Y-85680000D03*
X324085000Y-84180000D03*
X318635000Y-85680000D03*
D11*
X318635000Y-84180000D03*
%TD*%
D16*
%TO.C,C56*%
X288237500Y-65150000D03*
X286687500Y-65150000D03*
%TD*%
D12*
%TO.C,LED96*%
X366260000Y-141330000D03*
X366260000Y-142830000D03*
X371710000Y-141330000D03*
D13*
X371710000Y-142830000D03*
%TD*%
D17*
%TO.C,HE68*%
X377078750Y-99837500D03*
X375178750Y-99837500D03*
X376128750Y-97962500D03*
%TD*%
D12*
%TO.C,LED97*%
X385310000Y-141330000D03*
X385310000Y-142830000D03*
X390760000Y-141330000D03*
D13*
X390760000Y-142830000D03*
%TD*%
D19*
%TO.C,C33*%
X206807501Y-42820000D03*
X208357501Y-42820000D03*
%TD*%
D17*
%TO.C,HE50*%
X360410000Y-80787500D03*
X358510000Y-80787500D03*
X359460000Y-78912500D03*
%TD*%
D20*
%TO.C,R12*%
X92860000Y-46620000D03*
X92860000Y-48270000D03*
%TD*%
D17*
%TO.C,HE28*%
X293735000Y-61737500D03*
X291835000Y-61737500D03*
X292785000Y-59862500D03*
%TD*%
%TO.C,HE96*%
X369935000Y-137937500D03*
X368035000Y-137937500D03*
X368985000Y-136062500D03*
%TD*%
D16*
%TO.C,C22*%
X107525000Y-38250000D03*
X105975000Y-38250000D03*
%TD*%
D21*
%TO.C,C9*%
X88623857Y-36222815D03*
X88623857Y-34672815D03*
%TD*%
D17*
%TO.C,HE9*%
X284210000Y-37925000D03*
X282310000Y-37925000D03*
X283260000Y-36050000D03*
%TD*%
D10*
%TO.C,LED75*%
X166922500Y-123780000D03*
X166922500Y-122280000D03*
X161472500Y-123780000D03*
D11*
X161472500Y-122280000D03*
%TD*%
D17*
%TO.C,HE65*%
X308022500Y-99837500D03*
X306122500Y-99837500D03*
X307072500Y-97962500D03*
%TD*%
D16*
%TO.C,C52*%
X212037500Y-65150000D03*
X210487500Y-65150000D03*
%TD*%
D22*
%TO.C,U2*%
X108455000Y-42950000D03*
X108455000Y-42000001D03*
X108455000Y-41050002D03*
X110730000Y-41050002D03*
X110730000Y-42950000D03*
%TD*%
D12*
%TO.C,LED26*%
X251960000Y-65130000D03*
X251960000Y-66630000D03*
X257410000Y-65130000D03*
D13*
X257410000Y-66630000D03*
%TD*%
D10*
%TO.C,LED43*%
X247885000Y-85680000D03*
X247885000Y-84180000D03*
X242435000Y-85680000D03*
D11*
X242435000Y-84180000D03*
%TD*%
D17*
%TO.C,HE60*%
X212772500Y-99837500D03*
X210872500Y-99837500D03*
X211822500Y-97962500D03*
%TD*%
%TO.C,HE31*%
X350885000Y-61737500D03*
X348985000Y-61737500D03*
X349935000Y-59862500D03*
%TD*%
%TO.C,HE23*%
X198485000Y-61737500D03*
X196585000Y-61737500D03*
X197535000Y-59862500D03*
%TD*%
%TO.C,HE79*%
X241347500Y-118887500D03*
X239447500Y-118887500D03*
X240397500Y-117012500D03*
%TD*%
%TO.C,HE36*%
X74660000Y-80787500D03*
X72760000Y-80787500D03*
X73710000Y-78912500D03*
%TD*%
%TO.C,HE7*%
X246110000Y-37925000D03*
X244210000Y-37925000D03*
X245160000Y-36050000D03*
%TD*%
D12*
%TO.C,LED19*%
X118610000Y-65130000D03*
X118610000Y-66630000D03*
X124060000Y-65130000D03*
D13*
X124060000Y-66630000D03*
%TD*%
D10*
%TO.C,LED8*%
X266935000Y-42817500D03*
X266935000Y-41317500D03*
X261485000Y-42817500D03*
D11*
X261485000Y-41317500D03*
%TD*%
D23*
%TO.C,F1*%
X110050000Y-34700000D03*
X107250002Y-34700000D03*
%TD*%
D17*
%TO.C,HE81*%
X279447500Y-118887500D03*
X277547500Y-118887500D03*
X278497500Y-117012500D03*
%TD*%
%TO.C,HE64*%
X288972500Y-99837500D03*
X287072500Y-99837500D03*
X288022500Y-97962500D03*
%TD*%
%TO.C,HE17*%
X74660000Y-61737500D03*
X72760000Y-61737500D03*
X73710000Y-59862500D03*
%TD*%
D19*
%TO.C,C69*%
X211571974Y-85674911D03*
X213121974Y-85674911D03*
%TD*%
D24*
%TO.C,R5*%
X105732149Y-34387351D03*
X105732149Y-35582351D03*
%TD*%
D25*
%TO.C,C3*%
X134750000Y-45460000D03*
X134750000Y-47010000D03*
%TD*%
D17*
%TO.C,HE10*%
X308022500Y-37925000D03*
X306122500Y-37925000D03*
X307072500Y-36050000D03*
%TD*%
%TO.C,HE25*%
X236585000Y-61737500D03*
X234685000Y-61737500D03*
X235635000Y-59862500D03*
%TD*%
D10*
%TO.C,LED50*%
X385997500Y-85680000D03*
X385997500Y-84180000D03*
X380547500Y-85680000D03*
D11*
X380547500Y-84180000D03*
%TD*%
D10*
%TO.C,LED48*%
X343135000Y-85680000D03*
X343135000Y-84180000D03*
X337685000Y-85680000D03*
D11*
X337685000Y-84180000D03*
%TD*%
D26*
%TO.C,RST_BTN1*%
X62325070Y-41899924D03*
X62325070Y-46100076D03*
X64474930Y-41899924D03*
X64474930Y-46100076D03*
%TD*%
D20*
%TO.C,R2*%
X106550000Y-48010000D03*
X106550000Y-49660000D03*
%TD*%
D16*
%TO.C,C10*%
X78650000Y-34775000D03*
X77100000Y-34775000D03*
%TD*%
D19*
%TO.C,C97*%
X40115000Y-123790000D03*
X41665000Y-123790000D03*
%TD*%
D16*
%TO.C,C43*%
X31062500Y-65150000D03*
X29512500Y-65150000D03*
%TD*%
D27*
%TO.C,J3*%
X38875000Y-45625000D03*
X38875001Y-44625000D03*
X38875000Y-43625000D03*
D28*
X35000000Y-46925000D03*
X35000000Y-42325000D03*
%TD*%
D17*
%TO.C,HE93*%
X312785000Y-137937500D03*
X310885000Y-137937500D03*
X311835000Y-136062500D03*
%TD*%
D19*
%TO.C,C108*%
X283002500Y-123790000D03*
X284552500Y-123790000D03*
%TD*%
%TO.C,C70*%
X230621974Y-85674911D03*
X232171974Y-85674911D03*
%TD*%
D17*
%TO.C,HE14*%
X388985000Y-37925000D03*
X387085000Y-37925000D03*
X388035000Y-36050000D03*
%TD*%
%TO.C,HE80*%
X260397500Y-118887500D03*
X258497500Y-118887500D03*
X259447500Y-117012500D03*
%TD*%
D29*
%TO.C,U4*%
X102370575Y-34784171D03*
X103320574Y-34784171D03*
X104270573Y-34784171D03*
X104270573Y-37059171D03*
X103320574Y-37059171D03*
X102370575Y-37059171D03*
%TD*%
D16*
%TO.C,C60*%
X373962500Y-65150000D03*
X372412500Y-65150000D03*
%TD*%
D12*
%TO.C,LED62*%
X247197500Y-103230000D03*
X247197500Y-104730000D03*
X252647500Y-103230000D03*
D13*
X252647500Y-104730000D03*
%TD*%
D16*
%TO.C,C15*%
X74325000Y-40075000D03*
X72775000Y-40075000D03*
%TD*%
D12*
%TO.C,LED64*%
X285297500Y-103230000D03*
X285297500Y-104730000D03*
X290747500Y-103230000D03*
D13*
X290747500Y-104730000D03*
%TD*%
D17*
%TO.C,HE37*%
X93710000Y-90312500D03*
X91810000Y-90312500D03*
X92760000Y-88437500D03*
%TD*%
D10*
%TO.C,LED46*%
X305035000Y-85680000D03*
X305035000Y-84180000D03*
X299585000Y-85680000D03*
D11*
X299585000Y-84180000D03*
%TD*%
D19*
%TO.C,C38*%
X311582501Y-42820000D03*
X313132501Y-42820000D03*
%TD*%
D10*
%TO.C,LED1*%
X124060000Y-42817500D03*
X124060000Y-41317500D03*
X118610000Y-42817500D03*
D11*
X118610000Y-41317500D03*
%TD*%
D10*
%TO.C,LED11*%
X328847500Y-42817500D03*
X328847500Y-41317500D03*
X323397500Y-42817500D03*
D11*
X323397500Y-41317500D03*
%TD*%
D18*
%TO.C,C7*%
X114730000Y-45600000D03*
X114730000Y-48680000D03*
%TD*%
D10*
%TO.C,LED6*%
X228835000Y-42817500D03*
X228835000Y-41317500D03*
X223385000Y-42817500D03*
D11*
X223385000Y-41317500D03*
%TD*%
D12*
%TO.C,LED22*%
X175760000Y-65130000D03*
X175760000Y-66630000D03*
X181210000Y-65130000D03*
D13*
X181210000Y-66630000D03*
%TD*%
D17*
%TO.C,HE41*%
X188960000Y-80787500D03*
X187060000Y-80787500D03*
X188010000Y-78912500D03*
%TD*%
%TO.C,HE12*%
X346122500Y-37925000D03*
X344222500Y-37925000D03*
X345172500Y-36050000D03*
%TD*%
D25*
%TO.C,C12*%
X76859771Y-48436890D03*
X76859771Y-49986890D03*
%TD*%
D17*
%TO.C,HE83*%
X317547500Y-118887500D03*
X315647500Y-118887500D03*
X316597500Y-117012500D03*
%TD*%
D10*
%TO.C,LED72*%
X76435000Y-123780000D03*
X76435000Y-122280000D03*
X70985000Y-123780000D03*
D11*
X70985000Y-122280000D03*
%TD*%
D16*
%TO.C,C53*%
X231087500Y-65150000D03*
X229537500Y-65150000D03*
%TD*%
D12*
%TO.C,LED89*%
X120991250Y-141330000D03*
X120991250Y-142830000D03*
X126441250Y-141330000D03*
D13*
X126441250Y-142830000D03*
%TD*%
D19*
%TO.C,C25*%
X92860000Y-38876289D03*
X94410000Y-38876289D03*
%TD*%
D12*
%TO.C,LED87*%
X32885000Y-141330000D03*
X32885000Y-142830000D03*
X38335000Y-141330000D03*
D13*
X38335000Y-142830000D03*
%TD*%
D16*
%TO.C,C49*%
X154887500Y-65150000D03*
X153337500Y-65150000D03*
%TD*%
D17*
%TO.C,HE89*%
X124666250Y-137937500D03*
X122766250Y-137937500D03*
X123716250Y-136062500D03*
%TD*%
D19*
%TO.C,C34*%
X230620000Y-42820000D03*
X232170000Y-42820000D03*
%TD*%
%TO.C,C36*%
X268720001Y-42820000D03*
X270270001Y-42820000D03*
%TD*%
%TO.C,C76*%
X344921974Y-85674911D03*
X346471974Y-85674911D03*
%TD*%
D17*
%TO.C,HE29*%
X312785000Y-61737500D03*
X310885000Y-61737500D03*
X311835000Y-59862500D03*
%TD*%
%TO.C,HE43*%
X227060000Y-80787500D03*
X225160000Y-80787500D03*
X226110000Y-78912500D03*
%TD*%
D19*
%TO.C,C104*%
X206802500Y-123790000D03*
X208352500Y-123790000D03*
%TD*%
D16*
%TO.C,C118*%
X166831250Y-141370000D03*
X165281250Y-141370000D03*
%TD*%
D19*
%TO.C,C32*%
X187757501Y-42820000D03*
X189307501Y-42820000D03*
%TD*%
D12*
%TO.C,LED65*%
X304347500Y-103230000D03*
X304347500Y-104730000D03*
X309797500Y-103230000D03*
D13*
X309797500Y-104730000D03*
%TD*%
D19*
%TO.C,C79*%
X416359474Y-85674911D03*
X417909474Y-85674911D03*
%TD*%
D12*
%TO.C,LED59*%
X190047500Y-103230000D03*
X190047500Y-104730000D03*
X195497500Y-103230000D03*
D13*
X195497500Y-104730000D03*
%TD*%
D12*
%TO.C,LED32*%
X375785000Y-65130000D03*
X375785000Y-66630000D03*
X381235000Y-65130000D03*
D13*
X381235000Y-66630000D03*
%TD*%
D16*
%TO.C,C51*%
X192987500Y-65150000D03*
X191437500Y-65150000D03*
%TD*%
D20*
%TO.C,R13*%
X80860000Y-104820000D03*
X80860000Y-106470000D03*
%TD*%
D30*
%TO.C,U3*%
X31442500Y-36015000D03*
X31442500Y-34745000D03*
X31442500Y-33475000D03*
X31442500Y-32205000D03*
X38617500Y-32205000D03*
X38617500Y-33475000D03*
X38617500Y-34745000D03*
X38617500Y-36015000D03*
%TD*%
D10*
%TO.C,LED74*%
X135966250Y-123780000D03*
X135966250Y-122280000D03*
X130516250Y-123780000D03*
D11*
X130516250Y-122280000D03*
%TD*%
D17*
%TO.C,HE69*%
X412797500Y-99837500D03*
X410897500Y-99837500D03*
X411847500Y-97962500D03*
%TD*%
D10*
%TO.C,LED39*%
X171685000Y-85680000D03*
X171685000Y-84180000D03*
X166235000Y-85680000D03*
D11*
X166235000Y-84180000D03*
%TD*%
D19*
%TO.C,C110*%
X321102500Y-123790000D03*
X322652500Y-123790000D03*
%TD*%
D20*
%TO.C,R10*%
X95813333Y-46620000D03*
X95813333Y-48270000D03*
%TD*%
D16*
%TO.C,C83*%
X123968750Y-103230000D03*
X122418750Y-103230000D03*
%TD*%
D21*
%TO.C,C18*%
X38790000Y-38962500D03*
X38790000Y-37412500D03*
%TD*%
D10*
%TO.C,LED44*%
X266935000Y-85680000D03*
X266935000Y-84180000D03*
X261485000Y-85680000D03*
D11*
X261485000Y-84180000D03*
%TD*%
D31*
%TO.C,Y1*%
X66326719Y-43226475D03*
X68526719Y-43226475D03*
X68526719Y-44926475D03*
X66326719Y-44926475D03*
%TD*%
D16*
%TO.C,C86*%
X188262500Y-103230000D03*
X186712500Y-103230000D03*
%TD*%
%TO.C,C81*%
X50150000Y-103230000D03*
X48600000Y-103230000D03*
%TD*%
D12*
%TO.C,LED24*%
X213860000Y-65130000D03*
X213860000Y-66630000D03*
X219310000Y-65130000D03*
D13*
X219310000Y-66630000D03*
%TD*%
D17*
%TO.C,HE62*%
X250872500Y-99837500D03*
X248972500Y-99837500D03*
X249922500Y-97962500D03*
%TD*%
D20*
%TO.C,R7*%
X40510000Y-35730000D03*
X40510000Y-37380000D03*
%TD*%
D19*
%TO.C,C35*%
X249670002Y-42820000D03*
X251220002Y-42820000D03*
%TD*%
D16*
%TO.C,C116*%
X119206250Y-141370000D03*
X117656250Y-141370000D03*
%TD*%
D32*
%TO.C,Q2*%
X109815000Y-49790001D03*
X109815000Y-47890001D03*
X111690001Y-48840001D03*
%TD*%
D16*
%TO.C,C125*%
X402575000Y-141370000D03*
X401025000Y-141370000D03*
%TD*%
D12*
%TO.C,LED52*%
X32885000Y-103230000D03*
X32885000Y-104730000D03*
X38335000Y-103230000D03*
D13*
X38335000Y-104730000D03*
%TD*%
D17*
%TO.C,HE76*%
X184197500Y-118887500D03*
X182297500Y-118887500D03*
X183247500Y-117012500D03*
%TD*%
%TO.C,HE44*%
X246110000Y-80787500D03*
X244210000Y-80787500D03*
X245160000Y-78912500D03*
%TD*%
D12*
%TO.C,LED21*%
X156710000Y-65130000D03*
X156710000Y-66630000D03*
X162160000Y-65130000D03*
D13*
X162160000Y-66630000D03*
%TD*%
D17*
%TO.C,HE75*%
X165147500Y-118887500D03*
X163247500Y-118887500D03*
X164197500Y-117012500D03*
%TD*%
D19*
%TO.C,C13*%
X87995528Y-47368461D03*
X89545528Y-47368461D03*
%TD*%
D12*
%TO.C,LED66*%
X323397500Y-103230000D03*
X323397500Y-104730000D03*
X328847500Y-103230000D03*
D13*
X328847500Y-104730000D03*
%TD*%
D16*
%TO.C,C48*%
X135837500Y-65150000D03*
X134287500Y-65150000D03*
%TD*%
D10*
%TO.C,LED77*%
X205022500Y-123780000D03*
X205022500Y-122280000D03*
X199572500Y-123780000D03*
D11*
X199572500Y-122280000D03*
%TD*%
D21*
%TO.C,C129*%
X252916719Y-99021475D03*
X252916719Y-97471475D03*
%TD*%
D19*
%TO.C,C105*%
X225852500Y-123790000D03*
X227402500Y-123790000D03*
%TD*%
D12*
%TO.C,LED16*%
X51935000Y-65130000D03*
X51935000Y-66630000D03*
X57385000Y-65130000D03*
D13*
X57385000Y-66630000D03*
%TD*%
D19*
%TO.C,C19*%
X66725247Y-46805907D03*
X68275247Y-46805907D03*
%TD*%
D17*
%TO.C,HE4*%
X184197500Y-37925000D03*
X182297500Y-37925000D03*
X183247500Y-36050000D03*
%TD*%
%TO.C,HE70*%
X36560000Y-118887500D03*
X34660000Y-118887500D03*
X35610000Y-117012500D03*
%TD*%
%TO.C,HE42*%
X208010000Y-80787500D03*
X206110000Y-80787500D03*
X207060000Y-78912500D03*
%TD*%
D33*
%TO.C,R14*%
X114736719Y-42841475D03*
X116386719Y-42841475D03*
%TD*%
D19*
%TO.C,C30*%
X149657501Y-42820000D03*
X151207501Y-42820000D03*
%TD*%
%TO.C,C41*%
X368732501Y-42820000D03*
X370282501Y-42820000D03*
%TD*%
D17*
%TO.C,HE49*%
X341360000Y-80787500D03*
X339460000Y-80787500D03*
X340410000Y-78912500D03*
%TD*%
%TO.C,HE24*%
X217535000Y-61737500D03*
X215635000Y-61737500D03*
X216585000Y-59862500D03*
%TD*%
D26*
%TO.C,BOOT_BTN1*%
X82125070Y-106499924D03*
X82125070Y-110700076D03*
X84274930Y-106499924D03*
X84274930Y-110700076D03*
%TD*%
D34*
%TO.C,R4*%
X100617500Y-34610000D03*
X99422500Y-34610000D03*
%TD*%
D17*
%TO.C,HE47*%
X303260000Y-80787500D03*
X301360000Y-80787500D03*
X302310000Y-78912500D03*
%TD*%
D19*
%TO.C,C102*%
X168702500Y-123790000D03*
X170252500Y-123790000D03*
%TD*%
%TO.C,C23*%
X92860000Y-42370000D03*
X94410000Y-42370000D03*
%TD*%
D12*
%TO.C,LED55*%
X90035000Y-93705000D03*
X90035000Y-95205000D03*
X95485000Y-93705000D03*
D13*
X95485000Y-95205000D03*
%TD*%
D17*
%TO.C,HE59*%
X193722500Y-99837500D03*
X191822500Y-99837500D03*
X192772500Y-97962500D03*
%TD*%
%TO.C,HE6*%
X227060000Y-37925000D03*
X225160000Y-37925000D03*
X226110000Y-36050000D03*
%TD*%
D10*
%TO.C,LED2*%
X147872500Y-42817500D03*
X147872500Y-41317500D03*
X142422500Y-42817500D03*
D11*
X142422500Y-41317500D03*
%TD*%
D17*
%TO.C,HE94*%
X331835000Y-137937500D03*
X329935000Y-137937500D03*
X330885000Y-136062500D03*
%TD*%
D19*
%TO.C,C111*%
X340152500Y-123790000D03*
X341702500Y-123790000D03*
%TD*%
D16*
%TO.C,C126*%
X407300000Y-65150000D03*
X405750000Y-65150000D03*
%TD*%
D17*
%TO.C,HE33*%
X412797500Y-61737500D03*
X410897500Y-61737500D03*
X411847500Y-59862500D03*
%TD*%
D35*
%TO.C,J6*%
X46360000Y-73460000D03*
X46359999Y-74460000D03*
X46360000Y-75460000D03*
D36*
X43834999Y-72160000D03*
X43834999Y-76760000D03*
%TD*%
D10*
%TO.C,LED36*%
X76435000Y-85680000D03*
X76435000Y-84180000D03*
X70985000Y-85680000D03*
D11*
X70985000Y-84180000D03*
%TD*%
D12*
%TO.C,LED54*%
X70985000Y-103230000D03*
X70985000Y-104730000D03*
X76435000Y-103230000D03*
D13*
X76435000Y-104730000D03*
%TD*%
D19*
%TO.C,C107*%
X263952500Y-123790000D03*
X265502500Y-123790000D03*
%TD*%
%TO.C,C40*%
X349682502Y-42820000D03*
X351232502Y-42820000D03*
%TD*%
D12*
%TO.C,LED98*%
X404360000Y-141330000D03*
X404360000Y-142830000D03*
X409810000Y-141330000D03*
D13*
X409810000Y-142830000D03*
%TD*%
D19*
%TO.C,C99*%
X78215000Y-123790000D03*
X79765000Y-123790000D03*
%TD*%
D16*
%TO.C,C114*%
X31100000Y-141370000D03*
X29550000Y-141370000D03*
%TD*%
D17*
%TO.C,HE67*%
X346122500Y-99837500D03*
X344222500Y-99837500D03*
X345172500Y-97962500D03*
%TD*%
D19*
%TO.C,C103*%
X187752500Y-123790000D03*
X189302500Y-123790000D03*
%TD*%
D16*
%TO.C,C117*%
X143018750Y-141370000D03*
X141468750Y-141370000D03*
%TD*%
D12*
%TO.C,LED91*%
X168616250Y-141330000D03*
X168616250Y-142830000D03*
X174066250Y-141330000D03*
D13*
X174066250Y-142830000D03*
%TD*%
D10*
%TO.C,LED85*%
X364566250Y-123780000D03*
X364566250Y-122280000D03*
X359116250Y-123780000D03*
D11*
X359116250Y-122280000D03*
%TD*%
D19*
%TO.C,C73*%
X287771974Y-85674911D03*
X289321974Y-85674911D03*
%TD*%
D16*
%TO.C,C58*%
X326337500Y-65150000D03*
X324787500Y-65150000D03*
%TD*%
D12*
%TO.C,LED28*%
X290060000Y-65130000D03*
X290060000Y-66630000D03*
X295510000Y-65130000D03*
D13*
X295510000Y-66630000D03*
%TD*%
D17*
%TO.C,HE2*%
X146097500Y-37925000D03*
X144197500Y-37925000D03*
X145147500Y-36050000D03*
%TD*%
D12*
%TO.C,LED93*%
X309110000Y-141330000D03*
X309110000Y-142830000D03*
X314560000Y-141330000D03*
D13*
X314560000Y-142830000D03*
%TD*%
D12*
%TO.C,LED29*%
X309110000Y-65130000D03*
X309110000Y-66630000D03*
X314560000Y-65130000D03*
D13*
X314560000Y-66630000D03*
%TD*%
D16*
%TO.C,C90*%
X264462500Y-103230000D03*
X262912500Y-103230000D03*
%TD*%
D19*
%TO.C,C42*%
X392545001Y-42820000D03*
X394095001Y-42820000D03*
%TD*%
D17*
%TO.C,HE55*%
X74660000Y-99837500D03*
X72760000Y-99837500D03*
X73710000Y-97962500D03*
%TD*%
D10*
%TO.C,LED70*%
X38335000Y-123780000D03*
X38335000Y-122280000D03*
X32885000Y-123780000D03*
D11*
X32885000Y-122280000D03*
%TD*%
D16*
%TO.C,C47*%
X116787500Y-65150000D03*
X115237500Y-65150000D03*
%TD*%
D12*
%TO.C,LED31*%
X347210000Y-65130000D03*
X347210000Y-66630000D03*
X352660000Y-65130000D03*
D13*
X352660000Y-66630000D03*
%TD*%
D19*
%TO.C,C112*%
X366346250Y-123790000D03*
X367896250Y-123790000D03*
%TD*%
%TO.C,C61*%
X40119278Y-85681442D03*
X41669278Y-85681442D03*
%TD*%
D20*
%TO.C,R3*%
X108050000Y-48008820D03*
X108050000Y-49658820D03*
%TD*%
D16*
%TO.C,C75*%
X322175000Y-87667499D03*
X320625000Y-87667499D03*
%TD*%
D17*
%TO.C,HE61*%
X231822500Y-99837500D03*
X229922500Y-99837500D03*
X230872500Y-97962500D03*
%TD*%
D19*
%TO.C,C66*%
X154421974Y-85674911D03*
X155971974Y-85674911D03*
%TD*%
D16*
%TO.C,C87*%
X207312500Y-103230000D03*
X205762500Y-103230000D03*
%TD*%
D10*
%TO.C,LED82*%
X300272500Y-123780000D03*
X300272500Y-122280000D03*
X294822500Y-123780000D03*
D11*
X294822500Y-122280000D03*
%TD*%
D16*
%TO.C,C50*%
X173937500Y-65150000D03*
X172387500Y-65150000D03*
%TD*%
D10*
%TO.C,LED4*%
X185972500Y-42817500D03*
X185972500Y-41317500D03*
X180522500Y-42817500D03*
D11*
X180522500Y-41317500D03*
%TD*%
D19*
%TO.C,C106*%
X244902500Y-123790000D03*
X246452500Y-123790000D03*
%TD*%
D16*
%TO.C,C120*%
X307325000Y-141370000D03*
X305775000Y-141370000D03*
%TD*%
%TO.C,C91*%
X283512500Y-103230000D03*
X281962500Y-103230000D03*
%TD*%
D19*
%TO.C,C68*%
X192521974Y-85674911D03*
X194071974Y-85674911D03*
%TD*%
D17*
%TO.C,HE19*%
X122285000Y-61737500D03*
X120385000Y-61737500D03*
X121335000Y-59862500D03*
%TD*%
D19*
%TO.C,C74*%
X306821974Y-85674911D03*
X308371974Y-85674911D03*
%TD*%
D10*
%TO.C,LED81*%
X281222500Y-123780000D03*
X281222500Y-122280000D03*
X275772500Y-123780000D03*
D11*
X275772500Y-122280000D03*
%TD*%
D12*
%TO.C,LED27*%
X271010000Y-65130000D03*
X271010000Y-66630000D03*
X276460000Y-65130000D03*
D13*
X276460000Y-66630000D03*
%TD*%
D37*
%TO.C,R1*%
X108028150Y-46205000D03*
X108028150Y-44555000D03*
%TD*%
D19*
%TO.C,C101*%
X137746250Y-123790000D03*
X139296250Y-123790000D03*
%TD*%
D12*
%TO.C,LED17*%
X70985000Y-65130000D03*
X70985000Y-66630000D03*
X76435000Y-65130000D03*
D13*
X76435000Y-66630000D03*
%TD*%
D17*
%TO.C,HE97*%
X388985000Y-137937500D03*
X387085000Y-137937500D03*
X388035000Y-136062500D03*
%TD*%
%TO.C,HE21*%
X160385000Y-61737500D03*
X158485000Y-61737500D03*
X159435000Y-59862500D03*
%TD*%
D16*
%TO.C,C82*%
X69200000Y-103230000D03*
X67650000Y-103230000D03*
%TD*%
D17*
%TO.C,HE26*%
X255630000Y-61737500D03*
X253730000Y-61737500D03*
X254680000Y-59862500D03*
%TD*%
D16*
%TO.C,C121*%
X326375000Y-141370000D03*
X324825000Y-141370000D03*
%TD*%
D10*
%TO.C,LED40*%
X190735000Y-85680000D03*
X190735000Y-84180000D03*
X185285000Y-85680000D03*
D11*
X185285000Y-84180000D03*
%TD*%
D20*
%TO.C,R6*%
X29500000Y-33480000D03*
X29500000Y-35130000D03*
%TD*%
D17*
%TO.C,HE87*%
X36560000Y-137937500D03*
X34660000Y-137937500D03*
X35610000Y-136062500D03*
%TD*%
%TO.C,HE39*%
X150860000Y-80787500D03*
X148960000Y-80787500D03*
X149910000Y-78912500D03*
%TD*%
%TO.C,HE57*%
X155622500Y-99837500D03*
X153722500Y-99837500D03*
X154672500Y-97962500D03*
%TD*%
D10*
%TO.C,LED79*%
X243122500Y-123780000D03*
X243122500Y-122280000D03*
X237672500Y-123780000D03*
D11*
X237672500Y-122280000D03*
%TD*%
D17*
%TO.C,HE92*%
X243728750Y-137937500D03*
X241828750Y-137937500D03*
X242778750Y-136062500D03*
%TD*%
D10*
%TO.C,LED3*%
X166922500Y-42817500D03*
X166922500Y-41317500D03*
X161472500Y-42817500D03*
D11*
X161472500Y-41317500D03*
%TD*%
D16*
%TO.C,C94*%
X340662500Y-103230000D03*
X339112500Y-103230000D03*
%TD*%
D19*
%TO.C,C37*%
X287770001Y-42820000D03*
X289320001Y-42820000D03*
%TD*%
D12*
%TO.C,LED15*%
X32885000Y-65130000D03*
X32885000Y-66630000D03*
X38335000Y-65130000D03*
D13*
X38335000Y-66630000D03*
%TD*%
D17*
%TO.C,HE38*%
X127047500Y-80787500D03*
X125147500Y-80787500D03*
X126097500Y-78912500D03*
%TD*%
D16*
%TO.C,C95*%
X371618750Y-103230000D03*
X370068750Y-103230000D03*
%TD*%
D12*
%TO.C,LED23*%
X194810000Y-65130000D03*
X194810000Y-66630000D03*
X200260000Y-65130000D03*
D13*
X200260000Y-66630000D03*
%TD*%
D17*
%TO.C,HE8*%
X265160000Y-37925000D03*
X263260000Y-37925000D03*
X264210000Y-36050000D03*
%TD*%
D21*
%TO.C,C21*%
X60800000Y-41975000D03*
X60800000Y-40425000D03*
%TD*%
D19*
%TO.C,C77*%
X363971974Y-85674911D03*
X365521974Y-85674911D03*
%TD*%
D38*
%TO.C,U6*%
X110051450Y-95018920D03*
X109697897Y-94665368D03*
X109344343Y-94311813D03*
X108990790Y-93958260D03*
X108637237Y-93604707D03*
X108283683Y-93251153D03*
X107930130Y-92897600D03*
X107576576Y-92544046D03*
X107223023Y-92190493D03*
X106869470Y-91836940D03*
X106515915Y-91483386D03*
X106162363Y-91129833D03*
D39*
X106162363Y-89270425D03*
X106515915Y-88916872D03*
X106869470Y-88563318D03*
X107223023Y-88209765D03*
X107576576Y-87856212D03*
X107930130Y-87502658D03*
X108283683Y-87149105D03*
X108637237Y-86795551D03*
X108990790Y-86441998D03*
X109344343Y-86088445D03*
X109697897Y-85734890D03*
X110051450Y-85381338D03*
D38*
X111910858Y-85381338D03*
X112264411Y-85734890D03*
X112617965Y-86088445D03*
X112971518Y-86441998D03*
X113325071Y-86795551D03*
X113678625Y-87149105D03*
X114032178Y-87502658D03*
X114385732Y-87856212D03*
X114739285Y-88209765D03*
X115092838Y-88563318D03*
X115446393Y-88916872D03*
X115799945Y-89270425D03*
D39*
X115799945Y-91129833D03*
X115446393Y-91483386D03*
X115092838Y-91836940D03*
X114739285Y-92190493D03*
X114385732Y-92544046D03*
X114032178Y-92897600D03*
X113678625Y-93251153D03*
X113325071Y-93604707D03*
X112971518Y-93958260D03*
X112617965Y-94311813D03*
X112264411Y-94665368D03*
X111910858Y-95018920D03*
%TD*%
D16*
%TO.C,C80*%
X31100000Y-103230000D03*
X29550000Y-103230000D03*
%TD*%
%TO.C,C55*%
X269187500Y-65150000D03*
X267637500Y-65150000D03*
%TD*%
D17*
%TO.C,HE72*%
X74660000Y-118887500D03*
X72760000Y-118887500D03*
X73710000Y-117012500D03*
%TD*%
D12*
%TO.C,LED20*%
X137660000Y-65130000D03*
X137660000Y-66630000D03*
X143110000Y-65130000D03*
D13*
X143110000Y-66630000D03*
%TD*%
D33*
%TO.C,FB1*%
X70550000Y-33600000D03*
X72200000Y-33600000D03*
%TD*%
D19*
%TO.C,C109*%
X302052500Y-123790000D03*
X303602500Y-123790000D03*
%TD*%
D17*
%TO.C,HE30*%
X331835000Y-61737500D03*
X329935000Y-61737500D03*
X330885000Y-59862500D03*
%TD*%
D39*
%TO.C,U9*%
X335795576Y-91152483D03*
X335442024Y-91506036D03*
X335088469Y-91859590D03*
X334734916Y-92213143D03*
X334381363Y-92566696D03*
X334027809Y-92920250D03*
X333674256Y-93273803D03*
X333320702Y-93627357D03*
X332967149Y-93980910D03*
X332613596Y-94334463D03*
X332260042Y-94688018D03*
X331906489Y-95041570D03*
D40*
X330047081Y-95041570D03*
X329693528Y-94688018D03*
X329339974Y-94334463D03*
X328986421Y-93980910D03*
X328632868Y-93627357D03*
X328279314Y-93273803D03*
X327925761Y-92920250D03*
X327572207Y-92566696D03*
X327218654Y-92213143D03*
X326865101Y-91859590D03*
X326511546Y-91506036D03*
X326157994Y-91152483D03*
D39*
X326157994Y-89293075D03*
X326511546Y-88939522D03*
X326865101Y-88585968D03*
X327218654Y-88232415D03*
X327572207Y-87878862D03*
X327925761Y-87525308D03*
X328279314Y-87171755D03*
X328632868Y-86818201D03*
X328986421Y-86464648D03*
X329339974Y-86111095D03*
X329693528Y-85757540D03*
X330047081Y-85403988D03*
D40*
X331906489Y-85403988D03*
X332260042Y-85757540D03*
X332613596Y-86111095D03*
X332967149Y-86464648D03*
X333320702Y-86818201D03*
X333674256Y-87171755D03*
X334027809Y-87525308D03*
X334381363Y-87878862D03*
X334734916Y-88232415D03*
X335088469Y-88585968D03*
X335442024Y-88939522D03*
X335795576Y-89293075D03*
%TD*%
D16*
%TO.C,C28*%
X90916537Y-45765747D03*
X89366537Y-45765747D03*
%TD*%
D17*
%TO.C,HE27*%
X274685000Y-61737500D03*
X272785000Y-61737500D03*
X273735000Y-59862500D03*
%TD*%
%TO.C,HE45*%
X265160000Y-80787500D03*
X263260000Y-80787500D03*
X264210000Y-78912500D03*
%TD*%
%TO.C,HE58*%
X174672500Y-99837500D03*
X172772500Y-99837500D03*
X173722500Y-97962500D03*
%TD*%
D16*
%TO.C,C64*%
X88250000Y-93700000D03*
X86700000Y-93700000D03*
%TD*%
D32*
%TO.C,Q1*%
X109804704Y-46345739D03*
X109804704Y-44445739D03*
X111679705Y-45395739D03*
%TD*%
D10*
%TO.C,LED34*%
X38335000Y-85680000D03*
X38335000Y-84180000D03*
X32885000Y-85680000D03*
D11*
X32885000Y-84180000D03*
%TD*%
D17*
%TO.C,HE15*%
X36560000Y-61737500D03*
X34660000Y-61737500D03*
X35610000Y-59862500D03*
%TD*%
D12*
%TO.C,LED68*%
X373403750Y-103230000D03*
X373403750Y-104730000D03*
X378853750Y-103230000D03*
D13*
X378853750Y-104730000D03*
%TD*%
D20*
%TO.C,R11*%
X94336667Y-46620000D03*
X94336667Y-48270000D03*
%TD*%
D12*
%TO.C,LED67*%
X342447500Y-103230000D03*
X342447500Y-104730000D03*
X347897500Y-103230000D03*
D13*
X347897500Y-104730000D03*
%TD*%
D17*
%TO.C,HE1*%
X122285000Y-37925000D03*
X120385000Y-37925000D03*
X121335000Y-36050000D03*
%TD*%
D39*
%TO.C,U7*%
X183522482Y-91152483D03*
X183168930Y-91506036D03*
X182815375Y-91859590D03*
X182461822Y-92213143D03*
X182108269Y-92566696D03*
X181754715Y-92920250D03*
X181401162Y-93273803D03*
X181047608Y-93627357D03*
X180694055Y-93980910D03*
X180340502Y-94334463D03*
X179986948Y-94688018D03*
X179633395Y-95041570D03*
D40*
X177773987Y-95041570D03*
X177420434Y-94688018D03*
X177066880Y-94334463D03*
X176713327Y-93980910D03*
X176359774Y-93627357D03*
X176006220Y-93273803D03*
X175652667Y-92920250D03*
X175299113Y-92566696D03*
X174945560Y-92213143D03*
X174592007Y-91859590D03*
X174238452Y-91506036D03*
X173884900Y-91152483D03*
D39*
X173884900Y-89293075D03*
X174238452Y-88939522D03*
X174592007Y-88585968D03*
X174945560Y-88232415D03*
X175299113Y-87878862D03*
X175652667Y-87525308D03*
X176006220Y-87171755D03*
X176359774Y-86818201D03*
X176713327Y-86464648D03*
X177066880Y-86111095D03*
X177420434Y-85757540D03*
X177773987Y-85403988D03*
D40*
X179633395Y-85403988D03*
X179986948Y-85757540D03*
X180340502Y-86111095D03*
X180694055Y-86464648D03*
X181047608Y-86818201D03*
X181401162Y-87171755D03*
X181754715Y-87525308D03*
X182108269Y-87878862D03*
X182461822Y-88232415D03*
X182815375Y-88585968D03*
X183168930Y-88939522D03*
X183522482Y-89293075D03*
%TD*%
D10*
%TO.C,LED41*%
X209785000Y-85680000D03*
X209785000Y-84180000D03*
X204335000Y-85680000D03*
D11*
X204335000Y-84180000D03*
%TD*%
D17*
%TO.C,HE3*%
X165147500Y-37925000D03*
X163247500Y-37925000D03*
X164197500Y-36050000D03*
%TD*%
D12*
%TO.C,LED61*%
X228147500Y-103230000D03*
X228147500Y-104730000D03*
X233597500Y-103230000D03*
D13*
X233597500Y-104730000D03*
%TD*%
D17*
%TO.C,HE88*%
X65135000Y-137937500D03*
X63235000Y-137937500D03*
X64185000Y-136062500D03*
%TD*%
D10*
%TO.C,LED35*%
X57385000Y-85680000D03*
X57385000Y-84180000D03*
X51935000Y-85680000D03*
D11*
X51935000Y-84180000D03*
%TD*%
D17*
%TO.C,HE22*%
X179435000Y-61737500D03*
X177535000Y-61737500D03*
X178485000Y-59862500D03*
%TD*%
D10*
%TO.C,LED42*%
X228835000Y-85680000D03*
X228835000Y-84180000D03*
X223385000Y-85680000D03*
D11*
X223385000Y-84180000D03*
%TD*%
D10*
%TO.C,LED86*%
X390760000Y-123780000D03*
X390760000Y-122280000D03*
X385310000Y-123780000D03*
D11*
X385310000Y-122280000D03*
%TD*%
D10*
%TO.C,LED49*%
X362185000Y-85680000D03*
X362185000Y-84180000D03*
X356735000Y-85680000D03*
D11*
X356735000Y-84180000D03*
%TD*%
D41*
%TO.C,U5*%
X76211719Y-46091474D03*
X76211719Y-45591475D03*
X76211719Y-45091475D03*
X76211719Y-44591475D03*
X76211719Y-44091475D03*
X76211719Y-43591474D03*
X76211719Y-43091475D03*
X76211719Y-42591475D03*
X76211719Y-42091475D03*
X76211719Y-41591475D03*
X76211719Y-41091476D03*
X76211719Y-40591475D03*
X76211719Y-40091475D03*
X76211719Y-39591475D03*
X76211719Y-39091475D03*
X76211719Y-38591476D03*
D42*
X78136720Y-36666475D03*
X78636719Y-36666475D03*
X79136719Y-36666475D03*
X79636719Y-36666475D03*
X80136719Y-36666475D03*
X80636720Y-36666475D03*
X81136719Y-36666475D03*
X81636719Y-36666475D03*
X82136719Y-36666475D03*
X82636719Y-36666475D03*
X83136718Y-36666475D03*
X83636719Y-36666475D03*
X84136719Y-36666475D03*
X84636719Y-36666475D03*
X85136719Y-36666475D03*
X85636718Y-36666475D03*
D41*
X87561719Y-38591476D03*
X87561719Y-39091475D03*
X87561719Y-39591475D03*
X87561719Y-40091475D03*
X87561719Y-40591475D03*
X87561719Y-41091476D03*
X87561719Y-41591475D03*
X87561719Y-42091475D03*
X87561719Y-42591475D03*
X87561719Y-43091475D03*
X87561719Y-43591474D03*
X87561719Y-44091475D03*
X87561719Y-44591475D03*
X87561719Y-45091475D03*
X87561719Y-45591475D03*
X87561719Y-46091474D03*
D42*
X85636718Y-48016475D03*
X85136719Y-48016475D03*
X84636719Y-48016475D03*
X84136719Y-48016475D03*
X83636719Y-48016475D03*
X83136718Y-48016475D03*
X82636719Y-48016475D03*
X82136719Y-48016475D03*
X81636719Y-48016475D03*
X81136719Y-48016475D03*
X80636720Y-48016475D03*
X80136719Y-48016475D03*
X79636719Y-48016475D03*
X79136719Y-48016475D03*
X78636719Y-48016475D03*
X78136720Y-48016475D03*
%TD*%
D17*
%TO.C,HE73*%
X93710000Y-128412500D03*
X91810000Y-128412500D03*
X92760000Y-126537500D03*
%TD*%
%TO.C,HE11*%
X327072500Y-37925000D03*
X325172500Y-37925000D03*
X326122500Y-36050000D03*
%TD*%
%TO.C,HE82*%
X298497500Y-118887500D03*
X296597500Y-118887500D03*
X297547500Y-117012500D03*
%TD*%
D16*
%TO.C,C93*%
X321612500Y-103230000D03*
X320062500Y-103230000D03*
%TD*%
D19*
%TO.C,C29*%
X125845000Y-42820000D03*
X127395000Y-42820000D03*
%TD*%
D10*
%TO.C,LED7*%
X247885000Y-42817500D03*
X247885000Y-41317500D03*
X242435000Y-42817500D03*
D11*
X242435000Y-41317500D03*
%TD*%
D25*
%TO.C,C6*%
X121047630Y-45522647D03*
X121047630Y-47072647D03*
%TD*%
D16*
%TO.C,C88*%
X226362500Y-103230000D03*
X224812500Y-103230000D03*
%TD*%
D19*
%TO.C,C72*%
X268721974Y-85674911D03*
X270271974Y-85674911D03*
%TD*%
D17*
%TO.C,HE78*%
X222297500Y-118887500D03*
X220397500Y-118887500D03*
X221347500Y-117012500D03*
%TD*%
%TO.C,HE91*%
X172291250Y-137937500D03*
X170391250Y-137937500D03*
X171341250Y-136062500D03*
%TD*%
D16*
%TO.C,C44*%
X50112500Y-65150000D03*
X48562500Y-65150000D03*
%TD*%
D19*
%TO.C,C26*%
X92860000Y-37129434D03*
X94410000Y-37129434D03*
%TD*%
D12*
%TO.C,LED94*%
X328160000Y-141330000D03*
X328160000Y-142830000D03*
X333610000Y-141330000D03*
D13*
X333610000Y-142830000D03*
%TD*%
D25*
%TO.C,C1*%
X131770000Y-45460000D03*
X131770000Y-47010000D03*
%TD*%
D10*
%TO.C,LED80*%
X262172500Y-123780000D03*
X262172500Y-122280000D03*
X256722500Y-123780000D03*
D11*
X256722500Y-122280000D03*
%TD*%
D16*
%TO.C,C96*%
X407337500Y-103230000D03*
X405787500Y-103230000D03*
%TD*%
D17*
%TO.C,HE86*%
X388985000Y-118887500D03*
X387085000Y-118887500D03*
X388035000Y-117012500D03*
%TD*%
D21*
%TO.C,C128*%
X176686719Y-99021475D03*
X176686719Y-97471475D03*
%TD*%
D16*
%TO.C,C71*%
X245975000Y-87667499D03*
X244425000Y-87667499D03*
%TD*%
D10*
%TO.C,LED84*%
X338372500Y-123780000D03*
X338372500Y-122280000D03*
X332922500Y-123780000D03*
D11*
X332922500Y-122280000D03*
%TD*%
D10*
%TO.C,LED12*%
X347897500Y-42817500D03*
X347897500Y-41317500D03*
X342447500Y-42817500D03*
D11*
X342447500Y-41317500D03*
%TD*%
D21*
%TO.C,C130*%
X329086719Y-99021475D03*
X329086719Y-97471475D03*
%TD*%
D16*
%TO.C,C20*%
X68204536Y-41361185D03*
X66654536Y-41361185D03*
%TD*%
D17*
%TO.C,HE48*%
X322310000Y-80787500D03*
X320410000Y-80787500D03*
X321360000Y-78912500D03*
%TD*%
D16*
%TO.C,C89*%
X245412500Y-103230000D03*
X243862500Y-103230000D03*
%TD*%
D25*
%TO.C,C2*%
X133260000Y-45460000D03*
X133260000Y-47010000D03*
%TD*%
D12*
%TO.C,LED92*%
X240053750Y-141330000D03*
X240053750Y-142830000D03*
X245503750Y-141330000D03*
D13*
X245503750Y-142830000D03*
%TD*%
D29*
%TO.C,U1*%
X109112149Y-37067351D03*
X110062148Y-37067351D03*
X111012147Y-37067351D03*
X111012147Y-39342351D03*
X109112149Y-39342351D03*
%TD*%
D17*
%TO.C,HE32*%
X379460000Y-61737500D03*
X377560000Y-61737500D03*
X378510000Y-59862500D03*
%TD*%
%TO.C,HE98*%
X408035000Y-137937500D03*
X406135000Y-137937500D03*
X407085000Y-136062500D03*
%TD*%
D12*
%TO.C,LED25*%
X232910000Y-65130000D03*
X232910000Y-66630000D03*
X238360000Y-65130000D03*
D13*
X238360000Y-66630000D03*
%TD*%
D16*
%TO.C,C123*%
X364475000Y-141370000D03*
X362925000Y-141370000D03*
%TD*%
D17*
%TO.C,HE77*%
X203247500Y-118887500D03*
X201347500Y-118887500D03*
X202297500Y-117012500D03*
%TD*%
D16*
%TO.C,C67*%
X169775000Y-87667499D03*
X168225000Y-87667499D03*
%TD*%
D21*
%TO.C,C14*%
X86923856Y-36222815D03*
X86923856Y-34672815D03*
%TD*%
D39*
%TO.C,U8*%
X259235443Y-91152483D03*
X258881891Y-91506036D03*
X258528336Y-91859590D03*
X258174783Y-92213143D03*
X257821230Y-92566696D03*
X257467676Y-92920250D03*
X257114123Y-93273803D03*
X256760569Y-93627357D03*
X256407016Y-93980910D03*
X256053463Y-94334463D03*
X255699909Y-94688018D03*
X255346356Y-95041570D03*
D40*
X253486948Y-95041570D03*
X253133395Y-94688018D03*
X252779841Y-94334463D03*
X252426288Y-93980910D03*
X252072735Y-93627357D03*
X251719181Y-93273803D03*
X251365628Y-92920250D03*
X251012074Y-92566696D03*
X250658521Y-92213143D03*
X250304968Y-91859590D03*
X249951413Y-91506036D03*
X249597861Y-91152483D03*
D39*
X249597861Y-89293075D03*
X249951413Y-88939522D03*
X250304968Y-88585968D03*
X250658521Y-88232415D03*
X251012074Y-87878862D03*
X251365628Y-87525308D03*
X251719181Y-87171755D03*
X252072735Y-86818201D03*
X252426288Y-86464648D03*
X252779841Y-86111095D03*
X253133395Y-85757540D03*
X253486948Y-85403988D03*
D40*
X255346356Y-85403988D03*
X255699909Y-85757540D03*
X256053463Y-86111095D03*
X256407016Y-86464648D03*
X256760569Y-86818201D03*
X257114123Y-87171755D03*
X257467676Y-87525308D03*
X257821230Y-87878862D03*
X258174783Y-88232415D03*
X258528336Y-88585968D03*
X258881891Y-88939522D03*
X259235443Y-89293075D03*
%TD*%
D17*
%TO.C,HE95*%
X350885000Y-137937500D03*
X348985000Y-137937500D03*
X349935000Y-136062500D03*
%TD*%
D16*
%TO.C,C16*%
X72150000Y-35075000D03*
X70600000Y-35075000D03*
%TD*%
%TO.C,C45*%
X69162500Y-65150000D03*
X67612500Y-65150000D03*
%TD*%
%TO.C,C115*%
X59675000Y-141370000D03*
X58125000Y-141370000D03*
%TD*%
D10*
%TO.C,LED73*%
X95485000Y-133305000D03*
X95485000Y-131805000D03*
X90035000Y-133305000D03*
D11*
X90035000Y-131805000D03*
%TD*%
D12*
%TO.C,LED56*%
X125753750Y-103230000D03*
X125753750Y-104730000D03*
X131203750Y-103230000D03*
D13*
X131203750Y-104730000D03*
%TD*%
D17*
%TO.C,HE66*%
X327072500Y-99837500D03*
X325172500Y-99837500D03*
X326122500Y-97962500D03*
%TD*%
D10*
%TO.C,LED76*%
X185972500Y-123780000D03*
X185972500Y-122280000D03*
X180522500Y-123780000D03*
D11*
X180522500Y-122280000D03*
%TD*%
D16*
%TO.C,C54*%
X250137500Y-65150000D03*
X248587500Y-65150000D03*
%TD*%
D10*
%TO.C,LED78*%
X224072500Y-123780000D03*
X224072500Y-122280000D03*
X218622500Y-123780000D03*
D11*
X218622500Y-122280000D03*
%TD*%
D19*
%TO.C,C31*%
X168707501Y-42820000D03*
X170257501Y-42820000D03*
%TD*%
D12*
%TO.C,LED58*%
X170997500Y-103230000D03*
X170997500Y-104730000D03*
X176447500Y-103230000D03*
D13*
X176447500Y-104730000D03*
%TD*%
D12*
%TO.C,LED95*%
X347210000Y-141330000D03*
X347210000Y-142830000D03*
X352660000Y-141330000D03*
D13*
X352660000Y-142830000D03*
%TD*%
D12*
%TO.C,LED18*%
X90035000Y-65130000D03*
X90035000Y-66630000D03*
X95485000Y-65130000D03*
D13*
X95485000Y-66630000D03*
%TD*%
D19*
%TO.C,C17*%
X70600883Y-32136445D03*
X72150883Y-32136445D03*
%TD*%
D16*
%TO.C,C85*%
X169212500Y-103230000D03*
X167662500Y-103230000D03*
%TD*%
D19*
%TO.C,C63*%
X78219278Y-85681442D03*
X79769278Y-85681442D03*
%TD*%
D43*
%TO.C,R9*%
X63980000Y-40440000D03*
X62330000Y-40440000D03*
%TD*%
D17*
%TO.C,HE90*%
X148478750Y-137937500D03*
X146578750Y-137937500D03*
X147528750Y-136062500D03*
%TD*%
%TO.C,HE35*%
X55610000Y-80787500D03*
X53710000Y-80787500D03*
X54660000Y-78912500D03*
%TD*%
D16*
%TO.C,C46*%
X88212500Y-65150000D03*
X86662500Y-65150000D03*
%TD*%
D17*
%TO.C,HE74*%
X134191250Y-118887500D03*
X132291250Y-118887500D03*
X133241250Y-117012500D03*
%TD*%
D16*
%TO.C,C92*%
X302562500Y-103230000D03*
X301012500Y-103230000D03*
%TD*%
D19*
%TO.C,C100*%
X97265000Y-133315000D03*
X98815000Y-133315000D03*
%TD*%
D12*
%TO.C,LED57*%
X151947500Y-103230000D03*
X151947500Y-104730000D03*
X157397500Y-103230000D03*
D13*
X157397500Y-104730000D03*
%TD*%
D12*
%TO.C,LED30*%
X328160000Y-65130000D03*
X328160000Y-66630000D03*
X333610000Y-65130000D03*
D13*
X333610000Y-66630000D03*
%TD*%
D10*
%TO.C,LED37*%
X128822500Y-85680000D03*
X128822500Y-84180000D03*
X123372500Y-85680000D03*
D11*
X123372500Y-84180000D03*
%TD*%
D44*
%TO.C,C127*%
X103600703Y-86625459D03*
X104696719Y-87721475D03*
%TD*%
D12*
%TO.C,LED33*%
X409122500Y-65130000D03*
X409122500Y-66630000D03*
X414572500Y-65130000D03*
D13*
X414572500Y-66630000D03*
%TD*%
D12*
%TO.C,LED63*%
X266247500Y-103230000D03*
X266247500Y-104730000D03*
X271697500Y-103230000D03*
D13*
X271697500Y-104730000D03*
%TD*%
D19*
%TO.C,C39*%
X330632500Y-42820000D03*
X332182500Y-42820000D03*
%TD*%
%TO.C,C65*%
X130609474Y-85674911D03*
X132159474Y-85674911D03*
%TD*%
D10*
%TO.C,LED14*%
X390760000Y-42817500D03*
X390760000Y-41317500D03*
X385310000Y-42817500D03*
D11*
X385310000Y-41317500D03*
%TD*%
D16*
%TO.C,C59*%
X345387500Y-65150000D03*
X343837500Y-65150000D03*
%TD*%
D19*
%TO.C,C62*%
X59169278Y-85681442D03*
X60719278Y-85681442D03*
%TD*%
D17*
%TO.C,HE52*%
X412797500Y-80787500D03*
X410897500Y-80787500D03*
X411847500Y-78912500D03*
%TD*%
%TO.C,HE53*%
X36560000Y-99837500D03*
X34660000Y-99837500D03*
X35610000Y-97962500D03*
%TD*%
D19*
%TO.C,C113*%
X392540000Y-123790000D03*
X394090000Y-123790000D03*
%TD*%
D17*
%TO.C,HE71*%
X55610000Y-118887500D03*
X53710000Y-118887500D03*
X54660000Y-117012500D03*
%TD*%
%TO.C,HE63*%
X269922500Y-99837500D03*
X268022500Y-99837500D03*
X268972500Y-97962500D03*
%TD*%
D16*
%TO.C,C122*%
X345425000Y-141370000D03*
X343875000Y-141370000D03*
%TD*%
D17*
%TO.C,HE13*%
X365172500Y-37925000D03*
X363272500Y-37925000D03*
X364222500Y-36050000D03*
%TD*%
%TO.C,HE56*%
X129428750Y-99837500D03*
X127528750Y-99837500D03*
X128478750Y-97962500D03*
%TD*%
D19*
%TO.C,C78*%
X387784474Y-85674911D03*
X389334474Y-85674911D03*
%TD*%
D17*
%TO.C,HE54*%
X55610000Y-99837500D03*
X53710000Y-99837500D03*
X54660000Y-97962500D03*
%TD*%
D10*
%TO.C,LED71*%
X57385000Y-123780000D03*
X57385000Y-122280000D03*
X51935000Y-123780000D03*
D11*
X51935000Y-122280000D03*
%TD*%
D20*
%TO.C,R8*%
X97290000Y-46620000D03*
X97290000Y-48270000D03*
%TD*%
D10*
%TO.C,LED5*%
X205022500Y-42817500D03*
X205022500Y-41317500D03*
X199572500Y-42817500D03*
D11*
X199572500Y-41317500D03*
%TD*%
D12*
%TO.C,LED90*%
X144803750Y-141330000D03*
X144803750Y-142830000D03*
X150253750Y-141330000D03*
D13*
X150253750Y-142830000D03*
%TD*%
D17*
%TO.C,HE16*%
X55610000Y-61737500D03*
X53710000Y-61737500D03*
X54660000Y-59862500D03*
%TD*%
D25*
%TO.C,C27*%
X85310000Y-33320000D03*
X85310000Y-34870000D03*
%TD*%
D12*
%TO.C,LED53*%
X51935000Y-103230000D03*
X51935000Y-104730000D03*
X57385000Y-103230000D03*
D13*
X57385000Y-104730000D03*
%TD*%
D16*
%TO.C,C124*%
X383525000Y-141370000D03*
X381975000Y-141370000D03*
%TD*%
D19*
%TO.C,C98*%
X59165000Y-123790000D03*
X60715000Y-123790000D03*
%TD*%
D10*
%TO.C,LED13*%
X366947500Y-42817500D03*
X366947500Y-41317500D03*
X361497500Y-42817500D03*
D11*
X361497500Y-41317500D03*
%TD*%
D17*
%TO.C,HE18*%
X93710000Y-61737500D03*
X91810000Y-61737500D03*
X92760000Y-59862500D03*
%TD*%
D10*
%TO.C,LED9*%
X285985000Y-42817500D03*
X285985000Y-41317500D03*
X280535000Y-42817500D03*
D11*
X280535000Y-41317500D03*
%TD*%
D16*
%TO.C,C119*%
X238268750Y-141370000D03*
X236718750Y-141370000D03*
%TD*%
D17*
%TO.C,HE84*%
X336597500Y-118887500D03*
X334697500Y-118887500D03*
X335647500Y-117012500D03*
%TD*%
D10*
%TO.C,LED83*%
X319322500Y-123780000D03*
X319322500Y-122280000D03*
X313872500Y-123780000D03*
D11*
X313872500Y-122280000D03*
%TD*%
D10*
%TO.C,LED45*%
X285985000Y-85680000D03*
X285985000Y-84180000D03*
X280535000Y-85680000D03*
D11*
X280535000Y-84180000D03*
%TD*%
D45*
%TO.C,J2*%
X100062149Y-32162351D03*
X100862148Y-32162351D03*
D46*
X102062149Y-32162350D03*
X103062149Y-32162351D03*
X103562149Y-32162351D03*
X104562149Y-32162350D03*
D45*
X105762150Y-32162351D03*
X106562149Y-32162351D03*
X106562149Y-32162351D03*
X105762150Y-32162351D03*
D46*
X105062149Y-32162351D03*
X104062149Y-32162351D03*
X102562149Y-32162351D03*
X101562149Y-32162351D03*
D45*
X100862148Y-32162351D03*
X100062149Y-32162351D03*
%TD*%
D17*
%TO.C,HE85*%
X362791250Y-118887500D03*
X360891250Y-118887500D03*
X361841250Y-117012500D03*
%TD*%
%TO.C,HE46*%
X284210000Y-80787500D03*
X282310000Y-80787500D03*
X283260000Y-78912500D03*
%TD*%
D19*
%TO.C,C4*%
X110025000Y-32750000D03*
X111575000Y-32750000D03*
%TD*%
%TO.C,C24*%
X92860000Y-40623145D03*
X94410000Y-40623145D03*
%TD*%
D17*
%TO.C,HE20*%
X141335000Y-61737500D03*
X139435000Y-61737500D03*
X140385000Y-59862500D03*
%TD*%
%TO.C,HE51*%
X384222500Y-80787500D03*
X382322500Y-80787500D03*
X383272500Y-78912500D03*
%TD*%
%TO.C,HE34*%
X36560000Y-80787500D03*
X34660000Y-80787500D03*
X35610000Y-78912500D03*
%TD*%
D16*
%TO.C,C84*%
X150162500Y-103230000D03*
X148612500Y-103230000D03*
%TD*%
D25*
%TO.C,C11*%
X74367549Y-46096546D03*
X74367549Y-47646546D03*
%TD*%
D16*
%TO.C,C5*%
X107525000Y-39750000D03*
X105975000Y-39750000D03*
%TD*%
D10*
%TO.C,LED51*%
X414572500Y-85680000D03*
X414572500Y-84180000D03*
X409122500Y-85680000D03*
D11*
X409122500Y-84180000D03*
%TD*%
M02*
