%TF.GenerationSoftware,KiCad,Pcbnew,9.0.5*%
%TF.CreationDate,2026-01-21T21:44:40+07:00*%
%TF.ProjectId,MK98,4d4b3938-2e6b-4696-9361-645f70636258,rev?*%
%TF.SameCoordinates,Original*%
%TF.FileFunction,Legend,Top*%
%TF.FilePolarity,Positive*%
%FSLAX46Y46*%
G04 Gerber Fmt 4.6, Leading zero omitted, Abs format (unit mm)*
G04 Created by KiCad (PCBNEW 9.0.5) date 2026-01-21 21:44:40*
%MOMM*%
%LPD*%
G01*
G04 APERTURE LIST*
%ADD10C,0.200000*%
%ADD11C,0.150000*%
%ADD12C,0.120000*%
%ADD13C,3.048000*%
%ADD14C,3.987800*%
%ADD15C,0.800000*%
%ADD16C,6.400000*%
%ADD17R,1.700000X1.700000*%
%ADD18O,1.700000X1.700000*%
%ADD19R,2.000000X2.000000*%
%ADD20C,2.000000*%
%ADD21C,3.200000*%
%ADD22R,0.850000X0.850000*%
%ADD23C,0.850000*%
%ADD24C,1.600000*%
%ADD25C,0.650000*%
%ADD26O,1.000000X1.600000*%
%ADD27O,1.000000X2.100000*%
G04 APERTURE END LIST*
D10*
G36*
X44265230Y-40215990D02*
G01*
X40768445Y-40215990D01*
X40768445Y-39118809D01*
X40879556Y-39118809D01*
X40879556Y-39371539D01*
X40883575Y-39404735D01*
X40895152Y-39432853D01*
X40914421Y-39457085D01*
X41234746Y-39760985D01*
X41234746Y-39972010D01*
X41039413Y-39972010D01*
X41039413Y-39753169D01*
X40879556Y-39753169D01*
X40879556Y-40020187D01*
X40885759Y-40057724D01*
X40902625Y-40082804D01*
X40930997Y-40098746D01*
X40975848Y-40104879D01*
X41297638Y-40104879D01*
X41342861Y-40098727D01*
X41371426Y-40082755D01*
X41388376Y-40057671D01*
X41394603Y-40020187D01*
X41394603Y-39753779D01*
X41390514Y-39719220D01*
X41378877Y-39690697D01*
X41359737Y-39666829D01*
X41039413Y-39364334D01*
X41039413Y-39166986D01*
X41234746Y-39166986D01*
X41234746Y-39370196D01*
X41394603Y-39370196D01*
X41394603Y-39118809D01*
X41521243Y-39118809D01*
X41521243Y-40020187D01*
X41527400Y-40057830D01*
X41544098Y-40082904D01*
X41572082Y-40098783D01*
X41616192Y-40104879D01*
X41949522Y-40104879D01*
X42172883Y-40104879D01*
X42592980Y-40104879D01*
X42592980Y-39960287D01*
X42332740Y-39960287D01*
X42332740Y-39764892D01*
X43828238Y-39764892D01*
X44154119Y-39764892D01*
X44154119Y-39620301D01*
X43828238Y-39620301D01*
X43828238Y-39764892D01*
X42332740Y-39764892D01*
X42332740Y-39034118D01*
X42172883Y-39034118D01*
X42172883Y-40104879D01*
X41949522Y-40104879D01*
X41995151Y-40098706D01*
X42023927Y-40082702D01*
X42040968Y-40057614D01*
X42047220Y-40020187D01*
X42047220Y-39745353D01*
X41888034Y-39745353D01*
X41888034Y-39968103D01*
X41681100Y-39968103D01*
X41681100Y-39170894D01*
X41888034Y-39170894D01*
X41888034Y-39385828D01*
X42047220Y-39385828D01*
X42047220Y-39118809D01*
X42040968Y-39081382D01*
X42023927Y-39056295D01*
X41995151Y-39040290D01*
X41949522Y-39034118D01*
X41616192Y-39034118D01*
X41572082Y-39040213D01*
X41544098Y-39056093D01*
X41527400Y-39081167D01*
X41521243Y-39118809D01*
X41394603Y-39118809D01*
X41394603Y-39117405D01*
X41388425Y-39080667D01*
X41371556Y-39055991D01*
X41343001Y-39040212D01*
X41297638Y-39034118D01*
X40975848Y-39034118D01*
X40930997Y-39040251D01*
X40902625Y-39056192D01*
X40885759Y-39081273D01*
X40879556Y-39118809D01*
X40768445Y-39118809D01*
X40768445Y-38923007D01*
X44265230Y-38923007D01*
X44265230Y-40215990D01*
G37*
G36*
X41842814Y-36637151D02*
G01*
X41870444Y-36653654D01*
X41887250Y-36680210D01*
X41893530Y-36720714D01*
X41893530Y-37336939D01*
X41887059Y-37377823D01*
X41869657Y-37404791D01*
X41840836Y-37421672D01*
X41795833Y-37428103D01*
X41681100Y-37428103D01*
X41681100Y-36630894D01*
X41799924Y-36630894D01*
X41842814Y-36637151D01*
G37*
G36*
X42506335Y-37224892D02*
G01*
X42349898Y-37224892D01*
X42428422Y-36742269D01*
X42506335Y-37224892D01*
G37*
G36*
X44386375Y-37675990D02*
G01*
X40768445Y-37675990D01*
X40768445Y-36578809D01*
X40879556Y-36578809D01*
X40879556Y-36831539D01*
X40883575Y-36864735D01*
X40895152Y-36892853D01*
X40914421Y-36917085D01*
X41234746Y-37220985D01*
X41234746Y-37432010D01*
X41039413Y-37432010D01*
X41039413Y-37213169D01*
X40879556Y-37213169D01*
X40879556Y-37480187D01*
X40885759Y-37517724D01*
X40902625Y-37542804D01*
X40930997Y-37558746D01*
X40975848Y-37564879D01*
X41297638Y-37564879D01*
X41342861Y-37558727D01*
X41371426Y-37542755D01*
X41388376Y-37517671D01*
X41394603Y-37480187D01*
X41394603Y-37428103D01*
X41521243Y-37428103D01*
X41521243Y-37564879D01*
X41847063Y-37564879D01*
X41872938Y-37562131D01*
X42138811Y-37562131D01*
X42138811Y-37564879D01*
X42296592Y-37564879D01*
X42328710Y-37361668D01*
X42528867Y-37361668D01*
X42560984Y-37564879D01*
X42719437Y-37564879D01*
X42654158Y-37224892D01*
X43949383Y-37224892D01*
X44275264Y-37224892D01*
X44275264Y-37080301D01*
X43949383Y-37080301D01*
X43949383Y-37224892D01*
X42654158Y-37224892D01*
X42513846Y-36494118D01*
X42345807Y-36494118D01*
X42204173Y-37224892D01*
X42138811Y-37562131D01*
X41872938Y-37562131D01*
X41908209Y-37558385D01*
X41957668Y-37540165D01*
X41998005Y-37510840D01*
X42028431Y-37471504D01*
X42047313Y-37422700D01*
X42054058Y-37361668D01*
X42054058Y-36697328D01*
X42047336Y-36636741D01*
X42028474Y-36588030D01*
X41998005Y-36548523D01*
X41957641Y-36518984D01*
X41908182Y-36500649D01*
X41847063Y-36494118D01*
X41521243Y-36494118D01*
X41521243Y-37428103D01*
X41394603Y-37428103D01*
X41394603Y-37213779D01*
X41390514Y-37179220D01*
X41378877Y-37150697D01*
X41359737Y-37126829D01*
X41039413Y-36824334D01*
X41039413Y-36626986D01*
X41234746Y-36626986D01*
X41234746Y-36830196D01*
X41394603Y-36830196D01*
X41394603Y-36577405D01*
X41388425Y-36540667D01*
X41371556Y-36515991D01*
X41343001Y-36500212D01*
X41297638Y-36494118D01*
X40975848Y-36494118D01*
X40930997Y-36500251D01*
X40902625Y-36516192D01*
X40885759Y-36541273D01*
X40879556Y-36578809D01*
X40768445Y-36578809D01*
X40768445Y-36383007D01*
X44386375Y-36383007D01*
X44386375Y-37675990D01*
G37*
G36*
X44385398Y-42755990D02*
G01*
X40734983Y-42755990D01*
X40734983Y-41574118D01*
X40846094Y-41574118D01*
X41050342Y-42644879D01*
X41209467Y-42644879D01*
X41398234Y-41658809D01*
X41504634Y-41658809D01*
X41504634Y-42560187D01*
X41510792Y-42597830D01*
X41527489Y-42622904D01*
X41555473Y-42638783D01*
X41599584Y-42644879D01*
X41932914Y-42644879D01*
X41978542Y-42638706D01*
X42007318Y-42622702D01*
X42024360Y-42597614D01*
X42030611Y-42560187D01*
X42030611Y-42285353D01*
X41871426Y-42285353D01*
X41871426Y-42508103D01*
X41664491Y-42508103D01*
X41664491Y-41710894D01*
X41871426Y-41710894D01*
X41871426Y-41925828D01*
X42030611Y-41925828D01*
X42030611Y-41658809D01*
X42156274Y-41658809D01*
X42156274Y-42560187D01*
X42162432Y-42597830D01*
X42179129Y-42622904D01*
X42207113Y-42638783D01*
X42251223Y-42644879D01*
X42584554Y-42644879D01*
X42630182Y-42638706D01*
X42658958Y-42622702D01*
X42676000Y-42597614D01*
X42682251Y-42560187D01*
X42682251Y-42304892D01*
X43948406Y-42304892D01*
X44274287Y-42304892D01*
X44274287Y-42160301D01*
X43948406Y-42160301D01*
X43948406Y-42304892D01*
X42682251Y-42304892D01*
X42682251Y-42285353D01*
X42523066Y-42285353D01*
X42523066Y-42508103D01*
X42316131Y-42508103D01*
X42316131Y-41710894D01*
X42523066Y-41710894D01*
X42523066Y-41925828D01*
X42682251Y-41925828D01*
X42682251Y-41658809D01*
X42676000Y-41621382D01*
X42658958Y-41596295D01*
X42630182Y-41580290D01*
X42584554Y-41574118D01*
X42251223Y-41574118D01*
X42207113Y-41580213D01*
X42179129Y-41596093D01*
X42162432Y-41621167D01*
X42156274Y-41658809D01*
X42030611Y-41658809D01*
X42024360Y-41621382D01*
X42007318Y-41596295D01*
X41978542Y-41580290D01*
X41932914Y-41574118D01*
X41599584Y-41574118D01*
X41555473Y-41580213D01*
X41527489Y-41596093D01*
X41510792Y-41621167D01*
X41504634Y-41658809D01*
X41398234Y-41658809D01*
X41414447Y-41574118D01*
X41254591Y-41574118D01*
X41134362Y-42307274D01*
X41130271Y-42398865D01*
X41126180Y-42307274D01*
X41006623Y-41574118D01*
X40846094Y-41574118D01*
X40734983Y-41574118D01*
X40734983Y-41463007D01*
X44385398Y-41463007D01*
X44385398Y-42755990D01*
G37*
G36*
X42530602Y-44231751D02*
G01*
X42558232Y-44248254D01*
X42575038Y-44274810D01*
X42581318Y-44315314D01*
X42581318Y-44931539D01*
X42574847Y-44972423D01*
X42557445Y-44999391D01*
X42528624Y-45016272D01*
X42483621Y-45022703D01*
X42368887Y-45022703D01*
X42368887Y-44225494D01*
X42487712Y-44225494D01*
X42530602Y-44231751D01*
G37*
G36*
X44443039Y-45270590D02*
G01*
X40771192Y-45270590D01*
X40771192Y-44173409D01*
X40882303Y-44173409D01*
X40882303Y-45074787D01*
X40888461Y-45112430D01*
X40905158Y-45137504D01*
X40933142Y-45153383D01*
X40977253Y-45159479D01*
X41313331Y-45159479D01*
X41538828Y-45159479D01*
X41694533Y-45159479D01*
X41694533Y-44562854D01*
X41692349Y-44532364D01*
X41684336Y-44485551D01*
X41940486Y-45159479D01*
X42080498Y-45159479D01*
X42080498Y-45022703D01*
X42209031Y-45022703D01*
X42209031Y-45159479D01*
X42534850Y-45159479D01*
X42595997Y-45152985D01*
X42645456Y-45134765D01*
X42685793Y-45105440D01*
X42716219Y-45066104D01*
X42735100Y-45017300D01*
X42741846Y-44956268D01*
X42741846Y-44819492D01*
X44006047Y-44819492D01*
X44331928Y-44819492D01*
X44331928Y-44674901D01*
X44006047Y-44674901D01*
X44006047Y-44819492D01*
X42741846Y-44819492D01*
X42741846Y-44291928D01*
X42735124Y-44231341D01*
X42716262Y-44182630D01*
X42685793Y-44143123D01*
X42645428Y-44113584D01*
X42595970Y-44095249D01*
X42534850Y-44088718D01*
X42209031Y-44088718D01*
X42209031Y-45022703D01*
X42080498Y-45022703D01*
X42080498Y-44088718D01*
X41924793Y-44088718D01*
X41924793Y-44671664D01*
X41926977Y-44702155D01*
X41934990Y-44748967D01*
X41678840Y-44088718D01*
X41538828Y-44088718D01*
X41538828Y-45159479D01*
X41313331Y-45159479D01*
X41358959Y-45153306D01*
X41387735Y-45137302D01*
X41404777Y-45112214D01*
X41411028Y-45074787D01*
X41411028Y-44585019D01*
X41131614Y-44585019D01*
X41131614Y-44721795D01*
X41250499Y-44721795D01*
X41250499Y-45022703D01*
X41042160Y-45022703D01*
X41042160Y-44225494D01*
X41250499Y-44225494D01*
X41250499Y-44416980D01*
X41411028Y-44416980D01*
X41411028Y-44173409D01*
X41404777Y-44135982D01*
X41387735Y-44110895D01*
X41358959Y-44094890D01*
X41313331Y-44088718D01*
X40979268Y-44088718D01*
X40934045Y-44094870D01*
X40905480Y-44110841D01*
X40888530Y-44135925D01*
X40882303Y-44173409D01*
X40771192Y-44173409D01*
X40771192Y-43977607D01*
X44443039Y-43977607D01*
X44443039Y-45270590D01*
G37*
D11*
X410133436Y-32588484D02*
X410466769Y-32588484D01*
X410609626Y-33112294D02*
X410133436Y-33112294D01*
X410133436Y-33112294D02*
X410133436Y-32112294D01*
X410133436Y-32112294D02*
X410609626Y-32112294D01*
X411038198Y-33112294D02*
X411038198Y-32112294D01*
X411038198Y-32112294D02*
X411609626Y-33112294D01*
X411609626Y-33112294D02*
X411609626Y-32112294D01*
X412657245Y-33017055D02*
X412609626Y-33064675D01*
X412609626Y-33064675D02*
X412466769Y-33112294D01*
X412466769Y-33112294D02*
X412371531Y-33112294D01*
X412371531Y-33112294D02*
X412228674Y-33064675D01*
X412228674Y-33064675D02*
X412133436Y-32969436D01*
X412133436Y-32969436D02*
X412085817Y-32874198D01*
X412085817Y-32874198D02*
X412038198Y-32683722D01*
X412038198Y-32683722D02*
X412038198Y-32540865D01*
X412038198Y-32540865D02*
X412085817Y-32350389D01*
X412085817Y-32350389D02*
X412133436Y-32255151D01*
X412133436Y-32255151D02*
X412228674Y-32159913D01*
X412228674Y-32159913D02*
X412371531Y-32112294D01*
X412371531Y-32112294D02*
X412466769Y-32112294D01*
X412466769Y-32112294D02*
X412609626Y-32159913D01*
X412609626Y-32159913D02*
X412657245Y-32207532D01*
X413609626Y-33112294D02*
X413038198Y-33112294D01*
X413323912Y-33112294D02*
X413323912Y-32112294D01*
X413323912Y-32112294D02*
X413228674Y-32255151D01*
X413228674Y-32255151D02*
X413133436Y-32350389D01*
X413133436Y-32350389D02*
X413038198Y-32398008D01*
X60054911Y-28902790D02*
X60054911Y-29617075D01*
X60054911Y-29617075D02*
X60007292Y-29759932D01*
X60007292Y-29759932D02*
X59912054Y-29855171D01*
X59912054Y-29855171D02*
X59769197Y-29902790D01*
X59769197Y-29902790D02*
X59673959Y-29902790D01*
X61007292Y-28902790D02*
X60531102Y-28902790D01*
X60531102Y-28902790D02*
X60483483Y-29378980D01*
X60483483Y-29378980D02*
X60531102Y-29331361D01*
X60531102Y-29331361D02*
X60626340Y-29283742D01*
X60626340Y-29283742D02*
X60864435Y-29283742D01*
X60864435Y-29283742D02*
X60959673Y-29331361D01*
X60959673Y-29331361D02*
X61007292Y-29378980D01*
X61007292Y-29378980D02*
X61054911Y-29474218D01*
X61054911Y-29474218D02*
X61054911Y-29712313D01*
X61054911Y-29712313D02*
X61007292Y-29807551D01*
X61007292Y-29807551D02*
X60959673Y-29855171D01*
X60959673Y-29855171D02*
X60864435Y-29902790D01*
X60864435Y-29902790D02*
X60626340Y-29902790D01*
X60626340Y-29902790D02*
X60531102Y-29855171D01*
X60531102Y-29855171D02*
X60483483Y-29807551D01*
G36*
X63679539Y-32301461D02*
G01*
X62887082Y-32301461D01*
X62887082Y-31969493D01*
X62962082Y-31969493D01*
X62962082Y-32169491D01*
X62965739Y-32195958D01*
X62975267Y-32212748D01*
X62990312Y-32222766D01*
X63012897Y-32226461D01*
X63553724Y-32226461D01*
X63576309Y-32222766D01*
X63591354Y-32212748D01*
X63600881Y-32195958D01*
X63604539Y-32169491D01*
X63604539Y-31969493D01*
X63600835Y-31942116D01*
X63591232Y-31924850D01*
X63576180Y-31914626D01*
X63553724Y-31910875D01*
X63388823Y-31910875D01*
X63388823Y-32006386D01*
X63522473Y-32006386D01*
X63522473Y-32130547D01*
X63044148Y-32130547D01*
X63044148Y-32006386D01*
X63173108Y-32006386D01*
X63173108Y-31910875D01*
X63012897Y-31910875D01*
X62990441Y-31914626D01*
X62975388Y-31924850D01*
X62965785Y-31942116D01*
X62962082Y-31969493D01*
X62887082Y-31969493D01*
X62887082Y-31739563D01*
X62962082Y-31739563D01*
X62962082Y-31835477D01*
X63604539Y-31835477D01*
X63604539Y-31583418D01*
X63517783Y-31583418D01*
X63517783Y-31739563D01*
X62962082Y-31739563D01*
X62887082Y-31739563D01*
X62887082Y-31219179D01*
X62962082Y-31219179D01*
X62962082Y-31324106D01*
X63235060Y-31430645D01*
X62962082Y-31430645D01*
X62962082Y-31526559D01*
X63604539Y-31526559D01*
X63604539Y-31430645D01*
X63319067Y-31430645D01*
X63604539Y-31308938D01*
X63604539Y-31203169D01*
X63272759Y-31349495D01*
X62966588Y-31219179D01*
X62962082Y-31219179D01*
X62887082Y-31219179D01*
X62887082Y-30480589D01*
X63313792Y-30480589D01*
X63400547Y-30480589D01*
X63400547Y-30285060D01*
X63313792Y-30285060D01*
X63313792Y-30480589D01*
X62887082Y-30480589D01*
X62887082Y-30210060D01*
X63679539Y-30210060D01*
X63679539Y-32301461D01*
G37*
G36*
X64492305Y-32006971D02*
G01*
X64508486Y-32017412D01*
X64518615Y-32034705D01*
X64522473Y-32061707D01*
X64522473Y-32130547D01*
X64044148Y-32130547D01*
X64044148Y-32059252D01*
X64047902Y-32033518D01*
X64057804Y-32016940D01*
X64073738Y-32006857D01*
X64098040Y-32003089D01*
X64467775Y-32003089D01*
X64492305Y-32006971D01*
G37*
G36*
X64522473Y-31560777D02*
G01*
X64044148Y-31560777D01*
X64044148Y-31429216D01*
X64522473Y-31429216D01*
X64522473Y-31560777D01*
G37*
G36*
X64679539Y-32301461D02*
G01*
X63887082Y-32301461D01*
X63887082Y-32030969D01*
X63962082Y-32030969D01*
X63962082Y-32059252D01*
X63962082Y-32226461D01*
X64604539Y-32226461D01*
X64604539Y-32030969D01*
X64600642Y-31994281D01*
X64589710Y-31964606D01*
X64572115Y-31940404D01*
X64548514Y-31922148D01*
X64519231Y-31910819D01*
X64482612Y-31906772D01*
X64084008Y-31906772D01*
X64047656Y-31910805D01*
X64018430Y-31922122D01*
X63994725Y-31940404D01*
X63977002Y-31964622D01*
X63966001Y-31994298D01*
X63962082Y-32030969D01*
X63887082Y-32030969D01*
X63887082Y-31830934D01*
X63962082Y-31830934D01*
X64604539Y-31830934D01*
X64604539Y-31735020D01*
X63962082Y-31735020D01*
X63962082Y-31830934D01*
X63887082Y-31830934D01*
X63887082Y-31391517D01*
X63962082Y-31391517D01*
X63962082Y-31560777D01*
X63962082Y-31599722D01*
X63965739Y-31626188D01*
X63975267Y-31642978D01*
X63990312Y-31652997D01*
X64012897Y-31656691D01*
X64553724Y-31656691D01*
X64576309Y-31652997D01*
X64591354Y-31642978D01*
X64600881Y-31626188D01*
X64604539Y-31599722D01*
X64604539Y-31391517D01*
X64600846Y-31364363D01*
X64591262Y-31347213D01*
X64576211Y-31337039D01*
X64553724Y-31333302D01*
X64012897Y-31333302D01*
X63990409Y-31337039D01*
X63975359Y-31347213D01*
X63965774Y-31364363D01*
X63962082Y-31391517D01*
X63887082Y-31391517D01*
X63887082Y-30399109D01*
X64313792Y-30399109D01*
X64400547Y-30399109D01*
X64400547Y-30203581D01*
X64313792Y-30203581D01*
X64313792Y-30399109D01*
X63887082Y-30399109D01*
X63887082Y-30128581D01*
X64679539Y-30128581D01*
X64679539Y-32301461D01*
G37*
G36*
X66669539Y-32309668D02*
G01*
X65877082Y-32309668D01*
X65877082Y-32022359D01*
X66151384Y-32022359D01*
X66151384Y-32109664D01*
X66273310Y-32109664D01*
X66273310Y-32234668D01*
X66353031Y-32234668D01*
X66353031Y-32109664D01*
X66474957Y-32109664D01*
X66474957Y-32022359D01*
X66353031Y-32022359D01*
X66353031Y-31897356D01*
X66273310Y-31897356D01*
X66273310Y-32022359D01*
X66151384Y-32022359D01*
X65877082Y-32022359D01*
X65877082Y-31526375D01*
X65952082Y-31526375D01*
X65952082Y-31819027D01*
X66263931Y-31829285D01*
X66263931Y-31616135D01*
X66512473Y-31616135D01*
X66512473Y-31735020D01*
X66385857Y-31735020D01*
X66385857Y-31829285D01*
X66543724Y-31829285D01*
X66566309Y-31825591D01*
X66581354Y-31815572D01*
X66590881Y-31798782D01*
X66594539Y-31772316D01*
X66594539Y-31580084D01*
X66590846Y-31552931D01*
X66581262Y-31535781D01*
X66566211Y-31525606D01*
X66543724Y-31521869D01*
X66232681Y-31521869D01*
X66210193Y-31525606D01*
X66195143Y-31535781D01*
X66185558Y-31552931D01*
X66181866Y-31580084D01*
X66181866Y-31736229D01*
X66036492Y-31730074D01*
X66036492Y-31526375D01*
X65952082Y-31526375D01*
X65877082Y-31526375D01*
X65877082Y-31224052D01*
X65952082Y-31224052D01*
X66391976Y-31296189D01*
X66446930Y-31298643D01*
X66391976Y-31301098D01*
X65952082Y-31372832D01*
X65952082Y-31469149D01*
X66594539Y-31346601D01*
X66594539Y-31251126D01*
X65952082Y-31128138D01*
X65952082Y-31224052D01*
X65877082Y-31224052D01*
X65877082Y-30389730D01*
X66303792Y-30389730D01*
X66390547Y-30389730D01*
X66390547Y-30194202D01*
X66303792Y-30194202D01*
X66303792Y-30389730D01*
X65877082Y-30389730D01*
X65877082Y-30119202D01*
X66669539Y-30119202D01*
X66669539Y-32309668D01*
G37*
G36*
X65679063Y-32309668D02*
G01*
X64886606Y-32309668D01*
X64886606Y-32022359D01*
X65160908Y-32022359D01*
X65160908Y-32109664D01*
X65282834Y-32109664D01*
X65282834Y-32234668D01*
X65362555Y-32234668D01*
X65362555Y-32109664D01*
X65484481Y-32109664D01*
X65484481Y-32022359D01*
X65362555Y-32022359D01*
X65362555Y-31897356D01*
X65282834Y-31897356D01*
X65282834Y-32022359D01*
X65160908Y-32022359D01*
X64886606Y-32022359D01*
X64886606Y-31574736D01*
X64961606Y-31574736D01*
X64961606Y-31770264D01*
X64965297Y-31797398D01*
X64974880Y-31814537D01*
X64989931Y-31824707D01*
X65012421Y-31828443D01*
X65160908Y-31828443D01*
X65160908Y-31734177D01*
X65043672Y-31734177D01*
X65043672Y-31610822D01*
X65179703Y-31610822D01*
X65259680Y-31728462D01*
X65279793Y-31728462D01*
X65360650Y-31610822D01*
X65521997Y-31610822D01*
X65521997Y-31734177D01*
X65397726Y-31734177D01*
X65397726Y-31828443D01*
X65553248Y-31828443D01*
X65575833Y-31824748D01*
X65590878Y-31814730D01*
X65600405Y-31797939D01*
X65604063Y-31771473D01*
X65604063Y-31574736D01*
X65600383Y-31547825D01*
X65590818Y-31530802D01*
X65575770Y-31520682D01*
X65553248Y-31516960D01*
X65367208Y-31516960D01*
X65342763Y-31520569D01*
X65323573Y-31530823D01*
X65308333Y-31548101D01*
X65269938Y-31608368D01*
X65230737Y-31548944D01*
X65214464Y-31531068D01*
X65194816Y-31520593D01*
X65170654Y-31516960D01*
X65012421Y-31516960D01*
X64989899Y-31520682D01*
X64974851Y-31530802D01*
X64965286Y-31547825D01*
X64961606Y-31574736D01*
X64886606Y-31574736D01*
X64886606Y-31218776D01*
X64961606Y-31218776D01*
X65401500Y-31290913D01*
X65456454Y-31293368D01*
X65401500Y-31295822D01*
X64961606Y-31367557D01*
X64961606Y-31463874D01*
X65604063Y-31341325D01*
X65604063Y-31245850D01*
X64961606Y-31122862D01*
X64961606Y-31218776D01*
X64886606Y-31218776D01*
X64886606Y-30815043D01*
X64961606Y-30815043D01*
X64961606Y-31010571D01*
X64965297Y-31037705D01*
X64974880Y-31054844D01*
X64989931Y-31065014D01*
X65012421Y-31068750D01*
X65160908Y-31068750D01*
X65160908Y-30974484D01*
X65043672Y-30974484D01*
X65043672Y-30851130D01*
X65179703Y-30851130D01*
X65259680Y-30968769D01*
X65279793Y-30968769D01*
X65360650Y-30851130D01*
X65521997Y-30851130D01*
X65521997Y-30974484D01*
X65397726Y-30974484D01*
X65397726Y-31068750D01*
X65553248Y-31068750D01*
X65575833Y-31065055D01*
X65590878Y-31055037D01*
X65600405Y-31038246D01*
X65604063Y-31011780D01*
X65604063Y-30815043D01*
X65600383Y-30788132D01*
X65590818Y-30771109D01*
X65575770Y-30760989D01*
X65553248Y-30757267D01*
X65367208Y-30757267D01*
X65342763Y-30760876D01*
X65323573Y-30771131D01*
X65308333Y-30788408D01*
X65269938Y-30848675D01*
X65230737Y-30789251D01*
X65214464Y-30771375D01*
X65194816Y-30760900D01*
X65170654Y-30757267D01*
X65012421Y-30757267D01*
X64989899Y-30760989D01*
X64974851Y-30771109D01*
X64965286Y-30788132D01*
X64961606Y-30815043D01*
X64886606Y-30815043D01*
X64886606Y-30344008D01*
X65313316Y-30344008D01*
X65400071Y-30344008D01*
X65400071Y-30148479D01*
X65313316Y-30148479D01*
X65313316Y-30344008D01*
X64886606Y-30344008D01*
X64886606Y-30073479D01*
X65679063Y-30073479D01*
X65679063Y-32309668D01*
G37*
G36*
X62494629Y-31210935D02*
G01*
X62510810Y-31221376D01*
X62520939Y-31238669D01*
X62524797Y-31265671D01*
X62524797Y-31334511D01*
X62046472Y-31334511D01*
X62046472Y-31263216D01*
X62050226Y-31237482D01*
X62060128Y-31220904D01*
X62076062Y-31210820D01*
X62100364Y-31207052D01*
X62470099Y-31207052D01*
X62494629Y-31210935D01*
G37*
G36*
X62681863Y-32301461D02*
G01*
X61889406Y-32301461D01*
X61889406Y-31967844D01*
X61964406Y-31967844D01*
X61964406Y-32168282D01*
X61968097Y-32195416D01*
X61977680Y-32212555D01*
X61992731Y-32222725D01*
X62015221Y-32226461D01*
X62556048Y-32226461D01*
X62578633Y-32222766D01*
X62593678Y-32212748D01*
X62603205Y-32195958D01*
X62606863Y-32169491D01*
X62606863Y-31967844D01*
X62603159Y-31940468D01*
X62593556Y-31923202D01*
X62578504Y-31912977D01*
X62556048Y-31909226D01*
X62262187Y-31909226D01*
X62262187Y-32076874D01*
X62344253Y-32076874D01*
X62344253Y-32005543D01*
X62524797Y-32005543D01*
X62524797Y-32130547D01*
X62046472Y-32130547D01*
X62046472Y-32005543D01*
X62161364Y-32005543D01*
X62161364Y-31909226D01*
X62015221Y-31909226D01*
X61992765Y-31912977D01*
X61977712Y-31923202D01*
X61968109Y-31940468D01*
X61964406Y-31967844D01*
X61889406Y-31967844D01*
X61889406Y-31600967D01*
X61964406Y-31600967D01*
X62314174Y-31600967D01*
X62332468Y-31599657D01*
X62360556Y-31594849D01*
X61964406Y-31748539D01*
X61964406Y-31832546D01*
X62606863Y-31832546D01*
X62606863Y-31739123D01*
X62248888Y-31739123D01*
X62230594Y-31740433D01*
X62202506Y-31745242D01*
X62606863Y-31591552D01*
X62606863Y-31507544D01*
X61964406Y-31507544D01*
X61964406Y-31600967D01*
X61889406Y-31600967D01*
X61889406Y-31234933D01*
X61964406Y-31234933D01*
X61964406Y-31263216D01*
X61964406Y-31430425D01*
X62606863Y-31430425D01*
X62606863Y-31234933D01*
X62602966Y-31198245D01*
X62592034Y-31168569D01*
X62574439Y-31144367D01*
X62550838Y-31126112D01*
X62521555Y-31114783D01*
X62484936Y-31110735D01*
X62086332Y-31110735D01*
X62049980Y-31114769D01*
X62020754Y-31126086D01*
X61997049Y-31144367D01*
X61979326Y-31168586D01*
X61968325Y-31198261D01*
X61964406Y-31234933D01*
X61889406Y-31234933D01*
X61889406Y-30525139D01*
X62316116Y-30525139D01*
X62402871Y-30525139D01*
X62402871Y-30329610D01*
X62316116Y-30329610D01*
X62316116Y-30525139D01*
X61889406Y-30525139D01*
X61889406Y-30254610D01*
X62681863Y-30254610D01*
X62681863Y-32301461D01*
G37*
D12*
%TO.C,ENC1*%
X405947719Y-34987475D02*
X405947720Y-30887475D01*
X405947719Y-43087475D02*
X405947719Y-38987474D01*
X408347719Y-43087475D02*
X405947719Y-43087475D01*
X411847720Y-36487475D02*
X411847719Y-37487475D01*
X412347719Y-36987474D02*
X411347719Y-36987475D01*
X413147719Y-43087475D02*
X410547719Y-43087475D01*
X415647719Y-29487475D02*
X415947719Y-29187475D01*
X415947719Y-29187475D02*
X415947719Y-29787475D01*
X415947719Y-29787475D02*
X415647719Y-29487475D01*
X417747719Y-34987475D02*
X417747720Y-30887475D01*
X417747719Y-38987474D02*
X417747719Y-43087475D01*
X417747719Y-43087475D02*
X415347719Y-43087475D01*
X417747720Y-30887475D02*
X405947720Y-30887475D01*
X414847719Y-36987475D02*
G75*
G02*
X408847719Y-36987475I-3000000J0D01*
G01*
X408847719Y-36987475D02*
G75*
G02*
X414847719Y-36987475I3000000J0D01*
G01*
%TO.C,J5*%
X61553245Y-30882971D02*
X61553246Y-30147971D01*
X61678244Y-29412971D02*
X61678245Y-28787971D01*
X61678245Y-28787971D02*
X66898245Y-28787971D01*
X62288245Y-30882970D02*
X61553245Y-30882971D01*
X62788245Y-29412971D02*
X62788245Y-28787971D01*
X63028245Y-26787971D02*
X63548245Y-26787971D01*
X63028245Y-28787971D02*
X63028245Y-26787971D01*
X63548245Y-26787971D02*
X63548245Y-28787971D01*
X63788245Y-29609246D02*
X63788245Y-28787971D01*
X64028245Y-26787971D02*
X64548245Y-26787971D01*
X64028245Y-28787971D02*
X64028245Y-26787971D01*
X64548245Y-26787971D02*
X64548245Y-28787971D01*
X64788245Y-29609246D02*
X64788245Y-28787971D01*
X65028245Y-26787971D02*
X65548245Y-26787971D01*
X65028245Y-28787971D02*
X65028245Y-26787971D01*
X65548245Y-26787971D02*
X65548245Y-28787971D01*
X65788245Y-29609246D02*
X65788245Y-28787971D01*
X66028245Y-26787971D02*
X66548245Y-26787971D01*
X66028245Y-28787971D02*
X66028245Y-26787971D01*
X66548245Y-26787971D02*
X66548245Y-28787971D01*
X66898245Y-28787971D02*
X66898245Y-29737941D01*
X62548245Y-28787971D02*
X62028245Y-28787971D01*
X62028245Y-26787971D01*
X62548245Y-26787971D01*
X62548245Y-28787971D01*
G36*
X62548245Y-28787971D02*
G01*
X62028245Y-28787971D01*
X62028245Y-26787971D01*
X62548245Y-26787971D01*
X62548245Y-28787971D01*
G37*
D11*
%TO.C,HE40*%
X167160000Y-81650000D02*
X167160000Y-78050000D01*
X167360000Y-77850000D02*
X170560000Y-77850000D01*
X170560000Y-81850000D02*
X167360000Y-81850000D01*
X170760000Y-78050000D02*
X170760000Y-81650000D01*
X167160000Y-78050000D02*
G75*
G02*
X167360000Y-77850000I200000J0D01*
G01*
X167360000Y-81850000D02*
G75*
G02*
X167160000Y-81650000I0J200000D01*
G01*
X170560000Y-77850000D02*
G75*
G02*
X170760000Y-78050000I-1J-200001D01*
G01*
X170760000Y-81650000D02*
G75*
G02*
X170560000Y-81850000I-200001J1D01*
G01*
%TO.C,HE5*%
X200497500Y-38787500D02*
X200497500Y-35187500D01*
X200697500Y-34987500D02*
X203897500Y-34987500D01*
X203897500Y-38987500D02*
X200697500Y-38987500D01*
X204097500Y-35187500D02*
X204097500Y-38787500D01*
X200497500Y-35187500D02*
G75*
G02*
X200697500Y-34987500I200000J0D01*
G01*
X200697500Y-38987500D02*
G75*
G02*
X200497500Y-38787500I0J200000D01*
G01*
X203897500Y-34987500D02*
G75*
G02*
X204097500Y-35187500I-1J-200001D01*
G01*
X204097500Y-38787500D02*
G75*
G02*
X203897500Y-38987500I-200001J1D01*
G01*
%TO.C,HE68*%
X374328750Y-100700000D02*
X374328750Y-97100000D01*
X374528750Y-96900000D02*
X377728750Y-96900000D01*
X377728750Y-100900000D02*
X374528750Y-100900000D01*
X377928750Y-97100000D02*
X377928750Y-100700000D01*
X374328750Y-97100000D02*
G75*
G02*
X374528750Y-96900000I200000J0D01*
G01*
X374528750Y-100900000D02*
G75*
G02*
X374328750Y-100700000I0J200000D01*
G01*
X377728750Y-96900000D02*
G75*
G02*
X377928750Y-97100000I-1J-200001D01*
G01*
X377928750Y-100700000D02*
G75*
G02*
X377728750Y-100900000I-200001J1D01*
G01*
%TO.C,HE50*%
X357660000Y-81650000D02*
X357660000Y-78050000D01*
X357860000Y-77850000D02*
X361060000Y-77850000D01*
X361060000Y-81850000D02*
X357860000Y-81850000D01*
X361260000Y-78050000D02*
X361260000Y-81650000D01*
X357660000Y-78050000D02*
G75*
G02*
X357860000Y-77850000I200000J0D01*
G01*
X357860000Y-81850000D02*
G75*
G02*
X357660000Y-81650000I0J200000D01*
G01*
X361060000Y-77850000D02*
G75*
G02*
X361260000Y-78050000I-1J-200001D01*
G01*
X361260000Y-81650000D02*
G75*
G02*
X361060000Y-81850000I-200001J1D01*
G01*
%TO.C,HE28*%
X290985000Y-62600000D02*
X290985000Y-59000000D01*
X291185000Y-58800000D02*
X294385000Y-58800000D01*
X294385000Y-62800000D02*
X291185000Y-62800000D01*
X294585000Y-59000000D02*
X294585000Y-62600000D01*
X290985000Y-59000000D02*
G75*
G02*
X291185000Y-58800000I200000J0D01*
G01*
X291185000Y-62800000D02*
G75*
G02*
X290985000Y-62600000I0J200000D01*
G01*
X294385000Y-58800000D02*
G75*
G02*
X294585000Y-59000000I-1J-200001D01*
G01*
X294585000Y-62600000D02*
G75*
G02*
X294385000Y-62800000I-200001J1D01*
G01*
%TO.C,HE96*%
X367185000Y-138800000D02*
X367185000Y-135200000D01*
X367385000Y-135000000D02*
X370585000Y-135000000D01*
X370585000Y-139000000D02*
X367385000Y-139000000D01*
X370785000Y-135200000D02*
X370785000Y-138800000D01*
X367185000Y-135200000D02*
G75*
G02*
X367385000Y-135000000I200000J0D01*
G01*
X367385000Y-139000000D02*
G75*
G02*
X367185000Y-138800000I0J200000D01*
G01*
X370585000Y-135000000D02*
G75*
G02*
X370785000Y-135200000I-1J-200001D01*
G01*
X370785000Y-138800000D02*
G75*
G02*
X370585000Y-139000000I-200001J1D01*
G01*
%TO.C,HE9*%
X281460000Y-38787500D02*
X281460000Y-35187500D01*
X281660000Y-34987500D02*
X284860000Y-34987500D01*
X284860000Y-38987500D02*
X281660000Y-38987500D01*
X285060000Y-35187500D02*
X285060000Y-38787500D01*
X281460000Y-35187500D02*
G75*
G02*
X281660000Y-34987500I200000J0D01*
G01*
X281660000Y-38987500D02*
G75*
G02*
X281460000Y-38787500I0J200000D01*
G01*
X284860000Y-34987500D02*
G75*
G02*
X285060000Y-35187500I-1J-200001D01*
G01*
X285060000Y-38787500D02*
G75*
G02*
X284860000Y-38987500I-200001J1D01*
G01*
%TO.C,HE65*%
X305272500Y-100700000D02*
X305272500Y-97100000D01*
X305472500Y-96900000D02*
X308672500Y-96900000D01*
X308672500Y-100900000D02*
X305472500Y-100900000D01*
X308872500Y-97100000D02*
X308872500Y-100700000D01*
X305272500Y-97100000D02*
G75*
G02*
X305472500Y-96900000I200000J0D01*
G01*
X305472500Y-100900000D02*
G75*
G02*
X305272500Y-100700000I0J200000D01*
G01*
X308672500Y-96900000D02*
G75*
G02*
X308872500Y-97100000I-1J-200001D01*
G01*
X308872500Y-100700000D02*
G75*
G02*
X308672500Y-100900000I-200001J1D01*
G01*
%TO.C,HE60*%
X210022500Y-100700000D02*
X210022500Y-97100000D01*
X210222500Y-96900000D02*
X213422500Y-96900000D01*
X213422500Y-100900000D02*
X210222500Y-100900000D01*
X213622500Y-97100000D02*
X213622500Y-100700000D01*
X210022500Y-97100000D02*
G75*
G02*
X210222500Y-96900000I200000J0D01*
G01*
X210222500Y-100900000D02*
G75*
G02*
X210022500Y-100700000I0J200000D01*
G01*
X213422500Y-96900000D02*
G75*
G02*
X213622500Y-97100000I-1J-200001D01*
G01*
X213622500Y-100700000D02*
G75*
G02*
X213422500Y-100900000I-200001J1D01*
G01*
%TO.C,HE31*%
X348135000Y-62600000D02*
X348135000Y-59000000D01*
X348335000Y-58800000D02*
X351535000Y-58800000D01*
X351535000Y-62800000D02*
X348335000Y-62800000D01*
X351735000Y-59000000D02*
X351735000Y-62600000D01*
X348135000Y-59000000D02*
G75*
G02*
X348335000Y-58800000I200000J0D01*
G01*
X348335000Y-62800000D02*
G75*
G02*
X348135000Y-62600000I0J200000D01*
G01*
X351535000Y-58800000D02*
G75*
G02*
X351735000Y-59000000I-1J-200001D01*
G01*
X351735000Y-62600000D02*
G75*
G02*
X351535000Y-62800000I-200001J1D01*
G01*
%TO.C,HE23*%
X195735000Y-62600000D02*
X195735000Y-59000000D01*
X195935000Y-58800000D02*
X199135000Y-58800000D01*
X199135000Y-62800000D02*
X195935000Y-62800000D01*
X199335000Y-59000000D02*
X199335000Y-62600000D01*
X195735000Y-59000000D02*
G75*
G02*
X195935000Y-58800000I200000J0D01*
G01*
X195935000Y-62800000D02*
G75*
G02*
X195735000Y-62600000I0J200000D01*
G01*
X199135000Y-58800000D02*
G75*
G02*
X199335000Y-59000000I-1J-200001D01*
G01*
X199335000Y-62600000D02*
G75*
G02*
X199135000Y-62800000I-200001J1D01*
G01*
%TO.C,HE79*%
X238597500Y-119750000D02*
X238597500Y-116150000D01*
X238797500Y-115950000D02*
X241997500Y-115950000D01*
X241997500Y-119950000D02*
X238797500Y-119950000D01*
X242197500Y-116150000D02*
X242197500Y-119750000D01*
X238597500Y-116150000D02*
G75*
G02*
X238797500Y-115950000I200000J0D01*
G01*
X238797500Y-119950000D02*
G75*
G02*
X238597500Y-119750000I0J200000D01*
G01*
X241997500Y-115950000D02*
G75*
G02*
X242197500Y-116150000I-1J-200001D01*
G01*
X242197500Y-119750000D02*
G75*
G02*
X241997500Y-119950000I-200001J1D01*
G01*
%TO.C,HE36*%
X71910000Y-81650000D02*
X71910000Y-78050000D01*
X72110000Y-77850000D02*
X75310000Y-77850000D01*
X75310000Y-81850000D02*
X72110000Y-81850000D01*
X75510000Y-78050000D02*
X75510000Y-81650000D01*
X71910000Y-78050000D02*
G75*
G02*
X72110000Y-77850000I200000J0D01*
G01*
X72110000Y-81850000D02*
G75*
G02*
X71910000Y-81650000I0J200000D01*
G01*
X75310000Y-77850000D02*
G75*
G02*
X75510000Y-78050000I-1J-200001D01*
G01*
X75510000Y-81650000D02*
G75*
G02*
X75310000Y-81850000I-200001J1D01*
G01*
%TO.C,HE7*%
X243360000Y-38787500D02*
X243360000Y-35187500D01*
X243560000Y-34987500D02*
X246760000Y-34987500D01*
X246760000Y-38987500D02*
X243560000Y-38987500D01*
X246960000Y-35187500D02*
X246960000Y-38787500D01*
X243360000Y-35187500D02*
G75*
G02*
X243560000Y-34987500I200000J0D01*
G01*
X243560000Y-38987500D02*
G75*
G02*
X243360000Y-38787500I0J200000D01*
G01*
X246760000Y-34987500D02*
G75*
G02*
X246960000Y-35187500I-1J-200001D01*
G01*
X246960000Y-38787500D02*
G75*
G02*
X246760000Y-38987500I-200001J1D01*
G01*
%TO.C,HE81*%
X276697500Y-119750000D02*
X276697500Y-116150000D01*
X276897500Y-115950000D02*
X280097500Y-115950000D01*
X280097500Y-119950000D02*
X276897500Y-119950000D01*
X280297500Y-116150000D02*
X280297500Y-119750000D01*
X276697500Y-116150000D02*
G75*
G02*
X276897500Y-115950000I200000J0D01*
G01*
X276897500Y-119950000D02*
G75*
G02*
X276697500Y-119750000I0J200000D01*
G01*
X280097500Y-115950000D02*
G75*
G02*
X280297500Y-116150000I-1J-200001D01*
G01*
X280297500Y-119750000D02*
G75*
G02*
X280097500Y-119950000I-200001J1D01*
G01*
%TO.C,HE64*%
X286222500Y-100700000D02*
X286222500Y-97100000D01*
X286422500Y-96900000D02*
X289622500Y-96900000D01*
X289622500Y-100900000D02*
X286422500Y-100900000D01*
X289822500Y-97100000D02*
X289822500Y-100700000D01*
X286222500Y-97100000D02*
G75*
G02*
X286422500Y-96900000I200000J0D01*
G01*
X286422500Y-100900000D02*
G75*
G02*
X286222500Y-100700000I0J200000D01*
G01*
X289622500Y-96900000D02*
G75*
G02*
X289822500Y-97100000I-1J-200001D01*
G01*
X289822500Y-100700000D02*
G75*
G02*
X289622500Y-100900000I-200001J1D01*
G01*
%TO.C,HE17*%
X71910000Y-62600000D02*
X71910000Y-59000000D01*
X72110000Y-58800000D02*
X75310000Y-58800000D01*
X75310000Y-62800000D02*
X72110000Y-62800000D01*
X75510000Y-59000000D02*
X75510000Y-62600000D01*
X71910000Y-59000000D02*
G75*
G02*
X72110000Y-58800000I200000J0D01*
G01*
X72110000Y-62800000D02*
G75*
G02*
X71910000Y-62600000I0J200000D01*
G01*
X75310000Y-58800000D02*
G75*
G02*
X75510000Y-59000000I-1J-200001D01*
G01*
X75510000Y-62600000D02*
G75*
G02*
X75310000Y-62800000I-200001J1D01*
G01*
%TO.C,HE10*%
X305272500Y-38787500D02*
X305272500Y-35187500D01*
X305472500Y-34987500D02*
X308672500Y-34987500D01*
X308672500Y-38987500D02*
X305472500Y-38987500D01*
X308872500Y-35187500D02*
X308872500Y-38787500D01*
X305272500Y-35187500D02*
G75*
G02*
X305472500Y-34987500I200000J0D01*
G01*
X305472500Y-38987500D02*
G75*
G02*
X305272500Y-38787500I0J200000D01*
G01*
X308672500Y-34987500D02*
G75*
G02*
X308872500Y-35187500I-1J-200001D01*
G01*
X308872500Y-38787500D02*
G75*
G02*
X308672500Y-38987500I-200001J1D01*
G01*
%TO.C,HE25*%
X233835000Y-62600000D02*
X233835000Y-59000000D01*
X234035000Y-58800000D02*
X237235000Y-58800000D01*
X237235000Y-62800000D02*
X234035000Y-62800000D01*
X237435000Y-59000000D02*
X237435000Y-62600000D01*
X233835000Y-59000000D02*
G75*
G02*
X234035000Y-58800000I200000J0D01*
G01*
X234035000Y-62800000D02*
G75*
G02*
X233835000Y-62600000I0J200000D01*
G01*
X237235000Y-58800000D02*
G75*
G02*
X237435000Y-59000000I-1J-200001D01*
G01*
X237435000Y-62600000D02*
G75*
G02*
X237235000Y-62800000I-200001J1D01*
G01*
%TO.C,HE93*%
X310035000Y-138800000D02*
X310035000Y-135200000D01*
X310235000Y-135000000D02*
X313435000Y-135000000D01*
X313435000Y-139000000D02*
X310235000Y-139000000D01*
X313635000Y-135200000D02*
X313635000Y-138800000D01*
X310035000Y-135200000D02*
G75*
G02*
X310235000Y-135000000I200000J0D01*
G01*
X310235000Y-139000000D02*
G75*
G02*
X310035000Y-138800000I0J200000D01*
G01*
X313435000Y-135000000D02*
G75*
G02*
X313635000Y-135200000I-1J-200001D01*
G01*
X313635000Y-138800000D02*
G75*
G02*
X313435000Y-139000000I-200001J1D01*
G01*
%TO.C,HE14*%
X386235000Y-38787500D02*
X386235000Y-35187500D01*
X386435000Y-34987500D02*
X389635000Y-34987500D01*
X389635000Y-38987500D02*
X386435000Y-38987500D01*
X389835000Y-35187500D02*
X389835000Y-38787500D01*
X386235000Y-35187500D02*
G75*
G02*
X386435000Y-34987500I200000J0D01*
G01*
X386435000Y-38987500D02*
G75*
G02*
X386235000Y-38787500I0J200000D01*
G01*
X389635000Y-34987500D02*
G75*
G02*
X389835000Y-35187500I-1J-200001D01*
G01*
X389835000Y-38787500D02*
G75*
G02*
X389635000Y-38987500I-200001J1D01*
G01*
%TO.C,HE80*%
X257647500Y-119750000D02*
X257647500Y-116150000D01*
X257847500Y-115950000D02*
X261047500Y-115950000D01*
X261047500Y-119950000D02*
X257847500Y-119950000D01*
X261247500Y-116150000D02*
X261247500Y-119750000D01*
X257647500Y-116150000D02*
G75*
G02*
X257847500Y-115950000I200000J0D01*
G01*
X257847500Y-119950000D02*
G75*
G02*
X257647500Y-119750000I0J200000D01*
G01*
X261047500Y-115950000D02*
G75*
G02*
X261247500Y-116150000I-1J-200001D01*
G01*
X261247500Y-119750000D02*
G75*
G02*
X261047500Y-119950000I-200001J1D01*
G01*
%TO.C,HE37*%
X90960000Y-91175000D02*
X90960000Y-87575000D01*
X91160000Y-87375000D02*
X94360000Y-87375000D01*
X94360000Y-91375000D02*
X91160000Y-91375000D01*
X94560000Y-87575000D02*
X94560000Y-91175000D01*
X90960000Y-87575000D02*
G75*
G02*
X91160000Y-87375000I200000J0D01*
G01*
X91160000Y-91375000D02*
G75*
G02*
X90960000Y-91175000I0J200000D01*
G01*
X94360000Y-87375000D02*
G75*
G02*
X94560000Y-87575000I-1J-200001D01*
G01*
X94560000Y-91175000D02*
G75*
G02*
X94360000Y-91375000I-200001J1D01*
G01*
%TO.C,HE41*%
X186210000Y-81650000D02*
X186210000Y-78050000D01*
X186410000Y-77850000D02*
X189610000Y-77850000D01*
X189610000Y-81850000D02*
X186410000Y-81850000D01*
X189810000Y-78050000D02*
X189810000Y-81650000D01*
X186210000Y-78050000D02*
G75*
G02*
X186410000Y-77850000I200000J0D01*
G01*
X186410000Y-81850000D02*
G75*
G02*
X186210000Y-81650000I0J200000D01*
G01*
X189610000Y-77850000D02*
G75*
G02*
X189810000Y-78050000I-1J-200001D01*
G01*
X189810000Y-81650000D02*
G75*
G02*
X189610000Y-81850000I-200001J1D01*
G01*
%TO.C,HE12*%
X343372500Y-38787500D02*
X343372500Y-35187500D01*
X343572500Y-34987500D02*
X346772500Y-34987500D01*
X346772500Y-38987500D02*
X343572500Y-38987500D01*
X346972500Y-35187500D02*
X346972500Y-38787500D01*
X343372500Y-35187500D02*
G75*
G02*
X343572500Y-34987500I200000J0D01*
G01*
X343572500Y-38987500D02*
G75*
G02*
X343372500Y-38787500I0J200000D01*
G01*
X346772500Y-34987500D02*
G75*
G02*
X346972500Y-35187500I-1J-200001D01*
G01*
X346972500Y-38787500D02*
G75*
G02*
X346772500Y-38987500I-200001J1D01*
G01*
%TO.C,HE83*%
X314797500Y-119750000D02*
X314797500Y-116150000D01*
X314997500Y-115950000D02*
X318197500Y-115950000D01*
X318197500Y-119950000D02*
X314997500Y-119950000D01*
X318397500Y-116150000D02*
X318397500Y-119750000D01*
X314797500Y-116150000D02*
G75*
G02*
X314997500Y-115950000I200000J0D01*
G01*
X314997500Y-119950000D02*
G75*
G02*
X314797500Y-119750000I0J200000D01*
G01*
X318197500Y-115950000D02*
G75*
G02*
X318397500Y-116150000I-1J-200001D01*
G01*
X318397500Y-119750000D02*
G75*
G02*
X318197500Y-119950000I-200001J1D01*
G01*
%TO.C,HE89*%
X121916250Y-138800000D02*
X121916250Y-135200000D01*
X122116250Y-135000000D02*
X125316250Y-135000000D01*
X125316250Y-139000000D02*
X122116250Y-139000000D01*
X125516250Y-135200000D02*
X125516250Y-138800000D01*
X121916250Y-135200000D02*
G75*
G02*
X122116250Y-135000000I200000J0D01*
G01*
X122116250Y-139000000D02*
G75*
G02*
X121916250Y-138800000I0J200000D01*
G01*
X125316250Y-135000000D02*
G75*
G02*
X125516250Y-135200000I-1J-200001D01*
G01*
X125516250Y-138800000D02*
G75*
G02*
X125316250Y-139000000I-200001J1D01*
G01*
%TO.C,HE29*%
X310035000Y-62600000D02*
X310035000Y-59000000D01*
X310235000Y-58800000D02*
X313435000Y-58800000D01*
X313435000Y-62800000D02*
X310235000Y-62800000D01*
X313635000Y-59000000D02*
X313635000Y-62600000D01*
X310035000Y-59000000D02*
G75*
G02*
X310235000Y-58800000I200000J0D01*
G01*
X310235000Y-62800000D02*
G75*
G02*
X310035000Y-62600000I0J200000D01*
G01*
X313435000Y-58800000D02*
G75*
G02*
X313635000Y-59000000I-1J-200001D01*
G01*
X313635000Y-62600000D02*
G75*
G02*
X313435000Y-62800000I-200001J1D01*
G01*
%TO.C,HE43*%
X224310000Y-81650000D02*
X224310000Y-78050000D01*
X224510000Y-77850000D02*
X227710000Y-77850000D01*
X227710000Y-81850000D02*
X224510000Y-81850000D01*
X227910000Y-78050000D02*
X227910000Y-81650000D01*
X224310000Y-78050000D02*
G75*
G02*
X224510000Y-77850000I200000J0D01*
G01*
X224510000Y-81850000D02*
G75*
G02*
X224310000Y-81650000I0J200000D01*
G01*
X227710000Y-77850000D02*
G75*
G02*
X227910000Y-78050000I-1J-200001D01*
G01*
X227910000Y-81650000D02*
G75*
G02*
X227710000Y-81850000I-200001J1D01*
G01*
%TO.C,HE69*%
X410047500Y-100700000D02*
X410047500Y-97100000D01*
X410247500Y-96900000D02*
X413447500Y-96900000D01*
X413447500Y-100900000D02*
X410247500Y-100900000D01*
X413647500Y-97100000D02*
X413647500Y-100700000D01*
X410047500Y-97100000D02*
G75*
G02*
X410247500Y-96900000I200000J0D01*
G01*
X410247500Y-100900000D02*
G75*
G02*
X410047500Y-100700000I0J200000D01*
G01*
X413447500Y-96900000D02*
G75*
G02*
X413647500Y-97100000I-1J-200001D01*
G01*
X413647500Y-100700000D02*
G75*
G02*
X413447500Y-100900000I-200001J1D01*
G01*
%TO.C,HE62*%
X248122500Y-100700000D02*
X248122500Y-97100000D01*
X248322500Y-96900000D02*
X251522500Y-96900000D01*
X251522500Y-100900000D02*
X248322500Y-100900000D01*
X251722500Y-97100000D02*
X251722500Y-100700000D01*
X248122500Y-97100000D02*
G75*
G02*
X248322500Y-96900000I200000J0D01*
G01*
X248322500Y-100900000D02*
G75*
G02*
X248122500Y-100700000I0J200000D01*
G01*
X251522500Y-96900000D02*
G75*
G02*
X251722500Y-97100000I-1J-200001D01*
G01*
X251722500Y-100700000D02*
G75*
G02*
X251522500Y-100900000I-200001J1D01*
G01*
%TO.C,HE76*%
X181447500Y-119750000D02*
X181447500Y-116150000D01*
X181647500Y-115950000D02*
X184847500Y-115950000D01*
X184847500Y-119950000D02*
X181647500Y-119950000D01*
X185047500Y-116150000D02*
X185047500Y-119750000D01*
X181447500Y-116150000D02*
G75*
G02*
X181647500Y-115950000I200000J0D01*
G01*
X181647500Y-119950000D02*
G75*
G02*
X181447500Y-119750000I0J200000D01*
G01*
X184847500Y-115950000D02*
G75*
G02*
X185047500Y-116150000I-1J-200001D01*
G01*
X185047500Y-119750000D02*
G75*
G02*
X184847500Y-119950000I-200001J1D01*
G01*
%TO.C,HE44*%
X243360000Y-81650000D02*
X243360000Y-78050000D01*
X243560000Y-77850000D02*
X246760000Y-77850000D01*
X246760000Y-81850000D02*
X243560000Y-81850000D01*
X246960000Y-78050000D02*
X246960000Y-81650000D01*
X243360000Y-78050000D02*
G75*
G02*
X243560000Y-77850000I200000J0D01*
G01*
X243560000Y-81850000D02*
G75*
G02*
X243360000Y-81650000I0J200000D01*
G01*
X246760000Y-77850000D02*
G75*
G02*
X246960000Y-78050000I-1J-200001D01*
G01*
X246960000Y-81650000D02*
G75*
G02*
X246760000Y-81850000I-200001J1D01*
G01*
%TO.C,HE75*%
X162397500Y-119750000D02*
X162397500Y-116150000D01*
X162597500Y-115950000D02*
X165797500Y-115950000D01*
X165797500Y-119950000D02*
X162597500Y-119950000D01*
X165997500Y-116150000D02*
X165997500Y-119750000D01*
X162397500Y-116150000D02*
G75*
G02*
X162597500Y-115950000I200000J0D01*
G01*
X162597500Y-119950000D02*
G75*
G02*
X162397500Y-119750000I0J200000D01*
G01*
X165797500Y-115950000D02*
G75*
G02*
X165997500Y-116150000I-1J-200001D01*
G01*
X165997500Y-119750000D02*
G75*
G02*
X165797500Y-119950000I-200001J1D01*
G01*
%TO.C,HE4*%
X181447500Y-38787500D02*
X181447500Y-35187500D01*
X181647500Y-34987500D02*
X184847500Y-34987500D01*
X184847500Y-38987500D02*
X181647500Y-38987500D01*
X185047500Y-35187500D02*
X185047500Y-38787500D01*
X181447500Y-35187500D02*
G75*
G02*
X181647500Y-34987500I200000J0D01*
G01*
X181647500Y-38987500D02*
G75*
G02*
X181447500Y-38787500I0J200000D01*
G01*
X184847500Y-34987500D02*
G75*
G02*
X185047500Y-35187500I-1J-200001D01*
G01*
X185047500Y-38787500D02*
G75*
G02*
X184847500Y-38987500I-200001J1D01*
G01*
%TO.C,HE70*%
X33810000Y-119750000D02*
X33810000Y-116150000D01*
X34010000Y-115950000D02*
X37210000Y-115950000D01*
X37210000Y-119950000D02*
X34010000Y-119950000D01*
X37410000Y-116150000D02*
X37410000Y-119750000D01*
X33810000Y-116150000D02*
G75*
G02*
X34010000Y-115950000I200000J0D01*
G01*
X34010000Y-119950000D02*
G75*
G02*
X33810000Y-119750000I0J200000D01*
G01*
X37210000Y-115950000D02*
G75*
G02*
X37410000Y-116150000I-1J-200001D01*
G01*
X37410000Y-119750000D02*
G75*
G02*
X37210000Y-119950000I-200001J1D01*
G01*
%TO.C,HE42*%
X205260000Y-81650000D02*
X205260000Y-78050000D01*
X205460000Y-77850000D02*
X208660000Y-77850000D01*
X208660000Y-81850000D02*
X205460000Y-81850000D01*
X208860000Y-78050000D02*
X208860000Y-81650000D01*
X205260000Y-78050000D02*
G75*
G02*
X205460000Y-77850000I200000J0D01*
G01*
X205460000Y-81850000D02*
G75*
G02*
X205260000Y-81650000I0J200000D01*
G01*
X208660000Y-77850000D02*
G75*
G02*
X208860000Y-78050000I-1J-200001D01*
G01*
X208860000Y-81650000D02*
G75*
G02*
X208660000Y-81850000I-200001J1D01*
G01*
%TO.C,HE49*%
X338610000Y-81650000D02*
X338610000Y-78050000D01*
X338810000Y-77850000D02*
X342010000Y-77850000D01*
X342010000Y-81850000D02*
X338810000Y-81850000D01*
X342210000Y-78050000D02*
X342210000Y-81650000D01*
X338610000Y-78050000D02*
G75*
G02*
X338810000Y-77850000I200000J0D01*
G01*
X338810000Y-81850000D02*
G75*
G02*
X338610000Y-81650000I0J200000D01*
G01*
X342010000Y-77850000D02*
G75*
G02*
X342210000Y-78050000I-1J-200001D01*
G01*
X342210000Y-81650000D02*
G75*
G02*
X342010000Y-81850000I-200001J1D01*
G01*
%TO.C,HE24*%
X214785000Y-62600000D02*
X214785000Y-59000000D01*
X214985000Y-58800000D02*
X218185000Y-58800000D01*
X218185000Y-62800000D02*
X214985000Y-62800000D01*
X218385000Y-59000000D02*
X218385000Y-62600000D01*
X214785000Y-59000000D02*
G75*
G02*
X214985000Y-58800000I200000J0D01*
G01*
X214985000Y-62800000D02*
G75*
G02*
X214785000Y-62600000I0J200000D01*
G01*
X218185000Y-58800000D02*
G75*
G02*
X218385000Y-59000000I-1J-200001D01*
G01*
X218385000Y-62600000D02*
G75*
G02*
X218185000Y-62800000I-200001J1D01*
G01*
%TO.C,HE47*%
X300510000Y-81650000D02*
X300510000Y-78050000D01*
X300710000Y-77850000D02*
X303910000Y-77850000D01*
X303910000Y-81850000D02*
X300710000Y-81850000D01*
X304110000Y-78050000D02*
X304110000Y-81650000D01*
X300510000Y-78050000D02*
G75*
G02*
X300710000Y-77850000I200000J0D01*
G01*
X300710000Y-81850000D02*
G75*
G02*
X300510000Y-81650000I0J200000D01*
G01*
X303910000Y-77850000D02*
G75*
G02*
X304110000Y-78050000I-1J-200001D01*
G01*
X304110000Y-81650000D02*
G75*
G02*
X303910000Y-81850000I-200001J1D01*
G01*
%TO.C,HE59*%
X190972500Y-100700000D02*
X190972500Y-97100000D01*
X191172500Y-96900000D02*
X194372500Y-96900000D01*
X194372500Y-100900000D02*
X191172500Y-100900000D01*
X194572500Y-97100000D02*
X194572500Y-100700000D01*
X190972500Y-97100000D02*
G75*
G02*
X191172500Y-96900000I200000J0D01*
G01*
X191172500Y-100900000D02*
G75*
G02*
X190972500Y-100700000I0J200000D01*
G01*
X194372500Y-96900000D02*
G75*
G02*
X194572500Y-97100000I-1J-200001D01*
G01*
X194572500Y-100700000D02*
G75*
G02*
X194372500Y-100900000I-200001J1D01*
G01*
%TO.C,HE6*%
X224310000Y-38787500D02*
X224310000Y-35187500D01*
X224510000Y-34987500D02*
X227710000Y-34987500D01*
X227710000Y-38987500D02*
X224510000Y-38987500D01*
X227910000Y-35187500D02*
X227910000Y-38787500D01*
X224310000Y-35187500D02*
G75*
G02*
X224510000Y-34987500I200000J0D01*
G01*
X224510000Y-38987500D02*
G75*
G02*
X224310000Y-38787500I0J200000D01*
G01*
X227710000Y-34987500D02*
G75*
G02*
X227910000Y-35187500I-1J-200001D01*
G01*
X227910000Y-38787500D02*
G75*
G02*
X227710000Y-38987500I-200001J1D01*
G01*
%TO.C,HE94*%
X329085000Y-138800000D02*
X329085000Y-135200000D01*
X329285000Y-135000000D02*
X332485000Y-135000000D01*
X332485000Y-139000000D02*
X329285000Y-139000000D01*
X332685000Y-135200000D02*
X332685000Y-138800000D01*
X329085000Y-135200000D02*
G75*
G02*
X329285000Y-135000000I200000J0D01*
G01*
X329285000Y-139000000D02*
G75*
G02*
X329085000Y-138800000I0J200000D01*
G01*
X332485000Y-135000000D02*
G75*
G02*
X332685000Y-135200000I-1J-200001D01*
G01*
X332685000Y-138800000D02*
G75*
G02*
X332485000Y-139000000I-200001J1D01*
G01*
%TO.C,HE33*%
X410047500Y-62600000D02*
X410047500Y-59000000D01*
X410247500Y-58800000D02*
X413447500Y-58800000D01*
X413447500Y-62800000D02*
X410247500Y-62800000D01*
X413647500Y-59000000D02*
X413647500Y-62600000D01*
X410047500Y-59000000D02*
G75*
G02*
X410247500Y-58800000I200000J0D01*
G01*
X410247500Y-62800000D02*
G75*
G02*
X410047500Y-62600000I0J200000D01*
G01*
X413447500Y-58800000D02*
G75*
G02*
X413647500Y-59000000I-1J-200001D01*
G01*
X413647500Y-62600000D02*
G75*
G02*
X413447500Y-62800000I-200001J1D01*
G01*
%TO.C,HE67*%
X343372500Y-100700000D02*
X343372500Y-97100000D01*
X343572500Y-96900000D02*
X346772500Y-96900000D01*
X346772500Y-100900000D02*
X343572500Y-100900000D01*
X346972500Y-97100000D02*
X346972500Y-100700000D01*
X343372500Y-97100000D02*
G75*
G02*
X343572500Y-96900000I200000J0D01*
G01*
X343572500Y-100900000D02*
G75*
G02*
X343372500Y-100700000I0J200000D01*
G01*
X346772500Y-96900000D02*
G75*
G02*
X346972500Y-97100000I-1J-200001D01*
G01*
X346972500Y-100700000D02*
G75*
G02*
X346772500Y-100900000I-200001J1D01*
G01*
%TO.C,HE2*%
X143347500Y-38787500D02*
X143347500Y-35187500D01*
X143547500Y-34987500D02*
X146747500Y-34987500D01*
X146747500Y-38987500D02*
X143547500Y-38987500D01*
X146947500Y-35187500D02*
X146947500Y-38787500D01*
X143347500Y-35187500D02*
G75*
G02*
X143547500Y-34987500I200000J0D01*
G01*
X143547500Y-38987500D02*
G75*
G02*
X143347500Y-38787500I0J200000D01*
G01*
X146747500Y-34987500D02*
G75*
G02*
X146947500Y-35187500I-1J-200001D01*
G01*
X146947500Y-38787500D02*
G75*
G02*
X146747500Y-38987500I-200001J1D01*
G01*
%TO.C,HE55*%
X71910000Y-100700000D02*
X71910000Y-97100000D01*
X72110000Y-96900000D02*
X75310000Y-96900000D01*
X75310000Y-100900000D02*
X72110000Y-100900000D01*
X75510000Y-97100000D02*
X75510000Y-100700000D01*
X71910000Y-97100000D02*
G75*
G02*
X72110000Y-96900000I200000J0D01*
G01*
X72110000Y-100900000D02*
G75*
G02*
X71910000Y-100700000I0J200000D01*
G01*
X75310000Y-96900000D02*
G75*
G02*
X75510000Y-97100000I-1J-200001D01*
G01*
X75510000Y-100700000D02*
G75*
G02*
X75310000Y-100900000I-200001J1D01*
G01*
%TO.C,HE61*%
X229072500Y-100700000D02*
X229072500Y-97100000D01*
X229272500Y-96900000D02*
X232472500Y-96900000D01*
X232472500Y-100900000D02*
X229272500Y-100900000D01*
X232672500Y-97100000D02*
X232672500Y-100700000D01*
X229072500Y-97100000D02*
G75*
G02*
X229272500Y-96900000I200000J0D01*
G01*
X229272500Y-100900000D02*
G75*
G02*
X229072500Y-100700000I0J200000D01*
G01*
X232472500Y-96900000D02*
G75*
G02*
X232672500Y-97100000I-1J-200001D01*
G01*
X232672500Y-100700000D02*
G75*
G02*
X232472500Y-100900000I-200001J1D01*
G01*
%TO.C,HE19*%
X119535000Y-62600000D02*
X119535000Y-59000000D01*
X119735000Y-58800000D02*
X122935000Y-58800000D01*
X122935000Y-62800000D02*
X119735000Y-62800000D01*
X123135000Y-59000000D02*
X123135000Y-62600000D01*
X119535000Y-59000000D02*
G75*
G02*
X119735000Y-58800000I200000J0D01*
G01*
X119735000Y-62800000D02*
G75*
G02*
X119535000Y-62600000I0J200000D01*
G01*
X122935000Y-58800000D02*
G75*
G02*
X123135000Y-59000000I-1J-200001D01*
G01*
X123135000Y-62600000D02*
G75*
G02*
X122935000Y-62800000I-200001J1D01*
G01*
%TO.C,HE97*%
X386235000Y-138800000D02*
X386235000Y-135200000D01*
X386435000Y-135000000D02*
X389635000Y-135000000D01*
X389635000Y-139000000D02*
X386435000Y-139000000D01*
X389835000Y-135200000D02*
X389835000Y-138800000D01*
X386235000Y-135200000D02*
G75*
G02*
X386435000Y-135000000I200000J0D01*
G01*
X386435000Y-139000000D02*
G75*
G02*
X386235000Y-138800000I0J200000D01*
G01*
X389635000Y-135000000D02*
G75*
G02*
X389835000Y-135200000I-1J-200001D01*
G01*
X389835000Y-138800000D02*
G75*
G02*
X389635000Y-139000000I-200001J1D01*
G01*
%TO.C,HE21*%
X157635000Y-62600000D02*
X157635000Y-59000000D01*
X157835000Y-58800000D02*
X161035000Y-58800000D01*
X161035000Y-62800000D02*
X157835000Y-62800000D01*
X161235000Y-59000000D02*
X161235000Y-62600000D01*
X157635000Y-59000000D02*
G75*
G02*
X157835000Y-58800000I200000J0D01*
G01*
X157835000Y-62800000D02*
G75*
G02*
X157635000Y-62600000I0J200000D01*
G01*
X161035000Y-58800000D02*
G75*
G02*
X161235000Y-59000000I-1J-200001D01*
G01*
X161235000Y-62600000D02*
G75*
G02*
X161035000Y-62800000I-200001J1D01*
G01*
%TO.C,HE26*%
X252880000Y-62600000D02*
X252880000Y-59000000D01*
X253080000Y-58800000D02*
X256280000Y-58800000D01*
X256280000Y-62800000D02*
X253080000Y-62800000D01*
X256480000Y-59000000D02*
X256480000Y-62600000D01*
X252880000Y-59000000D02*
G75*
G02*
X253080000Y-58800000I200000J0D01*
G01*
X253080000Y-62800000D02*
G75*
G02*
X252880000Y-62600000I0J200000D01*
G01*
X256280000Y-58800000D02*
G75*
G02*
X256480000Y-59000000I-1J-200001D01*
G01*
X256480000Y-62600000D02*
G75*
G02*
X256280000Y-62800000I-200001J1D01*
G01*
%TO.C,HE87*%
X33810000Y-138800000D02*
X33810000Y-135200000D01*
X34010000Y-135000000D02*
X37210000Y-135000000D01*
X37210000Y-139000000D02*
X34010000Y-139000000D01*
X37410000Y-135200000D02*
X37410000Y-138800000D01*
X33810000Y-135200000D02*
G75*
G02*
X34010000Y-135000000I200000J0D01*
G01*
X34010000Y-139000000D02*
G75*
G02*
X33810000Y-138800000I0J200000D01*
G01*
X37210000Y-135000000D02*
G75*
G02*
X37410000Y-135200000I-1J-200001D01*
G01*
X37410000Y-138800000D02*
G75*
G02*
X37210000Y-139000000I-200001J1D01*
G01*
%TO.C,HE39*%
X148110000Y-81650000D02*
X148110000Y-78050000D01*
X148310000Y-77850000D02*
X151510000Y-77850000D01*
X151510000Y-81850000D02*
X148310000Y-81850000D01*
X151710000Y-78050000D02*
X151710000Y-81650000D01*
X148110000Y-78050000D02*
G75*
G02*
X148310000Y-77850000I200000J0D01*
G01*
X148310000Y-81850000D02*
G75*
G02*
X148110000Y-81650000I0J200000D01*
G01*
X151510000Y-77850000D02*
G75*
G02*
X151710000Y-78050000I-1J-200001D01*
G01*
X151710000Y-81650000D02*
G75*
G02*
X151510000Y-81850000I-200001J1D01*
G01*
%TO.C,HE57*%
X152872500Y-100700000D02*
X152872500Y-97100000D01*
X153072500Y-96900000D02*
X156272500Y-96900000D01*
X156272500Y-100900000D02*
X153072500Y-100900000D01*
X156472500Y-97100000D02*
X156472500Y-100700000D01*
X152872500Y-97100000D02*
G75*
G02*
X153072500Y-96900000I200000J0D01*
G01*
X153072500Y-100900000D02*
G75*
G02*
X152872500Y-100700000I0J200000D01*
G01*
X156272500Y-96900000D02*
G75*
G02*
X156472500Y-97100000I-1J-200001D01*
G01*
X156472500Y-100700000D02*
G75*
G02*
X156272500Y-100900000I-200001J1D01*
G01*
%TO.C,HE92*%
X240978750Y-138800000D02*
X240978750Y-135200000D01*
X241178750Y-135000000D02*
X244378750Y-135000000D01*
X244378750Y-139000000D02*
X241178750Y-139000000D01*
X244578750Y-135200000D02*
X244578750Y-138800000D01*
X240978750Y-135200000D02*
G75*
G02*
X241178750Y-135000000I200000J0D01*
G01*
X241178750Y-139000000D02*
G75*
G02*
X240978750Y-138800000I0J200000D01*
G01*
X244378750Y-135000000D02*
G75*
G02*
X244578750Y-135200000I-1J-200001D01*
G01*
X244578750Y-138800000D02*
G75*
G02*
X244378750Y-139000000I-200001J1D01*
G01*
%TO.C,HE38*%
X124297500Y-81650000D02*
X124297500Y-78050000D01*
X124497500Y-77850000D02*
X127697500Y-77850000D01*
X127697500Y-81850000D02*
X124497500Y-81850000D01*
X127897500Y-78050000D02*
X127897500Y-81650000D01*
X124297500Y-78050000D02*
G75*
G02*
X124497500Y-77850000I200000J0D01*
G01*
X124497500Y-81850000D02*
G75*
G02*
X124297500Y-81650000I0J200000D01*
G01*
X127697500Y-77850000D02*
G75*
G02*
X127897500Y-78050000I-1J-200001D01*
G01*
X127897500Y-81650000D02*
G75*
G02*
X127697500Y-81850000I-200001J1D01*
G01*
%TO.C,HE8*%
X262410000Y-38787500D02*
X262410000Y-35187500D01*
X262610000Y-34987500D02*
X265810000Y-34987500D01*
X265810000Y-38987500D02*
X262610000Y-38987500D01*
X266010000Y-35187500D02*
X266010000Y-38787500D01*
X262410000Y-35187500D02*
G75*
G02*
X262610000Y-34987500I200000J0D01*
G01*
X262610000Y-38987500D02*
G75*
G02*
X262410000Y-38787500I0J200000D01*
G01*
X265810000Y-34987500D02*
G75*
G02*
X266010000Y-35187500I-1J-200001D01*
G01*
X266010000Y-38787500D02*
G75*
G02*
X265810000Y-38987500I-200001J1D01*
G01*
%TO.C,HE72*%
X71910000Y-119750000D02*
X71910000Y-116150000D01*
X72110000Y-115950000D02*
X75310000Y-115950000D01*
X75310000Y-119950000D02*
X72110000Y-119950000D01*
X75510000Y-116150000D02*
X75510000Y-119750000D01*
X71910000Y-116150000D02*
G75*
G02*
X72110000Y-115950000I200000J0D01*
G01*
X72110000Y-119950000D02*
G75*
G02*
X71910000Y-119750000I0J200000D01*
G01*
X75310000Y-115950000D02*
G75*
G02*
X75510000Y-116150000I-1J-200001D01*
G01*
X75510000Y-119750000D02*
G75*
G02*
X75310000Y-119950000I-200001J1D01*
G01*
%TO.C,HE30*%
X329085000Y-62600000D02*
X329085000Y-59000000D01*
X329285000Y-58800000D02*
X332485000Y-58800000D01*
X332485000Y-62800000D02*
X329285000Y-62800000D01*
X332685000Y-59000000D02*
X332685000Y-62600000D01*
X329085000Y-59000000D02*
G75*
G02*
X329285000Y-58800000I200000J0D01*
G01*
X329285000Y-62800000D02*
G75*
G02*
X329085000Y-62600000I0J200000D01*
G01*
X332485000Y-58800000D02*
G75*
G02*
X332685000Y-59000000I-1J-200001D01*
G01*
X332685000Y-62600000D02*
G75*
G02*
X332485000Y-62800000I-200001J1D01*
G01*
%TO.C,HE27*%
X271935000Y-62600000D02*
X271935000Y-59000000D01*
X272135000Y-58800000D02*
X275335000Y-58800000D01*
X275335000Y-62800000D02*
X272135000Y-62800000D01*
X275535000Y-59000000D02*
X275535000Y-62600000D01*
X271935000Y-59000000D02*
G75*
G02*
X272135000Y-58800000I200000J0D01*
G01*
X272135000Y-62800000D02*
G75*
G02*
X271935000Y-62600000I0J200000D01*
G01*
X275335000Y-58800000D02*
G75*
G02*
X275535000Y-59000000I-1J-200001D01*
G01*
X275535000Y-62600000D02*
G75*
G02*
X275335000Y-62800000I-200001J1D01*
G01*
%TO.C,HE45*%
X262410000Y-81650000D02*
X262410000Y-78050000D01*
X262610000Y-77850000D02*
X265810000Y-77850000D01*
X265810000Y-81850000D02*
X262610000Y-81850000D01*
X266010000Y-78050000D02*
X266010000Y-81650000D01*
X262410000Y-78050000D02*
G75*
G02*
X262610000Y-77850000I200000J0D01*
G01*
X262610000Y-81850000D02*
G75*
G02*
X262410000Y-81650000I0J200000D01*
G01*
X265810000Y-77850000D02*
G75*
G02*
X266010000Y-78050000I-1J-200001D01*
G01*
X266010000Y-81650000D02*
G75*
G02*
X265810000Y-81850000I-200001J1D01*
G01*
%TO.C,HE58*%
X171922500Y-100700000D02*
X171922500Y-97100000D01*
X172122500Y-96900000D02*
X175322500Y-96900000D01*
X175322500Y-100900000D02*
X172122500Y-100900000D01*
X175522500Y-97100000D02*
X175522500Y-100700000D01*
X171922500Y-97100000D02*
G75*
G02*
X172122500Y-96900000I200000J0D01*
G01*
X172122500Y-100900000D02*
G75*
G02*
X171922500Y-100700000I0J200000D01*
G01*
X175322500Y-96900000D02*
G75*
G02*
X175522500Y-97100000I-1J-200001D01*
G01*
X175522500Y-100700000D02*
G75*
G02*
X175322500Y-100900000I-200001J1D01*
G01*
%TO.C,HE15*%
X33810000Y-62600000D02*
X33810000Y-59000000D01*
X34010000Y-58800000D02*
X37210000Y-58800000D01*
X37210000Y-62800000D02*
X34010000Y-62800000D01*
X37410000Y-59000000D02*
X37410000Y-62600000D01*
X33810000Y-59000000D02*
G75*
G02*
X34010000Y-58800000I200000J0D01*
G01*
X34010000Y-62800000D02*
G75*
G02*
X33810000Y-62600000I0J200000D01*
G01*
X37210000Y-58800000D02*
G75*
G02*
X37410000Y-59000000I-1J-200001D01*
G01*
X37410000Y-62600000D02*
G75*
G02*
X37210000Y-62800000I-200001J1D01*
G01*
%TO.C,HE1*%
X119535000Y-38787500D02*
X119535000Y-35187500D01*
X119735000Y-34987500D02*
X122935000Y-34987500D01*
X122935000Y-38987500D02*
X119735000Y-38987500D01*
X123135000Y-35187500D02*
X123135000Y-38787500D01*
X119535000Y-35187500D02*
G75*
G02*
X119735000Y-34987500I200000J0D01*
G01*
X119735000Y-38987500D02*
G75*
G02*
X119535000Y-38787500I0J200000D01*
G01*
X122935000Y-34987500D02*
G75*
G02*
X123135000Y-35187500I-1J-200001D01*
G01*
X123135000Y-38787500D02*
G75*
G02*
X122935000Y-38987500I-200001J1D01*
G01*
%TO.C,HE3*%
X162397500Y-38787500D02*
X162397500Y-35187500D01*
X162597500Y-34987500D02*
X165797500Y-34987500D01*
X165797500Y-38987500D02*
X162597500Y-38987500D01*
X165997500Y-35187500D02*
X165997500Y-38787500D01*
X162397500Y-35187500D02*
G75*
G02*
X162597500Y-34987500I200000J0D01*
G01*
X162597500Y-38987500D02*
G75*
G02*
X162397500Y-38787500I0J200000D01*
G01*
X165797500Y-34987500D02*
G75*
G02*
X165997500Y-35187500I-1J-200001D01*
G01*
X165997500Y-38787500D02*
G75*
G02*
X165797500Y-38987500I-200001J1D01*
G01*
%TO.C,HE88*%
X62385000Y-138800000D02*
X62385000Y-135200000D01*
X62585000Y-135000000D02*
X65785000Y-135000000D01*
X65785000Y-139000000D02*
X62585000Y-139000000D01*
X65985000Y-135200000D02*
X65985000Y-138800000D01*
X62385000Y-135200000D02*
G75*
G02*
X62585000Y-135000000I200000J0D01*
G01*
X62585000Y-139000000D02*
G75*
G02*
X62385000Y-138800000I0J200000D01*
G01*
X65785000Y-135000000D02*
G75*
G02*
X65985000Y-135200000I-1J-200001D01*
G01*
X65985000Y-138800000D02*
G75*
G02*
X65785000Y-139000000I-200001J1D01*
G01*
%TO.C,HE22*%
X176685000Y-62600000D02*
X176685000Y-59000000D01*
X176885000Y-58800000D02*
X180085000Y-58800000D01*
X180085000Y-62800000D02*
X176885000Y-62800000D01*
X180285000Y-59000000D02*
X180285000Y-62600000D01*
X176685000Y-59000000D02*
G75*
G02*
X176885000Y-58800000I200000J0D01*
G01*
X176885000Y-62800000D02*
G75*
G02*
X176685000Y-62600000I0J200000D01*
G01*
X180085000Y-58800000D02*
G75*
G02*
X180285000Y-59000000I-1J-200001D01*
G01*
X180285000Y-62600000D02*
G75*
G02*
X180085000Y-62800000I-200001J1D01*
G01*
%TO.C,HE73*%
X90960000Y-129275000D02*
X90960000Y-125675000D01*
X91160000Y-125475000D02*
X94360000Y-125475000D01*
X94360000Y-129475000D02*
X91160000Y-129475000D01*
X94560000Y-125675000D02*
X94560000Y-129275000D01*
X90960000Y-125675000D02*
G75*
G02*
X91160000Y-125475000I200000J0D01*
G01*
X91160000Y-129475000D02*
G75*
G02*
X90960000Y-129275000I0J200000D01*
G01*
X94360000Y-125475000D02*
G75*
G02*
X94560000Y-125675000I-1J-200001D01*
G01*
X94560000Y-129275000D02*
G75*
G02*
X94360000Y-129475000I-200001J1D01*
G01*
%TO.C,HE11*%
X324322500Y-38787500D02*
X324322500Y-35187500D01*
X324522500Y-34987500D02*
X327722500Y-34987500D01*
X327722500Y-38987500D02*
X324522500Y-38987500D01*
X327922500Y-35187500D02*
X327922500Y-38787500D01*
X324322500Y-35187500D02*
G75*
G02*
X324522500Y-34987500I200000J0D01*
G01*
X324522500Y-38987500D02*
G75*
G02*
X324322500Y-38787500I0J200000D01*
G01*
X327722500Y-34987500D02*
G75*
G02*
X327922500Y-35187500I-1J-200001D01*
G01*
X327922500Y-38787500D02*
G75*
G02*
X327722500Y-38987500I-200001J1D01*
G01*
%TO.C,HE82*%
X295747500Y-119750000D02*
X295747500Y-116150000D01*
X295947500Y-115950000D02*
X299147500Y-115950000D01*
X299147500Y-119950000D02*
X295947500Y-119950000D01*
X299347500Y-116150000D02*
X299347500Y-119750000D01*
X295747500Y-116150000D02*
G75*
G02*
X295947500Y-115950000I200000J0D01*
G01*
X295947500Y-119950000D02*
G75*
G02*
X295747500Y-119750000I0J200000D01*
G01*
X299147500Y-115950000D02*
G75*
G02*
X299347500Y-116150000I-1J-200001D01*
G01*
X299347500Y-119750000D02*
G75*
G02*
X299147500Y-119950000I-200001J1D01*
G01*
%TO.C,HE78*%
X219547500Y-119750000D02*
X219547500Y-116150000D01*
X219747500Y-115950000D02*
X222947500Y-115950000D01*
X222947500Y-119950000D02*
X219747500Y-119950000D01*
X223147500Y-116150000D02*
X223147500Y-119750000D01*
X219547500Y-116150000D02*
G75*
G02*
X219747500Y-115950000I200000J0D01*
G01*
X219747500Y-119950000D02*
G75*
G02*
X219547500Y-119750000I0J200000D01*
G01*
X222947500Y-115950000D02*
G75*
G02*
X223147500Y-116150000I-1J-200001D01*
G01*
X223147500Y-119750000D02*
G75*
G02*
X222947500Y-119950000I-200001J1D01*
G01*
%TO.C,HE91*%
X169541250Y-138800000D02*
X169541250Y-135200000D01*
X169741250Y-135000000D02*
X172941250Y-135000000D01*
X172941250Y-139000000D02*
X169741250Y-139000000D01*
X173141250Y-135200000D02*
X173141250Y-138800000D01*
X169541250Y-135200000D02*
G75*
G02*
X169741250Y-135000000I200000J0D01*
G01*
X169741250Y-139000000D02*
G75*
G02*
X169541250Y-138800000I0J200000D01*
G01*
X172941250Y-135000000D02*
G75*
G02*
X173141250Y-135200000I-1J-200001D01*
G01*
X173141250Y-138800000D02*
G75*
G02*
X172941250Y-139000000I-200001J1D01*
G01*
%TO.C,HE86*%
X386235000Y-119750000D02*
X386235000Y-116150000D01*
X386435000Y-115950000D02*
X389635000Y-115950000D01*
X389635000Y-119950000D02*
X386435000Y-119950000D01*
X389835000Y-116150000D02*
X389835000Y-119750000D01*
X386235000Y-116150000D02*
G75*
G02*
X386435000Y-115950000I200000J0D01*
G01*
X386435000Y-119950000D02*
G75*
G02*
X386235000Y-119750000I0J200000D01*
G01*
X389635000Y-115950000D02*
G75*
G02*
X389835000Y-116150000I-1J-200001D01*
G01*
X389835000Y-119750000D02*
G75*
G02*
X389635000Y-119950000I-200001J1D01*
G01*
%TO.C,HE48*%
X319560000Y-81650000D02*
X319560000Y-78050000D01*
X319760000Y-77850000D02*
X322960000Y-77850000D01*
X322960000Y-81850000D02*
X319760000Y-81850000D01*
X323160000Y-78050000D02*
X323160000Y-81650000D01*
X319560000Y-78050000D02*
G75*
G02*
X319760000Y-77850000I200000J0D01*
G01*
X319760000Y-81850000D02*
G75*
G02*
X319560000Y-81650000I0J200000D01*
G01*
X322960000Y-77850000D02*
G75*
G02*
X323160000Y-78050000I-1J-200001D01*
G01*
X323160000Y-81650000D02*
G75*
G02*
X322960000Y-81850000I-200001J1D01*
G01*
%TO.C,HE32*%
X376710000Y-62600000D02*
X376710000Y-59000000D01*
X376910000Y-58800000D02*
X380110000Y-58800000D01*
X380110000Y-62800000D02*
X376910000Y-62800000D01*
X380310000Y-59000000D02*
X380310000Y-62600000D01*
X376710000Y-59000000D02*
G75*
G02*
X376910000Y-58800000I200000J0D01*
G01*
X376910000Y-62800000D02*
G75*
G02*
X376710000Y-62600000I0J200000D01*
G01*
X380110000Y-58800000D02*
G75*
G02*
X380310000Y-59000000I-1J-200001D01*
G01*
X380310000Y-62600000D02*
G75*
G02*
X380110000Y-62800000I-200001J1D01*
G01*
%TO.C,HE98*%
X405285000Y-138800000D02*
X405285000Y-135200000D01*
X405485000Y-135000000D02*
X408685000Y-135000000D01*
X408685000Y-139000000D02*
X405485000Y-139000000D01*
X408885000Y-135200000D02*
X408885000Y-138800000D01*
X405285000Y-135200000D02*
G75*
G02*
X405485000Y-135000000I200000J0D01*
G01*
X405485000Y-139000000D02*
G75*
G02*
X405285000Y-138800000I0J200000D01*
G01*
X408685000Y-135000000D02*
G75*
G02*
X408885000Y-135200000I-1J-200001D01*
G01*
X408885000Y-138800000D02*
G75*
G02*
X408685000Y-139000000I-200001J1D01*
G01*
%TO.C,HE77*%
X200497500Y-119750000D02*
X200497500Y-116150000D01*
X200697500Y-115950000D02*
X203897500Y-115950000D01*
X203897500Y-119950000D02*
X200697500Y-119950000D01*
X204097500Y-116150000D02*
X204097500Y-119750000D01*
X200497500Y-116150000D02*
G75*
G02*
X200697500Y-115950000I200000J0D01*
G01*
X200697500Y-119950000D02*
G75*
G02*
X200497500Y-119750000I0J200000D01*
G01*
X203897500Y-115950000D02*
G75*
G02*
X204097500Y-116150000I-1J-200001D01*
G01*
X204097500Y-119750000D02*
G75*
G02*
X203897500Y-119950000I-200001J1D01*
G01*
%TO.C,HE95*%
X348135000Y-138800000D02*
X348135000Y-135200000D01*
X348335000Y-135000000D02*
X351535000Y-135000000D01*
X351535000Y-139000000D02*
X348335000Y-139000000D01*
X351735000Y-135200000D02*
X351735000Y-138800000D01*
X348135000Y-135200000D02*
G75*
G02*
X348335000Y-135000000I200000J0D01*
G01*
X348335000Y-139000000D02*
G75*
G02*
X348135000Y-138800000I0J200000D01*
G01*
X351535000Y-135000000D02*
G75*
G02*
X351735000Y-135200000I-1J-200001D01*
G01*
X351735000Y-138800000D02*
G75*
G02*
X351535000Y-139000000I-200001J1D01*
G01*
%TO.C,HE66*%
X324322500Y-100700000D02*
X324322500Y-97100000D01*
X324522500Y-96900000D02*
X327722500Y-96900000D01*
X327722500Y-100900000D02*
X324522500Y-100900000D01*
X327922500Y-97100000D02*
X327922500Y-100700000D01*
X324322500Y-97100000D02*
G75*
G02*
X324522500Y-96900000I200000J0D01*
G01*
X324522500Y-100900000D02*
G75*
G02*
X324322500Y-100700000I0J200000D01*
G01*
X327722500Y-96900000D02*
G75*
G02*
X327922500Y-97100000I-1J-200001D01*
G01*
X327922500Y-100700000D02*
G75*
G02*
X327722500Y-100900000I-200001J1D01*
G01*
%TO.C,HE90*%
X145728750Y-138800000D02*
X145728750Y-135200000D01*
X145928750Y-135000000D02*
X149128750Y-135000000D01*
X149128750Y-139000000D02*
X145928750Y-139000000D01*
X149328750Y-135200000D02*
X149328750Y-138800000D01*
X145728750Y-135200000D02*
G75*
G02*
X145928750Y-135000000I200000J0D01*
G01*
X145928750Y-139000000D02*
G75*
G02*
X145728750Y-138800000I0J200000D01*
G01*
X149128750Y-135000000D02*
G75*
G02*
X149328750Y-135200000I-1J-200001D01*
G01*
X149328750Y-138800000D02*
G75*
G02*
X149128750Y-139000000I-200001J1D01*
G01*
%TO.C,HE35*%
X52860000Y-81650000D02*
X52860000Y-78050000D01*
X53060000Y-77850000D02*
X56260000Y-77850000D01*
X56260000Y-81850000D02*
X53060000Y-81850000D01*
X56460000Y-78050000D02*
X56460000Y-81650000D01*
X52860000Y-78050000D02*
G75*
G02*
X53060000Y-77850000I200000J0D01*
G01*
X53060000Y-81850000D02*
G75*
G02*
X52860000Y-81650000I0J200000D01*
G01*
X56260000Y-77850000D02*
G75*
G02*
X56460000Y-78050000I-1J-200001D01*
G01*
X56460000Y-81650000D02*
G75*
G02*
X56260000Y-81850000I-200001J1D01*
G01*
%TO.C,HE74*%
X131441250Y-119750000D02*
X131441250Y-116150000D01*
X131641250Y-115950000D02*
X134841250Y-115950000D01*
X134841250Y-119950000D02*
X131641250Y-119950000D01*
X135041250Y-116150000D02*
X135041250Y-119750000D01*
X131441250Y-116150000D02*
G75*
G02*
X131641250Y-115950000I200000J0D01*
G01*
X131641250Y-119950000D02*
G75*
G02*
X131441250Y-119750000I0J200000D01*
G01*
X134841250Y-115950000D02*
G75*
G02*
X135041250Y-116150000I-1J-200001D01*
G01*
X135041250Y-119750000D02*
G75*
G02*
X134841250Y-119950000I-200001J1D01*
G01*
%TO.C,HE52*%
X410047500Y-81650000D02*
X410047500Y-78050000D01*
X410247500Y-77850000D02*
X413447500Y-77850000D01*
X413447500Y-81850000D02*
X410247500Y-81850000D01*
X413647500Y-78050000D02*
X413647500Y-81650000D01*
X410047500Y-78050000D02*
G75*
G02*
X410247500Y-77850000I200000J0D01*
G01*
X410247500Y-81850000D02*
G75*
G02*
X410047500Y-81650000I0J200000D01*
G01*
X413447500Y-77850000D02*
G75*
G02*
X413647500Y-78050000I-1J-200001D01*
G01*
X413647500Y-81650000D02*
G75*
G02*
X413447500Y-81850000I-200001J1D01*
G01*
%TO.C,HE53*%
X33810000Y-100700000D02*
X33810000Y-97100000D01*
X34010000Y-96900000D02*
X37210000Y-96900000D01*
X37210000Y-100900000D02*
X34010000Y-100900000D01*
X37410000Y-97100000D02*
X37410000Y-100700000D01*
X33810000Y-97100000D02*
G75*
G02*
X34010000Y-96900000I200000J0D01*
G01*
X34010000Y-100900000D02*
G75*
G02*
X33810000Y-100700000I0J200000D01*
G01*
X37210000Y-96900000D02*
G75*
G02*
X37410000Y-97100000I-1J-200001D01*
G01*
X37410000Y-100700000D02*
G75*
G02*
X37210000Y-100900000I-200001J1D01*
G01*
%TO.C,HE71*%
X52860000Y-119750000D02*
X52860000Y-116150000D01*
X53060000Y-115950000D02*
X56260000Y-115950000D01*
X56260000Y-119950000D02*
X53060000Y-119950000D01*
X56460000Y-116150000D02*
X56460000Y-119750000D01*
X52860000Y-116150000D02*
G75*
G02*
X53060000Y-115950000I200000J0D01*
G01*
X53060000Y-119950000D02*
G75*
G02*
X52860000Y-119750000I0J200000D01*
G01*
X56260000Y-115950000D02*
G75*
G02*
X56460000Y-116150000I-1J-200001D01*
G01*
X56460000Y-119750000D02*
G75*
G02*
X56260000Y-119950000I-200001J1D01*
G01*
%TO.C,HE63*%
X267172500Y-100700000D02*
X267172500Y-97100000D01*
X267372500Y-96900000D02*
X270572500Y-96900000D01*
X270572500Y-100900000D02*
X267372500Y-100900000D01*
X270772500Y-97100000D02*
X270772500Y-100700000D01*
X267172500Y-97100000D02*
G75*
G02*
X267372500Y-96900000I200000J0D01*
G01*
X267372500Y-100900000D02*
G75*
G02*
X267172500Y-100700000I0J200000D01*
G01*
X270572500Y-96900000D02*
G75*
G02*
X270772500Y-97100000I-1J-200001D01*
G01*
X270772500Y-100700000D02*
G75*
G02*
X270572500Y-100900000I-200001J1D01*
G01*
%TO.C,HE13*%
X362422500Y-38787500D02*
X362422500Y-35187500D01*
X362622500Y-34987500D02*
X365822500Y-34987500D01*
X365822500Y-38987500D02*
X362622500Y-38987500D01*
X366022500Y-35187500D02*
X366022500Y-38787500D01*
X362422500Y-35187500D02*
G75*
G02*
X362622500Y-34987500I200000J0D01*
G01*
X362622500Y-38987500D02*
G75*
G02*
X362422500Y-38787500I0J200000D01*
G01*
X365822500Y-34987500D02*
G75*
G02*
X366022500Y-35187500I-1J-200001D01*
G01*
X366022500Y-38787500D02*
G75*
G02*
X365822500Y-38987500I-200001J1D01*
G01*
%TO.C,HE56*%
X126678750Y-100700000D02*
X126678750Y-97100000D01*
X126878750Y-96900000D02*
X130078750Y-96900000D01*
X130078750Y-100900000D02*
X126878750Y-100900000D01*
X130278750Y-97100000D02*
X130278750Y-100700000D01*
X126678750Y-97100000D02*
G75*
G02*
X126878750Y-96900000I200000J0D01*
G01*
X126878750Y-100900000D02*
G75*
G02*
X126678750Y-100700000I0J200000D01*
G01*
X130078750Y-96900000D02*
G75*
G02*
X130278750Y-97100000I-1J-200001D01*
G01*
X130278750Y-100700000D02*
G75*
G02*
X130078750Y-100900000I-200001J1D01*
G01*
%TO.C,HE54*%
X52860000Y-100700000D02*
X52860000Y-97100000D01*
X53060000Y-96900000D02*
X56260000Y-96900000D01*
X56260000Y-100900000D02*
X53060000Y-100900000D01*
X56460000Y-97100000D02*
X56460000Y-100700000D01*
X52860000Y-97100000D02*
G75*
G02*
X53060000Y-96900000I200000J0D01*
G01*
X53060000Y-100900000D02*
G75*
G02*
X52860000Y-100700000I0J200000D01*
G01*
X56260000Y-96900000D02*
G75*
G02*
X56460000Y-97100000I-1J-200001D01*
G01*
X56460000Y-100700000D02*
G75*
G02*
X56260000Y-100900000I-200001J1D01*
G01*
%TO.C,HE16*%
X52860000Y-62600000D02*
X52860000Y-59000000D01*
X53060000Y-58800000D02*
X56260000Y-58800000D01*
X56260000Y-62800000D02*
X53060000Y-62800000D01*
X56460000Y-59000000D02*
X56460000Y-62600000D01*
X52860000Y-59000000D02*
G75*
G02*
X53060000Y-58800000I200000J0D01*
G01*
X53060000Y-62800000D02*
G75*
G02*
X52860000Y-62600000I0J200000D01*
G01*
X56260000Y-58800000D02*
G75*
G02*
X56460000Y-59000000I-1J-200001D01*
G01*
X56460000Y-62600000D02*
G75*
G02*
X56260000Y-62800000I-200001J1D01*
G01*
%TO.C,HE18*%
X90960000Y-62600000D02*
X90960000Y-59000000D01*
X91160000Y-58800000D02*
X94360000Y-58800000D01*
X94360000Y-62800000D02*
X91160000Y-62800000D01*
X94560000Y-59000000D02*
X94560000Y-62600000D01*
X90960000Y-59000000D02*
G75*
G02*
X91160000Y-58800000I200000J0D01*
G01*
X91160000Y-62800000D02*
G75*
G02*
X90960000Y-62600000I0J200000D01*
G01*
X94360000Y-58800000D02*
G75*
G02*
X94560000Y-59000000I-1J-200001D01*
G01*
X94560000Y-62600000D02*
G75*
G02*
X94360000Y-62800000I-200001J1D01*
G01*
%TO.C,HE84*%
X333847500Y-119750000D02*
X333847500Y-116150000D01*
X334047500Y-115950000D02*
X337247500Y-115950000D01*
X337247500Y-119950000D02*
X334047500Y-119950000D01*
X337447500Y-116150000D02*
X337447500Y-119750000D01*
X333847500Y-116150000D02*
G75*
G02*
X334047500Y-115950000I200000J0D01*
G01*
X334047500Y-119950000D02*
G75*
G02*
X333847500Y-119750000I0J200000D01*
G01*
X337247500Y-115950000D02*
G75*
G02*
X337447500Y-116150000I-1J-200001D01*
G01*
X337447500Y-119750000D02*
G75*
G02*
X337247500Y-119950000I-200001J1D01*
G01*
%TO.C,HE85*%
X360041250Y-119750000D02*
X360041250Y-116150000D01*
X360241250Y-115950000D02*
X363441250Y-115950000D01*
X363441250Y-119950000D02*
X360241250Y-119950000D01*
X363641250Y-116150000D02*
X363641250Y-119750000D01*
X360041250Y-116150000D02*
G75*
G02*
X360241250Y-115950000I200000J0D01*
G01*
X360241250Y-119950000D02*
G75*
G02*
X360041250Y-119750000I0J200000D01*
G01*
X363441250Y-115950000D02*
G75*
G02*
X363641250Y-116150000I-1J-200001D01*
G01*
X363641250Y-119750000D02*
G75*
G02*
X363441250Y-119950000I-200001J1D01*
G01*
%TO.C,HE46*%
X281460000Y-81650000D02*
X281460000Y-78050000D01*
X281660000Y-77850000D02*
X284860000Y-77850000D01*
X284860000Y-81850000D02*
X281660000Y-81850000D01*
X285060000Y-78050000D02*
X285060000Y-81650000D01*
X281460000Y-78050000D02*
G75*
G02*
X281660000Y-77850000I200000J0D01*
G01*
X281660000Y-81850000D02*
G75*
G02*
X281460000Y-81650000I0J200000D01*
G01*
X284860000Y-77850000D02*
G75*
G02*
X285060000Y-78050000I-1J-200001D01*
G01*
X285060000Y-81650000D02*
G75*
G02*
X284860000Y-81850000I-200001J1D01*
G01*
%TO.C,HE20*%
X138585000Y-62600000D02*
X138585000Y-59000000D01*
X138785000Y-58800000D02*
X141985000Y-58800000D01*
X141985000Y-62800000D02*
X138785000Y-62800000D01*
X142185000Y-59000000D02*
X142185000Y-62600000D01*
X138585000Y-59000000D02*
G75*
G02*
X138785000Y-58800000I200000J0D01*
G01*
X138785000Y-62800000D02*
G75*
G02*
X138585000Y-62600000I0J200000D01*
G01*
X141985000Y-58800000D02*
G75*
G02*
X142185000Y-59000000I-1J-200001D01*
G01*
X142185000Y-62600000D02*
G75*
G02*
X141985000Y-62800000I-200001J1D01*
G01*
%TO.C,HE51*%
X381472500Y-81650000D02*
X381472500Y-78050000D01*
X381672500Y-77850000D02*
X384872500Y-77850000D01*
X384872500Y-81850000D02*
X381672500Y-81850000D01*
X385072500Y-78050000D02*
X385072500Y-81650000D01*
X381472500Y-78050000D02*
G75*
G02*
X381672500Y-77850000I200000J0D01*
G01*
X381672500Y-81850000D02*
G75*
G02*
X381472500Y-81650000I0J200000D01*
G01*
X384872500Y-77850000D02*
G75*
G02*
X385072500Y-78050000I-1J-200001D01*
G01*
X385072500Y-81650000D02*
G75*
G02*
X384872500Y-81850000I-200001J1D01*
G01*
%TO.C,HE34*%
X33810000Y-81650000D02*
X33810000Y-78050000D01*
X34010000Y-77850000D02*
X37210000Y-77850000D01*
X37210000Y-81850000D02*
X34010000Y-81850000D01*
X37410000Y-78050000D02*
X37410000Y-81650000D01*
X33810000Y-78050000D02*
G75*
G02*
X34010000Y-77850000I200000J0D01*
G01*
X34010000Y-81850000D02*
G75*
G02*
X33810000Y-81650000I0J200000D01*
G01*
X37210000Y-77850000D02*
G75*
G02*
X37410000Y-78050000I-1J-200001D01*
G01*
X37410000Y-81650000D02*
G75*
G02*
X37210000Y-81850000I-200001J1D01*
G01*
%TD*%
%LPC*%
D13*
%TO.C,SB1*%
X366603750Y-53815000D03*
D14*
X366603750Y-69055000D03*
D13*
X390416250Y-53815000D03*
D14*
X390416250Y-69055000D03*
%TD*%
D15*
%TO.C,H5*%
X211882679Y-46475571D03*
X212585623Y-44778515D03*
X212585623Y-48172627D03*
X214282679Y-44075571D03*
D16*
X214282679Y-46475571D03*
D15*
X214282679Y-48875571D03*
X215979735Y-44778515D03*
X215979735Y-48172627D03*
X216682679Y-46475571D03*
%TD*%
D13*
%TO.C,SB2*%
X121335000Y-110965000D03*
D14*
X121335000Y-126205000D03*
D13*
X145147500Y-110965000D03*
D14*
X145147500Y-126205000D03*
%TD*%
D17*
%TO.C,J1*%
X44400000Y-44640000D03*
D18*
X44400000Y-42100000D03*
X44400000Y-39560000D03*
X44400000Y-37020000D03*
%TD*%
D15*
%TO.C,H3*%
X61785000Y-108425000D03*
X62487944Y-106727944D03*
X62487944Y-110122056D03*
X64185000Y-106025000D03*
D16*
X64185000Y-108425000D03*
D15*
X64185000Y-110825000D03*
X65882056Y-106727944D03*
X65882056Y-110122056D03*
X66585000Y-108425000D03*
%TD*%
%TO.C,H4*%
X373695424Y-46477450D03*
X374398368Y-44780394D03*
X374398368Y-48174506D03*
X376095424Y-44077450D03*
D16*
X376095424Y-46477450D03*
D15*
X376095424Y-48877450D03*
X377792480Y-44780394D03*
X377792480Y-48174506D03*
X378495424Y-46477450D03*
%TD*%
D14*
%TO.C,SB6*%
X101015001Y-101281251D03*
X101015001Y-77468749D03*
D13*
X85775000Y-101281250D03*
X85775000Y-77468750D03*
%TD*%
D15*
%TO.C,H6*%
X372550000Y-116022814D03*
X373252944Y-114325758D03*
X373252944Y-117719870D03*
X374950000Y-113622814D03*
D16*
X374950000Y-116022814D03*
D15*
X374950000Y-118422814D03*
X376647056Y-114325758D03*
X376647056Y-117719870D03*
X377350000Y-116022814D03*
%TD*%
D13*
%TO.C,SB3*%
X292785000Y-143984999D03*
D14*
X292785000Y-128745000D03*
D13*
X192772500Y-143984999D03*
D14*
X192772500Y-128745000D03*
%TD*%
D15*
%TO.C,H1*%
X61785000Y-70375000D03*
X62487944Y-68677944D03*
X62487944Y-72072056D03*
X64185000Y-67975000D03*
D16*
X64185000Y-70375000D03*
D15*
X64185000Y-72775000D03*
X65882056Y-68677944D03*
X65882056Y-72072056D03*
X66585000Y-70375000D03*
%TD*%
D13*
%TO.C,SB5*%
X364222500Y-91915000D03*
D14*
X364222500Y-107155000D03*
D13*
X388035000Y-91915000D03*
D14*
X388035000Y-107155000D03*
%TD*%
%TO.C,SB4*%
X76091251Y-128745000D03*
D13*
X76091250Y-143985000D03*
X52278750Y-143985000D03*
D14*
X52278749Y-128745000D03*
%TD*%
D15*
%TO.C,H2*%
X223860000Y-130000000D03*
X224562944Y-128302944D03*
X224562944Y-131697056D03*
X226260000Y-127600000D03*
D16*
X226260000Y-130000000D03*
D15*
X226260000Y-132400000D03*
X227957056Y-128302944D03*
X227957056Y-131697056D03*
X228660000Y-130000000D03*
%TD*%
D14*
%TO.C,SB7*%
X101015001Y-139381251D03*
X101015001Y-115568749D03*
D13*
X85775000Y-139381250D03*
X85775000Y-115568750D03*
%TD*%
D19*
%TO.C,ENC1*%
X414347719Y-29487475D03*
D20*
X409347719Y-29487475D03*
X411847719Y-29487475D03*
D21*
X417447719Y-36987475D03*
X406247719Y-36987475D03*
D20*
X409347719Y-43987475D03*
X414347719Y-43987475D03*
%TD*%
D22*
%TO.C,J5*%
X62288245Y-30147971D03*
D23*
X63288245Y-30147971D03*
X64288246Y-30147971D03*
X65288245Y-30147971D03*
X66288245Y-30147971D03*
%TD*%
D24*
%TO.C,HE40*%
X174040000Y-79850000D03*
X163880000Y-79850000D03*
%TD*%
%TO.C,HE5*%
X207377500Y-36987500D03*
X197217500Y-36987500D03*
%TD*%
%TO.C,HE68*%
X381208750Y-98900000D03*
X371048750Y-98900000D03*
%TD*%
%TO.C,HE50*%
X364540000Y-79850000D03*
X354380000Y-79850000D03*
%TD*%
%TO.C,HE28*%
X297865000Y-60800000D03*
X287705000Y-60800000D03*
%TD*%
%TO.C,HE96*%
X374065000Y-137000000D03*
X363905000Y-137000000D03*
%TD*%
%TO.C,HE9*%
X288340000Y-36987500D03*
X278180000Y-36987500D03*
%TD*%
%TO.C,HE65*%
X312152500Y-98900000D03*
X301992500Y-98900000D03*
%TD*%
%TO.C,HE60*%
X216902500Y-98900000D03*
X206742500Y-98900000D03*
%TD*%
%TO.C,HE31*%
X355015000Y-60800000D03*
X344855000Y-60800000D03*
%TD*%
%TO.C,HE23*%
X202615000Y-60800000D03*
X192455000Y-60800000D03*
%TD*%
%TO.C,HE79*%
X245477500Y-117950000D03*
X235317500Y-117950000D03*
%TD*%
%TO.C,HE36*%
X78790000Y-79850000D03*
X68630000Y-79850000D03*
%TD*%
%TO.C,HE7*%
X250240000Y-36987500D03*
X240080000Y-36987500D03*
%TD*%
%TO.C,HE81*%
X283577500Y-117950000D03*
X273417500Y-117950000D03*
%TD*%
%TO.C,HE64*%
X293102500Y-98900000D03*
X282942500Y-98900000D03*
%TD*%
%TO.C,HE17*%
X78790000Y-60800000D03*
X68630000Y-60800000D03*
%TD*%
%TO.C,HE10*%
X312152500Y-36987500D03*
X301992500Y-36987500D03*
%TD*%
%TO.C,HE25*%
X240715000Y-60800000D03*
X230555000Y-60800000D03*
%TD*%
%TO.C,HE93*%
X316915000Y-137000000D03*
X306755000Y-137000000D03*
%TD*%
%TO.C,HE14*%
X393115000Y-36987500D03*
X382955000Y-36987500D03*
%TD*%
%TO.C,HE80*%
X264527500Y-117950000D03*
X254367500Y-117950000D03*
%TD*%
%TO.C,HE37*%
X97840000Y-89375000D03*
X87680000Y-89375000D03*
%TD*%
%TO.C,HE41*%
X193090000Y-79850000D03*
X182930000Y-79850000D03*
%TD*%
%TO.C,HE12*%
X350252500Y-36987500D03*
X340092500Y-36987500D03*
%TD*%
%TO.C,HE83*%
X321677500Y-117950000D03*
X311517500Y-117950000D03*
%TD*%
%TO.C,HE89*%
X128796250Y-137000000D03*
X118636250Y-137000000D03*
%TD*%
%TO.C,HE29*%
X316915000Y-60800000D03*
X306755000Y-60800000D03*
%TD*%
%TO.C,HE43*%
X231190000Y-79850000D03*
X221030000Y-79850000D03*
%TD*%
%TO.C,HE69*%
X416927500Y-98900000D03*
X406767500Y-98900000D03*
%TD*%
%TO.C,HE62*%
X255002500Y-98900000D03*
X244842500Y-98900000D03*
%TD*%
%TO.C,HE76*%
X188327500Y-117950000D03*
X178167500Y-117950000D03*
%TD*%
%TO.C,HE44*%
X250240000Y-79850000D03*
X240080000Y-79850000D03*
%TD*%
%TO.C,HE75*%
X169277500Y-117950000D03*
X159117500Y-117950000D03*
%TD*%
%TO.C,HE4*%
X188327500Y-36987500D03*
X178167500Y-36987500D03*
%TD*%
%TO.C,HE70*%
X40690000Y-117950000D03*
X30530000Y-117950000D03*
%TD*%
%TO.C,HE42*%
X212140000Y-79850000D03*
X201980000Y-79850000D03*
%TD*%
%TO.C,HE49*%
X345490000Y-79850000D03*
X335330000Y-79850000D03*
%TD*%
%TO.C,HE24*%
X221665000Y-60800000D03*
X211505000Y-60800000D03*
%TD*%
%TO.C,HE47*%
X307390000Y-79850000D03*
X297230000Y-79850000D03*
%TD*%
%TO.C,HE59*%
X197852500Y-98900000D03*
X187692500Y-98900000D03*
%TD*%
%TO.C,HE6*%
X231190000Y-36987500D03*
X221030000Y-36987500D03*
%TD*%
%TO.C,HE94*%
X335965000Y-137000000D03*
X325805000Y-137000000D03*
%TD*%
%TO.C,HE33*%
X416927500Y-60800000D03*
X406767500Y-60800000D03*
%TD*%
%TO.C,HE67*%
X350252500Y-98900000D03*
X340092500Y-98900000D03*
%TD*%
%TO.C,HE2*%
X150227500Y-36987500D03*
X140067500Y-36987500D03*
%TD*%
%TO.C,HE55*%
X78790000Y-98900000D03*
X68630000Y-98900000D03*
%TD*%
%TO.C,HE61*%
X235952500Y-98900000D03*
X225792500Y-98900000D03*
%TD*%
%TO.C,HE19*%
X126415000Y-60800000D03*
X116255000Y-60800000D03*
%TD*%
%TO.C,HE97*%
X393115000Y-137000000D03*
X382955000Y-137000000D03*
%TD*%
%TO.C,HE21*%
X164515000Y-60800000D03*
X154355000Y-60800000D03*
%TD*%
%TO.C,HE26*%
X259760000Y-60800000D03*
X249600000Y-60800000D03*
%TD*%
%TO.C,HE87*%
X40690000Y-137000000D03*
X30530000Y-137000000D03*
%TD*%
%TO.C,HE39*%
X154990000Y-79850000D03*
X144830000Y-79850000D03*
%TD*%
%TO.C,HE57*%
X159752500Y-98900000D03*
X149592500Y-98900000D03*
%TD*%
%TO.C,HE92*%
X247858750Y-137000000D03*
X237698750Y-137000000D03*
%TD*%
%TO.C,HE38*%
X131177500Y-79850000D03*
X121017500Y-79850000D03*
%TD*%
%TO.C,HE8*%
X269290000Y-36987500D03*
X259130000Y-36987500D03*
%TD*%
%TO.C,HE72*%
X78790000Y-117950000D03*
X68630000Y-117950000D03*
%TD*%
%TO.C,HE30*%
X335965000Y-60800000D03*
X325805000Y-60800000D03*
%TD*%
%TO.C,HE27*%
X278815000Y-60800000D03*
X268655000Y-60800000D03*
%TD*%
%TO.C,HE45*%
X269290000Y-79850000D03*
X259130000Y-79850000D03*
%TD*%
%TO.C,HE58*%
X178802500Y-98900000D03*
X168642500Y-98900000D03*
%TD*%
%TO.C,HE15*%
X40690000Y-60800000D03*
X30530000Y-60800000D03*
%TD*%
%TO.C,HE1*%
X126415000Y-36987500D03*
X116255000Y-36987500D03*
%TD*%
%TO.C,HE3*%
X169277500Y-36987500D03*
X159117500Y-36987500D03*
%TD*%
%TO.C,HE88*%
X69265000Y-137000000D03*
X59105000Y-137000000D03*
%TD*%
%TO.C,HE22*%
X183565000Y-60800000D03*
X173405000Y-60800000D03*
%TD*%
%TO.C,HE73*%
X97840000Y-127475000D03*
X87680000Y-127475000D03*
%TD*%
%TO.C,HE11*%
X331202500Y-36987500D03*
X321042500Y-36987500D03*
%TD*%
%TO.C,HE82*%
X302627500Y-117950000D03*
X292467500Y-117950000D03*
%TD*%
%TO.C,HE78*%
X226427500Y-117950000D03*
X216267500Y-117950000D03*
%TD*%
%TO.C,HE91*%
X176421250Y-137000000D03*
X166261250Y-137000000D03*
%TD*%
%TO.C,HE86*%
X393115000Y-117950000D03*
X382955000Y-117950000D03*
%TD*%
%TO.C,HE48*%
X326440000Y-79850000D03*
X316280000Y-79850000D03*
%TD*%
%TO.C,HE32*%
X383590000Y-60800000D03*
X373430000Y-60800000D03*
%TD*%
%TO.C,HE98*%
X412165000Y-137000000D03*
X402005000Y-137000000D03*
%TD*%
%TO.C,HE77*%
X207377500Y-117950000D03*
X197217500Y-117950000D03*
%TD*%
%TO.C,HE95*%
X355015000Y-137000000D03*
X344855000Y-137000000D03*
%TD*%
%TO.C,HE66*%
X331202500Y-98900000D03*
X321042500Y-98900000D03*
%TD*%
%TO.C,HE90*%
X152608750Y-137000000D03*
X142448750Y-137000000D03*
%TD*%
%TO.C,HE35*%
X59740000Y-79850000D03*
X49580000Y-79850000D03*
%TD*%
%TO.C,HE74*%
X138321250Y-117950000D03*
X128161250Y-117950000D03*
%TD*%
%TO.C,HE52*%
X416927500Y-79850000D03*
X406767500Y-79850000D03*
%TD*%
%TO.C,HE53*%
X40690000Y-98900000D03*
X30530000Y-98900000D03*
%TD*%
%TO.C,HE71*%
X59740000Y-117950000D03*
X49580000Y-117950000D03*
%TD*%
%TO.C,HE63*%
X274052500Y-98900000D03*
X263892500Y-98900000D03*
%TD*%
%TO.C,HE13*%
X369302500Y-36987500D03*
X359142500Y-36987500D03*
%TD*%
%TO.C,HE56*%
X133558750Y-98900000D03*
X123398750Y-98900000D03*
%TD*%
%TO.C,HE54*%
X59740000Y-98900000D03*
X49580000Y-98900000D03*
%TD*%
%TO.C,HE16*%
X59740000Y-60800000D03*
X49580000Y-60800000D03*
%TD*%
%TO.C,HE18*%
X97840000Y-60800000D03*
X87680000Y-60800000D03*
%TD*%
%TO.C,HE84*%
X340727500Y-117950000D03*
X330567500Y-117950000D03*
%TD*%
D25*
%TO.C,J2*%
X100422149Y-30717351D03*
X106202149Y-30717351D03*
D26*
X98992149Y-27067351D03*
D27*
X98992149Y-31247351D03*
D26*
X107632149Y-27067351D03*
D27*
X107632149Y-31247351D03*
%TD*%
D24*
%TO.C,HE85*%
X366921250Y-117950000D03*
X356761250Y-117950000D03*
%TD*%
%TO.C,HE46*%
X288340000Y-79850000D03*
X278180000Y-79850000D03*
%TD*%
%TO.C,HE20*%
X145465000Y-60800000D03*
X135305000Y-60800000D03*
%TD*%
%TO.C,HE51*%
X388352500Y-79850000D03*
X378192500Y-79850000D03*
%TD*%
%TO.C,HE34*%
X40690000Y-79850000D03*
X30530000Y-79850000D03*
%TD*%
%LPD*%
M02*
