M48
; DRILL file {KiCad 9.0.5} date 2026-01-11T09:40:32+0700
; FORMAT={-:-/ absolute / inch / decimal}
; #@! TF.CreationDate,2026-01-11T09:40:32+07:00
; #@! TF.GenerationSoftware,Kicad,Pcbnew,9.0.5
; #@! TF.FileFunction,Plated,1,2,PTH
FMAT,2
INCH
; #@! TA.AperFunction,Plated,PTH,ViaDrill
T1C0.0118
; #@! TA.AperFunction,Plated,PTH,ComponentDrill
T2C0.0118
; #@! TA.AperFunction,Plated,PTH,ComponentDrill
T3C0.0197
; #@! TA.AperFunction,Plated,PTH,ComponentDrill
T4C0.0236
; #@! TA.AperFunction,Plated,PTH,ComponentDrill
T5C0.0394
; #@! TA.AperFunction,Plated,PTH,ComponentDrill
T6C0.1024
; #@! TA.AperFunction,Plated,PTH,ComponentDrill
T7C0.1260
%
G90
G05
T1
X1.1047Y-1.1676
X1.1047Y-1.325
X1.1047Y-1.4825
X1.1047Y-1.64
X1.1047Y-1.7975
X1.1047Y-1.955
X1.1047Y-2.1124
X1.1047Y-2.2699
X1.1047Y-5.4195
X1.1047Y-5.577
X1.1047Y-5.7345
X1.2598Y-3.9933
X1.2622Y-1.1676
X1.2622Y-1.325
X1.2622Y-1.4825
X1.2622Y-1.64
X1.2622Y-1.7975
X1.2622Y-1.955
X1.2622Y-2.1124
X1.2622Y-2.7424
X1.2622Y-2.8998
X1.2622Y-3.0573
X1.2622Y-3.5298
X1.2622Y-3.6872
X1.2622Y-3.8447
X1.2622Y-4.3172
X1.2622Y-4.4746
X1.2622Y-4.9471
X1.2622Y-5.1046
X1.2622Y-5.7345
X1.2717Y-2.3278
X1.2717Y-2.3642
X1.2717Y-2.4006
X1.2717Y-2.437
X1.2717Y-2.4734
X1.3264Y-5.4941
X1.3339Y-2.4949
X1.3524Y-2.7067
X1.3996Y-2.7067
X1.4197Y-1.1676
X1.4197Y-1.325
X1.4197Y-1.4825
X1.4197Y-1.955
X1.4197Y-2.1124
X1.4197Y-2.8998
X1.4197Y-3.5298
X1.4197Y-3.6872
X1.4197Y-4.3172
X1.4197Y-4.9471
X1.4197Y-5.1046
X1.4197Y-5.7345
X1.4394Y-3.2437
X1.4394Y-4.7441
X1.4469Y-2.7067
X1.4583Y-2.2752
X1.4606Y-3.7748
X1.4646Y-5.2744
X1.4807Y-3.4319
X1.485Y-4.9327
X1.5528Y-5.5642
X1.5555Y-4.8142
X1.5587Y-2.5638
X1.5591Y-4.0642
X1.5657Y-3.3138
X1.5772Y-1.1676
X1.5772Y-1.325
X1.5772Y-1.64
X1.5772Y-1.955
X1.5772Y-2.1124
X1.5772Y-2.7424
X1.5772Y-3.0573
X1.5772Y-3.5298
X1.5772Y-3.6872
X1.5772Y-4.1597
X1.5772Y-4.3172
X1.5772Y-5.1046
X1.5772Y-5.7345
X1.6555Y-2.7224
X1.6555Y-2.7563
X1.7295Y-2.9315
X1.7346Y-1.1676
X1.7346Y-2.1124
X1.7346Y-3.3723
X1.7346Y-3.5298
X1.7346Y-3.6872
X1.7346Y-3.8447
X1.7346Y-4.1597
X1.7346Y-4.3172
X1.7346Y-4.6321
X1.7346Y-5.1046
X1.7346Y-5.4195
X1.7346Y-5.7345
X1.7451Y-2.3376
X1.7451Y-2.3848
X1.7451Y-2.4321
X1.7461Y-2.6211
X1.7461Y-2.6683
X1.8228Y-1.7382
X1.8488Y-2.4949
X1.8711Y-1.4094
X1.8921Y-1.1676
X1.8921Y-1.955
X1.8921Y-3.0573
X1.8921Y-3.3723
X1.8921Y-3.5298
X1.8921Y-3.6872
X1.8921Y-4.3172
X1.8921Y-5.1046
X1.8921Y-5.4195
X1.8921Y-5.7345
X1.9045Y-1.4085
X1.9201Y-2.6067
X1.939Y-1.4075
X1.9862Y-3.3732
X1.9917Y-2.6228
X1.9951Y-1.7372
X1.9969Y-4.1236
X1.9976Y-4.8732
X2.0496Y-1.4825
X2.0496Y-1.7975
X2.0496Y-2.1124
X2.0496Y-2.4274
X2.0496Y-2.8998
X2.0496Y-3.0573
X2.0496Y-3.5298
X2.0496Y-3.6872
X2.0496Y-3.8447
X2.0496Y-4.6321
X2.0496Y-5.4195
X2.0531Y-1.6988
X2.078Y-3.9933
X2.0799Y-2.4949
X2.0925Y-1.6988
X2.1319Y-1.7008
X2.1713Y-1.7018
X2.2071Y-1.1676
X2.2071Y-1.4825
X2.2071Y-1.955
X2.2071Y-2.1124
X2.2071Y-3.0573
X2.2071Y-3.5298
X2.2071Y-3.6872
X2.2071Y-4.3172
X2.2071Y-5.1046
X2.2071Y-5.4195
X2.2071Y-5.7345
X2.2154Y-3.2437
X2.2157Y-4.7441
X2.2177Y-2.2752
X2.2185Y-3.7748
X2.2252Y-4.9327
X2.2327Y-3.4319
X2.2555Y-2.9882
X2.3071Y-2.5646
X2.3091Y-3.315
X2.3094Y-4.8142
X2.3154Y-4.0646
X2.3646Y-1.1676
X2.3646Y-1.955
X2.3646Y-2.1124
X2.3646Y-2.7424
X2.3646Y-2.8998
X2.3646Y-3.0573
X2.3646Y-3.5298
X2.3646Y-3.6872
X2.3646Y-4.1597
X2.3646Y-4.3172
X2.3646Y-5.1046
X2.3646Y-5.7345
X2.3713Y-5.6232
X2.4496Y-5.4941
X2.522Y-1.955
X2.522Y-2.1124
X2.522Y-2.4274
X2.522Y-3.0573
X2.522Y-3.3723
X2.522Y-3.5298
X2.522Y-3.6872
X2.522Y-3.8447
X2.522Y-4.6321
X2.522Y-5.1046
X2.522Y-5.7345
X2.5276Y-1.5469
X2.5559Y-1.7394
X2.5941Y-5.2744
X2.5984Y-1.4449
X2.6043Y-1.2608
X2.6265Y-1.283
X2.6299Y-1.4764
X2.6378Y-2.437
X2.6417Y-1.3425
X2.646Y-1.2211
X2.6486Y-1.3012
X2.6524Y-1.5469
X2.6671Y-1.2422
X2.6693Y-1.3661
X2.678Y-5.5642
X2.6795Y-1.955
X2.6795Y-2.1124
X2.6795Y-2.8998
X2.6795Y-3.0573
X2.6795Y-3.5298
X2.6795Y-3.6872
X2.6795Y-5.1046
X2.6795Y-5.7345
X2.6874Y-1.2624
X2.719Y-1.6382
X2.7272Y-2.6933
X2.7429Y-3.374
X2.7449Y-4.8732
X2.7469Y-2.6224
X2.7472Y-4.1224
X2.7508Y-1.5469
X2.7642Y-1.7228
X2.7945Y-1.4461
X2.8252Y-3.9933
X2.8307Y-2.2752
X2.8327Y-2.4949
X2.837Y-3.5298
X2.837Y-3.6872
X2.837Y-3.8447
X2.837Y-5.1046
X2.837Y-5.4195
X2.837Y-5.7345
X2.874Y-1.6693
X2.8839Y-1.3848
X2.8839Y-1.4459
X2.9173Y-1.2569
X2.9488Y-1.2559
X2.9618Y-2.8047
X2.9636Y-1.0669
X2.9665Y-3.7748
X2.9673Y-4.7441
X2.9681Y-3.2437
X2.9697Y-2.2752
X2.9756Y-4.9327
X2.9793Y-1.2559
X2.9815Y-3.4319
X2.9945Y-2.1124
X2.9945Y-2.4274
X2.9945Y-2.8998
X2.9945Y-3.0573
X2.9945Y-3.5298
X2.9945Y-3.6872
X2.9945Y-3.8447
X2.9945Y-4.4746
X2.9945Y-4.6321
X2.9945Y-5.4195
X3.0094Y-3.9618
X3.0364Y-1.4341
X3.0587Y-4.8142
X3.0591Y-1.687
X3.0591Y-2.5642
X3.0722Y-1.5744
X3.0748Y-3.3059
X3.0757Y-1.6637
X3.0951Y-1.0669
X3.0958Y-1.6434
X3.1106Y-1.6142
X3.1228Y-2.6114
X3.1343Y-1.5469
X3.152Y-2.8998
X3.152Y-3.0573
X3.152Y-4.4746
X3.152Y-5.1046
X3.152Y-5.7345
X3.1614Y-4.0551
X3.1701Y-1.5469
X3.185Y-4.3583
X3.1925Y-4.7441
X3.2055Y-1.5106
X3.2205Y-1.7953
X3.2267Y-1.0669
X3.2323Y-1.6388
X3.2323Y-1.7087
X3.2465Y-3.1449
X3.2512Y-3.4717
X3.2756Y-1.3386
X3.2815Y-4.9012
X3.2906Y-1.5469
X3.3094Y-4.6321
X3.3094Y-4.7896
X3.3094Y-5.262
X3.3094Y-5.577
X3.3094Y-5.7345
X3.311Y-1.3071
X3.315Y-2.3346
X3.315Y-2.3898
X3.315Y-2.4449
X3.3268Y-5.1469
X3.3346Y-2.8976
X3.3445Y-1.5193
X3.3583Y-1.0669
X3.3701Y-2.9331
X3.3878Y-1.5469
X3.3976Y-2.0047
X3.4213Y-1.9748
X3.4252Y-1.311
X3.4449Y-1.9488
X3.4669Y-4.4746
X3.4669Y-4.6321
X3.4669Y-4.9471
X3.4669Y-5.4195
X3.4669Y-5.577
X3.4669Y-5.7345
X3.4677Y-4.1165
X3.4882Y-1.311
X3.4898Y-1.0669
X3.4909Y-2.6232
X3.4941Y-5.2484
X3.4945Y-3.748
X3.5394Y-1.4724
X3.5433Y-1.315
X3.5457Y-3.3339
X3.5472Y-2.4252
X3.5787Y-1.3504
X3.5827Y-1.4291
X3.5846Y-2.4949
X3.5945Y-1.9094
X3.5982Y-1.6813
X3.6102Y-1.3937
X3.6142Y-1.7123
X3.6214Y-1.0669
X3.6244Y-3.8447
X3.6244Y-4.0022
X3.6244Y-5.4195
X3.6244Y-5.577
X3.6244Y-5.7345
X3.6558Y-1.707
X3.6559Y-1.7846
X3.7136Y-1.707
X3.7138Y-1.7846
X3.7157Y-3.6205
X3.7177Y-5.1193
X3.7224Y-2.2752
X3.7248Y-2.8283
X3.7256Y-5.3071
X3.7483Y-1.6189
X3.7483Y-1.6551
X3.753Y-1.0669
X3.7719Y-1.707
X3.772Y-1.7846
X3.7819Y-1.325
X3.7819Y-2.4274
X3.7819Y-2.8998
X3.7819Y-3.0573
X3.7819Y-3.5298
X3.7819Y-3.8447
X3.7819Y-4.0022
X3.7819Y-4.4746
X3.7819Y-4.6321
X3.7819Y-4.9471
X3.7819Y-5.4195
X3.7819Y-5.577
X3.7819Y-5.7345
X3.8008Y-1.6126
X3.8079Y-3.6894
X3.8114Y-2.5642
X3.8118Y-5.1894
X3.8302Y-1.707
X3.8303Y-1.7846
X3.8504Y-2.626
X3.8776Y-1.7071
X3.8776Y-1.7866
X3.9008Y-1.3047
X3.911Y-2.037
X3.9173Y-1.7087
X3.9173Y-1.7874
X3.9318Y-2.626
X3.9394Y-2.4274
X3.9394Y-2.8998
X3.9394Y-3.5298
X3.9394Y-3.8447
X3.9394Y-4.9471
X3.9394Y-5.7345
X3.9449Y-2.0394
X3.9504Y-5.1469
X3.9512Y-5.0917
X3.9567Y-1.322
X4.0024Y-3.6921
X4.0131Y-2.626
X4.0677Y-1.3264
X4.0945Y-2.626
X4.0969Y-1.7975
X4.0969Y-2.4274
X4.0969Y-2.8998
X4.0969Y-3.0573
X4.0969Y-4.4746
X4.0969Y-4.6321
X4.0969Y-4.9471
X4.0969Y-5.577
X4.0969Y-5.7345
X4.1461Y-1.9272
X4.1553Y-1.4373
X4.1606Y-1.6299
X4.187Y-1.3271
X4.2165Y-1.6161
X4.2291Y-1.6909
X4.2311Y-1.3071
X4.2331Y-1.4551
X4.2543Y-2.4274
X4.2543Y-4.3172
X4.2543Y-4.4746
X4.2543Y-4.6321
X4.2543Y-4.9471
X4.2543Y-5.4195
X4.2543Y-5.577
X4.2543Y-5.7345
X4.2559Y-3.2146
X4.2705Y-2.5949
X4.2772Y-1.3283
X4.2874Y-3.3425
X4.2946Y-2.8987
X4.311Y-3.4961
X4.3181Y-2.9233
X4.3228Y-5.3898
X4.324Y-1.9217
X4.3327Y-1.5043
X4.335Y-1.5469
X4.3417Y-2.948
X4.3461Y-3.4961
X4.3652Y-2.9723
X4.3888Y-2.997
X4.3961Y-1.6161
X4.4118Y-1.1676
X4.4118Y-3.5298
X4.4118Y-3.8447
X4.4118Y-4.1597
X4.4118Y-4.3172
X4.4118Y-4.4746
X4.4118Y-4.6321
X4.4118Y-4.9471
X4.4118Y-5.577
X4.4118Y-5.7345
X4.413Y-1.7445
X4.4164Y-3.0231
X4.438Y-5.3898
X4.4677Y-2.8283
X4.4803Y-2.6299
X4.4957Y-2.8047
X4.4965Y-1.7445
X4.5169Y-1.6504
X4.5224Y-2.7799
X4.5276Y-2.6299
X4.5492Y-2.7563
X4.5532Y-5.3902
X4.5693Y-1.1676
X4.5693Y-1.325
X4.5693Y-3.6872
X4.5693Y-4.3172
X4.5693Y-4.4746
X4.5693Y-4.6321
X4.5693Y-5.577
X4.5693Y-5.7345
X4.5787Y-2.7224
X4.5799Y-1.7445
X4.6106Y-2.6933
X4.6213Y-2.6228
X4.6449Y-2.6937
X4.6484Y-1.7445
X4.6772Y-2.6929
X4.7047Y-3.3898
X4.7091Y-2.4949
X4.7165Y-5.6232
X4.7205Y-2.7323
X4.7268Y-1.1676
X4.7268Y-1.325
X4.7268Y-1.7975
X4.7268Y-3.5298
X4.7268Y-3.6872
X4.7268Y-4.1597
X4.7268Y-4.4746
X4.7268Y-4.6321
X4.7268Y-5.7345
X4.7402Y-3.3583
X4.7441Y-2.6929
X4.7559Y-5.3307
X4.7638Y-3.3898
X4.7693Y-3.9634
X4.7697Y-4.0264
X4.7894Y-5.4949
X4.7969Y-1.5469
X4.8051Y-3.374
X4.8417Y-2.2752
X4.8449Y-1.7445
X4.8843Y-1.1676
X4.8843Y-1.325
X4.8843Y-1.4825
X4.8843Y-2.4274
X4.8843Y-3.5298
X4.8843Y-3.6872
X4.8843Y-4.3172
X4.8843Y-4.4746
X4.8843Y-4.6321
X4.8843Y-5.7345
X4.8858Y-2.6654
X4.9039Y-4.124
X4.9315Y-1.6264
X4.9315Y-2.5642
X4.9354Y-5.2752
X4.9819Y-3.9949
X5.0228Y-5.5642
X5.0291Y-3.2437
X5.039Y-3.4327
X5.0417Y-1.1676
X5.0417Y-1.325
X5.0417Y-2.7424
X5.0417Y-3.5298
X5.0417Y-3.6872
X5.0417Y-4.3172
X5.0417Y-4.4746
X5.0417Y-4.7896
X5.0417Y-5.7345
X5.0646Y-2.0441
X5.0646Y-2.1386
X5.1232Y-3.3142
X5.1264Y-3.7752
X5.1382Y-4.9642
X5.1724Y-1.7445
X5.1992Y-1.1676
X5.1992Y-1.325
X5.1992Y-1.4825
X5.1992Y-3.5298
X5.1992Y-3.6872
X5.1992Y-5.1046
X5.1992Y-5.4195
X5.1992Y-5.7345
X5.2142Y-4.0642
X5.2287Y-1.7445
X5.2557Y-2.8992
X5.2557Y-2.9238
X5.2557Y-2.9485
X5.2557Y-2.9732
X5.2557Y-2.9979
X5.2559Y-3.0239
X5.2898Y-1.7445
X5.3102Y-4.7441
X5.3217Y-4.9327
X5.3433Y-3.6012
X5.3567Y-1.1676
X5.3567Y-1.325
X5.3567Y-1.4825
X5.3567Y-1.7975
X5.3567Y-2.7424
X5.3567Y-4.1597
X5.3567Y-4.3172
X5.3567Y-4.4746
X5.3567Y-4.6321
X5.3567Y-5.1046
X5.3567Y-5.4195
X5.3567Y-5.7345
X5.3697Y-2.6228
X5.3701Y-3.6502
X5.3898Y-3.6753
X5.4028Y-4.815
X5.4094Y-3.7
X5.4409Y-3.7264
X5.4453Y-2.4949
X5.4647Y-3.7495
X5.5142Y-1.1676
X5.5142Y-1.325
X5.5142Y-1.7975
X5.5142Y-2.7424
X5.5142Y-2.8998
X5.5142Y-3.0573
X5.5142Y-3.3723
X5.5142Y-3.5298
X5.5142Y-4.1597
X5.5142Y-4.3172
X5.5142Y-4.4746
X5.5142Y-4.6321
X5.5142Y-5.1046
X5.5142Y-5.4195
X5.5142Y-5.7345
X5.561Y-1.6854
X5.5862Y-2.2752
X5.6535Y-5.6232
X5.6717Y-1.1676
X5.6717Y-1.7975
X5.6717Y-2.7424
X5.6717Y-2.8998
X5.6717Y-3.0573
X5.6717Y-3.5298
X5.6717Y-4.1597
X5.6717Y-4.4746
X5.6717Y-4.6321
X5.6717Y-5.1046
X5.6717Y-5.7345
X5.6803Y-2.5642
X5.7291Y-5.4949
X5.7354Y-1.5469
X5.7362Y-3.3728
X5.7811Y-1.7445
X5.8291Y-1.1676
X5.8291Y-1.325
X5.8291Y-1.4825
X5.8291Y-2.4274
X5.8291Y-2.7424
X5.8291Y-2.8998
X5.8291Y-3.5298
X5.8291Y-4.1597
X5.8291Y-4.3172
X5.8291Y-4.4746
X5.8291Y-4.6321
X5.8291Y-5.1046
X5.8291Y-5.7345
X5.8724Y-5.2752
X5.8728Y-1.6268
X5.937Y-4.1236
X5.9587Y-5.5642
X5.9638Y-3.2437
X5.974Y-3.4331
X5.9866Y-1.1676
X5.9866Y-1.325
X5.9866Y-1.4825
X5.9866Y-1.7975
X5.9866Y-2.4274
X5.9866Y-2.7424
X5.9866Y-3.0573
X5.9866Y-3.5298
X5.9866Y-3.8447
X5.9866Y-4.3172
X5.9866Y-4.4746
X5.9866Y-4.6321
X5.9866Y-5.1046
X5.9866Y-5.7345
X6.011Y-3.9949
X6.0657Y-3.3138
X6.1197Y-2.6232
X6.1441Y-1.1676
X6.1441Y-1.325
X6.1441Y-1.4825
X6.1441Y-1.7975
X6.1441Y-2.4274
X6.1441Y-2.7424
X6.1441Y-3.0573
X6.1441Y-3.5298
X6.1441Y-4.3172
X6.1441Y-4.4746
X6.1441Y-4.6321
X6.1441Y-5.1046
X6.1441Y-5.4195
X6.1441Y-5.7345
X6.1531Y-3.7752
X6.1949Y-2.4949
X6.2484Y-4.0642
X6.2976Y-4.8732
X6.3016Y-1.1676
X6.3016Y-1.325
X6.3016Y-1.7975
X6.3016Y-2.7424
X6.3016Y-3.0573
X6.3016Y-3.3723
X6.3016Y-4.1597
X6.3016Y-4.3172
X6.3016Y-4.4746
X6.3016Y-5.1046
X6.3016Y-5.4195
X6.3016Y-5.7345
X6.3161Y-1.6858
X6.3382Y-2.2752
X6.4203Y-3.8312
X6.4203Y-3.8809
X6.4203Y-3.9306
X6.4319Y-2.5642
X6.4331Y-3.3898
X6.4591Y-1.1676
X6.4591Y-1.7975
X6.4591Y-2.7424
X6.4591Y-3.0573
X6.4591Y-3.5298
X6.4591Y-4.1597
X6.4591Y-4.3172
X6.4591Y-5.1046
X6.4591Y-5.4195
X6.4591Y-5.7345
X6.485Y-1.5469
X6.4933Y-3.3728
X6.5319Y-4.7441
X6.5323Y-1.7445
X6.5366Y-4.9327
X6.5882Y-5.6232
X6.6165Y-1.1676
X6.6165Y-1.7975
X6.6165Y-2.4274
X6.6165Y-2.7424
X6.6165Y-4.3172
X6.6165Y-4.4746
X6.6165Y-5.1046
X6.6165Y-5.4195
X6.6165Y-5.7345
X6.622Y-1.6268
X6.624Y-4.8146
X6.6677Y-5.4949
X6.6807Y-4.1232
X6.7005Y-3.6012
X6.7005Y-3.6259
X6.7005Y-3.6506
X6.7005Y-3.6753
X6.7005Y-3.7
X6.7005Y-3.7246
X6.7005Y-3.7493
X6.7157Y-3.2437
X6.7315Y-3.4331
X6.7315Y-3.4331
X6.748Y-3.8346
X6.7591Y-3.9949
X6.774Y-1.1676
X6.774Y-1.7975
X6.774Y-3.0573
X6.774Y-5.1046
X6.774Y-5.7345
X6.811Y-5.2752
X6.8146Y-3.3142
X6.8654Y-2.6232
X6.8988Y-5.5642
X6.9008Y-3.7752
X6.9276Y-3.9469
X6.9315Y-1.1676
X6.9315Y-1.4825
X6.9315Y-2.4274
X6.9315Y-2.7424
X6.9315Y-4.3172
X6.9315Y-4.4746
X6.9315Y-4.6321
X6.9315Y-5.1046
X6.9315Y-5.7345
X6.9425Y-2.4949
X6.9562Y-3.7732
X6.9846Y-3.5453
X6.9846Y-3.5776
X6.985Y-3.513
X6.9961Y-4.0642
X7.0138Y-3.7752
X7.061Y-4.8732
X7.0618Y-1.6858
X7.089Y-1.1676
X7.089Y-1.4825
X7.089Y-2.7424
X7.089Y-2.8998
X7.089Y-3.5298
X7.089Y-4.3172
X7.089Y-4.4746
X7.089Y-4.6321
X7.089Y-5.1046
X7.089Y-5.4195
X7.089Y-5.7345
X7.0913Y-2.2752
X7.103Y-2.118
X7.1031Y-2.0433
X7.1369Y-2.118
X7.137Y-2.0433
X7.1703Y-2.1183
X7.1705Y-2.0437
X7.1795Y-2.5642
X7.2038Y-2.1183
X7.2039Y-2.0437
X7.2323Y-1.5469
X7.2437Y-3.3732
X7.2465Y-1.1676
X7.2465Y-3.0573
X7.2465Y-3.8447
X7.2465Y-4.4746
X7.2465Y-5.1046
X7.2465Y-5.4195
X7.2465Y-5.7345
X7.2807Y-1.7445
X7.2815Y-4.7441
X7.2906Y-4.9327
X7.3071Y-3.2047
X7.3728Y-1.6268
X7.3736Y-4.8142
X7.4039Y-1.1676
X7.4039Y-1.325
X7.4039Y-1.7975
X7.4039Y-2.7424
X7.4039Y-3.5298
X7.4039Y-4.4746
X7.4039Y-5.1046
X7.4039Y-5.4195
X7.4039Y-5.7345
X7.4307Y-4.1236
X7.4459Y-2.3307
X7.4459Y-2.378
X7.4459Y-2.4252
X7.4713Y-3.2437
X7.4713Y-3.4331
X7.5118Y-3.9949
X7.5614Y-1.1676
X7.5614Y-1.325
X7.5614Y-1.4825
X7.5614Y-1.7975
X7.5614Y-2.7424
X7.5614Y-2.8998
X7.5614Y-3.0573
X7.5614Y-4.4746
X7.5614Y-4.6321
X7.5614Y-5.4195
X7.5654Y-3.3142
X7.6142Y-3.2795
X7.622Y-2.622
X7.6516Y-3.7752
X7.6965Y-2.4949
X7.7189Y-1.1676
X7.7189Y-1.325
X7.7189Y-1.7975
X7.7189Y-2.7424
X7.7189Y-2.8998
X7.7189Y-3.8447
X7.7189Y-4.4746
X7.7189Y-5.1046
X7.7189Y-5.4195
X7.7189Y-5.7345
X7.7433Y-4.0642
X7.8106Y-4.8732
X7.8122Y-1.6854
X7.8417Y-2.2752
X7.8764Y-1.1676
X7.8764Y-1.4825
X7.8764Y-1.7975
X7.8764Y-2.4274
X7.8764Y-2.7424
X7.8764Y-3.0573
X7.8764Y-3.3723
X7.8764Y-3.5298
X7.8764Y-4.1597
X7.8764Y-4.6321
X7.8764Y-5.1046
X7.8764Y-5.4195
X7.8764Y-5.7345
X7.9183Y-3.8312
X7.9183Y-3.8809
X7.9183Y-3.9306
X7.9331Y-2.5642
X7.9839Y-1.5469
X7.9953Y-3.374
X8.0287Y-1.7445
X8.0311Y-4.7441
X8.0339Y-1.1676
X8.0339Y-1.325
X8.0339Y-2.8998
X8.0339Y-3.0573
X8.0339Y-3.5298
X8.0339Y-3.8447
X8.0339Y-4.1597
X8.0339Y-4.4746
X8.0339Y-5.1046
X8.0339Y-5.4195
X8.0339Y-5.7345
X8.0386Y-4.9327
X8.1197Y-4.8142
X8.1232Y-1.6268
X8.1839Y-4.1232
X8.1913Y-1.1676
X8.1913Y-1.325
X8.1913Y-1.7975
X8.1913Y-2.7424
X8.1913Y-2.8998
X8.1913Y-3.5298
X8.1913Y-4.4746
X8.1913Y-5.1046
X8.1913Y-5.4195
X8.1913Y-5.7345
X8.2193Y-3.2437
X8.224Y-3.4331
X8.2571Y-3.9949
X8.2815Y-4.497
X8.2815Y-4.5443
X8.2815Y-4.5915
X8.2884Y-5.0404
X8.2884Y-5.0876
X8.2884Y-5.1348
X8.3118Y-3.3138
X8.3488Y-1.1676
X8.3488Y-1.325
X8.3488Y-1.4825
X8.3488Y-2.7424
X8.3488Y-2.8998
X8.3488Y-3.0573
X8.3488Y-3.5298
X8.3488Y-5.4195
X8.3488Y-5.7345
X8.3697Y-2.6228
X8.3711Y-5.0404
X8.3711Y-5.0876
X8.3711Y-5.1348
X8.4035Y-3.7752
X8.4224Y-3.6249
X8.4478Y-4.498
X8.4478Y-4.5453
X8.4478Y-4.5925
X8.45Y-2.4949
X8.4941Y-4.0642
X8.5063Y-1.1676
X8.5063Y-1.325
X8.5063Y-1.4825
X8.5063Y-2.7424
X8.5063Y-4.1597
X8.5063Y-4.4746
X8.5063Y-5.1046
X8.5063Y-5.4195
X8.5063Y-5.7345
X8.5575Y-4.8728
X8.5937Y-2.2752
X8.6638Y-1.1676
X8.6638Y-1.325
X8.6638Y-1.7975
X8.6638Y-2.8998
X8.6638Y-3.0573
X8.6638Y-3.3723
X8.6638Y-3.5298
X8.6638Y-3.8447
X8.6638Y-4.1597
X8.6638Y-4.3172
X8.6638Y-5.1046
X8.6638Y-5.4195
X8.6638Y-5.7345
X8.6839Y-2.565
X8.7394Y-2.213
X8.7402Y-2.1811
X8.7417Y-3.3736
X8.7484Y-1.6854
X8.7823Y-4.7441
X8.787Y-4.9327
X8.8213Y-1.1676
X8.8213Y-1.325
X8.8213Y-1.7975
X8.8213Y-2.7424
X8.8213Y-2.8998
X8.8213Y-3.0573
X8.8213Y-3.5298
X8.8213Y-3.8447
X8.8213Y-4.1597
X8.8213Y-4.3172
X8.8213Y-4.4746
X8.8213Y-4.6321
X8.8213Y-5.4195
X8.8213Y-5.7345
X8.8228Y-2.6614
X8.8705Y-4.8142
X8.9197Y-1.5469
X8.939Y-4.1232
X8.9661Y-1.7445
X8.9693Y-3.2437
X8.9787Y-1.1676
X8.9787Y-1.325
X8.9787Y-2.4274
X8.9787Y-2.7424
X8.9787Y-2.8998
X8.9787Y-3.0573
X8.9787Y-3.5298
X8.9787Y-3.8447
X8.9787Y-4.3172
X8.9787Y-4.4746
X8.9787Y-5.4195
X8.9787Y-5.7345
X8.9799Y-3.4331
X9.0102Y-3.9949
X9.0551Y-3.3142
X9.0555Y-1.6268
X9.1193Y-2.6224
X9.1362Y-1.1676
X9.1362Y-1.325
X9.1362Y-1.7975
X9.1362Y-2.7424
X9.1362Y-3.0573
X9.1362Y-3.5298
X9.1362Y-4.3172
X9.1362Y-4.4746
X9.1362Y-4.6321
X9.1362Y-5.1046
X9.1362Y-5.4195
X9.1362Y-5.7345
X9.15Y-3.7752
X9.1972Y-2.4949
X9.2429Y-4.0642
X9.2937Y-1.1676
X9.2937Y-1.325
X9.2937Y-1.4825
X9.2937Y-1.7975
X9.2937Y-2.7424
X9.2937Y-3.0573
X9.2937Y-3.3723
X9.2937Y-3.5298
X9.2937Y-4.1597
X9.2937Y-4.3172
X9.2937Y-4.4746
X9.2937Y-5.1046
X9.2937Y-5.7345
X9.3098Y-4.8732
X9.3374Y-2.2752
X9.4031Y-5.6232
X9.4093Y-2.122
X9.4094Y-2.0432
X9.4315Y-2.5642
X9.4444Y-2.122
X9.4444Y-2.0432
X9.4512Y-1.1676
X9.4512Y-1.325
X9.4512Y-1.7975
X9.4512Y-3.5298
X9.4512Y-3.8447
X9.4512Y-4.1597
X9.4512Y-4.3172
X9.4512Y-5.4195
X9.4512Y-5.7345
X9.4774Y-2.1227
X9.4775Y-2.044
X9.4783Y-5.4949
X9.4929Y-3.3732
X9.4976Y-1.6854
X9.5089Y-2.1223
X9.509Y-2.0436
X9.5335Y-4.7441
X9.5394Y-4.9327
X9.5669Y-3.2047
X9.5669Y-3.4921
X9.6063Y-3.4921
X9.6087Y-1.1676
X9.6087Y-4.1597
X9.6087Y-4.3172
X9.6087Y-5.1046
X9.6087Y-5.7345
X9.6197Y-4.8142
X9.6228Y-5.2752
X9.6417Y-3.4921
X9.6752Y-1.5469
X9.6772Y-3.4921
X9.6821Y-3.6006
X9.6821Y-3.6252
X9.6821Y-3.6499
X9.6821Y-3.6746
X9.6821Y-3.6993
X9.6821Y-3.724
X9.6821Y-3.7487
X9.6862Y-4.1232
X9.7035Y-2.7819
X9.7039Y-2.7051
X9.7083Y-5.5642
X9.7154Y-1.7445
X9.7173Y-3.2437
X9.7311Y-3.4331
X9.7598Y-3.9949
X9.7661Y-1.1676
X9.7661Y-1.4825
X9.7661Y-2.1124
X9.7661Y-3.0573
X9.7661Y-3.8447
X9.7661Y-4.3172
X9.7661Y-4.6321
X9.7661Y-5.1046
X9.7661Y-5.7345
X9.7874Y-2.7008
X9.8055Y-1.6268
X9.8067Y-3.3142
X9.8654Y-2.6228
X9.8661Y-2.7008
X9.9012Y-3.7752
X9.9177Y-2.8165
X9.9236Y-1.1676
X9.9236Y-1.4825
X9.9236Y-2.1124
X9.9236Y-4.3172
X9.9236Y-4.6321
X9.9236Y-5.1046
X9.9236Y-5.4195
X9.9236Y-5.7345
X9.9295Y-3.9476
X9.9303Y-3.7752
X9.9449Y-2.7008
X9.9535Y-2.4949
X9.9693Y-2.8173
X9.9705Y-3.5764
X9.9717Y-3.5114
X9.9717Y-3.5437
X9.9945Y-4.0642
X9.9996Y-3.7752
X10.0244Y-2.7921
X10.0276Y-2.7008
X10.0512Y-2.8177
X10.0567Y-4.8732
X10.0739Y-3.1507
X10.0748Y-3.063
X10.0811Y-1.1676
X10.0811Y-1.7975
X10.0811Y-2.1124
X10.0811Y-3.5298
X10.0811Y-4.1597
X10.0811Y-4.4746
X10.0811Y-4.6321
X10.0811Y-5.1046
X10.0811Y-5.4195
X10.0811Y-5.7345
X10.0898Y-2.2752
X10.0906Y-2.8976
X10.1054Y-3.1822
X10.1063Y-3.0945
X10.1102Y-2.7008
X10.1369Y-3.2097
X10.1378Y-3.122
X10.1854Y-2.5642
X10.2386Y-1.1676
X10.2386Y-1.7975
X10.2386Y-2.1124
X10.2386Y-3.0573
X10.2386Y-4.4746
X10.2386Y-5.1046
X10.2386Y-5.4195
X10.2386Y-5.7345
X10.2417Y-3.3728
X10.2472Y-1.6858
X10.2815Y-4.7441
X10.2898Y-4.9327
X10.3346Y-3.8346
X10.3346Y-3.9606
X10.3693Y-4.8146
X10.3961Y-1.1676
X10.3961Y-1.7975
X10.3961Y-2.1124
X10.3961Y-2.7424
X10.3961Y-3.5298
X10.3961Y-4.4746
X10.3961Y-5.1046
X10.3961Y-5.4195
X10.3961Y-5.7345
X10.4094Y-3.8346
X10.4094Y-3.9606
X10.4252Y-1.5469
X10.4354Y-4.1232
X10.4669Y-1.7445
X10.4701Y-3.2437
X10.474Y-3.4331
X10.4803Y-3.8386
X10.4803Y-3.8937
X10.4843Y-3.9567
X10.5102Y-3.9949
X10.5535Y-1.1676
X10.5535Y-1.325
X10.5535Y-1.7975
X10.5535Y-2.1124
X10.5535Y-2.7424
X10.5535Y-3.0573
X10.5535Y-3.5298
X10.5535Y-4.4746
X10.5535Y-4.6321
X10.5535Y-5.1046
X10.5535Y-5.4195
X10.5535Y-5.7345
X10.5594Y-1.6268
X10.5622Y-3.3142
X10.6193Y-2.6228
X10.6551Y-3.7752
X10.7016Y-2.4949
X10.711Y-1.1676
X10.711Y-1.325
X10.711Y-1.4825
X10.711Y-1.7975
X10.711Y-2.1124
X10.711Y-2.7424
X10.711Y-3.0573
X10.711Y-3.3723
X10.711Y-3.5298
X10.711Y-3.8447
X10.711Y-4.4746
X10.711Y-5.1046
X10.711Y-5.4195
X10.711Y-5.7345
X10.7402Y-4.0642
X10.8079Y-4.8736
X10.8394Y-2.2752
X10.8685Y-1.1676
X10.8685Y-1.325
X10.8685Y-1.4825
X10.8685Y-1.7975
X10.8685Y-2.1124
X10.8685Y-2.4274
X10.8685Y-3.0573
X10.8685Y-3.3723
X10.8685Y-3.5298
X10.8685Y-3.8447
X10.8685Y-4.1597
X10.8685Y-4.6321
X10.8685Y-5.1046
X10.8685Y-5.4195
X10.8685Y-5.7345
X10.8858Y-2.6732
X10.9303Y-2.5634
X10.9949Y-3.3732
X10.9969Y-1.6854
X11.026Y-1.1676
X11.026Y-1.4825
X11.026Y-1.7975
X11.026Y-2.1124
X11.026Y-2.7424
X11.026Y-3.0573
X11.026Y-3.5298
X11.026Y-3.8447
X11.026Y-4.1597
X11.026Y-4.4746
X11.026Y-5.1046
X11.026Y-5.4195
X11.026Y-5.7345
X11.0335Y-4.7441
X11.0382Y-4.9327
X11.1177Y-4.8142
X11.174Y-1.5469
X11.1835Y-1.1676
X11.1835Y-2.1124
X11.1835Y-2.4274
X11.1835Y-2.7424
X11.1835Y-3.5298
X11.1835Y-4.4746
X11.1835Y-5.1046
X11.1835Y-5.4195
X11.1835Y-5.7345
X11.1843Y-4.1236
X11.2161Y-1.7445
X11.2197Y-3.2437
X11.2264Y-3.4331
X11.2583Y-3.9949
X11.3055Y-1.6268
X11.3102Y-3.3138
X11.3409Y-1.1676
X11.3409Y-1.325
X11.3409Y-1.7975
X11.3409Y-2.1124
X11.3409Y-2.7424
X11.3409Y-3.0573
X11.3409Y-3.5298
X11.3409Y-4.4746
X11.3409Y-4.6321
X11.3409Y-5.1046
X11.3409Y-5.4195
X11.3409Y-5.7345
X11.3665Y-2.6228
X11.4051Y-3.7752
X11.4492Y-2.4949
X11.4925Y-4.0642
X11.4984Y-1.1676
X11.4984Y-1.325
X11.4984Y-1.4825
X11.4984Y-1.7975
X11.4984Y-2.1124
X11.4984Y-2.7424
X11.4984Y-3.0573
X11.4984Y-3.3723
X11.4984Y-3.5298
X11.4984Y-4.4746
X11.4984Y-5.4195
X11.5634Y-4.8732
X11.5878Y-2.2752
X11.6559Y-1.1676
X11.6559Y-1.325
X11.6559Y-1.4825
X11.6559Y-1.7975
X11.6559Y-2.1124
X11.6559Y-2.4274
X11.6559Y-2.7424
X11.6559Y-3.0573
X11.6559Y-3.3723
X11.6559Y-3.5298
X11.6559Y-3.8447
X11.6559Y-4.1597
X11.6559Y-5.1046
X11.6559Y-5.4195
X11.6559Y-5.7345
X11.6811Y-2.5638
X11.7439Y-2.1141
X11.7441Y-2.0354
X11.7461Y-3.3728
X11.7754Y-2.1141
X11.7756Y-2.0354
X11.7787Y-4.7441
X11.7969Y-4.9327
X11.8069Y-2.1141
X11.8071Y-2.0354
X11.8134Y-1.1676
X11.8134Y-2.8998
X11.8134Y-3.0573
X11.8134Y-3.5298
X11.8134Y-3.8447
X11.8134Y-4.1597
X11.8134Y-4.4746
X11.8134Y-4.6321
X11.8134Y-5.1046
X11.8134Y-5.4195
X11.8134Y-5.7345
X11.8384Y-2.1141
X11.8386Y-2.0354
X11.8699Y-2.1141
X11.8701Y-2.0354
X11.8736Y-4.8142
X11.9339Y-1.6858
X11.9339Y-4.1232
X11.9677Y-3.2437
X11.9709Y-1.1676
X11.9709Y-1.4825
X11.9709Y-1.7975
X11.9709Y-2.1124
X11.9709Y-2.4274
X11.9709Y-2.8998
X11.9709Y-3.0573
X11.9709Y-3.5298
X11.9709Y-3.8447
X11.9709Y-5.1046
X11.9709Y-5.4195
X11.9709Y-5.7345
X11.9736Y-3.4331
X12.0118Y-3.9949
X12.0614Y-3.3142
X12.111Y-1.5469
X12.1217Y-2.624
X12.1228Y-5.6232
X12.1283Y-1.1676
X12.1283Y-2.1124
X12.1283Y-3.0573
X12.1283Y-3.5298
X12.1283Y-4.4746
X12.1283Y-4.6321
X12.1283Y-5.7345
X12.1539Y-1.7445
X12.1563Y-3.7752
X12.1976Y-5.4949
X12.2012Y-2.4949
X12.2398Y-4.0642
X12.2433Y-1.6268
X12.2858Y-1.1676
X12.2858Y-1.7975
X12.2858Y-2.1124
X12.2858Y-2.7424
X12.2858Y-4.1597
X12.2858Y-4.4746
X12.2858Y-5.1046
X12.2858Y-5.7345
X12.3071Y-4.8732
X12.3394Y-2.2752
X12.3453Y-5.2752
X12.4272Y-5.5642
X12.4287Y-2.5638
X12.4331Y-3.3819
X12.4433Y-1.1676
X12.4433Y-1.4825
X12.4433Y-1.7975
X12.4433Y-2.1124
X12.4433Y-2.7424
X12.4433Y-2.8998
X12.4433Y-3.0573
X12.4433Y-3.8447
X12.4433Y-4.1597
X12.4433Y-4.3172
X12.4433Y-5.1046
X12.4433Y-5.7345
X12.4953Y-3.3732
X12.5327Y-4.7441
X12.5417Y-4.9327
X12.6008Y-1.1676
X12.6008Y-1.7975
X12.6008Y-2.8998
X12.6008Y-4.1597
X12.6008Y-4.3172
X12.6008Y-4.4746
X12.6008Y-5.1046
X12.6008Y-5.4195
X12.6008Y-5.7345
X12.6102Y-2.3146
X12.6102Y-2.3461
X12.6102Y-2.3776
X12.6102Y-2.4091
X12.6209Y-4.8142
X12.6839Y-4.1232
X12.685Y-1.6858
X12.685Y-2.315
X12.685Y-2.3465
X12.685Y-2.378
X12.685Y-2.4094
X12.6965Y-3.6004
X12.6965Y-3.6497
X12.6965Y-3.6744
X12.6965Y-3.6991
X12.6965Y-3.7238
X12.6965Y-3.7485
X12.7205Y-3.2437
X12.7291Y-3.4331
X12.7583Y-1.1676
X12.7583Y-1.4825
X12.7583Y-1.7975
X12.7583Y-2.1124
X12.7583Y-3.0573
X12.7583Y-3.8447
X12.7583Y-4.3172
X12.7583Y-4.4746
X12.7583Y-4.6321
X12.7583Y-5.1046
X12.7583Y-5.4195
X12.7583Y-5.7345
X12.763Y-3.9949
X12.7844Y-4.189
X12.8091Y-3.3142
X12.8209Y-4.189
X12.8573Y-4.189
X12.8598Y-1.5469
X12.8713Y-2.6228
X12.8732Y-5.6232
X12.8937Y-4.189
X12.9051Y-3.7752
X12.9063Y-1.7445
X12.9157Y-1.1676
X12.9157Y-1.325
X12.9157Y-2.1124
X12.9157Y-2.4274
X12.9157Y-2.7424
X12.9157Y-4.3172
X12.9157Y-4.4746
X12.9157Y-4.6321
X12.9157Y-5.1046
X12.9157Y-5.4195
X12.9157Y-5.7345
X12.9311Y-3.9484
X12.9433Y-3.7752
X12.95Y-2.4949
X12.9512Y-5.4949
X12.9874Y-3.5343
X12.9882Y-3.5661
X12.9882Y-3.5988
X12.9929Y-1.6268
X12.9957Y-4.0642
X12.9961Y-3.9409
X13.0078Y-3.1023
X13.0138Y-3.7752
X13.0314Y-3.1259
X13.055Y-3.1495
X13.0559Y-4.8732
X13.0732Y-1.1676
X13.0732Y-1.325
X13.0732Y-1.7975
X13.0732Y-2.1124
X13.0732Y-2.7424
X13.0732Y-2.8998
X13.0732Y-3.5298
X13.0732Y-4.1597
X13.0732Y-4.4746
X13.0732Y-5.1046
X13.0732Y-5.7345
X13.0748Y-3.0354
X13.0787Y-3.1731
X13.0898Y-2.2752
X13.0949Y-5.2752
X13.0984Y-3.0591
X13.122Y-3.0827
X13.1339Y-2.3346
X13.1378Y-3.8386
X13.1378Y-3.8898
X13.1378Y-3.9409
X13.1457Y-3.1063
X13.1744Y-5.5642
X13.1787Y-2.565
X13.2307Y-1.1676
X13.2307Y-1.325
X13.2307Y-1.4825
X13.2307Y-1.7975
X13.2307Y-2.1124
X13.2307Y-2.7424
X13.2307Y-2.8998
X13.2307Y-4.3172
X13.2307Y-4.4746
X13.2307Y-5.1046
X13.2307Y-5.7345
X13.2425Y-3.3736
X13.2756Y-3.1181
X13.2756Y-3.1654
X13.2756Y-3.2047
X13.2846Y-4.7441
X13.2866Y-4.9327
X13.3465Y-3.8268
X13.3713Y-4.8142
X13.3882Y-1.1676
X13.3882Y-1.325
X13.3882Y-1.7975
X13.3882Y-2.1124
X13.3882Y-2.4274
X13.3882Y-2.7424
X13.3882Y-2.8998
X13.3882Y-3.5298
X13.3882Y-4.4746
X13.3882Y-5.1046
X13.3882Y-5.4195
X13.3882Y-5.7345
X13.4055Y-3.8268
X13.4335Y-1.685
X13.4335Y-4.1244
X13.4646Y-3.8268
X13.4646Y-3.8976
X13.4646Y-3.9606
X13.4709Y-3.2437
X13.4744Y-3.4331
X13.5142Y-3.9949
X13.5457Y-1.1676
X13.5457Y-1.7975
X13.5457Y-2.1124
X13.5457Y-2.7424
X13.5457Y-2.8998
X13.5457Y-3.5298
X13.5457Y-4.4746
X13.5457Y-4.6321
X13.5457Y-5.1046
X13.5457Y-5.7345
X13.5598Y-3.3138
X13.6114Y-1.5469
X13.6138Y-2.6232
X13.622Y-5.6232
X13.6575Y-3.7752
X13.6598Y-1.7445
X13.6992Y-5.4949
X13.7016Y-2.4949
X13.7032Y-1.1676
X13.7032Y-1.325
X13.7032Y-1.4825
X13.7032Y-2.1124
X13.7032Y-2.7424
X13.7032Y-2.8998
X13.7032Y-3.3723
X13.7032Y-3.5298
X13.7032Y-3.8447
X13.7032Y-4.4746
X13.7032Y-4.6321
X13.7032Y-5.1046
X13.7032Y-5.7345
X13.7453Y-4.0642
X13.7476Y-1.6268
X13.8402Y-2.2752
X13.8461Y-5.2752
X13.8606Y-1.1676
X13.8606Y-1.325
X13.8606Y-1.4825
X13.8606Y-1.7975
X13.8606Y-2.1124
X13.8606Y-2.4274
X13.8606Y-2.7424
X13.8606Y-2.8998
X13.8606Y-3.3723
X13.8606Y-3.5298
X13.8606Y-3.8447
X13.8606Y-4.1597
X13.8606Y-5.1046
X13.8606Y-5.4195
X13.8606Y-5.7345
X13.9272Y-5.5642
X13.9319Y-2.5642
X13.9945Y-3.3736
X14.0181Y-1.1676
X14.0181Y-1.325
X14.0181Y-1.4825
X14.0181Y-1.7975
X14.0181Y-2.1124
X14.0181Y-2.7424
X14.0181Y-2.8998
X14.0181Y-3.5298
X14.0181Y-3.8447
X14.0181Y-4.1597
X14.0181Y-4.3172
X14.0181Y-4.4746
X14.0181Y-5.1046
X14.0181Y-5.7345
X14.089Y-4.8732
X14.1756Y-1.1676
X14.1756Y-1.325
X14.1756Y-1.7975
X14.1756Y-2.1124
X14.1756Y-2.4274
X14.1756Y-2.7424
X14.1756Y-2.8998
X14.1756Y-3.5298
X14.1756Y-3.8447
X14.1756Y-4.1597
X14.1756Y-4.3172
X14.1756Y-5.1046
X14.1756Y-5.4195
X14.1756Y-5.7345
X14.1846Y-1.6854
X14.2205Y-3.2437
X14.2248Y-3.4331
X14.3122Y-3.3142
X14.3138Y-4.7441
X14.3201Y-4.9327
X14.3331Y-1.1676
X14.3331Y-1.7975
X14.3331Y-2.1124
X14.3331Y-2.4274
X14.3331Y-2.8998
X14.3331Y-3.0573
X14.3331Y-3.8447
X14.3331Y-4.4746
X14.3331Y-4.6321
X14.3331Y-5.7345
X14.3622Y-1.5469
X14.3728Y-5.6232
X14.4016Y-4.8142
X14.4039Y-1.7445
X14.4535Y-5.4949
X14.4906Y-1.1676
X14.4906Y-1.325
X14.4906Y-1.7975
X14.4906Y-2.4274
X14.4906Y-2.8998
X14.4906Y-3.0573
X14.4906Y-3.3723
X14.4906Y-3.5298
X14.4906Y-3.8447
X14.4906Y-4.1597
X14.4906Y-4.3172
X14.4906Y-4.4746
X14.4906Y-5.1046
X14.4906Y-5.7345
X14.4965Y-1.6268
X14.5957Y-5.2752
X14.648Y-1.1676
X14.648Y-1.325
X14.648Y-1.4825
X14.648Y-1.7975
X14.648Y-2.1124
X14.648Y-2.7424
X14.648Y-2.8998
X14.648Y-3.0573
X14.648Y-3.3723
X14.648Y-3.5298
X14.648Y-4.3172
X14.648Y-5.1046
X14.648Y-5.4195
X14.648Y-5.7345
X14.6528Y-4.1232
X14.6768Y-5.5642
X14.7315Y-3.9949
X14.7409Y-2.6228
X14.8055Y-1.1676
X14.8055Y-1.325
X14.8055Y-1.4825
X14.8055Y-2.1124
X14.8055Y-2.4274
X14.8055Y-2.7424
X14.8055Y-2.8998
X14.8055Y-3.0573
X14.8055Y-3.3723
X14.8055Y-3.5298
X14.8055Y-4.3172
X14.8055Y-5.1046
X14.8055Y-5.4195
X14.8055Y-5.7345
X14.8209Y-2.4949
X14.8744Y-3.7752
X14.9307Y-3.3732
X14.9622Y-2.2752
X14.963Y-1.1676
X14.963Y-1.325
X14.963Y-1.4825
X14.963Y-2.1124
X14.963Y-2.7424
X14.963Y-2.8998
X14.963Y-3.0573
X14.963Y-3.5298
X14.963Y-4.3172
X14.963Y-4.4746
X14.963Y-4.6321
X14.963Y-5.1046
X14.963Y-5.4195
X14.963Y-5.7345
X14.965Y-4.0642
X15.0197Y-2.3622
X15.0472Y-2.1732
X15.0472Y-2.2752
X15.0579Y-2.5646
X15.1177Y-5.6232
X15.1201Y-1.6858
X15.1205Y-1.1676
X15.1205Y-1.7975
X15.1205Y-2.1124
X15.1205Y-2.7424
X15.1205Y-2.8998
X15.1205Y-3.5298
X15.1205Y-3.8447
X15.1205Y-4.1597
X15.1205Y-4.3172
X15.1205Y-4.4746
X15.1205Y-5.7345
X15.1209Y-4.8732
X15.1524Y-3.2437
X15.1646Y-3.4331
X15.2051Y-5.4949
X15.248Y-3.3138
X15.278Y-1.1676
X15.278Y-1.7975
X15.278Y-2.1124
X15.278Y-2.4274
X15.278Y-2.8998
X15.278Y-3.0573
X15.278Y-3.8447
X15.278Y-4.4746
X15.278Y-5.1046
X15.278Y-5.7345
X15.2992Y-1.5469
X15.3421Y-5.2752
X15.3449Y-4.7441
X15.3476Y-1.7445
X15.3539Y-4.9327
X15.4295Y-5.5642
X15.4354Y-1.1676
X15.4354Y-1.325
X15.4354Y-1.7975
X15.4354Y-2.4274
X15.4354Y-2.8998
X15.4354Y-3.0573
X15.4354Y-3.3723
X15.4354Y-3.5298
X15.4354Y-3.8447
X15.4354Y-4.1597
X15.4354Y-4.3172
X15.4354Y-4.4746
X15.4354Y-5.1046
X15.4354Y-5.7345
X15.5929Y-1.1676
X15.5929Y-1.325
X15.5929Y-1.4825
X15.5929Y-1.7975
X15.5929Y-2.1124
X15.5929Y-2.4274
X15.5929Y-2.7424
X15.5929Y-2.8998
X15.5929Y-3.0573
X15.5929Y-3.3723
X15.5929Y-3.5298
X15.5929Y-3.8447
X15.5929Y-4.1597
X15.5929Y-4.3172
X15.5929Y-4.4746
X15.5929Y-4.6321
X15.5929Y-5.1046
X15.5929Y-5.4195
X15.5929Y-5.7345
X15.7504Y-1.1676
X15.7504Y-1.325
X15.7504Y-1.4825
X15.7504Y-2.1124
X15.7504Y-2.4274
X15.7504Y-2.7424
X15.7504Y-2.8998
X15.7504Y-3.0573
X15.7504Y-3.3723
X15.7504Y-3.5298
X15.7504Y-3.8447
X15.7504Y-4.1597
X15.7504Y-4.3172
X15.7504Y-4.4746
X15.7504Y-4.6321
X15.7504Y-5.1046
X15.7504Y-5.4195
X15.7504Y-5.7345
X15.8693Y-5.6232
X15.9079Y-1.1676
X15.9079Y-1.325
X15.9079Y-1.7975
X15.9079Y-2.1124
X15.9079Y-2.4274
X15.9079Y-2.7424
X15.9079Y-2.8998
X15.9079Y-3.0573
X15.9079Y-3.3723
X15.9079Y-3.5298
X15.9079Y-3.8447
X15.9079Y-4.1597
X15.9079Y-4.3172
X15.9079Y-4.4746
X15.9079Y-4.6321
X15.9079Y-5.4195
X15.9079Y-5.7345
X15.9591Y-5.4949
X16.0528Y-2.6228
X16.0567Y-3.3736
X16.0598Y-4.1232
X16.0654Y-1.325
X16.0654Y-1.64
X16.0654Y-2.1124
X16.0654Y-2.7424
X16.0654Y-2.8998
X16.0654Y-3.0573
X16.0654Y-3.5298
X16.0654Y-4.3172
X16.0654Y-4.4746
X16.0654Y-4.6321
X16.0654Y-5.1046
X16.0654Y-5.7345
X16.0937Y-5.2752
X16.1315Y-2.4949
X16.1315Y-3.9949
X16.2146Y-1.0579
X16.2228Y-1.325
X16.2228Y-1.4825
X16.2228Y-1.64
X16.2228Y-2.1124
X16.2228Y-2.7424
X16.2228Y-2.8998
X16.2228Y-3.5298
X16.2228Y-3.6872
X16.2228Y-4.3172
X16.2228Y-4.4746
X16.2228Y-4.6321
X16.2228Y-5.1046
X16.2228Y-5.262
X16.2228Y-5.7345
X16.2248Y-1.9508
X16.2508Y-1.9748
X16.2791Y-2.2752
X16.2815Y-2.0047
X16.2831Y-3.2437
X16.2854Y-3.7752
X16.2866Y-3.4331
X16.3803Y-1.325
X16.3803Y-1.64
X16.3803Y-1.7975
X16.3803Y-1.955
X16.3803Y-2.1124
X16.3803Y-2.2699
X16.3803Y-2.5849
X16.3803Y-2.7424
X16.3803Y-2.8998
X16.3803Y-3.0573
X16.3803Y-3.2148
X16.3803Y-3.5298
X16.3803Y-3.6872
X16.3803Y-4.1597
X16.3803Y-4.3172
X16.3803Y-4.4746
X16.3803Y-4.6321
X16.3803Y-5.1046
X16.3803Y-5.262
X16.3803Y-5.4195
X16.3803Y-5.7345
X16.4531Y-3.4823
X16.5213Y-3.3114
X16.5378Y-1.1676
X16.5378Y-1.325
X16.5378Y-1.4825
X16.5378Y-1.64
X16.5378Y-1.7975
X16.5378Y-2.1124
X16.5378Y-2.2699
X16.5378Y-2.5849
X16.5378Y-2.7424
X16.5378Y-2.8998
X16.5378Y-3.0573
X16.5378Y-3.2148
X16.5378Y-4.1597
X16.5378Y-4.3172
X16.5378Y-4.4746
X16.5378Y-4.6321
X16.5378Y-4.7896
X16.5378Y-5.577
X16.5378Y-5.7345
T2
X1.402Y-2.3031
X1.402Y-3.0531
X1.402Y-3.8031
X1.402Y-4.5531
X1.402Y-5.3031
X2.152Y-2.3031
X2.152Y-3.0531
X2.152Y-3.8031
X2.152Y-4.5531
X2.527Y-5.3031
X2.902Y-2.3031
X2.902Y-3.0531
X2.902Y-3.8031
X2.902Y-4.5531
X3.652Y-2.3031
X3.652Y-3.4281
X3.652Y-4.9281
X4.777Y-1.3656
X4.777Y-2.3031
X4.8707Y-5.3031
X4.9645Y-3.0531
X5.0582Y-3.8031
X5.2457Y-4.5531
X5.527Y-2.3031
X5.7145Y-1.3656
X5.8082Y-5.3031
X5.902Y-3.0531
X6.0895Y-3.8031
X6.277Y-2.3031
X6.4645Y-1.3656
X6.4645Y-4.5531
X6.652Y-3.0531
X6.7457Y-5.3031
X6.8395Y-3.8031
X7.027Y-2.3031
X7.2145Y-1.3656
X7.2145Y-4.5531
X7.402Y-3.0531
X7.5895Y-3.8031
X7.777Y-2.3031
X7.9645Y-1.3656
X7.9645Y-4.5531
X8.152Y-3.0531
X8.3395Y-3.8031
X8.527Y-2.3031
X8.7145Y-4.5531
X8.902Y-1.3656
X8.902Y-3.0531
X9.0895Y-3.8031
X9.277Y-2.3031
X9.4645Y-4.5531
X9.5582Y-5.3031
X9.652Y-1.3656
X9.652Y-3.0531
X9.8395Y-3.8031
X10.0268Y-2.3031
X10.2145Y-4.5531
X10.402Y-1.3656
X10.402Y-3.0531
X10.5895Y-3.8031
X10.777Y-2.3031
X10.9645Y-4.5531
X11.152Y-1.3656
X11.152Y-3.0531
X11.3395Y-3.8031
X11.527Y-2.3031
X11.7145Y-4.5531
X11.902Y-3.0531
X12.0895Y-1.3656
X12.0895Y-3.8031
X12.277Y-2.3031
X12.277Y-5.3031
X12.4645Y-4.5531
X12.652Y-3.0531
X12.8395Y-1.3656
X12.8395Y-3.8031
X13.027Y-2.3031
X13.027Y-5.3031
X13.2145Y-4.5531
X13.402Y-3.0531
X13.5895Y-1.3656
X13.5895Y-3.8031
X13.777Y-2.3031
X13.777Y-5.3031
X14.152Y-3.0531
X14.2457Y-4.5531
X14.3395Y-1.3656
X14.527Y-5.3031
X14.8082Y-3.8031
X14.902Y-2.3031
X15.0895Y-3.0531
X15.277Y-1.3656
X15.277Y-4.5531
X15.277Y-5.3031
X16.027Y-5.3031
X16.2145Y-2.3031
X16.2145Y-3.0531
X16.2145Y-3.8031
T3
X2.4325Y-2.7707
X2.4325Y-4.2687
X2.4528Y-1.1526
X2.4602Y-2.7039
X2.4602Y-2.8375
X2.4602Y-4.2019
X2.4602Y-4.3355
X2.4921Y-1.1526
X2.527Y-2.6762
X2.527Y-2.8652
X2.527Y-4.1742
X2.527Y-4.3632
X2.5315Y-1.1526
X2.5709Y-1.1526
X2.5938Y-2.7039
X2.5938Y-2.8375
X2.5938Y-4.2019
X2.5938Y-4.3355
X2.6102Y-1.1526
X2.6215Y-2.7707
X2.6215Y-4.2687
X8.3418Y-1.8297
X8.3695Y-1.7629
X8.3695Y-1.8966
X8.4363Y-1.7353
X8.4363Y-1.9242
X8.5031Y-1.7629
X8.5031Y-1.8966
X8.5308Y-1.8297
X8.8134Y-5.1181
X8.8411Y-5.0513
X8.8411Y-5.1849
X8.9079Y-5.0236
X8.9079Y-5.2126
X8.9747Y-5.0513
X8.9747Y-5.1849
X9.0024Y-5.1181
X14.6673Y-4.5678
X14.695Y-4.501
X14.695Y-4.6346
X14.7124Y-1.8298
X14.7401Y-1.763
X14.7401Y-1.8966
X14.7618Y-4.4733
X14.7618Y-4.6623
X14.8069Y-1.7353
X14.8069Y-1.9243
X14.8286Y-4.501
X14.8286Y-4.6346
X14.8563Y-4.5678
X14.8737Y-1.763
X14.8737Y-1.8966
X14.9014Y-1.8298
T5
X1.748Y-1.4575
X1.748Y-1.5575
X1.748Y-1.6575
X1.748Y-1.7575
X16.1161Y-1.1609
X16.1161Y-1.7318
X16.2145Y-1.1609
X16.3129Y-1.1609
X16.3129Y-1.7318
T6
X15.994Y-1.4562
X16.4349Y-1.4562
T7
X2.527Y-2.7707
X2.527Y-4.2687
X8.4363Y-1.8297
X8.9079Y-5.1181
X14.7618Y-4.5678
X14.8069Y-1.8298
T4
G00X3.8973Y-1.0538
M15
G01X3.8973Y-1.0775
M16
G05
G00X3.8973Y-1.2086
M15
G01X3.8973Y-1.2519
M16
G05
G00X4.2375Y-1.0538
M15
G01X4.2375Y-1.0775
M16
G05
G00X4.2375Y-1.2086
M15
G01X4.2375Y-1.2519
M16
G05
M30
