M48
; DRILL file {KiCad 9.0.5} date 2026-01-11T09:40:32+0700
; FORMAT={-:-/ absolute / inch / decimal}
; #@! TF.CreationDate,2026-01-11T09:40:32+07:00
; #@! TF.GenerationSoftware,Kicad,Pcbnew,9.0.5
; #@! TF.FileFunction,NonPlated,1,2,NPTH
FMAT,2
INCH
; #@! TA.AperFunction,NonPlated,NPTH,ComponentDrill
T1C0.0256
; #@! TA.AperFunction,NonPlated,NPTH,ComponentDrill
T2C0.0669
; #@! TA.AperFunction,NonPlated,NPTH,ComponentDrill
T3C0.1200
; #@! TA.AperFunction,NonPlated,NPTH,ComponentDrill
T4C0.1570
%
G90
G05
T1
X3.9536Y-1.2093
X4.1812Y-1.2093
T2
X1.202Y-2.3937
X1.202Y-3.1437
X1.202Y-3.8937
X1.202Y-4.6437
X1.202Y-5.3937
X1.602Y-2.3937
X1.602Y-3.1437
X1.602Y-3.8937
X1.602Y-4.6437
X1.602Y-5.3937
X1.952Y-2.3937
X1.952Y-3.1437
X1.952Y-3.8937
X1.952Y-4.6437
X2.327Y-5.3937
X2.352Y-2.3937
X2.352Y-3.1437
X2.352Y-3.8937
X2.352Y-4.6437
X2.702Y-2.3937
X2.702Y-3.1437
X2.702Y-3.8937
X2.702Y-4.6437
X2.727Y-5.3937
X3.102Y-2.3937
X3.102Y-3.1437
X3.102Y-3.8937
X3.102Y-4.6437
X3.452Y-2.3937
X3.452Y-3.5187
X3.452Y-5.0187
X3.852Y-2.3937
X3.852Y-3.5187
X3.852Y-5.0187
X4.577Y-1.4562
X4.577Y-2.3937
X4.6707Y-5.3937
X4.7645Y-3.1437
X4.8582Y-3.8937
X4.977Y-1.4562
X4.977Y-2.3937
X5.0457Y-4.6437
X5.0707Y-5.3937
X5.1645Y-3.1437
X5.2582Y-3.8937
X5.327Y-2.3937
X5.4457Y-4.6437
X5.5145Y-1.4562
X5.6082Y-5.3937
X5.702Y-3.1437
X5.727Y-2.3937
X5.8895Y-3.8937
X5.9145Y-1.4562
X6.0082Y-5.3937
X6.077Y-2.3937
X6.102Y-3.1437
X6.2645Y-1.4562
X6.2645Y-4.6437
X6.2895Y-3.8937
X6.452Y-3.1437
X6.477Y-2.3937
X6.5457Y-5.3937
X6.6395Y-3.8937
X6.6645Y-1.4562
X6.6645Y-4.6437
X6.827Y-2.3937
X6.852Y-3.1437
X6.9457Y-5.3937
X7.0145Y-1.4562
X7.0145Y-4.6437
X7.0395Y-3.8937
X7.202Y-3.1437
X7.227Y-2.3937
X7.3895Y-3.8937
X7.4145Y-1.4562
X7.4145Y-4.6437
X7.577Y-2.3937
X7.602Y-3.1437
X7.7645Y-1.4562
X7.7645Y-4.6437
X7.7895Y-3.8937
X7.952Y-3.1437
X7.977Y-2.3937
X8.1395Y-3.8937
X8.1645Y-1.4562
X8.1645Y-4.6437
X8.327Y-2.3937
X8.352Y-3.1437
X8.5145Y-4.6437
X8.5395Y-3.8937
X8.702Y-1.4562
X8.702Y-3.1437
X8.727Y-2.3937
X8.8895Y-3.8937
X8.9145Y-4.6437
X9.077Y-2.3937
X9.102Y-1.4562
X9.102Y-3.1437
X9.2645Y-4.6437
X9.2895Y-3.8937
X9.3582Y-5.3937
X9.452Y-1.4562
X9.452Y-3.1437
X9.477Y-2.3937
X9.6395Y-3.8937
X9.6645Y-4.6437
X9.7582Y-5.3937
X9.8268Y-2.3937
X9.852Y-1.4562
X9.852Y-3.1437
X10.0145Y-4.6437
X10.0395Y-3.8937
X10.202Y-1.4562
X10.202Y-3.1437
X10.2268Y-2.3937
X10.3895Y-3.8937
X10.4145Y-4.6437
X10.577Y-2.3937
X10.602Y-1.4562
X10.602Y-3.1437
X10.7645Y-4.6437
X10.7895Y-3.8937
X10.952Y-1.4562
X10.952Y-3.1437
X10.977Y-2.3937
X11.1395Y-3.8937
X11.1645Y-4.6437
X11.327Y-2.3937
X11.352Y-1.4562
X11.352Y-3.1437
X11.5145Y-4.6437
X11.5395Y-3.8937
X11.702Y-3.1437
X11.727Y-2.3937
X11.8895Y-1.4562
X11.8895Y-3.8937
X11.9145Y-4.6437
X12.077Y-2.3937
X12.077Y-5.3937
X12.102Y-3.1437
X12.2645Y-4.6437
X12.2895Y-1.4562
X12.2895Y-3.8937
X12.452Y-3.1437
X12.477Y-2.3937
X12.477Y-5.3937
X12.6395Y-1.4562
X12.6395Y-3.8937
X12.6645Y-4.6437
X12.827Y-2.3937
X12.827Y-5.3937
X12.852Y-3.1437
X13.0145Y-4.6437
X13.0395Y-1.4562
X13.0395Y-3.8937
X13.202Y-3.1437
X13.227Y-2.3937
X13.227Y-5.3937
X13.3895Y-1.4562
X13.3895Y-3.8937
X13.4145Y-4.6437
X13.577Y-2.3937
X13.577Y-5.3937
X13.602Y-3.1437
X13.7895Y-1.4562
X13.7895Y-3.8937
X13.952Y-3.1437
X13.977Y-2.3937
X13.977Y-5.3937
X14.0457Y-4.6437
X14.1395Y-1.4562
X14.327Y-5.3937
X14.352Y-3.1437
X14.4457Y-4.6437
X14.5395Y-1.4562
X14.6082Y-3.8937
X14.702Y-2.3937
X14.727Y-5.3937
X14.8895Y-3.1437
X15.0082Y-3.8937
X15.077Y-1.4562
X15.077Y-4.6437
X15.077Y-5.3937
X15.102Y-2.3937
X15.2895Y-3.1437
X15.477Y-1.4562
X15.477Y-4.6437
X15.477Y-5.3937
X15.827Y-5.3937
X16.0145Y-2.3937
X16.0145Y-3.1437
X16.0145Y-3.8937
X16.227Y-5.3937
X16.4145Y-2.3937
X16.4145Y-3.1437
X16.4145Y-3.8937
T3
X2.0582Y-5.6687
X2.9957Y-5.6687
X3.377Y-3.05
X3.377Y-3.9875
X3.377Y-4.55
X3.377Y-5.4875
X4.777Y-4.3687
X5.7145Y-4.3687
X7.5895Y-5.6687
X11.527Y-5.6687
X14.3395Y-3.6187
X14.4332Y-2.1187
X15.277Y-3.6187
X15.3707Y-2.1187
T4
X2.0582Y-5.0687
X2.9957Y-5.0687
X3.977Y-3.05
X3.977Y-3.9875
X3.977Y-4.55
X3.977Y-5.4875
X4.777Y-4.9687
X5.7145Y-4.9687
X7.5895Y-5.0687
X11.527Y-5.0687
X14.3395Y-4.2187
X14.4332Y-2.7187
X15.277Y-4.2187
X15.3707Y-2.7187
M30
