%TF.GenerationSoftware,KiCad,Pcbnew,9.0.5*%
%TF.CreationDate,2026-01-09T00:19:27+07:00*%
%TF.ProjectId,MK98,4d4b3938-2e6b-4696-9361-645f70636258,rev?*%
%TF.SameCoordinates,Original*%
%TF.FileFunction,Legend,Top*%
%TF.FilePolarity,Positive*%
%FSLAX46Y46*%
G04 Gerber Fmt 4.6, Leading zero omitted, Abs format (unit mm)*
G04 Created by KiCad (PCBNEW 9.0.5) date 2026-01-09 00:19:27*
%MOMM*%
%LPD*%
G01*
G04 APERTURE LIST*
%ADD10C,0.150000*%
%ADD11C,0.120000*%
%ADD12C,1.600000*%
%ADD13C,3.048000*%
%ADD14C,3.987800*%
%ADD15C,0.800000*%
%ADD16C,6.400000*%
%ADD17R,0.850000X0.850000*%
%ADD18C,0.850000*%
%ADD19R,2.000000X2.000000*%
%ADD20C,2.000000*%
%ADD21C,3.200000*%
%ADD22C,0.650000*%
%ADD23O,1.000000X1.600000*%
%ADD24O,1.000000X2.100000*%
G04 APERTURE END LIST*
D10*
X213520774Y-42780390D02*
X213520774Y-41780390D01*
X213520774Y-42256580D02*
X214092202Y-42256580D01*
X214092202Y-42780390D02*
X214092202Y-41780390D01*
X214473155Y-41780390D02*
X215092202Y-41780390D01*
X215092202Y-41780390D02*
X214758869Y-42161342D01*
X214758869Y-42161342D02*
X214901726Y-42161342D01*
X214901726Y-42161342D02*
X214996964Y-42208961D01*
X214996964Y-42208961D02*
X215044583Y-42256580D01*
X215044583Y-42256580D02*
X215092202Y-42351818D01*
X215092202Y-42351818D02*
X215092202Y-42589913D01*
X215092202Y-42589913D02*
X215044583Y-42685151D01*
X215044583Y-42685151D02*
X214996964Y-42732771D01*
X214996964Y-42732771D02*
X214901726Y-42780390D01*
X214901726Y-42780390D02*
X214616012Y-42780390D01*
X214616012Y-42780390D02*
X214520774Y-42732771D01*
X214520774Y-42732771D02*
X214473155Y-42685151D01*
X63423095Y-104729819D02*
X63423095Y-103729819D01*
X63423095Y-104206009D02*
X63994523Y-104206009D01*
X63994523Y-104729819D02*
X63994523Y-103729819D01*
X64423095Y-103825057D02*
X64470714Y-103777438D01*
X64470714Y-103777438D02*
X64565952Y-103729819D01*
X64565952Y-103729819D02*
X64804047Y-103729819D01*
X64804047Y-103729819D02*
X64899285Y-103777438D01*
X64899285Y-103777438D02*
X64946904Y-103825057D01*
X64946904Y-103825057D02*
X64994523Y-103920295D01*
X64994523Y-103920295D02*
X64994523Y-104015533D01*
X64994523Y-104015533D02*
X64946904Y-104158390D01*
X64946904Y-104158390D02*
X64375476Y-104729819D01*
X64375476Y-104729819D02*
X64994523Y-104729819D01*
X375333519Y-42782269D02*
X375333519Y-41782269D01*
X375333519Y-42258459D02*
X375904947Y-42258459D01*
X375904947Y-42782269D02*
X375904947Y-41782269D01*
X376857328Y-41782269D02*
X376381138Y-41782269D01*
X376381138Y-41782269D02*
X376333519Y-42258459D01*
X376333519Y-42258459D02*
X376381138Y-42210840D01*
X376381138Y-42210840D02*
X376476376Y-42163221D01*
X376476376Y-42163221D02*
X376714471Y-42163221D01*
X376714471Y-42163221D02*
X376809709Y-42210840D01*
X376809709Y-42210840D02*
X376857328Y-42258459D01*
X376857328Y-42258459D02*
X376904947Y-42353697D01*
X376904947Y-42353697D02*
X376904947Y-42591792D01*
X376904947Y-42591792D02*
X376857328Y-42687030D01*
X376857328Y-42687030D02*
X376809709Y-42734650D01*
X376809709Y-42734650D02*
X376714471Y-42782269D01*
X376714471Y-42782269D02*
X376476376Y-42782269D01*
X376476376Y-42782269D02*
X376381138Y-42734650D01*
X376381138Y-42734650D02*
X376333519Y-42687030D01*
X374188095Y-112327633D02*
X374188095Y-111327633D01*
X374188095Y-111803823D02*
X374759523Y-111803823D01*
X374759523Y-112327633D02*
X374759523Y-111327633D01*
X375664285Y-111327633D02*
X375473809Y-111327633D01*
X375473809Y-111327633D02*
X375378571Y-111375252D01*
X375378571Y-111375252D02*
X375330952Y-111422871D01*
X375330952Y-111422871D02*
X375235714Y-111565728D01*
X375235714Y-111565728D02*
X375188095Y-111756204D01*
X375188095Y-111756204D02*
X375188095Y-112137156D01*
X375188095Y-112137156D02*
X375235714Y-112232394D01*
X375235714Y-112232394D02*
X375283333Y-112280014D01*
X375283333Y-112280014D02*
X375378571Y-112327633D01*
X375378571Y-112327633D02*
X375569047Y-112327633D01*
X375569047Y-112327633D02*
X375664285Y-112280014D01*
X375664285Y-112280014D02*
X375711904Y-112232394D01*
X375711904Y-112232394D02*
X375759523Y-112137156D01*
X375759523Y-112137156D02*
X375759523Y-111899061D01*
X375759523Y-111899061D02*
X375711904Y-111803823D01*
X375711904Y-111803823D02*
X375664285Y-111756204D01*
X375664285Y-111756204D02*
X375569047Y-111708585D01*
X375569047Y-111708585D02*
X375378571Y-111708585D01*
X375378571Y-111708585D02*
X375283333Y-111756204D01*
X375283333Y-111756204D02*
X375235714Y-111803823D01*
X375235714Y-111803823D02*
X375188095Y-111899061D01*
X60234818Y-28208333D02*
X60949103Y-28208333D01*
X60949103Y-28208333D02*
X61091960Y-28255952D01*
X61091960Y-28255952D02*
X61187199Y-28351190D01*
X61187199Y-28351190D02*
X61234818Y-28494047D01*
X61234818Y-28494047D02*
X61234818Y-28589285D01*
X60234818Y-27827380D02*
X60234818Y-27208333D01*
X60234818Y-27208333D02*
X60615770Y-27541666D01*
X60615770Y-27541666D02*
X60615770Y-27398809D01*
X60615770Y-27398809D02*
X60663389Y-27303571D01*
X60663389Y-27303571D02*
X60711008Y-27255952D01*
X60711008Y-27255952D02*
X60806246Y-27208333D01*
X60806246Y-27208333D02*
X61044341Y-27208333D01*
X61044341Y-27208333D02*
X61139579Y-27255952D01*
X61139579Y-27255952D02*
X61187199Y-27303571D01*
X61187199Y-27303571D02*
X61234818Y-27398809D01*
X61234818Y-27398809D02*
X61234818Y-27684523D01*
X61234818Y-27684523D02*
X61187199Y-27779761D01*
X61187199Y-27779761D02*
X61139579Y-27827380D01*
X63423095Y-66679819D02*
X63423095Y-65679819D01*
X63423095Y-66156009D02*
X63994523Y-66156009D01*
X63994523Y-66679819D02*
X63994523Y-65679819D01*
X64994523Y-66679819D02*
X64423095Y-66679819D01*
X64708809Y-66679819D02*
X64708809Y-65679819D01*
X64708809Y-65679819D02*
X64613571Y-65822676D01*
X64613571Y-65822676D02*
X64518333Y-65917914D01*
X64518333Y-65917914D02*
X64423095Y-65965533D01*
X225498095Y-126304819D02*
X225498095Y-125304819D01*
X225498095Y-125781009D02*
X226069523Y-125781009D01*
X226069523Y-126304819D02*
X226069523Y-125304819D01*
X226974285Y-125638152D02*
X226974285Y-126304819D01*
X226736190Y-125257200D02*
X226498095Y-125971485D01*
X226498095Y-125971485D02*
X227117142Y-125971485D01*
X418978728Y-34001760D02*
X418978728Y-33668427D01*
X419502538Y-33525570D02*
X419502538Y-34001760D01*
X419502538Y-34001760D02*
X418502538Y-34001760D01*
X418502538Y-34001760D02*
X418502538Y-33525570D01*
X419502538Y-33096998D02*
X418502538Y-33096998D01*
X418502538Y-33096998D02*
X419502538Y-32525570D01*
X419502538Y-32525570D02*
X418502538Y-32525570D01*
X419407299Y-31477951D02*
X419454919Y-31525570D01*
X419454919Y-31525570D02*
X419502538Y-31668427D01*
X419502538Y-31668427D02*
X419502538Y-31763665D01*
X419502538Y-31763665D02*
X419454919Y-31906522D01*
X419454919Y-31906522D02*
X419359680Y-32001760D01*
X419359680Y-32001760D02*
X419264442Y-32049379D01*
X419264442Y-32049379D02*
X419073966Y-32096998D01*
X419073966Y-32096998D02*
X418931109Y-32096998D01*
X418931109Y-32096998D02*
X418740633Y-32049379D01*
X418740633Y-32049379D02*
X418645395Y-32001760D01*
X418645395Y-32001760D02*
X418550157Y-31906522D01*
X418550157Y-31906522D02*
X418502538Y-31763665D01*
X418502538Y-31763665D02*
X418502538Y-31668427D01*
X418502538Y-31668427D02*
X418550157Y-31525570D01*
X418550157Y-31525570D02*
X418597776Y-31477951D01*
X419502538Y-30525570D02*
X419502538Y-31096998D01*
X419502538Y-30811284D02*
X418502538Y-30811284D01*
X418502538Y-30811284D02*
X418645395Y-30906522D01*
X418645395Y-30906522D02*
X418740633Y-31001760D01*
X418740633Y-31001760D02*
X418788252Y-31096998D01*
%TO.C,HE16*%
X56460000Y-62600000D02*
G75*
G02*
X56260000Y-62800000I-200001J1D01*
G01*
X56260000Y-58800000D02*
G75*
G02*
X56460000Y-59000000I-1J-200001D01*
G01*
X53060000Y-62800000D02*
G75*
G02*
X52860000Y-62600000I0J200000D01*
G01*
X52860000Y-59000000D02*
G75*
G02*
X53060000Y-58800000I200000J0D01*
G01*
X56460000Y-59000000D02*
X56460000Y-62600000D01*
X56260000Y-62800000D02*
X53060000Y-62800000D01*
X53060000Y-58800000D02*
X56260000Y-58800000D01*
X52860000Y-62600000D02*
X52860000Y-59000000D01*
D11*
%TO.C,J3*%
X61544999Y-29985000D02*
X61545000Y-29250000D01*
X61669998Y-28515000D02*
X61669999Y-27890000D01*
X61669999Y-27890000D02*
X66889999Y-27890000D01*
X62279999Y-29984999D02*
X61544999Y-29985000D01*
X62779999Y-28515000D02*
X62779999Y-27890000D01*
X63019999Y-25890000D02*
X63539999Y-25890000D01*
X63019999Y-27890000D02*
X63019999Y-25890000D01*
X63539999Y-25890000D02*
X63539999Y-27890000D01*
X63779999Y-28711275D02*
X63779999Y-27890000D01*
X64019999Y-25890000D02*
X64539999Y-25890000D01*
X64019999Y-27890000D02*
X64019999Y-25890000D01*
X64539999Y-25890000D02*
X64539999Y-27890000D01*
X64779999Y-28711275D02*
X64779999Y-27890000D01*
X65019999Y-25890000D02*
X65539999Y-25890000D01*
X65019999Y-27890000D02*
X65019999Y-25890000D01*
X65539999Y-25890000D02*
X65539999Y-27890000D01*
X65779999Y-28711275D02*
X65779999Y-27890000D01*
X66019999Y-25890000D02*
X66539999Y-25890000D01*
X66019999Y-27890000D02*
X66019999Y-25890000D01*
X66539999Y-25890000D02*
X66539999Y-27890000D01*
X66889999Y-27890000D02*
X66889999Y-28839970D01*
X62539999Y-27890000D02*
X62019999Y-27890000D01*
X62019999Y-25890000D01*
X62539999Y-25890000D01*
X62539999Y-27890000D01*
G36*
X62539999Y-27890000D02*
G01*
X62019999Y-27890000D01*
X62019999Y-25890000D01*
X62539999Y-25890000D01*
X62539999Y-27890000D01*
G37*
%TO.C,ENC1*%
X405947719Y-34987475D02*
X405947720Y-30887475D01*
X405947719Y-43087475D02*
X405947719Y-38987474D01*
X408347719Y-43087475D02*
X405947719Y-43087475D01*
X411847720Y-36487475D02*
X411847719Y-37487475D01*
X412347719Y-36987474D02*
X411347719Y-36987475D01*
X413147719Y-43087475D02*
X410547719Y-43087475D01*
X415647719Y-29487475D02*
X415947719Y-29187475D01*
X415947719Y-29187475D02*
X415947719Y-29787475D01*
X415947719Y-29787475D02*
X415647719Y-29487475D01*
X417747719Y-34987475D02*
X417747720Y-30887475D01*
X417747719Y-38987474D02*
X417747719Y-43087475D01*
X417747719Y-43087475D02*
X415347719Y-43087475D01*
X417747720Y-30887475D02*
X405947720Y-30887475D01*
X414847719Y-36987475D02*
G75*
G02*
X408847719Y-36987475I-3000000J0D01*
G01*
X408847719Y-36987475D02*
G75*
G02*
X414847719Y-36987475I3000000J0D01*
G01*
D10*
%TO.C,HE39*%
X167160000Y-81650000D02*
X167160000Y-78050000D01*
X167360000Y-77850000D02*
X170560000Y-77850000D01*
X170560000Y-81850000D02*
X167360000Y-81850000D01*
X170760000Y-78050000D02*
X170760000Y-81650000D01*
X167160000Y-78050000D02*
G75*
G02*
X167360000Y-77850000I200000J0D01*
G01*
X167360000Y-81850000D02*
G75*
G02*
X167160000Y-81650000I0J200000D01*
G01*
X170560000Y-77850000D02*
G75*
G02*
X170760000Y-78050000I-1J-200001D01*
G01*
X170760000Y-81650000D02*
G75*
G02*
X170560000Y-81850000I-200001J1D01*
G01*
%TO.C,HE5*%
X200497500Y-38787500D02*
X200497500Y-35187500D01*
X200697500Y-34987500D02*
X203897500Y-34987500D01*
X203897500Y-38987500D02*
X200697500Y-38987500D01*
X204097500Y-35187500D02*
X204097500Y-38787500D01*
X200497500Y-35187500D02*
G75*
G02*
X200697500Y-34987500I200000J0D01*
G01*
X200697500Y-38987500D02*
G75*
G02*
X200497500Y-38787500I0J200000D01*
G01*
X203897500Y-34987500D02*
G75*
G02*
X204097500Y-35187500I-1J-200001D01*
G01*
X204097500Y-38787500D02*
G75*
G02*
X203897500Y-38987500I-200001J1D01*
G01*
%TO.C,HE67*%
X374328750Y-100700000D02*
X374328750Y-97100000D01*
X374528750Y-96900000D02*
X377728750Y-96900000D01*
X377728750Y-100900000D02*
X374528750Y-100900000D01*
X377928750Y-97100000D02*
X377928750Y-100700000D01*
X374328750Y-97100000D02*
G75*
G02*
X374528750Y-96900000I200000J0D01*
G01*
X374528750Y-100900000D02*
G75*
G02*
X374328750Y-100700000I0J200000D01*
G01*
X377728750Y-96900000D02*
G75*
G02*
X377928750Y-97100000I-1J-200001D01*
G01*
X377928750Y-100700000D02*
G75*
G02*
X377728750Y-100900000I-200001J1D01*
G01*
%TO.C,HE49*%
X357660000Y-81650000D02*
X357660000Y-78050000D01*
X357860000Y-77850000D02*
X361060000Y-77850000D01*
X361060000Y-81850000D02*
X357860000Y-81850000D01*
X361260000Y-78050000D02*
X361260000Y-81650000D01*
X357660000Y-78050000D02*
G75*
G02*
X357860000Y-77850000I200000J0D01*
G01*
X357860000Y-81850000D02*
G75*
G02*
X357660000Y-81650000I0J200000D01*
G01*
X361060000Y-77850000D02*
G75*
G02*
X361260000Y-78050000I-1J-200001D01*
G01*
X361260000Y-81650000D02*
G75*
G02*
X361060000Y-81850000I-200001J1D01*
G01*
%TO.C,HE28*%
X290985000Y-62600000D02*
X290985000Y-59000000D01*
X291185000Y-58800000D02*
X294385000Y-58800000D01*
X294385000Y-62800000D02*
X291185000Y-62800000D01*
X294585000Y-59000000D02*
X294585000Y-62600000D01*
X290985000Y-59000000D02*
G75*
G02*
X291185000Y-58800000I200000J0D01*
G01*
X291185000Y-62800000D02*
G75*
G02*
X290985000Y-62600000I0J200000D01*
G01*
X294385000Y-58800000D02*
G75*
G02*
X294585000Y-59000000I-1J-200001D01*
G01*
X294585000Y-62600000D02*
G75*
G02*
X294385000Y-62800000I-200001J1D01*
G01*
%TO.C,HE95*%
X367185000Y-138800000D02*
X367185000Y-135200000D01*
X367385000Y-135000000D02*
X370585000Y-135000000D01*
X370585000Y-139000000D02*
X367385000Y-139000000D01*
X370785000Y-135200000D02*
X370785000Y-138800000D01*
X367185000Y-135200000D02*
G75*
G02*
X367385000Y-135000000I200000J0D01*
G01*
X367385000Y-139000000D02*
G75*
G02*
X367185000Y-138800000I0J200000D01*
G01*
X370585000Y-135000000D02*
G75*
G02*
X370785000Y-135200000I-1J-200001D01*
G01*
X370785000Y-138800000D02*
G75*
G02*
X370585000Y-139000000I-200001J1D01*
G01*
%TO.C,HE9*%
X281460000Y-38787500D02*
X281460000Y-35187500D01*
X281660000Y-34987500D02*
X284860000Y-34987500D01*
X284860000Y-38987500D02*
X281660000Y-38987500D01*
X285060000Y-35187500D02*
X285060000Y-38787500D01*
X281460000Y-35187500D02*
G75*
G02*
X281660000Y-34987500I200000J0D01*
G01*
X281660000Y-38987500D02*
G75*
G02*
X281460000Y-38787500I0J200000D01*
G01*
X284860000Y-34987500D02*
G75*
G02*
X285060000Y-35187500I-1J-200001D01*
G01*
X285060000Y-38787500D02*
G75*
G02*
X284860000Y-38987500I-200001J1D01*
G01*
%TO.C,HE64*%
X305272500Y-100700000D02*
X305272500Y-97100000D01*
X305472500Y-96900000D02*
X308672500Y-96900000D01*
X308672500Y-100900000D02*
X305472500Y-100900000D01*
X308872500Y-97100000D02*
X308872500Y-100700000D01*
X305272500Y-97100000D02*
G75*
G02*
X305472500Y-96900000I200000J0D01*
G01*
X305472500Y-100900000D02*
G75*
G02*
X305272500Y-100700000I0J200000D01*
G01*
X308672500Y-96900000D02*
G75*
G02*
X308872500Y-97100000I-1J-200001D01*
G01*
X308872500Y-100700000D02*
G75*
G02*
X308672500Y-100900000I-200001J1D01*
G01*
%TO.C,HE59*%
X210022500Y-100700000D02*
X210022500Y-97100000D01*
X210222500Y-96900000D02*
X213422500Y-96900000D01*
X213422500Y-100900000D02*
X210222500Y-100900000D01*
X213622500Y-97100000D02*
X213622500Y-100700000D01*
X210022500Y-97100000D02*
G75*
G02*
X210222500Y-96900000I200000J0D01*
G01*
X210222500Y-100900000D02*
G75*
G02*
X210022500Y-100700000I0J200000D01*
G01*
X213422500Y-96900000D02*
G75*
G02*
X213622500Y-97100000I-1J-200001D01*
G01*
X213622500Y-100700000D02*
G75*
G02*
X213422500Y-100900000I-200001J1D01*
G01*
%TO.C,HE31*%
X348135000Y-62600000D02*
X348135000Y-59000000D01*
X348335000Y-58800000D02*
X351535000Y-58800000D01*
X351535000Y-62800000D02*
X348335000Y-62800000D01*
X351735000Y-59000000D02*
X351735000Y-62600000D01*
X348135000Y-59000000D02*
G75*
G02*
X348335000Y-58800000I200000J0D01*
G01*
X348335000Y-62800000D02*
G75*
G02*
X348135000Y-62600000I0J200000D01*
G01*
X351535000Y-58800000D02*
G75*
G02*
X351735000Y-59000000I-1J-200001D01*
G01*
X351735000Y-62600000D02*
G75*
G02*
X351535000Y-62800000I-200001J1D01*
G01*
%TO.C,HE23*%
X195735000Y-62600000D02*
X195735000Y-59000000D01*
X195935000Y-58800000D02*
X199135000Y-58800000D01*
X199135000Y-62800000D02*
X195935000Y-62800000D01*
X199335000Y-59000000D02*
X199335000Y-62600000D01*
X195735000Y-59000000D02*
G75*
G02*
X195935000Y-58800000I200000J0D01*
G01*
X195935000Y-62800000D02*
G75*
G02*
X195735000Y-62600000I0J200000D01*
G01*
X199135000Y-58800000D02*
G75*
G02*
X199335000Y-59000000I-1J-200001D01*
G01*
X199335000Y-62600000D02*
G75*
G02*
X199135000Y-62800000I-200001J1D01*
G01*
%TO.C,HE78*%
X238597500Y-119750000D02*
X238597500Y-116150000D01*
X238797500Y-115950000D02*
X241997500Y-115950000D01*
X241997500Y-119950000D02*
X238797500Y-119950000D01*
X242197500Y-116150000D02*
X242197500Y-119750000D01*
X238597500Y-116150000D02*
G75*
G02*
X238797500Y-115950000I200000J0D01*
G01*
X238797500Y-119950000D02*
G75*
G02*
X238597500Y-119750000I0J200000D01*
G01*
X241997500Y-115950000D02*
G75*
G02*
X242197500Y-116150000I-1J-200001D01*
G01*
X242197500Y-119750000D02*
G75*
G02*
X241997500Y-119950000I-200001J1D01*
G01*
%TO.C,HE35*%
X71910000Y-81650000D02*
X71910000Y-78050000D01*
X72110000Y-77850000D02*
X75310000Y-77850000D01*
X75310000Y-81850000D02*
X72110000Y-81850000D01*
X75510000Y-78050000D02*
X75510000Y-81650000D01*
X71910000Y-78050000D02*
G75*
G02*
X72110000Y-77850000I200000J0D01*
G01*
X72110000Y-81850000D02*
G75*
G02*
X71910000Y-81650000I0J200000D01*
G01*
X75310000Y-77850000D02*
G75*
G02*
X75510000Y-78050000I-1J-200001D01*
G01*
X75510000Y-81650000D02*
G75*
G02*
X75310000Y-81850000I-200001J1D01*
G01*
%TO.C,HE7*%
X243360000Y-38787500D02*
X243360000Y-35187500D01*
X243560000Y-34987500D02*
X246760000Y-34987500D01*
X246760000Y-38987500D02*
X243560000Y-38987500D01*
X246960000Y-35187500D02*
X246960000Y-38787500D01*
X243360000Y-35187500D02*
G75*
G02*
X243560000Y-34987500I200000J0D01*
G01*
X243560000Y-38987500D02*
G75*
G02*
X243360000Y-38787500I0J200000D01*
G01*
X246760000Y-34987500D02*
G75*
G02*
X246960000Y-35187500I-1J-200001D01*
G01*
X246960000Y-38787500D02*
G75*
G02*
X246760000Y-38987500I-200001J1D01*
G01*
%TO.C,HE80*%
X276697500Y-119750000D02*
X276697500Y-116150000D01*
X276897500Y-115950000D02*
X280097500Y-115950000D01*
X280097500Y-119950000D02*
X276897500Y-119950000D01*
X280297500Y-116150000D02*
X280297500Y-119750000D01*
X276697500Y-116150000D02*
G75*
G02*
X276897500Y-115950000I200000J0D01*
G01*
X276897500Y-119950000D02*
G75*
G02*
X276697500Y-119750000I0J200000D01*
G01*
X280097500Y-115950000D02*
G75*
G02*
X280297500Y-116150000I-1J-200001D01*
G01*
X280297500Y-119750000D02*
G75*
G02*
X280097500Y-119950000I-200001J1D01*
G01*
%TO.C,HE63*%
X286222500Y-100700000D02*
X286222500Y-97100000D01*
X286422500Y-96900000D02*
X289622500Y-96900000D01*
X289622500Y-100900000D02*
X286422500Y-100900000D01*
X289822500Y-97100000D02*
X289822500Y-100700000D01*
X286222500Y-97100000D02*
G75*
G02*
X286422500Y-96900000I200000J0D01*
G01*
X286422500Y-100900000D02*
G75*
G02*
X286222500Y-100700000I0J200000D01*
G01*
X289622500Y-96900000D02*
G75*
G02*
X289822500Y-97100000I-1J-200001D01*
G01*
X289822500Y-100700000D02*
G75*
G02*
X289622500Y-100900000I-200001J1D01*
G01*
%TO.C,HE17*%
X71910000Y-62600000D02*
X71910000Y-59000000D01*
X72110000Y-58800000D02*
X75310000Y-58800000D01*
X75310000Y-62800000D02*
X72110000Y-62800000D01*
X75510000Y-59000000D02*
X75510000Y-62600000D01*
X71910000Y-59000000D02*
G75*
G02*
X72110000Y-58800000I200000J0D01*
G01*
X72110000Y-62800000D02*
G75*
G02*
X71910000Y-62600000I0J200000D01*
G01*
X75310000Y-58800000D02*
G75*
G02*
X75510000Y-59000000I-1J-200001D01*
G01*
X75510000Y-62600000D02*
G75*
G02*
X75310000Y-62800000I-200001J1D01*
G01*
%TO.C,HE10*%
X305272500Y-38787500D02*
X305272500Y-35187500D01*
X305472500Y-34987500D02*
X308672500Y-34987500D01*
X308672500Y-38987500D02*
X305472500Y-38987500D01*
X308872500Y-35187500D02*
X308872500Y-38787500D01*
X305272500Y-35187500D02*
G75*
G02*
X305472500Y-34987500I200000J0D01*
G01*
X305472500Y-38987500D02*
G75*
G02*
X305272500Y-38787500I0J200000D01*
G01*
X308672500Y-34987500D02*
G75*
G02*
X308872500Y-35187500I-1J-200001D01*
G01*
X308872500Y-38787500D02*
G75*
G02*
X308672500Y-38987500I-200001J1D01*
G01*
%TO.C,HE25*%
X233835000Y-62600000D02*
X233835000Y-59000000D01*
X234035000Y-58800000D02*
X237235000Y-58800000D01*
X237235000Y-62800000D02*
X234035000Y-62800000D01*
X237435000Y-59000000D02*
X237435000Y-62600000D01*
X233835000Y-59000000D02*
G75*
G02*
X234035000Y-58800000I200000J0D01*
G01*
X234035000Y-62800000D02*
G75*
G02*
X233835000Y-62600000I0J200000D01*
G01*
X237235000Y-58800000D02*
G75*
G02*
X237435000Y-59000000I-1J-200001D01*
G01*
X237435000Y-62600000D02*
G75*
G02*
X237235000Y-62800000I-200001J1D01*
G01*
%TO.C,HE92*%
X310035000Y-138800000D02*
X310035000Y-135200000D01*
X310235000Y-135000000D02*
X313435000Y-135000000D01*
X313435000Y-139000000D02*
X310235000Y-139000000D01*
X313635000Y-135200000D02*
X313635000Y-138800000D01*
X310035000Y-135200000D02*
G75*
G02*
X310235000Y-135000000I200000J0D01*
G01*
X310235000Y-139000000D02*
G75*
G02*
X310035000Y-138800000I0J200000D01*
G01*
X313435000Y-135000000D02*
G75*
G02*
X313635000Y-135200000I-1J-200001D01*
G01*
X313635000Y-138800000D02*
G75*
G02*
X313435000Y-139000000I-200001J1D01*
G01*
%TO.C,HE14*%
X386235000Y-38787500D02*
X386235000Y-35187500D01*
X386435000Y-34987500D02*
X389635000Y-34987500D01*
X389635000Y-38987500D02*
X386435000Y-38987500D01*
X389835000Y-35187500D02*
X389835000Y-38787500D01*
X386235000Y-35187500D02*
G75*
G02*
X386435000Y-34987500I200000J0D01*
G01*
X386435000Y-38987500D02*
G75*
G02*
X386235000Y-38787500I0J200000D01*
G01*
X389635000Y-34987500D02*
G75*
G02*
X389835000Y-35187500I-1J-200001D01*
G01*
X389835000Y-38787500D02*
G75*
G02*
X389635000Y-38987500I-200001J1D01*
G01*
%TO.C,HE79*%
X257647500Y-119750000D02*
X257647500Y-116150000D01*
X257847500Y-115950000D02*
X261047500Y-115950000D01*
X261047500Y-119950000D02*
X257847500Y-119950000D01*
X261247500Y-116150000D02*
X261247500Y-119750000D01*
X257647500Y-116150000D02*
G75*
G02*
X257847500Y-115950000I200000J0D01*
G01*
X257847500Y-119950000D02*
G75*
G02*
X257647500Y-119750000I0J200000D01*
G01*
X261047500Y-115950000D02*
G75*
G02*
X261247500Y-116150000I-1J-200001D01*
G01*
X261247500Y-119750000D02*
G75*
G02*
X261047500Y-119950000I-200001J1D01*
G01*
%TO.C,HE36*%
X90960000Y-91175000D02*
X90960000Y-87575000D01*
X91160000Y-87375000D02*
X94360000Y-87375000D01*
X94360000Y-91375000D02*
X91160000Y-91375000D01*
X94560000Y-87575000D02*
X94560000Y-91175000D01*
X90960000Y-87575000D02*
G75*
G02*
X91160000Y-87375000I200000J0D01*
G01*
X91160000Y-91375000D02*
G75*
G02*
X90960000Y-91175000I0J200000D01*
G01*
X94360000Y-87375000D02*
G75*
G02*
X94560000Y-87575000I-1J-200001D01*
G01*
X94560000Y-91175000D02*
G75*
G02*
X94360000Y-91375000I-200001J1D01*
G01*
%TO.C,HE40*%
X186210000Y-81650000D02*
X186210000Y-78050000D01*
X186410000Y-77850000D02*
X189610000Y-77850000D01*
X189610000Y-81850000D02*
X186410000Y-81850000D01*
X189810000Y-78050000D02*
X189810000Y-81650000D01*
X186210000Y-78050000D02*
G75*
G02*
X186410000Y-77850000I200000J0D01*
G01*
X186410000Y-81850000D02*
G75*
G02*
X186210000Y-81650000I0J200000D01*
G01*
X189610000Y-77850000D02*
G75*
G02*
X189810000Y-78050000I-1J-200001D01*
G01*
X189810000Y-81650000D02*
G75*
G02*
X189610000Y-81850000I-200001J1D01*
G01*
%TO.C,HE12*%
X343372500Y-38787500D02*
X343372500Y-35187500D01*
X343572500Y-34987500D02*
X346772500Y-34987500D01*
X346772500Y-38987500D02*
X343572500Y-38987500D01*
X346972500Y-35187500D02*
X346972500Y-38787500D01*
X343372500Y-35187500D02*
G75*
G02*
X343572500Y-34987500I200000J0D01*
G01*
X343572500Y-38987500D02*
G75*
G02*
X343372500Y-38787500I0J200000D01*
G01*
X346772500Y-34987500D02*
G75*
G02*
X346972500Y-35187500I-1J-200001D01*
G01*
X346972500Y-38787500D02*
G75*
G02*
X346772500Y-38987500I-200001J1D01*
G01*
%TO.C,HE82*%
X314797500Y-119750000D02*
X314797500Y-116150000D01*
X314997500Y-115950000D02*
X318197500Y-115950000D01*
X318197500Y-119950000D02*
X314997500Y-119950000D01*
X318397500Y-116150000D02*
X318397500Y-119750000D01*
X314797500Y-116150000D02*
G75*
G02*
X314997500Y-115950000I200000J0D01*
G01*
X314997500Y-119950000D02*
G75*
G02*
X314797500Y-119750000I0J200000D01*
G01*
X318197500Y-115950000D02*
G75*
G02*
X318397500Y-116150000I-1J-200001D01*
G01*
X318397500Y-119750000D02*
G75*
G02*
X318197500Y-119950000I-200001J1D01*
G01*
%TO.C,HE88*%
X121916250Y-138800000D02*
X121916250Y-135200000D01*
X122116250Y-135000000D02*
X125316250Y-135000000D01*
X125316250Y-139000000D02*
X122116250Y-139000000D01*
X125516250Y-135200000D02*
X125516250Y-138800000D01*
X121916250Y-135200000D02*
G75*
G02*
X122116250Y-135000000I200000J0D01*
G01*
X122116250Y-139000000D02*
G75*
G02*
X121916250Y-138800000I0J200000D01*
G01*
X125316250Y-135000000D02*
G75*
G02*
X125516250Y-135200000I-1J-200001D01*
G01*
X125516250Y-138800000D02*
G75*
G02*
X125316250Y-139000000I-200001J1D01*
G01*
%TO.C,HE29*%
X310035000Y-62600000D02*
X310035000Y-59000000D01*
X310235000Y-58800000D02*
X313435000Y-58800000D01*
X313435000Y-62800000D02*
X310235000Y-62800000D01*
X313635000Y-59000000D02*
X313635000Y-62600000D01*
X310035000Y-59000000D02*
G75*
G02*
X310235000Y-58800000I200000J0D01*
G01*
X310235000Y-62800000D02*
G75*
G02*
X310035000Y-62600000I0J200000D01*
G01*
X313435000Y-58800000D02*
G75*
G02*
X313635000Y-59000000I-1J-200001D01*
G01*
X313635000Y-62600000D02*
G75*
G02*
X313435000Y-62800000I-200001J1D01*
G01*
%TO.C,HE42*%
X224310000Y-81650000D02*
X224310000Y-78050000D01*
X224510000Y-77850000D02*
X227710000Y-77850000D01*
X227710000Y-81850000D02*
X224510000Y-81850000D01*
X227910000Y-78050000D02*
X227910000Y-81650000D01*
X224310000Y-78050000D02*
G75*
G02*
X224510000Y-77850000I200000J0D01*
G01*
X224510000Y-81850000D02*
G75*
G02*
X224310000Y-81650000I0J200000D01*
G01*
X227710000Y-77850000D02*
G75*
G02*
X227910000Y-78050000I-1J-200001D01*
G01*
X227910000Y-81650000D02*
G75*
G02*
X227710000Y-81850000I-200001J1D01*
G01*
%TO.C,HE68*%
X410047500Y-100700000D02*
X410047500Y-97100000D01*
X410247500Y-96900000D02*
X413447500Y-96900000D01*
X413447500Y-100900000D02*
X410247500Y-100900000D01*
X413647500Y-97100000D02*
X413647500Y-100700000D01*
X410047500Y-97100000D02*
G75*
G02*
X410247500Y-96900000I200000J0D01*
G01*
X410247500Y-100900000D02*
G75*
G02*
X410047500Y-100700000I0J200000D01*
G01*
X413447500Y-96900000D02*
G75*
G02*
X413647500Y-97100000I-1J-200001D01*
G01*
X413647500Y-100700000D02*
G75*
G02*
X413447500Y-100900000I-200001J1D01*
G01*
%TO.C,HE61*%
X248122500Y-100700000D02*
X248122500Y-97100000D01*
X248322500Y-96900000D02*
X251522500Y-96900000D01*
X251522500Y-100900000D02*
X248322500Y-100900000D01*
X251722500Y-97100000D02*
X251722500Y-100700000D01*
X248122500Y-97100000D02*
G75*
G02*
X248322500Y-96900000I200000J0D01*
G01*
X248322500Y-100900000D02*
G75*
G02*
X248122500Y-100700000I0J200000D01*
G01*
X251522500Y-96900000D02*
G75*
G02*
X251722500Y-97100000I-1J-200001D01*
G01*
X251722500Y-100700000D02*
G75*
G02*
X251522500Y-100900000I-200001J1D01*
G01*
%TO.C,HE75*%
X181447500Y-119750000D02*
X181447500Y-116150000D01*
X181647500Y-115950000D02*
X184847500Y-115950000D01*
X184847500Y-119950000D02*
X181647500Y-119950000D01*
X185047500Y-116150000D02*
X185047500Y-119750000D01*
X181447500Y-116150000D02*
G75*
G02*
X181647500Y-115950000I200000J0D01*
G01*
X181647500Y-119950000D02*
G75*
G02*
X181447500Y-119750000I0J200000D01*
G01*
X184847500Y-115950000D02*
G75*
G02*
X185047500Y-116150000I-1J-200001D01*
G01*
X185047500Y-119750000D02*
G75*
G02*
X184847500Y-119950000I-200001J1D01*
G01*
%TO.C,HE43*%
X243360000Y-81650000D02*
X243360000Y-78050000D01*
X243560000Y-77850000D02*
X246760000Y-77850000D01*
X246760000Y-81850000D02*
X243560000Y-81850000D01*
X246960000Y-78050000D02*
X246960000Y-81650000D01*
X243360000Y-78050000D02*
G75*
G02*
X243560000Y-77850000I200000J0D01*
G01*
X243560000Y-81850000D02*
G75*
G02*
X243360000Y-81650000I0J200000D01*
G01*
X246760000Y-77850000D02*
G75*
G02*
X246960000Y-78050000I-1J-200001D01*
G01*
X246960000Y-81650000D02*
G75*
G02*
X246760000Y-81850000I-200001J1D01*
G01*
%TO.C,HE74*%
X162397500Y-119750000D02*
X162397500Y-116150000D01*
X162597500Y-115950000D02*
X165797500Y-115950000D01*
X165797500Y-119950000D02*
X162597500Y-119950000D01*
X165997500Y-116150000D02*
X165997500Y-119750000D01*
X162397500Y-116150000D02*
G75*
G02*
X162597500Y-115950000I200000J0D01*
G01*
X162597500Y-119950000D02*
G75*
G02*
X162397500Y-119750000I0J200000D01*
G01*
X165797500Y-115950000D02*
G75*
G02*
X165997500Y-116150000I-1J-200001D01*
G01*
X165997500Y-119750000D02*
G75*
G02*
X165797500Y-119950000I-200001J1D01*
G01*
%TO.C,HE4*%
X181447500Y-38787500D02*
X181447500Y-35187500D01*
X181647500Y-34987500D02*
X184847500Y-34987500D01*
X184847500Y-38987500D02*
X181647500Y-38987500D01*
X185047500Y-35187500D02*
X185047500Y-38787500D01*
X181447500Y-35187500D02*
G75*
G02*
X181647500Y-34987500I200000J0D01*
G01*
X181647500Y-38987500D02*
G75*
G02*
X181447500Y-38787500I0J200000D01*
G01*
X184847500Y-34987500D02*
G75*
G02*
X185047500Y-35187500I-1J-200001D01*
G01*
X185047500Y-38787500D02*
G75*
G02*
X184847500Y-38987500I-200001J1D01*
G01*
%TO.C,HE69*%
X33810000Y-119750000D02*
X33810000Y-116150000D01*
X34010000Y-115950000D02*
X37210000Y-115950000D01*
X37210000Y-119950000D02*
X34010000Y-119950000D01*
X37410000Y-116150000D02*
X37410000Y-119750000D01*
X33810000Y-116150000D02*
G75*
G02*
X34010000Y-115950000I200000J0D01*
G01*
X34010000Y-119950000D02*
G75*
G02*
X33810000Y-119750000I0J200000D01*
G01*
X37210000Y-115950000D02*
G75*
G02*
X37410000Y-116150000I-1J-200001D01*
G01*
X37410000Y-119750000D02*
G75*
G02*
X37210000Y-119950000I-200001J1D01*
G01*
%TO.C,HE41*%
X205260000Y-81650000D02*
X205260000Y-78050000D01*
X205460000Y-77850000D02*
X208660000Y-77850000D01*
X208660000Y-81850000D02*
X205460000Y-81850000D01*
X208860000Y-78050000D02*
X208860000Y-81650000D01*
X205260000Y-78050000D02*
G75*
G02*
X205460000Y-77850000I200000J0D01*
G01*
X205460000Y-81850000D02*
G75*
G02*
X205260000Y-81650000I0J200000D01*
G01*
X208660000Y-77850000D02*
G75*
G02*
X208860000Y-78050000I-1J-200001D01*
G01*
X208860000Y-81650000D02*
G75*
G02*
X208660000Y-81850000I-200001J1D01*
G01*
%TO.C,HE48*%
X338610000Y-81650000D02*
X338610000Y-78050000D01*
X338810000Y-77850000D02*
X342010000Y-77850000D01*
X342010000Y-81850000D02*
X338810000Y-81850000D01*
X342210000Y-78050000D02*
X342210000Y-81650000D01*
X338610000Y-78050000D02*
G75*
G02*
X338810000Y-77850000I200000J0D01*
G01*
X338810000Y-81850000D02*
G75*
G02*
X338610000Y-81650000I0J200000D01*
G01*
X342010000Y-77850000D02*
G75*
G02*
X342210000Y-78050000I-1J-200001D01*
G01*
X342210000Y-81650000D02*
G75*
G02*
X342010000Y-81850000I-200001J1D01*
G01*
%TO.C,HE24*%
X214785000Y-62600000D02*
X214785000Y-59000000D01*
X214985000Y-58800000D02*
X218185000Y-58800000D01*
X218185000Y-62800000D02*
X214985000Y-62800000D01*
X218385000Y-59000000D02*
X218385000Y-62600000D01*
X214785000Y-59000000D02*
G75*
G02*
X214985000Y-58800000I200000J0D01*
G01*
X214985000Y-62800000D02*
G75*
G02*
X214785000Y-62600000I0J200000D01*
G01*
X218185000Y-58800000D02*
G75*
G02*
X218385000Y-59000000I-1J-200001D01*
G01*
X218385000Y-62600000D02*
G75*
G02*
X218185000Y-62800000I-200001J1D01*
G01*
%TO.C,HE46*%
X300510000Y-81650000D02*
X300510000Y-78050000D01*
X300710000Y-77850000D02*
X303910000Y-77850000D01*
X303910000Y-81850000D02*
X300710000Y-81850000D01*
X304110000Y-78050000D02*
X304110000Y-81650000D01*
X300510000Y-78050000D02*
G75*
G02*
X300710000Y-77850000I200000J0D01*
G01*
X300710000Y-81850000D02*
G75*
G02*
X300510000Y-81650000I0J200000D01*
G01*
X303910000Y-77850000D02*
G75*
G02*
X304110000Y-78050000I-1J-200001D01*
G01*
X304110000Y-81650000D02*
G75*
G02*
X303910000Y-81850000I-200001J1D01*
G01*
%TO.C,HE58*%
X190972500Y-100700000D02*
X190972500Y-97100000D01*
X191172500Y-96900000D02*
X194372500Y-96900000D01*
X194372500Y-100900000D02*
X191172500Y-100900000D01*
X194572500Y-97100000D02*
X194572500Y-100700000D01*
X190972500Y-97100000D02*
G75*
G02*
X191172500Y-96900000I200000J0D01*
G01*
X191172500Y-100900000D02*
G75*
G02*
X190972500Y-100700000I0J200000D01*
G01*
X194372500Y-96900000D02*
G75*
G02*
X194572500Y-97100000I-1J-200001D01*
G01*
X194572500Y-100700000D02*
G75*
G02*
X194372500Y-100900000I-200001J1D01*
G01*
%TO.C,HE6*%
X224310000Y-38787500D02*
X224310000Y-35187500D01*
X224510000Y-34987500D02*
X227710000Y-34987500D01*
X227710000Y-38987500D02*
X224510000Y-38987500D01*
X227910000Y-35187500D02*
X227910000Y-38787500D01*
X224310000Y-35187500D02*
G75*
G02*
X224510000Y-34987500I200000J0D01*
G01*
X224510000Y-38987500D02*
G75*
G02*
X224310000Y-38787500I0J200000D01*
G01*
X227710000Y-34987500D02*
G75*
G02*
X227910000Y-35187500I-1J-200001D01*
G01*
X227910000Y-38787500D02*
G75*
G02*
X227710000Y-38987500I-200001J1D01*
G01*
%TO.C,HE93*%
X329085000Y-138800000D02*
X329085000Y-135200000D01*
X329285000Y-135000000D02*
X332485000Y-135000000D01*
X332485000Y-139000000D02*
X329285000Y-139000000D01*
X332685000Y-135200000D02*
X332685000Y-138800000D01*
X329085000Y-135200000D02*
G75*
G02*
X329285000Y-135000000I200000J0D01*
G01*
X329285000Y-139000000D02*
G75*
G02*
X329085000Y-138800000I0J200000D01*
G01*
X332485000Y-135000000D02*
G75*
G02*
X332685000Y-135200000I-1J-200001D01*
G01*
X332685000Y-138800000D02*
G75*
G02*
X332485000Y-139000000I-200001J1D01*
G01*
%TO.C,HE98*%
X410047500Y-62600000D02*
X410047500Y-59000000D01*
X410247500Y-58800000D02*
X413447500Y-58800000D01*
X413447500Y-62800000D02*
X410247500Y-62800000D01*
X413647500Y-59000000D02*
X413647500Y-62600000D01*
X410047500Y-59000000D02*
G75*
G02*
X410247500Y-58800000I200000J0D01*
G01*
X410247500Y-62800000D02*
G75*
G02*
X410047500Y-62600000I0J200000D01*
G01*
X413447500Y-58800000D02*
G75*
G02*
X413647500Y-59000000I-1J-200001D01*
G01*
X413647500Y-62600000D02*
G75*
G02*
X413447500Y-62800000I-200001J1D01*
G01*
%TO.C,HE66*%
X343372500Y-100700000D02*
X343372500Y-97100000D01*
X343572500Y-96900000D02*
X346772500Y-96900000D01*
X346772500Y-100900000D02*
X343572500Y-100900000D01*
X346972500Y-97100000D02*
X346972500Y-100700000D01*
X343372500Y-97100000D02*
G75*
G02*
X343572500Y-96900000I200000J0D01*
G01*
X343572500Y-100900000D02*
G75*
G02*
X343372500Y-100700000I0J200000D01*
G01*
X346772500Y-96900000D02*
G75*
G02*
X346972500Y-97100000I-1J-200001D01*
G01*
X346972500Y-100700000D02*
G75*
G02*
X346772500Y-100900000I-200001J1D01*
G01*
%TO.C,HE2*%
X143347500Y-38787500D02*
X143347500Y-35187500D01*
X143547500Y-34987500D02*
X146747500Y-34987500D01*
X146747500Y-38987500D02*
X143547500Y-38987500D01*
X146947500Y-35187500D02*
X146947500Y-38787500D01*
X143347500Y-35187500D02*
G75*
G02*
X143547500Y-34987500I200000J0D01*
G01*
X143547500Y-38987500D02*
G75*
G02*
X143347500Y-38787500I0J200000D01*
G01*
X146747500Y-34987500D02*
G75*
G02*
X146947500Y-35187500I-1J-200001D01*
G01*
X146947500Y-38787500D02*
G75*
G02*
X146747500Y-38987500I-200001J1D01*
G01*
%TO.C,HE54*%
X71910000Y-100700000D02*
X71910000Y-97100000D01*
X72110000Y-96900000D02*
X75310000Y-96900000D01*
X75310000Y-100900000D02*
X72110000Y-100900000D01*
X75510000Y-97100000D02*
X75510000Y-100700000D01*
X71910000Y-97100000D02*
G75*
G02*
X72110000Y-96900000I200000J0D01*
G01*
X72110000Y-100900000D02*
G75*
G02*
X71910000Y-100700000I0J200000D01*
G01*
X75310000Y-96900000D02*
G75*
G02*
X75510000Y-97100000I-1J-200001D01*
G01*
X75510000Y-100700000D02*
G75*
G02*
X75310000Y-100900000I-200001J1D01*
G01*
%TO.C,HE60*%
X229072500Y-100700000D02*
X229072500Y-97100000D01*
X229272500Y-96900000D02*
X232472500Y-96900000D01*
X232472500Y-100900000D02*
X229272500Y-100900000D01*
X232672500Y-97100000D02*
X232672500Y-100700000D01*
X229072500Y-97100000D02*
G75*
G02*
X229272500Y-96900000I200000J0D01*
G01*
X229272500Y-100900000D02*
G75*
G02*
X229072500Y-100700000I0J200000D01*
G01*
X232472500Y-96900000D02*
G75*
G02*
X232672500Y-97100000I-1J-200001D01*
G01*
X232672500Y-100700000D02*
G75*
G02*
X232472500Y-100900000I-200001J1D01*
G01*
%TO.C,HE19*%
X119535000Y-62600000D02*
X119535000Y-59000000D01*
X119735000Y-58800000D02*
X122935000Y-58800000D01*
X122935000Y-62800000D02*
X119735000Y-62800000D01*
X123135000Y-59000000D02*
X123135000Y-62600000D01*
X119535000Y-59000000D02*
G75*
G02*
X119735000Y-58800000I200000J0D01*
G01*
X119735000Y-62800000D02*
G75*
G02*
X119535000Y-62600000I0J200000D01*
G01*
X122935000Y-58800000D02*
G75*
G02*
X123135000Y-59000000I-1J-200001D01*
G01*
X123135000Y-62600000D02*
G75*
G02*
X122935000Y-62800000I-200001J1D01*
G01*
%TO.C,HE96*%
X386235000Y-138800000D02*
X386235000Y-135200000D01*
X386435000Y-135000000D02*
X389635000Y-135000000D01*
X389635000Y-139000000D02*
X386435000Y-139000000D01*
X389835000Y-135200000D02*
X389835000Y-138800000D01*
X386235000Y-135200000D02*
G75*
G02*
X386435000Y-135000000I200000J0D01*
G01*
X386435000Y-139000000D02*
G75*
G02*
X386235000Y-138800000I0J200000D01*
G01*
X389635000Y-135000000D02*
G75*
G02*
X389835000Y-135200000I-1J-200001D01*
G01*
X389835000Y-138800000D02*
G75*
G02*
X389635000Y-139000000I-200001J1D01*
G01*
%TO.C,HE21*%
X157635000Y-62600000D02*
X157635000Y-59000000D01*
X157835000Y-58800000D02*
X161035000Y-58800000D01*
X161035000Y-62800000D02*
X157835000Y-62800000D01*
X161235000Y-59000000D02*
X161235000Y-62600000D01*
X157635000Y-59000000D02*
G75*
G02*
X157835000Y-58800000I200000J0D01*
G01*
X157835000Y-62800000D02*
G75*
G02*
X157635000Y-62600000I0J200000D01*
G01*
X161035000Y-58800000D02*
G75*
G02*
X161235000Y-59000000I-1J-200001D01*
G01*
X161235000Y-62600000D02*
G75*
G02*
X161035000Y-62800000I-200001J1D01*
G01*
%TO.C,HE26*%
X252880000Y-62600000D02*
X252880000Y-59000000D01*
X253080000Y-58800000D02*
X256280000Y-58800000D01*
X256280000Y-62800000D02*
X253080000Y-62800000D01*
X256480000Y-59000000D02*
X256480000Y-62600000D01*
X252880000Y-59000000D02*
G75*
G02*
X253080000Y-58800000I200000J0D01*
G01*
X253080000Y-62800000D02*
G75*
G02*
X252880000Y-62600000I0J200000D01*
G01*
X256280000Y-58800000D02*
G75*
G02*
X256480000Y-59000000I-1J-200001D01*
G01*
X256480000Y-62600000D02*
G75*
G02*
X256280000Y-62800000I-200001J1D01*
G01*
%TO.C,HE86*%
X33810000Y-138800000D02*
X33810000Y-135200000D01*
X34010000Y-135000000D02*
X37210000Y-135000000D01*
X37210000Y-139000000D02*
X34010000Y-139000000D01*
X37410000Y-135200000D02*
X37410000Y-138800000D01*
X33810000Y-135200000D02*
G75*
G02*
X34010000Y-135000000I200000J0D01*
G01*
X34010000Y-139000000D02*
G75*
G02*
X33810000Y-138800000I0J200000D01*
G01*
X37210000Y-135000000D02*
G75*
G02*
X37410000Y-135200000I-1J-200001D01*
G01*
X37410000Y-138800000D02*
G75*
G02*
X37210000Y-139000000I-200001J1D01*
G01*
%TO.C,HE38*%
X148110000Y-81650000D02*
X148110000Y-78050000D01*
X148310000Y-77850000D02*
X151510000Y-77850000D01*
X151510000Y-81850000D02*
X148310000Y-81850000D01*
X151710000Y-78050000D02*
X151710000Y-81650000D01*
X148110000Y-78050000D02*
G75*
G02*
X148310000Y-77850000I200000J0D01*
G01*
X148310000Y-81850000D02*
G75*
G02*
X148110000Y-81650000I0J200000D01*
G01*
X151510000Y-77850000D02*
G75*
G02*
X151710000Y-78050000I-1J-200001D01*
G01*
X151710000Y-81650000D02*
G75*
G02*
X151510000Y-81850000I-200001J1D01*
G01*
%TO.C,HE56*%
X152872500Y-100700000D02*
X152872500Y-97100000D01*
X153072500Y-96900000D02*
X156272500Y-96900000D01*
X156272500Y-100900000D02*
X153072500Y-100900000D01*
X156472500Y-97100000D02*
X156472500Y-100700000D01*
X152872500Y-97100000D02*
G75*
G02*
X153072500Y-96900000I200000J0D01*
G01*
X153072500Y-100900000D02*
G75*
G02*
X152872500Y-100700000I0J200000D01*
G01*
X156272500Y-96900000D02*
G75*
G02*
X156472500Y-97100000I-1J-200001D01*
G01*
X156472500Y-100700000D02*
G75*
G02*
X156272500Y-100900000I-200001J1D01*
G01*
%TO.C,HE91*%
X240978750Y-138800000D02*
X240978750Y-135200000D01*
X241178750Y-135000000D02*
X244378750Y-135000000D01*
X244378750Y-139000000D02*
X241178750Y-139000000D01*
X244578750Y-135200000D02*
X244578750Y-138800000D01*
X240978750Y-135200000D02*
G75*
G02*
X241178750Y-135000000I200000J0D01*
G01*
X241178750Y-139000000D02*
G75*
G02*
X240978750Y-138800000I0J200000D01*
G01*
X244378750Y-135000000D02*
G75*
G02*
X244578750Y-135200000I-1J-200001D01*
G01*
X244578750Y-138800000D02*
G75*
G02*
X244378750Y-139000000I-200001J1D01*
G01*
%TO.C,HE37*%
X124297500Y-81650000D02*
X124297500Y-78050000D01*
X124497500Y-77850000D02*
X127697500Y-77850000D01*
X127697500Y-81850000D02*
X124497500Y-81850000D01*
X127897500Y-78050000D02*
X127897500Y-81650000D01*
X124297500Y-78050000D02*
G75*
G02*
X124497500Y-77850000I200000J0D01*
G01*
X124497500Y-81850000D02*
G75*
G02*
X124297500Y-81650000I0J200000D01*
G01*
X127697500Y-77850000D02*
G75*
G02*
X127897500Y-78050000I-1J-200001D01*
G01*
X127897500Y-81650000D02*
G75*
G02*
X127697500Y-81850000I-200001J1D01*
G01*
%TO.C,HE8*%
X262410000Y-38787500D02*
X262410000Y-35187500D01*
X262610000Y-34987500D02*
X265810000Y-34987500D01*
X265810000Y-38987500D02*
X262610000Y-38987500D01*
X266010000Y-35187500D02*
X266010000Y-38787500D01*
X262410000Y-35187500D02*
G75*
G02*
X262610000Y-34987500I200000J0D01*
G01*
X262610000Y-38987500D02*
G75*
G02*
X262410000Y-38787500I0J200000D01*
G01*
X265810000Y-34987500D02*
G75*
G02*
X266010000Y-35187500I-1J-200001D01*
G01*
X266010000Y-38787500D02*
G75*
G02*
X265810000Y-38987500I-200001J1D01*
G01*
%TO.C,HE71*%
X71910000Y-119750000D02*
X71910000Y-116150000D01*
X72110000Y-115950000D02*
X75310000Y-115950000D01*
X75310000Y-119950000D02*
X72110000Y-119950000D01*
X75510000Y-116150000D02*
X75510000Y-119750000D01*
X71910000Y-116150000D02*
G75*
G02*
X72110000Y-115950000I200000J0D01*
G01*
X72110000Y-119950000D02*
G75*
G02*
X71910000Y-119750000I0J200000D01*
G01*
X75310000Y-115950000D02*
G75*
G02*
X75510000Y-116150000I-1J-200001D01*
G01*
X75510000Y-119750000D02*
G75*
G02*
X75310000Y-119950000I-200001J1D01*
G01*
%TO.C,HE30*%
X329085000Y-62600000D02*
X329085000Y-59000000D01*
X329285000Y-58800000D02*
X332485000Y-58800000D01*
X332485000Y-62800000D02*
X329285000Y-62800000D01*
X332685000Y-59000000D02*
X332685000Y-62600000D01*
X329085000Y-59000000D02*
G75*
G02*
X329285000Y-58800000I200000J0D01*
G01*
X329285000Y-62800000D02*
G75*
G02*
X329085000Y-62600000I0J200000D01*
G01*
X332485000Y-58800000D02*
G75*
G02*
X332685000Y-59000000I-1J-200001D01*
G01*
X332685000Y-62600000D02*
G75*
G02*
X332485000Y-62800000I-200001J1D01*
G01*
%TO.C,HE27*%
X271935000Y-62600000D02*
X271935000Y-59000000D01*
X272135000Y-58800000D02*
X275335000Y-58800000D01*
X275335000Y-62800000D02*
X272135000Y-62800000D01*
X275535000Y-59000000D02*
X275535000Y-62600000D01*
X271935000Y-59000000D02*
G75*
G02*
X272135000Y-58800000I200000J0D01*
G01*
X272135000Y-62800000D02*
G75*
G02*
X271935000Y-62600000I0J200000D01*
G01*
X275335000Y-58800000D02*
G75*
G02*
X275535000Y-59000000I-1J-200001D01*
G01*
X275535000Y-62600000D02*
G75*
G02*
X275335000Y-62800000I-200001J1D01*
G01*
%TO.C,HE44*%
X262410000Y-81650000D02*
X262410000Y-78050000D01*
X262610000Y-77850000D02*
X265810000Y-77850000D01*
X265810000Y-81850000D02*
X262610000Y-81850000D01*
X266010000Y-78050000D02*
X266010000Y-81650000D01*
X262410000Y-78050000D02*
G75*
G02*
X262610000Y-77850000I200000J0D01*
G01*
X262610000Y-81850000D02*
G75*
G02*
X262410000Y-81650000I0J200000D01*
G01*
X265810000Y-77850000D02*
G75*
G02*
X266010000Y-78050000I-1J-200001D01*
G01*
X266010000Y-81650000D02*
G75*
G02*
X265810000Y-81850000I-200001J1D01*
G01*
%TO.C,HE57*%
X171922500Y-100700000D02*
X171922500Y-97100000D01*
X172122500Y-96900000D02*
X175322500Y-96900000D01*
X175322500Y-100900000D02*
X172122500Y-100900000D01*
X175522500Y-97100000D02*
X175522500Y-100700000D01*
X171922500Y-97100000D02*
G75*
G02*
X172122500Y-96900000I200000J0D01*
G01*
X172122500Y-100900000D02*
G75*
G02*
X171922500Y-100700000I0J200000D01*
G01*
X175322500Y-96900000D02*
G75*
G02*
X175522500Y-97100000I-1J-200001D01*
G01*
X175522500Y-100700000D02*
G75*
G02*
X175322500Y-100900000I-200001J1D01*
G01*
%TO.C,HE15*%
X33810000Y-62600000D02*
X33810000Y-59000000D01*
X34010000Y-58800000D02*
X37210000Y-58800000D01*
X37210000Y-62800000D02*
X34010000Y-62800000D01*
X37410000Y-59000000D02*
X37410000Y-62600000D01*
X33810000Y-59000000D02*
G75*
G02*
X34010000Y-58800000I200000J0D01*
G01*
X34010000Y-62800000D02*
G75*
G02*
X33810000Y-62600000I0J200000D01*
G01*
X37210000Y-58800000D02*
G75*
G02*
X37410000Y-59000000I-1J-200001D01*
G01*
X37410000Y-62600000D02*
G75*
G02*
X37210000Y-62800000I-200001J1D01*
G01*
%TO.C,HE1*%
X119535000Y-38787500D02*
X119535000Y-35187500D01*
X119735000Y-34987500D02*
X122935000Y-34987500D01*
X122935000Y-38987500D02*
X119735000Y-38987500D01*
X123135000Y-35187500D02*
X123135000Y-38787500D01*
X119535000Y-35187500D02*
G75*
G02*
X119735000Y-34987500I200000J0D01*
G01*
X119735000Y-38987500D02*
G75*
G02*
X119535000Y-38787500I0J200000D01*
G01*
X122935000Y-34987500D02*
G75*
G02*
X123135000Y-35187500I-1J-200001D01*
G01*
X123135000Y-38787500D02*
G75*
G02*
X122935000Y-38987500I-200001J1D01*
G01*
%TO.C,HE3*%
X162397500Y-38787500D02*
X162397500Y-35187500D01*
X162597500Y-34987500D02*
X165797500Y-34987500D01*
X165797500Y-38987500D02*
X162597500Y-38987500D01*
X165997500Y-35187500D02*
X165997500Y-38787500D01*
X162397500Y-35187500D02*
G75*
G02*
X162597500Y-34987500I200000J0D01*
G01*
X162597500Y-38987500D02*
G75*
G02*
X162397500Y-38787500I0J200000D01*
G01*
X165797500Y-34987500D02*
G75*
G02*
X165997500Y-35187500I-1J-200001D01*
G01*
X165997500Y-38787500D02*
G75*
G02*
X165797500Y-38987500I-200001J1D01*
G01*
%TO.C,HE87*%
X62385000Y-138800000D02*
X62385000Y-135200000D01*
X62585000Y-135000000D02*
X65785000Y-135000000D01*
X65785000Y-139000000D02*
X62585000Y-139000000D01*
X65985000Y-135200000D02*
X65985000Y-138800000D01*
X62385000Y-135200000D02*
G75*
G02*
X62585000Y-135000000I200000J0D01*
G01*
X62585000Y-139000000D02*
G75*
G02*
X62385000Y-138800000I0J200000D01*
G01*
X65785000Y-135000000D02*
G75*
G02*
X65985000Y-135200000I-1J-200001D01*
G01*
X65985000Y-138800000D02*
G75*
G02*
X65785000Y-139000000I-200001J1D01*
G01*
%TO.C,HE22*%
X176685000Y-62600000D02*
X176685000Y-59000000D01*
X176885000Y-58800000D02*
X180085000Y-58800000D01*
X180085000Y-62800000D02*
X176885000Y-62800000D01*
X180285000Y-59000000D02*
X180285000Y-62600000D01*
X176685000Y-59000000D02*
G75*
G02*
X176885000Y-58800000I200000J0D01*
G01*
X176885000Y-62800000D02*
G75*
G02*
X176685000Y-62600000I0J200000D01*
G01*
X180085000Y-58800000D02*
G75*
G02*
X180285000Y-59000000I-1J-200001D01*
G01*
X180285000Y-62600000D02*
G75*
G02*
X180085000Y-62800000I-200001J1D01*
G01*
%TO.C,HE72*%
X90960000Y-129275000D02*
X90960000Y-125675000D01*
X91160000Y-125475000D02*
X94360000Y-125475000D01*
X94360000Y-129475000D02*
X91160000Y-129475000D01*
X94560000Y-125675000D02*
X94560000Y-129275000D01*
X90960000Y-125675000D02*
G75*
G02*
X91160000Y-125475000I200000J0D01*
G01*
X91160000Y-129475000D02*
G75*
G02*
X90960000Y-129275000I0J200000D01*
G01*
X94360000Y-125475000D02*
G75*
G02*
X94560000Y-125675000I-1J-200001D01*
G01*
X94560000Y-129275000D02*
G75*
G02*
X94360000Y-129475000I-200001J1D01*
G01*
%TO.C,HE11*%
X324322500Y-38787500D02*
X324322500Y-35187500D01*
X324522500Y-34987500D02*
X327722500Y-34987500D01*
X327722500Y-38987500D02*
X324522500Y-38987500D01*
X327922500Y-35187500D02*
X327922500Y-38787500D01*
X324322500Y-35187500D02*
G75*
G02*
X324522500Y-34987500I200000J0D01*
G01*
X324522500Y-38987500D02*
G75*
G02*
X324322500Y-38787500I0J200000D01*
G01*
X327722500Y-34987500D02*
G75*
G02*
X327922500Y-35187500I-1J-200001D01*
G01*
X327922500Y-38787500D02*
G75*
G02*
X327722500Y-38987500I-200001J1D01*
G01*
%TO.C,HE81*%
X295747500Y-119750000D02*
X295747500Y-116150000D01*
X295947500Y-115950000D02*
X299147500Y-115950000D01*
X299147500Y-119950000D02*
X295947500Y-119950000D01*
X299347500Y-116150000D02*
X299347500Y-119750000D01*
X295747500Y-116150000D02*
G75*
G02*
X295947500Y-115950000I200000J0D01*
G01*
X295947500Y-119950000D02*
G75*
G02*
X295747500Y-119750000I0J200000D01*
G01*
X299147500Y-115950000D02*
G75*
G02*
X299347500Y-116150000I-1J-200001D01*
G01*
X299347500Y-119750000D02*
G75*
G02*
X299147500Y-119950000I-200001J1D01*
G01*
%TO.C,HE77*%
X219547500Y-119750000D02*
X219547500Y-116150000D01*
X219747500Y-115950000D02*
X222947500Y-115950000D01*
X222947500Y-119950000D02*
X219747500Y-119950000D01*
X223147500Y-116150000D02*
X223147500Y-119750000D01*
X219547500Y-116150000D02*
G75*
G02*
X219747500Y-115950000I200000J0D01*
G01*
X219747500Y-119950000D02*
G75*
G02*
X219547500Y-119750000I0J200000D01*
G01*
X222947500Y-115950000D02*
G75*
G02*
X223147500Y-116150000I-1J-200001D01*
G01*
X223147500Y-119750000D02*
G75*
G02*
X222947500Y-119950000I-200001J1D01*
G01*
%TO.C,HE90*%
X169541250Y-138800000D02*
X169541250Y-135200000D01*
X169741250Y-135000000D02*
X172941250Y-135000000D01*
X172941250Y-139000000D02*
X169741250Y-139000000D01*
X173141250Y-135200000D02*
X173141250Y-138800000D01*
X169541250Y-135200000D02*
G75*
G02*
X169741250Y-135000000I200000J0D01*
G01*
X169741250Y-139000000D02*
G75*
G02*
X169541250Y-138800000I0J200000D01*
G01*
X172941250Y-135000000D02*
G75*
G02*
X173141250Y-135200000I-1J-200001D01*
G01*
X173141250Y-138800000D02*
G75*
G02*
X172941250Y-139000000I-200001J1D01*
G01*
%TO.C,HE85*%
X386235000Y-119750000D02*
X386235000Y-116150000D01*
X386435000Y-115950000D02*
X389635000Y-115950000D01*
X389635000Y-119950000D02*
X386435000Y-119950000D01*
X389835000Y-116150000D02*
X389835000Y-119750000D01*
X386235000Y-116150000D02*
G75*
G02*
X386435000Y-115950000I200000J0D01*
G01*
X386435000Y-119950000D02*
G75*
G02*
X386235000Y-119750000I0J200000D01*
G01*
X389635000Y-115950000D02*
G75*
G02*
X389835000Y-116150000I-1J-200001D01*
G01*
X389835000Y-119750000D02*
G75*
G02*
X389635000Y-119950000I-200001J1D01*
G01*
%TO.C,HE47*%
X319560000Y-81650000D02*
X319560000Y-78050000D01*
X319760000Y-77850000D02*
X322960000Y-77850000D01*
X322960000Y-81850000D02*
X319760000Y-81850000D01*
X323160000Y-78050000D02*
X323160000Y-81650000D01*
X319560000Y-78050000D02*
G75*
G02*
X319760000Y-77850000I200000J0D01*
G01*
X319760000Y-81850000D02*
G75*
G02*
X319560000Y-81650000I0J200000D01*
G01*
X322960000Y-77850000D02*
G75*
G02*
X323160000Y-78050000I-1J-200001D01*
G01*
X323160000Y-81650000D02*
G75*
G02*
X322960000Y-81850000I-200001J1D01*
G01*
%TO.C,HE32*%
X376710000Y-62600000D02*
X376710000Y-59000000D01*
X376910000Y-58800000D02*
X380110000Y-58800000D01*
X380110000Y-62800000D02*
X376910000Y-62800000D01*
X380310000Y-59000000D02*
X380310000Y-62600000D01*
X376710000Y-59000000D02*
G75*
G02*
X376910000Y-58800000I200000J0D01*
G01*
X376910000Y-62800000D02*
G75*
G02*
X376710000Y-62600000I0J200000D01*
G01*
X380110000Y-58800000D02*
G75*
G02*
X380310000Y-59000000I-1J-200001D01*
G01*
X380310000Y-62600000D02*
G75*
G02*
X380110000Y-62800000I-200001J1D01*
G01*
%TO.C,HE97*%
X405285000Y-138800000D02*
X405285000Y-135200000D01*
X405485000Y-135000000D02*
X408685000Y-135000000D01*
X408685000Y-139000000D02*
X405485000Y-139000000D01*
X408885000Y-135200000D02*
X408885000Y-138800000D01*
X405285000Y-135200000D02*
G75*
G02*
X405485000Y-135000000I200000J0D01*
G01*
X405485000Y-139000000D02*
G75*
G02*
X405285000Y-138800000I0J200000D01*
G01*
X408685000Y-135000000D02*
G75*
G02*
X408885000Y-135200000I-1J-200001D01*
G01*
X408885000Y-138800000D02*
G75*
G02*
X408685000Y-139000000I-200001J1D01*
G01*
%TO.C,HE76*%
X200497500Y-119750000D02*
X200497500Y-116150000D01*
X200697500Y-115950000D02*
X203897500Y-115950000D01*
X203897500Y-119950000D02*
X200697500Y-119950000D01*
X204097500Y-116150000D02*
X204097500Y-119750000D01*
X200497500Y-116150000D02*
G75*
G02*
X200697500Y-115950000I200000J0D01*
G01*
X200697500Y-119950000D02*
G75*
G02*
X200497500Y-119750000I0J200000D01*
G01*
X203897500Y-115950000D02*
G75*
G02*
X204097500Y-116150000I-1J-200001D01*
G01*
X204097500Y-119750000D02*
G75*
G02*
X203897500Y-119950000I-200001J1D01*
G01*
%TO.C,HE94*%
X348135000Y-138800000D02*
X348135000Y-135200000D01*
X348335000Y-135000000D02*
X351535000Y-135000000D01*
X351535000Y-139000000D02*
X348335000Y-139000000D01*
X351735000Y-135200000D02*
X351735000Y-138800000D01*
X348135000Y-135200000D02*
G75*
G02*
X348335000Y-135000000I200000J0D01*
G01*
X348335000Y-139000000D02*
G75*
G02*
X348135000Y-138800000I0J200000D01*
G01*
X351535000Y-135000000D02*
G75*
G02*
X351735000Y-135200000I-1J-200001D01*
G01*
X351735000Y-138800000D02*
G75*
G02*
X351535000Y-139000000I-200001J1D01*
G01*
%TO.C,HE65*%
X324322500Y-100700000D02*
X324322500Y-97100000D01*
X324522500Y-96900000D02*
X327722500Y-96900000D01*
X327722500Y-100900000D02*
X324522500Y-100900000D01*
X327922500Y-97100000D02*
X327922500Y-100700000D01*
X324322500Y-97100000D02*
G75*
G02*
X324522500Y-96900000I200000J0D01*
G01*
X324522500Y-100900000D02*
G75*
G02*
X324322500Y-100700000I0J200000D01*
G01*
X327722500Y-96900000D02*
G75*
G02*
X327922500Y-97100000I-1J-200001D01*
G01*
X327922500Y-100700000D02*
G75*
G02*
X327722500Y-100900000I-200001J1D01*
G01*
%TO.C,HE89*%
X145728750Y-138800000D02*
X145728750Y-135200000D01*
X145928750Y-135000000D02*
X149128750Y-135000000D01*
X149128750Y-139000000D02*
X145928750Y-139000000D01*
X149328750Y-135200000D02*
X149328750Y-138800000D01*
X145728750Y-135200000D02*
G75*
G02*
X145928750Y-135000000I200000J0D01*
G01*
X145928750Y-139000000D02*
G75*
G02*
X145728750Y-138800000I0J200000D01*
G01*
X149128750Y-135000000D02*
G75*
G02*
X149328750Y-135200000I-1J-200001D01*
G01*
X149328750Y-138800000D02*
G75*
G02*
X149128750Y-139000000I-200001J1D01*
G01*
%TO.C,HE34*%
X52860000Y-81650000D02*
X52860000Y-78050000D01*
X53060000Y-77850000D02*
X56260000Y-77850000D01*
X56260000Y-81850000D02*
X53060000Y-81850000D01*
X56460000Y-78050000D02*
X56460000Y-81650000D01*
X52860000Y-78050000D02*
G75*
G02*
X53060000Y-77850000I200000J0D01*
G01*
X53060000Y-81850000D02*
G75*
G02*
X52860000Y-81650000I0J200000D01*
G01*
X56260000Y-77850000D02*
G75*
G02*
X56460000Y-78050000I-1J-200001D01*
G01*
X56460000Y-81650000D02*
G75*
G02*
X56260000Y-81850000I-200001J1D01*
G01*
%TO.C,HE73*%
X131441250Y-119750000D02*
X131441250Y-116150000D01*
X131641250Y-115950000D02*
X134841250Y-115950000D01*
X134841250Y-119950000D02*
X131641250Y-119950000D01*
X135041250Y-116150000D02*
X135041250Y-119750000D01*
X131441250Y-116150000D02*
G75*
G02*
X131641250Y-115950000I200000J0D01*
G01*
X131641250Y-119950000D02*
G75*
G02*
X131441250Y-119750000I0J200000D01*
G01*
X134841250Y-115950000D02*
G75*
G02*
X135041250Y-116150000I-1J-200001D01*
G01*
X135041250Y-119750000D02*
G75*
G02*
X134841250Y-119950000I-200001J1D01*
G01*
%TO.C,HE51*%
X410047500Y-81650000D02*
X410047500Y-78050000D01*
X410247500Y-77850000D02*
X413447500Y-77850000D01*
X413447500Y-81850000D02*
X410247500Y-81850000D01*
X413647500Y-78050000D02*
X413647500Y-81650000D01*
X410047500Y-78050000D02*
G75*
G02*
X410247500Y-77850000I200000J0D01*
G01*
X410247500Y-81850000D02*
G75*
G02*
X410047500Y-81650000I0J200000D01*
G01*
X413447500Y-77850000D02*
G75*
G02*
X413647500Y-78050000I-1J-200001D01*
G01*
X413647500Y-81650000D02*
G75*
G02*
X413447500Y-81850000I-200001J1D01*
G01*
%TO.C,HE52*%
X33810000Y-100700000D02*
X33810000Y-97100000D01*
X34010000Y-96900000D02*
X37210000Y-96900000D01*
X37210000Y-100900000D02*
X34010000Y-100900000D01*
X37410000Y-97100000D02*
X37410000Y-100700000D01*
X33810000Y-97100000D02*
G75*
G02*
X34010000Y-96900000I200000J0D01*
G01*
X34010000Y-100900000D02*
G75*
G02*
X33810000Y-100700000I0J200000D01*
G01*
X37210000Y-96900000D02*
G75*
G02*
X37410000Y-97100000I-1J-200001D01*
G01*
X37410000Y-100700000D02*
G75*
G02*
X37210000Y-100900000I-200001J1D01*
G01*
%TO.C,HE70*%
X52860000Y-119750000D02*
X52860000Y-116150000D01*
X53060000Y-115950000D02*
X56260000Y-115950000D01*
X56260000Y-119950000D02*
X53060000Y-119950000D01*
X56460000Y-116150000D02*
X56460000Y-119750000D01*
X52860000Y-116150000D02*
G75*
G02*
X53060000Y-115950000I200000J0D01*
G01*
X53060000Y-119950000D02*
G75*
G02*
X52860000Y-119750000I0J200000D01*
G01*
X56260000Y-115950000D02*
G75*
G02*
X56460000Y-116150000I-1J-200001D01*
G01*
X56460000Y-119750000D02*
G75*
G02*
X56260000Y-119950000I-200001J1D01*
G01*
%TO.C,HE62*%
X267172500Y-100700000D02*
X267172500Y-97100000D01*
X267372500Y-96900000D02*
X270572500Y-96900000D01*
X270572500Y-100900000D02*
X267372500Y-100900000D01*
X270772500Y-97100000D02*
X270772500Y-100700000D01*
X267172500Y-97100000D02*
G75*
G02*
X267372500Y-96900000I200000J0D01*
G01*
X267372500Y-100900000D02*
G75*
G02*
X267172500Y-100700000I0J200000D01*
G01*
X270572500Y-96900000D02*
G75*
G02*
X270772500Y-97100000I-1J-200001D01*
G01*
X270772500Y-100700000D02*
G75*
G02*
X270572500Y-100900000I-200001J1D01*
G01*
%TO.C,HE13*%
X362422500Y-38787500D02*
X362422500Y-35187500D01*
X362622500Y-34987500D02*
X365822500Y-34987500D01*
X365822500Y-38987500D02*
X362622500Y-38987500D01*
X366022500Y-35187500D02*
X366022500Y-38787500D01*
X362422500Y-35187500D02*
G75*
G02*
X362622500Y-34987500I200000J0D01*
G01*
X362622500Y-38987500D02*
G75*
G02*
X362422500Y-38787500I0J200000D01*
G01*
X365822500Y-34987500D02*
G75*
G02*
X366022500Y-35187500I-1J-200001D01*
G01*
X366022500Y-38787500D02*
G75*
G02*
X365822500Y-38987500I-200001J1D01*
G01*
%TO.C,HE55*%
X126678750Y-100700000D02*
X126678750Y-97100000D01*
X126878750Y-96900000D02*
X130078750Y-96900000D01*
X130078750Y-100900000D02*
X126878750Y-100900000D01*
X130278750Y-97100000D02*
X130278750Y-100700000D01*
X126678750Y-97100000D02*
G75*
G02*
X126878750Y-96900000I200000J0D01*
G01*
X126878750Y-100900000D02*
G75*
G02*
X126678750Y-100700000I0J200000D01*
G01*
X130078750Y-96900000D02*
G75*
G02*
X130278750Y-97100000I-1J-200001D01*
G01*
X130278750Y-100700000D02*
G75*
G02*
X130078750Y-100900000I-200001J1D01*
G01*
%TO.C,HE53*%
X52860000Y-100700000D02*
X52860000Y-97100000D01*
X53060000Y-96900000D02*
X56260000Y-96900000D01*
X56260000Y-100900000D02*
X53060000Y-100900000D01*
X56460000Y-97100000D02*
X56460000Y-100700000D01*
X52860000Y-97100000D02*
G75*
G02*
X53060000Y-96900000I200000J0D01*
G01*
X53060000Y-100900000D02*
G75*
G02*
X52860000Y-100700000I0J200000D01*
G01*
X56260000Y-96900000D02*
G75*
G02*
X56460000Y-97100000I-1J-200001D01*
G01*
X56460000Y-100700000D02*
G75*
G02*
X56260000Y-100900000I-200001J1D01*
G01*
%TO.C,HE18*%
X90960000Y-62600000D02*
X90960000Y-59000000D01*
X91160000Y-58800000D02*
X94360000Y-58800000D01*
X94360000Y-62800000D02*
X91160000Y-62800000D01*
X94560000Y-59000000D02*
X94560000Y-62600000D01*
X90960000Y-59000000D02*
G75*
G02*
X91160000Y-58800000I200000J0D01*
G01*
X91160000Y-62800000D02*
G75*
G02*
X90960000Y-62600000I0J200000D01*
G01*
X94360000Y-58800000D02*
G75*
G02*
X94560000Y-59000000I-1J-200001D01*
G01*
X94560000Y-62600000D02*
G75*
G02*
X94360000Y-62800000I-200001J1D01*
G01*
%TO.C,HE83*%
X333847500Y-119750000D02*
X333847500Y-116150000D01*
X334047500Y-115950000D02*
X337247500Y-115950000D01*
X337247500Y-119950000D02*
X334047500Y-119950000D01*
X337447500Y-116150000D02*
X337447500Y-119750000D01*
X333847500Y-116150000D02*
G75*
G02*
X334047500Y-115950000I200000J0D01*
G01*
X334047500Y-119950000D02*
G75*
G02*
X333847500Y-119750000I0J200000D01*
G01*
X337247500Y-115950000D02*
G75*
G02*
X337447500Y-116150000I-1J-200001D01*
G01*
X337447500Y-119750000D02*
G75*
G02*
X337247500Y-119950000I-200001J1D01*
G01*
%TO.C,HE84*%
X360041250Y-119750000D02*
X360041250Y-116150000D01*
X360241250Y-115950000D02*
X363441250Y-115950000D01*
X363441250Y-119950000D02*
X360241250Y-119950000D01*
X363641250Y-116150000D02*
X363641250Y-119750000D01*
X360041250Y-116150000D02*
G75*
G02*
X360241250Y-115950000I200000J0D01*
G01*
X360241250Y-119950000D02*
G75*
G02*
X360041250Y-119750000I0J200000D01*
G01*
X363441250Y-115950000D02*
G75*
G02*
X363641250Y-116150000I-1J-200001D01*
G01*
X363641250Y-119750000D02*
G75*
G02*
X363441250Y-119950000I-200001J1D01*
G01*
%TO.C,HE45*%
X281460000Y-81650000D02*
X281460000Y-78050000D01*
X281660000Y-77850000D02*
X284860000Y-77850000D01*
X284860000Y-81850000D02*
X281660000Y-81850000D01*
X285060000Y-78050000D02*
X285060000Y-81650000D01*
X281460000Y-78050000D02*
G75*
G02*
X281660000Y-77850000I200000J0D01*
G01*
X281660000Y-81850000D02*
G75*
G02*
X281460000Y-81650000I0J200000D01*
G01*
X284860000Y-77850000D02*
G75*
G02*
X285060000Y-78050000I-1J-200001D01*
G01*
X285060000Y-81650000D02*
G75*
G02*
X284860000Y-81850000I-200001J1D01*
G01*
%TO.C,HE20*%
X138585000Y-62600000D02*
X138585000Y-59000000D01*
X138785000Y-58800000D02*
X141985000Y-58800000D01*
X141985000Y-62800000D02*
X138785000Y-62800000D01*
X142185000Y-59000000D02*
X142185000Y-62600000D01*
X138585000Y-59000000D02*
G75*
G02*
X138785000Y-58800000I200000J0D01*
G01*
X138785000Y-62800000D02*
G75*
G02*
X138585000Y-62600000I0J200000D01*
G01*
X141985000Y-58800000D02*
G75*
G02*
X142185000Y-59000000I-1J-200001D01*
G01*
X142185000Y-62600000D02*
G75*
G02*
X141985000Y-62800000I-200001J1D01*
G01*
%TO.C,HE50*%
X381472500Y-81650000D02*
X381472500Y-78050000D01*
X381672500Y-77850000D02*
X384872500Y-77850000D01*
X384872500Y-81850000D02*
X381672500Y-81850000D01*
X385072500Y-78050000D02*
X385072500Y-81650000D01*
X381472500Y-78050000D02*
G75*
G02*
X381672500Y-77850000I200000J0D01*
G01*
X381672500Y-81850000D02*
G75*
G02*
X381472500Y-81650000I0J200000D01*
G01*
X384872500Y-77850000D02*
G75*
G02*
X385072500Y-78050000I-1J-200001D01*
G01*
X385072500Y-81650000D02*
G75*
G02*
X384872500Y-81850000I-200001J1D01*
G01*
%TO.C,HE33*%
X33810000Y-81650000D02*
X33810000Y-78050000D01*
X34010000Y-77850000D02*
X37210000Y-77850000D01*
X37210000Y-81850000D02*
X34010000Y-81850000D01*
X37410000Y-78050000D02*
X37410000Y-81650000D01*
X33810000Y-78050000D02*
G75*
G02*
X34010000Y-77850000I200000J0D01*
G01*
X34010000Y-81850000D02*
G75*
G02*
X33810000Y-81650000I0J200000D01*
G01*
X37210000Y-77850000D02*
G75*
G02*
X37410000Y-78050000I-1J-200001D01*
G01*
X37410000Y-81650000D02*
G75*
G02*
X37210000Y-81850000I-200001J1D01*
G01*
%TD*%
%LPC*%
D12*
%TO.C,HE16*%
X49580000Y-60800000D03*
X59740000Y-60800000D03*
%TD*%
D13*
%TO.C,SB1*%
X366603750Y-53815000D03*
D14*
X366603750Y-69055000D03*
D13*
X390416250Y-53815000D03*
D14*
X390416250Y-69055000D03*
%TD*%
D15*
%TO.C,H3*%
X211882679Y-46475571D03*
X212585623Y-44778515D03*
X212585623Y-48172627D03*
X214282679Y-44075571D03*
D16*
X214282679Y-46475571D03*
D15*
X214282679Y-48875571D03*
X215979735Y-44778515D03*
X215979735Y-48172627D03*
X216682679Y-46475571D03*
%TD*%
D13*
%TO.C,SB2*%
X121335000Y-110965000D03*
D14*
X121335000Y-126205000D03*
D13*
X145147500Y-110965000D03*
D14*
X145147500Y-126205000D03*
%TD*%
D15*
%TO.C,H2*%
X61785000Y-108425000D03*
X62487944Y-106727944D03*
X62487944Y-110122056D03*
X64185000Y-106025000D03*
D16*
X64185000Y-108425000D03*
D15*
X64185000Y-110825000D03*
X65882056Y-106727944D03*
X65882056Y-110122056D03*
X66585000Y-108425000D03*
%TD*%
%TO.C,H5*%
X373695424Y-46477450D03*
X374398368Y-44780394D03*
X374398368Y-48174506D03*
X376095424Y-44077450D03*
D16*
X376095424Y-46477450D03*
D15*
X376095424Y-48877450D03*
X377792480Y-44780394D03*
X377792480Y-48174506D03*
X378495424Y-46477450D03*
%TD*%
D14*
%TO.C,SB6*%
X101015001Y-101281251D03*
X101015001Y-77468749D03*
D13*
X85775000Y-101281250D03*
X85775000Y-77468750D03*
%TD*%
D15*
%TO.C,H6*%
X372550000Y-116022814D03*
X373252944Y-114325758D03*
X373252944Y-117719870D03*
X374950000Y-113622814D03*
D16*
X374950000Y-116022814D03*
D15*
X374950000Y-118422814D03*
X376647056Y-114325758D03*
X376647056Y-117719870D03*
X377350000Y-116022814D03*
%TD*%
D13*
%TO.C,SB3*%
X292785000Y-143984999D03*
D14*
X292785000Y-128745000D03*
D13*
X192772500Y-143984999D03*
D14*
X192772500Y-128745000D03*
%TD*%
D17*
%TO.C,J3*%
X62279999Y-29250000D03*
D18*
X63279999Y-29250000D03*
X64280000Y-29250000D03*
X65279999Y-29250000D03*
X66279999Y-29250000D03*
%TD*%
D15*
%TO.C,H1*%
X61785000Y-70375000D03*
X62487944Y-68677944D03*
X62487944Y-72072056D03*
X64185000Y-67975000D03*
D16*
X64185000Y-70375000D03*
D15*
X64185000Y-72775000D03*
X65882056Y-68677944D03*
X65882056Y-72072056D03*
X66585000Y-70375000D03*
%TD*%
D13*
%TO.C,SB5*%
X364222500Y-91915000D03*
D14*
X364222500Y-107155000D03*
D13*
X388035000Y-91915000D03*
D14*
X388035000Y-107155000D03*
%TD*%
%TO.C,SB4*%
X76091251Y-128745000D03*
D13*
X76091250Y-143985000D03*
X52278750Y-143985000D03*
D14*
X52278749Y-128745000D03*
%TD*%
D15*
%TO.C,H4*%
X223860000Y-130000000D03*
X224562944Y-128302944D03*
X224562944Y-131697056D03*
X226260000Y-127600000D03*
D16*
X226260000Y-130000000D03*
D15*
X226260000Y-132400000D03*
X227957056Y-128302944D03*
X227957056Y-131697056D03*
X228660000Y-130000000D03*
%TD*%
D14*
%TO.C,SB7*%
X101015001Y-139381251D03*
X101015001Y-115568749D03*
D13*
X85775000Y-139381250D03*
X85775000Y-115568750D03*
%TD*%
D19*
%TO.C,ENC1*%
X414347719Y-29487475D03*
D20*
X409347719Y-29487475D03*
X411847719Y-29487475D03*
D21*
X417447719Y-36987475D03*
X406247719Y-36987475D03*
D20*
X409347719Y-43987475D03*
X414347719Y-43987475D03*
%TD*%
D12*
%TO.C,HE39*%
X174040000Y-79850000D03*
X163880000Y-79850000D03*
%TD*%
%TO.C,HE5*%
X207377500Y-36987500D03*
X197217500Y-36987500D03*
%TD*%
%TO.C,HE67*%
X381208750Y-98900000D03*
X371048750Y-98900000D03*
%TD*%
%TO.C,HE49*%
X364540000Y-79850000D03*
X354380000Y-79850000D03*
%TD*%
%TO.C,HE28*%
X297865000Y-60800000D03*
X287705000Y-60800000D03*
%TD*%
%TO.C,HE95*%
X374065000Y-137000000D03*
X363905000Y-137000000D03*
%TD*%
%TO.C,HE9*%
X288340000Y-36987500D03*
X278180000Y-36987500D03*
%TD*%
%TO.C,HE64*%
X312152500Y-98900000D03*
X301992500Y-98900000D03*
%TD*%
%TO.C,HE59*%
X216902500Y-98900000D03*
X206742500Y-98900000D03*
%TD*%
%TO.C,HE31*%
X355015000Y-60800000D03*
X344855000Y-60800000D03*
%TD*%
%TO.C,HE23*%
X202615000Y-60800000D03*
X192455000Y-60800000D03*
%TD*%
%TO.C,HE78*%
X245477500Y-117950000D03*
X235317500Y-117950000D03*
%TD*%
%TO.C,HE35*%
X78790000Y-79850000D03*
X68630000Y-79850000D03*
%TD*%
%TO.C,HE7*%
X250240000Y-36987500D03*
X240080000Y-36987500D03*
%TD*%
%TO.C,HE80*%
X283577500Y-117950000D03*
X273417500Y-117950000D03*
%TD*%
%TO.C,HE63*%
X293102500Y-98900000D03*
X282942500Y-98900000D03*
%TD*%
%TO.C,HE17*%
X78790000Y-60800000D03*
X68630000Y-60800000D03*
%TD*%
%TO.C,HE10*%
X312152500Y-36987500D03*
X301992500Y-36987500D03*
%TD*%
%TO.C,HE25*%
X240715000Y-60800000D03*
X230555000Y-60800000D03*
%TD*%
%TO.C,HE92*%
X316915000Y-137000000D03*
X306755000Y-137000000D03*
%TD*%
%TO.C,HE14*%
X393115000Y-36987500D03*
X382955000Y-36987500D03*
%TD*%
%TO.C,HE79*%
X264527500Y-117950000D03*
X254367500Y-117950000D03*
%TD*%
%TO.C,HE36*%
X97840000Y-89375000D03*
X87680000Y-89375000D03*
%TD*%
%TO.C,HE40*%
X193090000Y-79850000D03*
X182930000Y-79850000D03*
%TD*%
%TO.C,HE12*%
X350252500Y-36987500D03*
X340092500Y-36987500D03*
%TD*%
%TO.C,HE82*%
X321677500Y-117950000D03*
X311517500Y-117950000D03*
%TD*%
%TO.C,HE88*%
X128796250Y-137000000D03*
X118636250Y-137000000D03*
%TD*%
%TO.C,HE29*%
X316915000Y-60800000D03*
X306755000Y-60800000D03*
%TD*%
%TO.C,HE42*%
X231190000Y-79850000D03*
X221030000Y-79850000D03*
%TD*%
%TO.C,HE68*%
X416927500Y-98900000D03*
X406767500Y-98900000D03*
%TD*%
%TO.C,HE61*%
X255002500Y-98900000D03*
X244842500Y-98900000D03*
%TD*%
%TO.C,HE75*%
X188327500Y-117950000D03*
X178167500Y-117950000D03*
%TD*%
%TO.C,HE43*%
X250240000Y-79850000D03*
X240080000Y-79850000D03*
%TD*%
%TO.C,HE74*%
X169277500Y-117950000D03*
X159117500Y-117950000D03*
%TD*%
%TO.C,HE4*%
X188327500Y-36987500D03*
X178167500Y-36987500D03*
%TD*%
%TO.C,HE69*%
X40690000Y-117950000D03*
X30530000Y-117950000D03*
%TD*%
%TO.C,HE41*%
X212140000Y-79850000D03*
X201980000Y-79850000D03*
%TD*%
%TO.C,HE48*%
X345490000Y-79850000D03*
X335330000Y-79850000D03*
%TD*%
%TO.C,HE24*%
X221665000Y-60800000D03*
X211505000Y-60800000D03*
%TD*%
%TO.C,HE46*%
X307390000Y-79850000D03*
X297230000Y-79850000D03*
%TD*%
%TO.C,HE58*%
X197852500Y-98900000D03*
X187692500Y-98900000D03*
%TD*%
%TO.C,HE6*%
X231190000Y-36987500D03*
X221030000Y-36987500D03*
%TD*%
%TO.C,HE93*%
X335965000Y-137000000D03*
X325805000Y-137000000D03*
%TD*%
%TO.C,HE98*%
X416927500Y-60800000D03*
X406767500Y-60800000D03*
%TD*%
%TO.C,HE66*%
X350252500Y-98900000D03*
X340092500Y-98900000D03*
%TD*%
%TO.C,HE2*%
X150227500Y-36987500D03*
X140067500Y-36987500D03*
%TD*%
%TO.C,HE54*%
X78790000Y-98900000D03*
X68630000Y-98900000D03*
%TD*%
%TO.C,HE60*%
X235952500Y-98900000D03*
X225792500Y-98900000D03*
%TD*%
%TO.C,HE19*%
X126415000Y-60800000D03*
X116255000Y-60800000D03*
%TD*%
%TO.C,HE96*%
X393115000Y-137000000D03*
X382955000Y-137000000D03*
%TD*%
%TO.C,HE21*%
X164515000Y-60800000D03*
X154355000Y-60800000D03*
%TD*%
%TO.C,HE26*%
X259760000Y-60800000D03*
X249600000Y-60800000D03*
%TD*%
%TO.C,HE86*%
X40690000Y-137000000D03*
X30530000Y-137000000D03*
%TD*%
%TO.C,HE38*%
X154990000Y-79850000D03*
X144830000Y-79850000D03*
%TD*%
%TO.C,HE56*%
X159752500Y-98900000D03*
X149592500Y-98900000D03*
%TD*%
%TO.C,HE91*%
X247858750Y-137000000D03*
X237698750Y-137000000D03*
%TD*%
%TO.C,HE37*%
X131177500Y-79850000D03*
X121017500Y-79850000D03*
%TD*%
%TO.C,HE8*%
X269290000Y-36987500D03*
X259130000Y-36987500D03*
%TD*%
%TO.C,HE71*%
X78790000Y-117950000D03*
X68630000Y-117950000D03*
%TD*%
%TO.C,HE30*%
X335965000Y-60800000D03*
X325805000Y-60800000D03*
%TD*%
%TO.C,HE27*%
X278815000Y-60800000D03*
X268655000Y-60800000D03*
%TD*%
%TO.C,HE44*%
X269290000Y-79850000D03*
X259130000Y-79850000D03*
%TD*%
%TO.C,HE57*%
X178802500Y-98900000D03*
X168642500Y-98900000D03*
%TD*%
%TO.C,HE15*%
X40690000Y-60800000D03*
X30530000Y-60800000D03*
%TD*%
%TO.C,HE1*%
X126415000Y-36987500D03*
X116255000Y-36987500D03*
%TD*%
%TO.C,HE3*%
X169277500Y-36987500D03*
X159117500Y-36987500D03*
%TD*%
%TO.C,HE87*%
X69265000Y-137000000D03*
X59105000Y-137000000D03*
%TD*%
%TO.C,HE22*%
X183565000Y-60800000D03*
X173405000Y-60800000D03*
%TD*%
%TO.C,HE72*%
X97840000Y-127475000D03*
X87680000Y-127475000D03*
%TD*%
%TO.C,HE11*%
X331202500Y-36987500D03*
X321042500Y-36987500D03*
%TD*%
%TO.C,HE81*%
X302627500Y-117950000D03*
X292467500Y-117950000D03*
%TD*%
%TO.C,HE77*%
X226427500Y-117950000D03*
X216267500Y-117950000D03*
%TD*%
%TO.C,HE90*%
X176421250Y-137000000D03*
X166261250Y-137000000D03*
%TD*%
%TO.C,HE85*%
X393115000Y-117950000D03*
X382955000Y-117950000D03*
%TD*%
%TO.C,HE47*%
X326440000Y-79850000D03*
X316280000Y-79850000D03*
%TD*%
%TO.C,HE32*%
X383590000Y-60800000D03*
X373430000Y-60800000D03*
%TD*%
%TO.C,HE97*%
X412165000Y-137000000D03*
X402005000Y-137000000D03*
%TD*%
%TO.C,HE76*%
X207377500Y-117950000D03*
X197217500Y-117950000D03*
%TD*%
%TO.C,HE94*%
X355015000Y-137000000D03*
X344855000Y-137000000D03*
%TD*%
%TO.C,HE65*%
X331202500Y-98900000D03*
X321042500Y-98900000D03*
%TD*%
%TO.C,HE89*%
X152608750Y-137000000D03*
X142448750Y-137000000D03*
%TD*%
%TO.C,HE34*%
X59740000Y-79850000D03*
X49580000Y-79850000D03*
%TD*%
%TO.C,HE73*%
X138321250Y-117950000D03*
X128161250Y-117950000D03*
%TD*%
%TO.C,HE51*%
X416927500Y-79850000D03*
X406767500Y-79850000D03*
%TD*%
%TO.C,HE52*%
X40690000Y-98900000D03*
X30530000Y-98900000D03*
%TD*%
%TO.C,HE70*%
X59740000Y-117950000D03*
X49580000Y-117950000D03*
%TD*%
%TO.C,HE62*%
X274052500Y-98900000D03*
X263892500Y-98900000D03*
%TD*%
%TO.C,HE13*%
X369302500Y-36987500D03*
X359142500Y-36987500D03*
%TD*%
%TO.C,HE55*%
X133558750Y-98900000D03*
X123398750Y-98900000D03*
%TD*%
%TO.C,HE53*%
X59740000Y-98900000D03*
X49580000Y-98900000D03*
%TD*%
%TO.C,HE18*%
X97840000Y-60800000D03*
X87680000Y-60800000D03*
%TD*%
%TO.C,HE83*%
X340727500Y-117950000D03*
X330567500Y-117950000D03*
%TD*%
D22*
%TO.C,J1*%
X100422149Y-30717351D03*
X106202149Y-30717351D03*
D23*
X98992149Y-27067351D03*
D24*
X98992149Y-31247351D03*
D23*
X107632149Y-27067351D03*
D24*
X107632149Y-31247351D03*
%TD*%
D12*
%TO.C,HE84*%
X366921250Y-117950000D03*
X356761250Y-117950000D03*
%TD*%
%TO.C,HE45*%
X288340000Y-79850000D03*
X278180000Y-79850000D03*
%TD*%
%TO.C,HE20*%
X145465000Y-60800000D03*
X135305000Y-60800000D03*
%TD*%
%TO.C,HE50*%
X388352500Y-79850000D03*
X378192500Y-79850000D03*
%TD*%
%TO.C,HE33*%
X40690000Y-79850000D03*
X30530000Y-79850000D03*
%TD*%
%LPD*%
M02*
